<svg width="213" height="97" viewBox="0 0 213 97" fill="none" xmlns="http://www.w3.org/2000/svg">
<g filter="url(#filter0_d_562_86014)">
<path d="M168.908 27.4434L166.88 25.3892L120.921 70.7662L122.95 72.8204L168.908 27.4434Z" fill="white"/>
<g opacity="0.25">
<path opacity="0.25" d="M164.802 27.4336L162.844 29.3642C162.844 29.3642 163.35 28.9138 163.203 30.6237C163.056 32.3429 161.98 34.2736 161.98 34.2736L166.834 29.4838L164.802 27.4336Z" fill="#414147"/>
</g>
<path d="M123.967 72.9407L120.738 69.6697L119.475 70.9163L122.705 74.1874L123.967 72.9407Z" fill="white"/>
<path d="M176.57 34.1448C185.634 34.1448 192.981 26.7976 192.981 17.7344C192.981 8.67118 185.634 1.32397 176.57 1.32397C167.507 1.32397 160.16 8.67118 160.16 17.7344C160.16 26.7976 167.507 34.1448 176.57 34.1448Z" fill="#455BDD"/>
<path d="M165.483 28.6285C159.479 22.5424 159.544 12.7146 165.621 6.71121C171.707 0.70785 181.535 0.772228 187.538 6.84914C193.541 12.9352 193.477 22.7631 187.4 28.7665C181.323 34.7698 171.486 34.7055 165.483 28.6285ZM186.894 7.48347C181.24 1.75591 171.983 1.70076 166.264 7.35477C160.546 13.0088 160.481 22.2666 166.135 27.985C171.789 33.7126 181.047 33.7677 186.766 28.1137C192.493 22.4689 192.548 13.211 186.894 7.48347Z" fill="#F0F2F2"/>
<path opacity="0.35" d="M173.996 1.54443C170.723 2.05927 167.579 3.55782 165.042 6.05845C158.588 12.4296 158.523 22.8182 164.895 29.2721C169.252 33.685 175.504 35.1099 181.084 33.5195L173.996 1.54443Z" fill="url(#paint0_linear_562_86014)"/>
<path d="M153.66 44.7729L152.281 46.2531L178.602 70.763L179.981 69.2737L153.66 44.7729Z" fill="url(#paint1_linear_562_86014)"/>
<path d="M153.66 44.1477L151.656 46.299L152.676 47.2551L154.69 45.1038L153.66 44.1477Z" fill="url(#paint2_linear_562_86014)"/>
<path d="M179.613 68.6486L177.949 70.4414C177.894 70.4966 177.903 70.5885 177.958 70.6436L180.431 72.9512L182.288 70.9562L179.815 68.6486C179.751 68.5843 179.668 68.5935 179.613 68.6486Z" fill="url(#paint3_linear_562_86014)"/>
<mask id="mask0_562_86014" style="mask-type:alpha" maskUnits="userSpaceOnUse" x="177" y="68" width="3" height="3">
<path d="M177.279 69.5216L178.658 68.0415L179.467 68.8046L178.088 70.2847L177.279 69.5216Z" fill="url(#paint4_linear_562_86014)"/>
</mask>
<g mask="url(#mask0_562_86014)">
<path d="M177.279 69.5216L178.658 68.0415L179.467 68.8046L178.088 70.2847L177.279 69.5216Z" fill="url(#paint5_linear_562_86014)"/>
<path d="M180.634 69.4026L178.777 71.3976L180.432 72.9421L182.289 70.9471L180.634 69.4026Z" fill="url(#paint6_linear_562_86014)"/>
</g>
<path d="M189.064 62.535C190.333 61.1744 191.868 60.5768 193.293 60.9078C194.709 61.2388 195.839 62.4431 196.382 64.2175L203.498 87.4219C204.04 89.1962 203.783 90.8327 202.79 91.8991C201.797 92.9656 200.188 93.3333 198.377 92.9196L174.722 87.477C172.911 87.0633 171.624 86.0245 171.201 84.627C170.778 83.2388 171.256 81.6575 172.525 80.2969L189.064 62.535Z" fill="url(#paint7_linear_562_86014)"/>
<path d="M202.643 91.7612C201.705 92.7725 200.16 93.1218 198.423 92.7265L174.768 87.284C173.03 86.8795 171.798 85.8958 171.394 84.5719C170.989 83.248 171.458 81.7403 172.672 80.4348L189.211 62.6729C190.425 61.3675 191.895 60.7975 193.247 61.1009C194.598 61.4134 195.665 62.5626 196.189 64.2726L203.305 87.477C203.819 89.187 203.58 90.7499 202.643 91.7612ZM202.79 91.8991C203.783 90.8327 204.04 89.2054 203.498 87.4219L196.382 64.2175C195.839 62.4431 194.709 61.2296 193.293 60.9078C191.877 60.5768 190.333 61.1744 189.064 62.535L172.525 80.2969C171.256 81.6575 170.778 83.2388 171.201 84.627C171.633 86.0153 172.911 87.0541 174.722 87.477L198.377 92.9196C200.188 93.3333 201.797 92.9656 202.79 91.8991Z" fill="#8C7100"/>
<path d="M200.933 90.1709C200.574 90.557 199.848 90.6582 198.938 90.4467L187.115 87.7254L175.292 85.0041C174.391 84.7927 173.775 84.3882 173.628 83.8825C173.472 83.3769 173.748 82.6966 174.382 82.0162L182.647 73.1353L190.912 64.2544C191.546 63.574 192.199 63.2523 192.714 63.3718C193.229 63.4913 193.679 64.0705 193.946 64.9531L197.504 76.5553L201.062 88.1575C201.347 89.0585 201.291 89.7848 200.933 90.1709ZM201.825 90.9983C202.468 90.3088 202.652 89.1872 202.229 87.8082L198.671 76.2059L195.113 64.6037C194.268 61.8457 191.988 61.3217 190.02 63.4362L181.755 72.3171L173.49 81.198C171.523 83.3125 172.212 85.5466 175.026 86.1901L186.848 88.9114L198.671 91.6326C200.078 91.9636 201.181 91.697 201.825 90.9983Z" fill="black"/>
<path d="M184.265 74.6062C184.835 73.9902 185.662 73.9811 186.306 74.5878C186.968 75.2038 187.005 76.0128 186.398 76.6655C185.8 77.3091 185.028 77.3183 184.329 76.6931C183.677 76.0863 183.64 75.2773 184.228 74.643L184.265 74.6062ZM188.31 77.208L196.796 84.3697C197.136 84.6547 197.357 85.2339 197.173 85.6108C197.062 85.8499 196.915 86.0613 196.75 86.236C196.575 86.4199 196.364 86.5853 196.125 86.7232C195.739 86.9439 195.141 86.7784 194.828 86.4567L187.087 78.5134C186.775 78.1917 186.775 77.6768 187.078 77.3459L187.152 77.2631C187.446 76.9598 187.97 76.923 188.31 77.208Z" fill="black"/>
<path d="M28.2885 31.3628L26.5198 33.2332L69.7194 74.0843L71.4881 72.2139L28.2885 31.3628Z" fill="white"/>
<g opacity="0.15">
<path opacity="0.15" d="M28.4534 35.0826L30.2921 36.8201C30.2921 36.8201 29.86 36.3697 31.4137 36.48C32.9766 36.5811 34.7693 37.5281 34.7693 37.5281L30.2093 33.2163L28.4534 35.0826Z" fill="#414147"/>
</g>
<path d="M71.5539 71.3033L68.7429 74.2759L69.932 75.4003L72.743 72.4277L71.5539 71.3033Z" fill="#C7D3D1"/>
<path d="M20.0045 38.4755C28.0725 38.4755 34.613 31.9351 34.613 23.867C34.613 15.799 28.0725 9.25854 20.0045 9.25854C11.9364 9.25854 5.396 15.799 5.396 23.867C5.396 31.9351 11.9364 38.4755 20.0045 38.4755Z" fill="white"/>
<path d="M31.0462 34.3012C25.2911 40.3873 15.6563 40.6539 9.5794 34.8988C3.49329 29.1437 3.22668 19.5088 8.98182 13.4319C14.737 7.34583 24.3718 7.07922 30.4487 12.8344C36.5348 18.5803 36.8014 28.2151 31.0462 34.3012ZM10.2229 14.6087C5.12054 20.0053 5.35957 28.5553 10.7562 33.6577C16.1528 38.7601 24.7027 38.521 29.8051 33.1244C34.9075 27.7279 34.6685 19.1779 29.2719 14.0755C23.8661 8.97309 15.3253 9.21211 10.2229 14.6087Z" fill="url(#paint8_linear_562_86014)"/>
<path d="M18.0462 31.221C18.2944 31.0095 18.5243 30.7153 18.8368 30.3108C19.3425 29.6029 19.6459 28.7755 19.6459 27.9113C19.6643 26.9276 19.3241 25.8888 18.5243 24.8499L18.4875 24.8867C18.607 25.8428 18.322 26.7805 17.5681 27.5804C16.2075 29.0145 14.2585 28.9134 12.8978 27.6263C11.3901 26.2013 11.0959 23.857 12.6404 22.2205C14.1849 20.5841 16.4649 20.8323 18.4967 22.763C20.2526 24.427 20.9238 26.1737 20.9421 27.6815C20.9605 28.8674 20.5284 30.0626 19.8205 31.0096C19.508 31.46 19.1954 31.8186 18.938 32.0576L18.0462 31.221ZM13.8264 26.4863C14.8193 27.4241 16.088 27.4884 16.9706 26.5507C17.6509 25.8244 17.8347 24.9234 17.6233 24.188C17.5865 24.0317 17.4946 23.8846 17.3199 23.7191C15.9593 22.432 14.4331 21.9447 13.3667 23.0755C12.5025 24.0041 12.7048 25.4199 13.8264 26.4863Z" fill="#2E2E35"/>
<path d="M25.1067 17.1182C27.8188 19.6832 28.3612 22.1011 26.6972 23.8754C25.2262 25.4383 22.7623 25.1073 20.1054 22.6343C17.4301 20.1061 17.044 17.5595 18.5793 15.9414C20.1698 14.2498 22.5693 14.7095 25.1067 17.1182ZM21.1351 21.5587C23.2128 23.5169 24.9872 23.9949 25.9157 23.0112C26.9638 21.908 26.1731 20.1612 24.1322 18.2306C22.1648 16.3735 20.4088 15.6564 19.3515 16.778C18.4598 17.7342 18.9654 19.5085 21.1351 21.5587Z" fill="#2E2E35"/>
<path opacity="0.15" d="M26.6517 10.2698L13.082 37.3079C17.0077 39.3581 21.7791 39.6798 26.146 37.7768C33.8134 34.4303 37.3161 25.4942 33.9605 17.836C32.462 14.3701 29.805 11.7867 26.6517 10.2698Z" fill="#2E2E35"/>
<path d="M44.5975 34.4668C53.3155 34.4668 60.3828 27.3995 60.3828 18.6815C60.3828 9.96355 53.3155 2.89624 44.5975 2.89624C35.8796 2.89624 28.8123 9.96355 28.8123 18.6815C28.8123 27.3995 35.8796 34.4668 44.5975 34.4668Z" fill="url(#paint9_linear_562_86014)"/>
<path d="M47.6498 33.3087C39.6055 35.0095 31.6807 29.8519 29.9799 21.8168C28.2791 13.7725 33.4366 5.84768 41.4718 4.14688C49.5161 2.44608 57.4409 7.60364 59.1417 15.6388C60.8517 23.6831 55.6941 31.6079 47.6498 33.3087ZM41.6556 5.00187C34.0894 6.60154 29.2352 14.0667 30.8349 21.6329C32.4346 29.1992 39.8997 34.0534 47.4659 32.4537C55.0322 30.854 59.8864 23.3889 58.2867 15.8226C56.687 8.25636 49.2311 3.40219 41.6556 5.00187Z" fill="white"/>
<path d="M54.8259 14.3746L34.3735 18.7063L35.4365 23.725L55.8889 19.3932L54.8259 14.3746Z" fill="white"/>
<path opacity="0.15" d="M30.5038 11.7222C28.3434 16.1442 28.2698 21.5041 30.7888 26.1652C34.9351 33.8326 44.5147 36.6825 52.1821 32.5363C55.9423 30.5045 58.5348 27.1581 59.7208 23.3795L30.5038 11.7222Z" fill="white"/>
<path d="M197.431 43.8445L197.881 42.6585C197.909 42.5941 197.854 42.5298 197.789 42.539L196.41 42.7412C196.392 42.7412 196.383 42.7688 196.401 42.778L197.403 43.8537C197.403 43.8629 197.422 43.8628 197.431 43.8445Z" fill="#A0A09F"/>
<path opacity="0.05" d="M196.741 42.879C194.838 42.686 187.557 41.3713 185.691 40.976C183.861 40.5807 181.48 39.9923 180.487 38.9718C183.971 40.9944 191.657 41.6931 193.082 41.6104C194.507 41.5276 194.287 40.0474 192.475 36.8021L192.705 36.1218C193.496 37.0504 194.884 38.6592 196.015 39.9095C196.548 40.5071 196.989 41.0128 197.311 41.4173C197.376 41.5 197.431 41.5736 197.486 41.6471C198.175 42.6308 198.037 43.0077 196.741 42.879Z" fill="black"/>
<path d="M197.431 43.9177L197.697 43.1639C197.725 43.0995 197.706 43.0628 197.642 43.072L196.263 43.2742C196.245 43.2742 196.236 43.3018 196.254 43.311L197.431 43.9177Z" fill="#040402"/>
<path d="M180.551 32.8121C180.551 32.8121 176.295 32.095 174.566 31.8192C172.838 31.5434 173.224 32.2329 174.566 33.851C175.532 35.0186 179.191 39.22 180.027 40.1302C180.993 41.1782 183.411 41.785 185.277 42.1895C187.143 42.5848 194.424 43.8995 196.327 44.0926C198.231 44.2856 197.642 43.3847 195.583 41.0863C193.9 39.2108 191.639 36.5539 191.639 36.5539L180.551 32.8121Z" fill="#040402"/>
<path d="M173.426 31.9665L173.693 31.3413L174.658 32.3618L173.426 31.9665Z" fill="#040402"/>
<path d="M180.754 32.3343C180.754 32.3343 176.497 31.6172 174.769 31.3414C173.04 31.0656 173.426 31.7551 174.769 33.3732C175.734 34.5408 179.393 38.7422 180.23 39.6524C181.195 40.7004 183.613 41.3072 185.479 41.7117C187.345 42.107 194.553 43.4125 196.456 43.5964C198.359 43.7894 197.844 42.8977 195.776 40.6085C194.093 38.733 191.832 36.0761 191.832 36.0761L180.754 32.3343Z" fill="#EFEFEF"/>
<path d="M173.628 31.4978L173.904 30.6887L174.879 31.8563L173.628 31.4978Z" fill="#EFEFEF"/>
<path d="M197.605 43.3941L197.908 42.6678C197.936 42.6034 197.881 42.5391 197.816 42.5482L196.437 42.7505C196.419 42.7505 196.41 42.7781 196.428 42.7873L197.605 43.3941Z" fill="#EFEFEF"/>
<path d="M181.002 31.608C181.002 31.608 176.745 30.8909 175.017 30.6151C173.288 30.3393 173.674 31.0288 175.017 32.6469C175.982 33.8145 179.641 38.0159 180.478 38.9261C181.443 39.9741 183.861 40.5809 185.727 40.9854C187.593 41.3807 194.875 42.6954 196.778 42.8885C198.681 43.0815 198.092 42.1806 196.033 39.8822C194.351 38.0067 192.089 35.3498 192.089 35.3498L181.002 31.608Z" fill="#FE922B"/>
<path opacity="0.05" d="M196.778 42.8879C194.875 42.6948 187.594 41.3802 185.727 40.9848C183.861 40.5895 181.443 39.9828 180.478 38.9255C183.953 40.9481 191.666 41.656 193.091 41.5732C194.516 41.4905 194.296 40.0103 192.485 36.765L192.714 36.0847C193.505 37.0133 194.893 38.6221 196.024 39.8724C198.093 42.18 198.681 43.081 196.778 42.8879Z" fill="black"/>
<path opacity="0.15" d="M193.054 39.1739C193.054 39.1739 191.17 42.4192 185.378 40.2587C179.328 37.9971 178.906 34.145 178.906 34.145L194.691 7.69531L198.423 9.09272L193.054 39.1739Z" fill="black"/>
<path d="M193.063 39.1099C193.063 39.1099 191.225 42.3368 185.433 40.1672C179.383 37.9056 178.96 34.0535 178.96 34.0535L194.737 7.62214C194.746 7.61295 194.755 7.60374 194.773 7.61294L198.487 9.00117L193.063 39.1099Z" fill="#FC3D03"/>
<path d="M193.946 34.2094C192.723 34.6323 190.544 35.0736 187.575 33.9612C184.422 32.7752 182.629 31.0285 181.709 29.4564L184.624 24.5654C185.212 25.3469 186.554 26.7167 189.267 27.728C192.162 28.8128 193.992 28.7025 194.994 28.3532L193.946 34.2094Z" fill="#E9E9E9"/>
<path d="M196.052 22.5245C194.967 22.5613 193.643 22.3958 192.117 21.8258C190.223 21.1179 188.825 20.2078 187.805 19.2516L190.894 14.0757C191.62 14.5997 192.576 15.1329 193.817 15.6018C195.151 16.0983 196.254 16.3465 197.155 16.4384L196.052 22.5245Z" fill="#E9E9E9"/>
<path opacity="0.15" d="M193.063 39.1098C193.063 39.1098 191.225 42.3367 185.433 40.167C179.383 37.9054 178.96 34.0533 178.96 34.0533L194.737 7.63115C194.746 7.62196 194.764 7.61278 194.773 7.62198L196.713 8.34824C192.714 13.0553 182.132 31.424 181.112 34.4946C179.972 37.9422 189.662 42.5297 193.063 39.1098Z" fill="white"/>
<path opacity="0.25" d="M179.99 35.3958C179.963 35.3866 179.944 35.3774 179.926 35.359C179.715 35.2395 179.65 34.9729 179.77 34.7614L194.81 9.07476C194.93 8.86331 195.197 8.79897 195.408 8.91848C195.619 9.038 195.684 9.3046 195.564 9.51606L180.524 35.2027C180.413 35.3866 180.183 35.4693 179.99 35.3958Z" fill="white"/>
<path opacity="0.15" d="M193.064 39.1099C193.064 39.1099 192.448 40.1947 190.793 40.682C190.802 40.636 190.82 40.5809 190.857 40.5165C191.547 39.2846 192.19 37.9607 194.691 25.099C197.191 12.2464 198.111 9.97563 196.41 8.95515L197.541 8.64258L198.488 8.99194L193.064 39.1099Z" fill="black"/>
<path opacity="0.15" d="M187.023 40.654C186.527 40.5345 186.003 40.3782 185.442 40.1668C179.393 37.9052 178.97 34.0531 178.97 34.0531L194.746 7.63093C194.755 7.61254 194.774 7.61255 194.792 7.61255L195.399 7.84239C190.701 14.4066 179.705 32.2695 180.377 35.9929C180.698 37.8224 183.852 39.4589 187.023 40.654Z" fill="white"/>
<path d="M198.485 9.07095C198.604 8.75233 197.86 8.17952 196.823 7.79156C195.787 7.4036 194.85 7.34739 194.73 7.66601C194.611 7.98463 195.355 8.55742 196.392 8.94538C197.428 9.33335 198.365 9.38957 198.485 9.07095Z" fill="#F23206"/>
<path d="M202.707 17.1557L201.549 17.6797C201.485 17.7073 201.475 17.79 201.531 17.8268L202.643 18.6634C202.661 18.6726 202.68 18.6634 202.68 18.6451L202.735 17.1741C202.735 17.1557 202.717 17.1465 202.707 17.1557Z" fill="#A0A09F"/>
<path opacity="0.05" d="M202.505 18.3233C203.719 19.8034 207.938 25.8803 208.968 27.48C209.989 29.0521 211.248 31.1482 211.23 32.5824C210.2 28.6936 205.254 22.7638 204.187 21.8076C203.121 20.8515 202.229 22.065 201.209 25.6321L200.565 25.9447C200.657 24.7312 200.813 22.6075 200.905 20.9251C200.951 20.1252 200.997 19.4633 201.062 18.9393C201.071 18.8381 201.089 18.7462 201.108 18.6543C201.319 17.4775 201.678 17.312 202.505 18.3233Z" fill="black"/>
<path d="M202.753 17.1008L202.027 17.441C201.963 17.4686 201.953 17.5053 202.009 17.5421L203.121 18.3787C203.139 18.3879 203.158 18.3787 203.158 18.3603L202.753 17.1008Z" fill="#040402"/>
<path d="M206.844 36.8847C206.844 36.8847 209.345 40.4058 210.375 41.8216C211.404 43.2374 211.616 42.4835 211.809 40.3782C211.947 38.8705 212.333 33.3084 212.388 32.0765C212.443 30.6515 211.165 28.5094 210.126 26.9097C209.087 25.31 204.868 19.2331 203.663 17.753C202.45 16.2728 202.229 17.3301 202.064 20.4099C201.926 22.9198 201.65 26.4041 201.65 26.4041L206.844 36.8847Z" fill="#040402"/>
<path d="M211.276 42.5297L210.642 42.7779L210.688 41.3713L211.276 42.5297Z" fill="#040402"/>
<path d="M206.357 37.078C206.357 37.078 208.858 40.5992 209.887 42.015C210.917 43.4308 211.128 42.6769 211.321 40.5716C211.459 39.0638 211.845 33.5018 211.901 32.2698C211.956 30.8448 210.678 28.7027 209.639 27.1031C208.6 25.5034 204.426 19.4908 203.213 18.0015C201.999 16.5121 201.742 17.5142 201.576 20.5941C201.438 23.1039 201.163 26.5882 201.163 26.5882L206.357 37.078Z" fill="#EFEFEF"/>
<path d="M210.798 42.7043L210.044 43.0904L210.172 41.5735L210.798 42.7043Z" fill="#EFEFEF"/>
<path d="M202.257 17.3489L201.531 17.6523C201.466 17.6799 201.457 17.7626 201.512 17.7994L202.625 18.636C202.643 18.6452 202.661 18.636 202.661 18.6176L202.257 17.3489Z" fill="#EFEFEF"/>
<path d="M205.677 37.4186C205.677 37.4186 208.178 40.9398 209.207 42.3556C210.237 43.7714 210.448 43.0175 210.641 40.9122C210.779 39.4044 211.166 33.8424 211.221 32.6104C211.276 31.1854 209.998 29.0433 208.959 27.4437C207.92 25.844 203.7 19.7671 202.496 18.2869C201.282 16.8068 201.062 17.864 200.896 20.9439C200.758 23.4537 200.483 26.938 200.483 26.938L205.677 37.4186Z" fill="#FE922B"/>
<path opacity="0.05" d="M202.487 18.2864C203.7 19.7666 207.92 25.8435 208.95 27.4432C209.989 29.0429 211.267 31.185 211.211 32.6099C210.191 28.7211 205.236 22.7729 204.169 21.8168C203.103 20.8606 202.211 22.0742 201.19 25.6412L200.547 25.9539C200.639 24.7403 200.795 22.6166 200.887 20.9342C201.062 17.8635 201.282 16.8063 202.487 18.2864Z" fill="black"/>
<path opacity="0.15" d="M202.496 23.5452C202.496 23.5452 206.127 22.5799 208.692 28.2063C211.368 34.081 208.95 37.1056 208.95 37.1056L179.089 44.6443L177.434 41.0129L202.496 23.5452Z" fill="black"/>
<path d="M202.441 23.582C202.441 23.582 206.027 22.6075 208.582 28.2247C211.258 34.0994 208.84 37.124 208.84 37.124L178.998 44.6535C178.988 44.6535 178.97 44.6535 178.97 44.6351L177.324 41.0221L202.441 23.582Z" fill="#FC3D03"/>
<path d="M198.349 26.4231C199.508 26.9931 201.365 28.2158 202.68 31.1026C204.077 34.1732 204.105 36.6739 203.645 38.4298L198.129 39.8273C198.267 38.8619 198.285 36.9405 197.081 34.3019C195.803 31.4887 194.424 30.266 193.477 29.8063L198.349 26.4231Z" fill="#E9E9E9"/>
<path d="M188.605 33.1985C189.395 33.9432 190.223 34.9912 190.894 36.4806C191.731 38.3193 192.08 39.9557 192.117 41.3532L186.279 42.8241C186.132 41.9415 185.838 40.8843 185.295 39.6799C184.707 38.3836 184.1 37.4275 183.521 36.7288L188.605 33.1985Z" fill="#E9E9E9"/>
<path opacity="0.15" d="M202.441 23.582C202.441 23.582 206.026 22.6075 208.582 28.2247C211.257 34.0994 208.839 37.124 208.839 37.124L178.997 44.6535C178.979 44.6535 178.97 44.6535 178.96 44.6351L178.105 42.7505C184.265 42.2448 204.73 36.7471 207.626 35.2945C210.871 33.6765 207.267 23.5728 202.441 23.582Z" fill="white"/>
<path opacity="0.25" d="M209.06 35.4603C209.069 35.4787 209.078 35.5063 209.088 35.5339C209.152 35.7637 209.005 36.0027 208.775 36.0671L179.981 43.5965C179.751 43.6609 179.512 43.5138 179.448 43.284C179.383 43.0541 179.531 42.8151 179.76 42.7508L208.554 35.2213C208.757 35.1661 208.968 35.2673 209.06 35.4603Z" fill="white"/>
<path opacity="0.15" d="M202.441 23.5818C202.441 23.5818 203.645 23.2508 205.162 24.0691C205.126 24.0967 205.07 24.1151 204.997 24.1426C203.636 24.5288 202.248 25.0068 191.391 32.334C180.533 39.6613 178.281 40.6082 178.759 42.5297L177.738 41.9505L177.324 41.0311L202.441 23.5818Z" fill="black"/>
<path opacity="0.15" d="M207.81 26.7629C208.077 27.195 208.334 27.6823 208.582 28.2247C211.258 34.0994 208.84 37.124 208.84 37.124L179.007 44.6535C178.988 44.6535 178.97 44.6535 178.961 44.6351L178.694 44.0468C186.656 42.7321 207.065 37.8779 209.217 34.7613C210.274 33.2444 209.198 29.852 207.81 26.7629Z" fill="white"/>
<path d="M179.045 44.6521C179.355 44.5111 179.234 43.5801 178.775 42.5728C178.317 41.5654 177.694 40.863 177.384 41.004C177.075 41.145 177.196 42.0759 177.654 43.0833C178.113 44.0907 178.736 44.793 179.045 44.6521Z" fill="#F23206"/>
<path d="M180.386 81.3078H32.9585C17.7248 81.3078 5.37793 68.9609 5.37793 53.7273C5.37793 38.4936 17.7248 26.1467 32.9585 26.1467H180.376C195.61 26.1467 207.957 38.4936 207.957 53.7273C207.966 68.9609 195.619 81.3078 180.386 81.3078Z" fill="url(#paint10_linear_562_86014)"/>
<path d="M26.3119 83.8547V82.6687C26.3119 82.6044 26.2475 82.5676 26.1924 82.5952L25.0524 83.2204C25.034 83.2295 25.034 83.2479 25.0524 83.2571L26.2843 83.8731C26.2935 83.8731 26.3119 83.8639 26.3119 83.8547Z" fill="#A0A09F"/>
<path opacity="0.05" d="M25.392 83.2293C23.6637 83.689 16.8696 84.9209 15.1137 85.1783C13.3853 85.4358 11.1145 85.6932 9.91016 85.1232C13.6151 85.7483 20.5654 83.8453 21.7882 83.3121C23.0109 82.7788 22.3306 81.5561 19.6829 79.3037L19.6645 78.6326C20.6574 79.1842 22.4041 80.1403 23.8016 80.8666C24.4635 81.2159 25.0151 81.5101 25.4288 81.7676C25.5115 81.8135 25.5851 81.8687 25.6586 81.9147C26.5688 82.549 26.5688 82.9167 25.392 83.2293Z" fill="black"/>
<path d="M26.3395 83.9096L26.3303 83.1649C26.3303 83.1005 26.3027 83.073 26.2475 83.1097L25.1075 83.7349C25.0892 83.7441 25.0892 83.7625 25.1075 83.7717L26.3395 83.9096Z" fill="#040402"/>
<path d="M7.94303 79.7267C7.94303 79.7267 3.98063 80.4898 2.39015 80.8208C0.790479 81.1425 1.35128 81.6206 3.06128 82.5951C4.29321 83.2938 8.86238 85.776 9.89206 86.2909C11.078 86.8976 13.3948 86.6311 15.1507 86.3736C16.9067 86.1162 23.7099 84.8751 25.4291 84.4246C27.1483 83.9741 26.3484 83.3765 23.7926 82.0435C21.7057 80.9586 18.8649 79.3682 18.8649 79.3682L7.94303 79.7267Z" fill="#040402"/>
<path d="M1.44312 81.317L1.4707 80.6826L2.64746 81.2618L1.44312 81.317Z" fill="#040402"/>
<path d="M7.97062 79.2394C7.97062 79.2394 4.00822 80.0025 2.41774 80.3334C0.818068 80.6552 1.37887 81.1333 3.08886 82.1078C4.3208 82.8065 8.88997 85.2887 9.91964 85.8036C11.1056 86.4103 13.4224 86.1437 15.1783 85.8863C16.9343 85.6289 23.6639 84.397 25.3923 83.9465C27.1207 83.4868 26.376 82.8892 23.8202 81.5562C21.7333 80.4713 18.8925 78.8809 18.8925 78.8809L7.97062 79.2394Z" fill="#EFEFEF"/>
<path d="M1.46142 80.8482L1.43384 80.0483L2.67496 80.747L1.46142 80.8482Z" fill="#EFEFEF"/>
<path d="M26.3207 83.4042L26.3483 82.6687C26.3483 82.6044 26.2839 82.5676 26.2287 82.5952L25.0887 83.2204C25.0704 83.2295 25.0704 83.2479 25.0887 83.2571L26.3207 83.4042Z" fill="#EFEFEF"/>
<path d="M7.94303 78.5316C7.94303 78.5316 3.98063 79.2947 2.39015 79.6257C0.790479 79.9474 1.35128 80.4255 3.06128 81.4C4.29321 82.0987 8.86238 84.581 9.89206 85.0958C11.078 85.7026 13.3948 85.436 15.1507 85.1785C16.9067 84.9211 23.7099 83.68 25.4291 83.2295C27.1483 82.779 26.3484 82.1815 23.7926 80.8484C21.7057 79.7636 18.8649 78.1731 18.8649 78.1731L7.94303 78.5316Z" fill="#FE922B"/>
<path opacity="0.05" d="M25.4289 83.2293C23.7005 83.689 16.9065 84.9209 15.1505 85.1783C13.3946 85.4358 11.0778 85.7024 9.89185 85.0956C13.5876 85.7299 20.5655 83.8269 21.7882 83.2845C23.011 82.7513 22.3215 81.5285 19.6829 79.2761L19.6645 78.605C20.6574 79.1566 22.4042 80.1127 23.8016 80.839C26.3482 82.1812 27.1573 82.7696 25.4289 83.2293Z" fill="black"/>
<path opacity="0.15" d="M20.9611 81.1975C20.9611 81.1975 20.3727 84.6543 14.6084 84.6543C8.57745 84.6543 6.9502 81.4274 6.9502 81.4274L12.0986 53.1389H15.8219L20.9611 81.1975Z" fill="black"/>
<path d="M20.9426 81.1425C20.9426 81.1425 20.3909 84.5625 14.6174 84.5625C8.58648 84.5625 6.95923 81.3355 6.95923 81.3355L12.1076 53.0655C12.1076 53.0563 12.1168 53.0471 12.1352 53.0471H15.8402L20.9426 81.1425Z" fill="#FC3D03"/>
<path d="M20.1153 76.5638C19.1868 77.3361 17.4216 78.4301 14.4613 78.4301C11.3171 78.4301 9.17502 77.4832 7.86035 76.4167L8.81648 71.1856C9.58873 71.6729 11.2068 72.4359 13.9097 72.4359C16.7964 72.4359 18.3685 71.7464 19.1224 71.1121L20.1153 76.5638Z" fill="#E9E9E9"/>
<path d="M18.1291 65.6699C17.1913 66.0561 15.9778 66.3502 14.4608 66.3502C12.5762 66.3502 11.0501 66.0101 9.8457 65.5045L10.8478 59.97C11.6568 60.1906 12.6589 60.3469 13.9 60.3469C15.2239 60.3469 16.272 60.1998 17.0902 59.9791L18.1291 65.6699Z" fill="#E9E9E9"/>
<path opacity="0.15" d="M20.9426 81.1425C20.9426 81.1425 20.3909 84.5625 14.6174 84.5625C8.58648 84.5625 6.95923 81.3355 6.95923 81.3355L12.1076 53.0747C12.1076 53.0563 12.126 53.0471 12.1352 53.0471H14.0658C12.1076 58.4713 8.86228 77.9891 8.9818 81.0046C9.11051 84.397 19.0855 85.252 20.9426 81.1425Z" fill="white"/>
<path opacity="0.25" d="M8.30175 82.1719C8.27417 82.1719 8.25578 82.1719 8.2282 82.1627C8.00755 82.126 7.86046 81.9145 7.89723 81.6939L12.6411 54.3156C12.6779 54.0949 12.8893 53.9479 13.11 53.9846C13.3306 54.0214 13.4777 54.2329 13.4409 54.4535L8.69707 81.8318C8.66949 82.0249 8.49481 82.1719 8.30175 82.1719Z" fill="white"/>
<path opacity="0.15" d="M20.9423 81.1423C20.9423 81.1423 20.7585 82.2915 19.4714 83.266C19.4622 83.2201 19.4622 83.1649 19.4714 83.1005C19.6644 81.7951 19.7931 80.4252 17.7798 68.3725C15.7664 56.3199 15.8215 54.0307 14.0012 53.6997L14.893 53.0562H15.8307L20.9423 81.1423Z" fill="black"/>
<path opacity="0.15" d="M16.1712 84.4705C15.7023 84.5349 15.1875 84.5625 14.6267 84.5625C8.59576 84.5625 6.96851 81.3355 6.96851 81.3355L12.1169 53.0747C12.1169 53.0563 12.1353 53.0471 12.1536 53.0471H12.7604C10.8022 60.3192 7.03286 79.5336 8.83479 82.5675C9.70817 84.0568 13.0086 84.4613 16.1712 84.4705Z" fill="white"/>
<path d="M13.9739 53.6906C15.0097 53.6906 15.8493 53.4313 15.8493 53.1114C15.8493 52.7915 15.0097 52.5322 13.9739 52.5322C12.9381 52.5322 12.0984 52.7915 12.0984 53.1114C12.0984 53.4313 12.9381 53.6906 13.9739 53.6906Z" fill="#F23206"/>
<path d="M39.8353 89.7749V88.5889C39.8353 88.5246 39.771 88.4878 39.7158 88.5154L38.5758 89.1405C38.5574 89.1497 38.5574 89.1681 38.5758 89.1773L39.8077 89.7933C39.8169 89.8024 39.8353 89.7933 39.8353 89.7749Z" fill="#A0A09F"/>
<path opacity="0.05" d="M38.9162 89.1495C37.1878 89.6092 30.3938 90.8411 28.6379 91.0985C26.9095 91.3559 24.6387 91.6133 23.4343 91.0434C27.1393 91.6685 34.0896 89.7655 35.3123 89.2322C36.5351 88.699 35.8548 87.4763 33.207 85.2239L33.1886 84.5527C34.1815 85.1043 35.9283 86.0605 37.3257 86.7868C37.9877 87.1361 38.5393 87.4303 38.953 87.6877C39.0357 87.7337 39.1093 87.7889 39.1828 87.8348C40.093 88.4692 40.093 88.8461 38.9162 89.1495Z" fill="black"/>
<path d="M39.8627 89.8393L39.8535 89.0946C39.8535 89.0302 39.8259 89.0026 39.7707 89.0394L38.6307 89.6646C38.6123 89.6738 38.6123 89.6922 38.6307 89.7014L39.8627 89.8393Z" fill="#040402"/>
<path d="M21.4665 85.6564C21.4665 85.6564 17.5041 86.4194 15.9136 86.7504C14.3139 87.0722 14.8747 87.5503 16.5847 88.5248C17.8166 89.2235 22.3858 91.7057 23.4155 92.2206C24.6015 92.8273 26.9182 92.5607 28.6742 92.3033C30.4301 92.0459 37.2333 90.8048 38.9525 90.3543C40.6809 89.8946 39.8719 89.3062 37.3161 87.9732C35.2292 86.8883 32.3884 85.2979 32.3884 85.2979L21.4665 85.6564Z" fill="#040402"/>
<path d="M14.967 87.2376L14.9946 86.6033L16.1714 87.1824L14.967 87.2376Z" fill="#040402"/>
<path d="M21.4943 85.1596C21.4943 85.1596 17.5319 85.9226 15.9414 86.2536C14.3418 86.5754 14.9026 87.0534 16.6125 88.028C17.8445 88.7267 22.4137 91.2089 23.4433 91.7237C24.6293 92.3305 26.9461 92.0639 28.702 91.8065C30.458 91.5491 37.1876 90.3171 38.916 89.8667C40.6444 89.4162 39.8997 88.8094 37.3439 87.4763C35.257 86.3915 32.4162 84.801 32.4162 84.801L21.4943 85.1596Z" fill="#EFEFEF"/>
<path d="M14.9946 86.7687L14.967 85.978L16.199 86.6675L14.9946 86.7687Z" fill="#EFEFEF"/>
<path d="M39.8441 89.3244L39.8717 88.5889C39.8717 88.5246 39.8073 88.4878 39.7522 88.5154L38.6122 89.1405C38.5938 89.1497 38.5938 89.1681 38.6122 89.1773L39.8441 89.3244Z" fill="#EFEFEF"/>
<path d="M21.4665 84.4518C21.4665 84.4518 17.5041 85.2149 15.9136 85.5458C14.3139 85.8676 14.8747 86.3457 16.5847 87.3202C17.8166 88.0189 22.3858 90.5011 23.4155 91.016C24.6015 91.6227 26.9182 91.3561 28.6742 91.0987C30.4301 90.8413 37.2333 89.6002 38.9525 89.1497C40.6717 88.6992 39.8719 88.1016 37.3161 86.7686C35.2292 85.6837 32.3884 84.0933 32.3884 84.0933L21.4665 84.4518Z" fill="#FE922B"/>
<path opacity="0.05" d="M38.9528 89.15C37.2244 89.6096 30.4304 90.8416 28.6745 91.099C26.9185 91.3564 24.6017 91.623 23.4158 91.0163C27.1116 91.6506 34.0894 89.7475 35.3122 89.2051C36.5349 88.6627 35.8454 87.4492 33.2069 85.1967L33.1885 84.5256C34.1814 85.0772 35.9281 86.0334 37.3256 86.7597C39.8722 88.1019 40.6812 88.6995 38.9528 89.15Z" fill="black"/>
<path opacity="0.15" d="M34.4848 87.1272C34.4848 87.1272 33.8964 90.584 28.1321 90.584C22.1011 90.584 20.4739 87.357 20.4739 87.357L25.6222 59.0686H29.3456L34.4848 87.1272Z" fill="black"/>
<path d="M34.4755 87.0629C34.4755 87.0629 33.9239 90.4829 28.1504 90.4829C22.1194 90.4829 20.4922 87.256 20.4922 87.256L25.6406 58.9859C25.6406 58.9767 25.6497 58.9675 25.6681 58.9675H29.3731L34.4755 87.0629Z" fill="#FC3D03"/>
<path d="M33.639 82.4933C32.7104 83.2655 30.9453 84.3596 27.985 84.3596C24.8408 84.3596 22.6987 83.4126 21.384 82.3462L22.3402 77.1151C23.1124 77.6023 24.7305 78.3654 27.4334 78.3654C30.3201 78.3654 31.8922 77.6759 32.6461 77.0415L33.639 82.4933Z" fill="#E9E9E9"/>
<path d="M31.6623 71.5904C30.7245 71.9765 29.511 72.2707 27.9941 72.2707C26.1094 72.2707 24.5833 71.9305 23.3789 71.4249L24.381 65.8904C25.19 66.111 26.1921 66.2673 27.4332 66.2673C28.7571 66.2673 29.8052 66.1202 30.6234 65.8996L31.6623 71.5904Z" fill="#E9E9E9"/>
<path opacity="0.15" d="M34.4755 87.0629C34.4755 87.0629 33.9239 90.4829 28.1504 90.4829C22.1194 90.4829 20.4922 87.256 20.4922 87.256L25.6406 58.9951C25.6406 58.9767 25.6589 58.9675 25.6681 58.9675H27.5988C25.6406 64.3917 22.3952 83.9095 22.5148 86.925C22.6435 90.3266 32.6184 91.1724 34.4755 87.0629Z" fill="white"/>
<path opacity="0.25" d="M21.8252 88.0924C21.7976 88.0924 21.7792 88.0923 21.7516 88.0832C21.531 88.0464 21.3839 87.8349 21.4207 87.6143L26.1645 60.236C26.2013 60.0154 26.4127 59.8683 26.6334 59.905C26.854 59.9418 27.0011 60.1533 26.9644 60.3739L22.2205 87.7522C22.1929 87.9545 22.0182 88.0924 21.8252 88.0924Z" fill="white"/>
<path opacity="0.15" d="M34.4753 87.0628C34.4753 87.0628 34.2914 88.2119 33.0043 89.1865C32.9951 89.1405 32.9951 89.0853 33.0043 89.021C33.1974 87.7155 33.3261 86.3457 31.3127 74.293C29.2993 62.2403 29.3545 59.9511 27.5342 59.6201L28.426 58.9766H29.3637L34.4753 87.0628Z" fill="black"/>
<path opacity="0.15" d="M29.6949 90.391C29.226 90.4553 28.7112 90.4829 28.1504 90.4829C22.1194 90.4829 20.4922 87.256 20.4922 87.256L25.6406 58.9951C25.6406 58.9767 25.6589 58.9675 25.6773 58.9675H26.2841C24.3259 66.2396 20.5565 85.4541 22.3585 88.4879C23.241 89.9865 26.5323 90.3818 29.6949 90.391Z" fill="white"/>
<path d="M27.5068 59.6203C28.5426 59.6203 29.3823 59.361 29.3823 59.0411C29.3823 58.7212 28.5426 58.4619 27.5068 58.4619C26.471 58.4619 25.6313 58.7212 25.6313 59.0411C25.6313 59.361 26.471 59.6203 27.5068 59.6203Z" fill="#F23206"/>
<path d="M97.2236 60.406H94.5213V49.5156H89.2871V60.406H86.5936V47.334H97.2236V60.406ZM112.634 63.6201H110.147V60.406H102.264V63.6112H99.7142L99.5705 58.2423H100.558C101.091 57.7994 101.501 57.15 101.788 56.2941C102.081 55.4322 102.279 54.3668 102.381 53.0979L102.758 47.334H111.323V58.2423H112.849L112.634 63.6201ZM103.647 58.2423H108.629V49.5156H105.316L105.092 52.9542C104.912 55.2586 104.431 57.0213 103.647 58.2423ZM127.487 63.6201H125V60.406H117.117V63.6112H114.567L114.424 58.2423H115.411C115.944 57.7994 116.354 57.15 116.641 56.2941C116.935 55.4322 117.132 54.3668 117.234 53.0979L117.611 47.334H126.176V58.2423H127.702L127.487 63.6201ZM118.5 58.2423H123.483V49.5156H120.17L119.945 52.9542C119.766 55.2586 119.284 57.0213 118.5 58.2423Z" fill="#232323"/>
<path d="M176.588 1.33345C180.817 1.33345 185.046 2.95149 188.255 6.1968C189.993 7.95276 191.234 10.0029 192.006 12.191L194.69 7.69535L194.727 7.63099C194.727 7.62179 194.736 7.63101 194.746 7.62181C194.828 7.52069 195.021 7.46551 195.288 7.46551C195.674 7.46551 196.226 7.57585 196.805 7.79649C197.77 8.15504 198.469 8.67907 198.469 9.00084H198.478L197.136 16.4292L196.042 22.5153L194.911 28.8036L195.362 28.4911L198.349 26.4134L200.629 24.8321C200.639 24.6666 200.657 24.5011 200.666 24.3264C200.666 24.2804 200.675 24.2253 200.675 24.1793C200.685 24.0322 200.694 23.8759 200.712 23.7196C200.712 23.6737 200.721 23.6277 200.721 23.5817C200.749 23.1588 200.777 22.7175 200.804 22.2854C200.804 22.2671 200.804 22.2487 200.804 22.2303C200.813 22.028 200.832 21.835 200.841 21.6419C200.841 21.6143 200.841 21.5959 200.841 21.5684C200.85 21.3569 200.868 21.1455 200.878 20.9524C200.914 20.1802 200.96 19.5366 201.025 19.031C201.043 18.9023 201.062 18.7827 201.08 18.6724C201.117 18.4518 201.154 18.2679 201.209 18.1116C201.291 17.8634 201.383 17.7163 201.512 17.6611C201.512 17.6611 201.512 17.6519 201.521 17.6519L202.045 17.4405L202.643 17.1555C202.661 17.1463 202.67 17.1371 202.689 17.1371L202.744 17.1095V17.1187C202.762 17.1187 202.781 17.1095 202.799 17.1095C203.011 17.1095 203.286 17.3209 203.645 17.7714C204.858 19.2516 209.078 25.3285 210.108 26.9282C211.138 28.5279 212.425 30.6699 212.37 32.0949C212.314 33.3269 211.937 38.8797 211.79 40.3967C211.671 41.647 211.551 42.4009 211.257 42.5296L211.266 42.548L210.752 42.7502L210.034 43.1087V43.0904C210.025 43.0904 210.016 43.0904 210.007 43.0904C209.814 43.0904 209.556 42.8697 209.198 42.3733C208.389 41.2609 206.679 38.8614 205.98 37.8777L203.388 38.5304C206.274 42.8881 207.966 48.1192 207.966 53.7456C207.966 61.6521 204.638 68.7678 199.315 73.7967L203.498 87.4491C204.04 89.2234 203.783 90.8599 202.79 91.9263C202.064 92.7078 201.006 93.1123 199.784 93.1123C199.333 93.1123 198.864 93.0571 198.377 92.9468L174.722 87.5042C172.911 87.0905 171.624 86.0516 171.201 84.6542C170.879 83.597 171.082 82.4202 171.753 81.3262H33.4271L33.6385 82.5122L34.0982 85.068C34.2361 85.1415 34.3832 85.2243 34.5303 85.307C34.5487 85.3162 34.5762 85.3345 34.5946 85.3437C34.7325 85.4173 34.8704 85.4908 35.0083 85.5736C35.0451 85.592 35.0911 85.6196 35.1279 85.6379C35.4772 85.831 35.8449 86.0241 36.2035 86.2171C36.2035 86.2171 36.2127 86.2171 36.2127 86.2263C36.3782 86.3183 36.5528 86.4102 36.7183 86.4929C36.7459 86.5021 36.7643 86.5205 36.7919 86.5297C36.9666 86.6217 37.132 86.7136 37.2975 86.7963C37.9319 87.1273 38.4651 87.4123 38.8696 87.6697C38.9707 87.7341 39.0627 87.7892 39.1546 87.8536C39.3293 87.9731 39.4672 88.0742 39.5775 88.1754C39.7522 88.3408 39.8441 88.4788 39.8441 88.6075C39.8441 88.6167 39.8533 88.6166 39.8533 88.6166L39.8349 89.1407L39.8441 89.7566C39.8441 89.775 39.8441 89.7842 39.8441 89.8026V89.8578H39.8349C39.789 90.06 39.4948 90.2255 38.934 90.3726C37.2056 90.8323 30.4116 92.0642 28.6556 92.3216C27.6903 92.4687 26.5503 92.6066 25.5298 92.6066C24.6932 92.6066 23.9302 92.5147 23.3877 92.2389C22.3581 91.7149 17.7889 89.2418 16.557 88.5431C15.5365 87.9639 14.9481 87.5594 14.9573 87.2652H14.9389L14.9665 86.7504L14.9573 86.4286C14.0287 86.5665 12.9623 86.6952 11.997 86.6952C11.1604 86.6952 10.3973 86.6033 9.86408 86.3275C8.83441 85.8034 4.26523 83.3304 3.0333 82.6317C2.01282 82.0525 1.42444 81.648 1.43363 81.3538H1.41524L1.44282 80.8389L1.41524 80.0851L1.43363 80.0943C1.48879 79.9196 1.78298 79.7817 2.37137 79.653C3.63088 79.3955 6.33377 78.8715 7.43699 78.6601L9.36763 68.0692C6.83022 63.8953 5.36845 58.9952 5.36845 53.7549C5.36845 47.1999 7.65764 41.1781 11.4821 36.4527C10.811 36.0022 10.1675 35.5057 9.56069 34.9357C3.47459 29.1806 3.20798 19.5458 8.96312 13.4689C11.9418 10.3155 15.9594 8.73422 19.9861 8.73422C23.5808 8.73422 27.1939 10.0029 30.0714 12.5587C32.0204 7.98036 36.084 4.39489 41.3243 3.28247C42.4275 3.05264 43.5307 2.93312 44.6064 2.93312C51.906 2.93312 58.461 8.02632 60.0331 15.4547C60.6123 18.1852 60.4376 20.9064 59.6653 23.3979L59.7205 23.4163C59.4171 24.3724 59.031 25.3009 58.5529 26.1835H162.486C162.43 26.0916 162.375 25.9996 162.32 25.8985C162.063 25.448 161.824 24.9883 161.612 24.5195C161.438 24.1333 161.272 23.738 161.134 23.3335C160.877 22.6256 160.674 21.8993 160.518 21.1638C160.279 20.0055 160.141 18.8379 160.15 17.6611C160.178 13.4597 161.805 9.26744 165.032 6.08648C165.4 5.72794 165.777 5.39697 166.163 5.07519C166.301 4.96487 166.439 4.86374 166.577 4.75341C166.834 4.56035 167.092 4.3673 167.358 4.19262C167.533 4.07311 167.707 3.95359 167.891 3.84327C168.121 3.70536 168.342 3.57666 168.581 3.44795C168.792 3.32844 168.995 3.20892 169.215 3.09859C169.344 3.03424 169.482 2.97907 169.62 2.91471C170.208 2.63891 170.797 2.39989 171.403 2.20682C171.477 2.17924 171.55 2.15167 171.615 2.13329C171.964 2.02296 172.313 1.93103 172.663 1.84829C172.736 1.8299 172.81 1.81152 172.883 1.79313C173.251 1.71039 173.619 1.63682 173.996 1.57247C174.86 1.40698 175.724 1.33345 176.588 1.33345ZM21.8432 79.8093L21.9811 79.0278C21.4479 78.798 20.9331 78.5498 20.4182 78.2923L20.5653 79.129C20.7032 79.2025 20.8503 79.2852 20.9974 79.368C21.0158 79.3772 21.0434 79.3956 21.0618 79.4047C21.1905 79.4783 21.3284 79.5518 21.4663 79.6254C21.5123 79.653 21.5582 79.6806 21.6042 79.6989C21.6961 79.7357 21.7697 79.7725 21.8432 79.8093ZM176.588 0.873779V1.33345V0.873779C175.697 0.873779 174.805 0.947309 173.922 1.08521C173.564 1.14037 173.187 1.21391 172.782 1.30585L172.552 1.36103C172.148 1.46216 171.799 1.55408 171.477 1.65521C171.431 1.67359 171.385 1.6828 171.339 1.70119L171.256 1.72877C170.631 1.93103 170.015 2.17924 169.417 2.46424L169.27 2.5286C169.178 2.56537 169.096 2.60215 169.004 2.64812C168.829 2.74006 168.654 2.83198 168.489 2.92391L168.351 2.99748C168.112 3.12619 167.882 3.26407 167.643 3.41117C167.459 3.53069 167.275 3.65021 167.092 3.76973C166.825 3.9536 166.558 4.14667 166.292 4.34893L166.172 4.44084C166.071 4.51439 165.97 4.59714 165.869 4.67988C165.428 5.03843 165.041 5.37859 164.701 5.71875C161.493 8.88132 159.709 13.1103 159.682 17.6152C159.672 18.7827 159.801 19.9963 160.059 21.219C160.215 21.9545 160.426 22.7084 160.693 23.4438C160.84 23.8392 160.996 24.2345 161.189 24.6574C161.346 24.9976 161.511 25.3377 161.686 25.6687H59.3068C59.647 24.9608 59.932 24.2345 60.1618 23.499L60.2905 23.0945L60.2261 23.0669C60.934 20.5387 61.026 17.8634 60.4836 15.2984C58.9023 7.83324 52.2278 2.41828 44.6064 2.41828C43.4756 2.41828 42.3356 2.53778 41.2232 2.77682C36.2587 3.82488 32.0664 7.16214 29.8967 11.7589C27.1111 9.4789 23.6084 8.22859 19.9861 8.22859C15.6376 8.22859 11.6108 9.96616 8.63215 13.1103C2.70233 19.3803 2.97814 29.3001 9.24812 35.2299C9.70779 35.6712 10.2226 36.0849 10.8202 36.5078C7.0049 41.408 4.91797 47.4941 4.91797 53.7181C4.91797 58.8021 6.297 63.785 8.89876 68.1243L7.06006 78.2372C5.81893 78.4762 3.44701 78.9359 2.29782 79.1749C1.95766 79.2485 1.6175 79.3312 1.37847 79.4875L0.973954 79.2576L0.983148 80.0667L1.01073 80.8206L0.983148 81.2986L0.955566 81.8043L1.15782 81.7951C1.40605 82.1444 1.94847 82.4938 2.83104 82.9994C4.04459 83.6889 8.65054 86.1896 9.68021 86.7136C10.2318 86.9986 11.0041 87.1273 12.0246 87.1273C12.8704 87.1273 13.7621 87.0354 14.5252 86.9342L14.5068 87.2192L14.4792 87.7249L14.6815 87.7157C14.9297 88.065 15.4721 88.4236 16.3547 88.92C17.5682 89.6096 22.1742 92.1102 23.2039 92.6342C23.7555 92.9192 24.5277 93.0479 25.5482 93.0479C26.633 93.0479 27.8282 92.8916 28.7384 92.7537C30.3932 92.5055 37.2883 91.2644 39.0719 90.7955C39.4488 90.6944 39.8349 90.5657 40.0832 90.3266L40.3314 90.3542V89.8302V89.775C40.3314 89.7566 40.3314 89.7382 40.3314 89.7107L40.3222 89.1131L40.3406 88.6075L40.3498 88.4144L40.3038 88.3684C40.2486 88.1754 40.1199 87.9915 39.9177 87.8076C39.789 87.6973 39.6327 87.5686 39.4396 87.4399C39.3477 87.3755 39.2465 87.3112 39.1362 87.2468C38.7593 87.017 38.2628 86.7412 37.5366 86.3642L37.0309 86.0976L36.9574 86.0608L36.4517 85.7943C36.084 85.6012 35.7162 85.3989 35.3669 85.215L35.2933 85.1783L35.2474 85.1507L34.8337 84.9209L34.7693 84.8841L34.5303 84.7554L34.1258 82.503L34.1074 82.411L33.9879 81.7675H171.017C170.576 82.7788 170.493 83.8176 170.778 84.7738C171.256 86.3275 172.663 87.4766 174.639 87.9363L198.294 93.3789C198.809 93.4984 199.315 93.5536 199.802 93.5536C201.154 93.5536 202.339 93.0755 203.139 92.2205C204.243 91.0345 204.537 89.2326 203.948 87.302L199.848 73.9254C205.392 68.584 208.435 61.4314 208.435 53.7365C208.435 48.4318 206.945 43.2834 204.132 38.8154L205.805 38.3925C206.587 39.4865 208.104 41.6102 208.848 42.6399C209.124 43.0168 209.354 43.265 209.566 43.4029L209.52 43.8718L210.255 43.5225L210.972 43.1639L211.45 42.9801L211.919 42.7962L211.827 42.6215C212.057 42.2354 212.167 41.5459 212.268 40.4518C212.406 38.9625 212.792 33.3637 212.848 32.1317C212.912 30.6148 211.708 28.5279 210.522 26.6984C209.547 25.1906 205.272 19.031 204.022 17.4956C203.673 17.0727 203.388 16.8245 203.112 16.7234L203.038 16.4935L202.56 16.7142L202.505 16.7418C202.487 16.751 202.468 16.7601 202.441 16.7693L201.861 17.0452L201.365 17.2474L201.19 17.321L201.163 17.3761C201.006 17.5048 200.878 17.7071 200.786 17.9921C200.731 18.1668 200.685 18.369 200.639 18.6172C200.62 18.7368 200.602 18.8563 200.584 18.9942C200.528 19.4631 200.482 20.0606 200.436 20.9524L200.4 21.5776L200.85 21.6787L200.39 21.6511L200.354 22.2395V22.2947C200.326 22.7267 200.298 23.168 200.271 23.5909L200.262 23.7288L200.225 24.1885L200.216 24.3356L200.197 24.6206L198.175 26.0272L198.092 26.0824L195.564 27.8383L196.502 22.644L197.596 16.5579L198.938 9.12954L199.002 8.7526L198.846 8.69744C198.515 8.03551 197.366 7.55745 196.97 7.41035C196.354 7.18052 195.757 7.05179 195.288 7.05179C194.994 7.05179 194.764 7.10697 194.589 7.20809L194.497 7.17131L194.295 7.50229L192.089 11.1889C191.252 9.21227 190.075 7.43794 188.577 5.92101C185.396 2.65731 181.139 0.873779 176.588 0.873779Z" fill="white"/>
</g>
<defs>
<filter id="filter0_d_562_86014" x="0.955566" y="0.873779" width="211.895" height="95.4377" filterUnits="userSpaceOnUse" color-interpolation-filters="sRGB">
<feFlood flood-opacity="0" result="BackgroundImageFix"/>
<feColorMatrix in="SourceAlpha" type="matrix" values="0 0 0 0 0 0 0 0 0 0 0 0 0 0 0 0 0 0 127 0" result="hardAlpha"/>
<feOffset dy="2.75805"/>
<feComposite in2="hardAlpha" operator="out"/>
<feColorMatrix type="matrix" values="0 0 0 0 0 0 0 0 0 0 0 0 0 0 0 0 0 0 0.25 0"/>
<feBlend mode="normal" in2="BackgroundImageFix" result="effect1_dropShadow_562_86014"/>
<feBlend mode="normal" in="SourceGraphic" in2="effect1_dropShadow_562_86014" result="shape"/>
</filter>
<linearGradient id="paint0_linear_562_86014" x1="164.237" y1="28.6113" x2="182.654" y2="10.1948" gradientUnits="userSpaceOnUse">
<stop stop-color="white" stop-opacity="0"/>
<stop offset="1" stop-color="white"/>
</linearGradient>
<linearGradient id="paint1_linear_562_86014" x1="165.495" y1="58.4615" x2="166.878" y2="56.9763" gradientUnits="userSpaceOnUse">
<stop stop-color="#070711"/>
<stop offset="0.0758" stop-color="#0A0A14"/>
<stop offset="0.1111" stop-color="#BABAC4"/>
<stop offset="0.1667" stop-color="#BABAC4"/>
<stop offset="0.2222" stop-color="#30303A"/>
<stop offset="0.5909" stop-color="#65656F"/>
<stop offset="0.6667" stop-color="#BDBDC7"/>
<stop offset="0.8131" stop-color="#BABAC4"/>
<stop offset="0.8788" stop-color="#696973"/>
<stop offset="1" stop-color="#070711"/>
</linearGradient>
<linearGradient id="paint2_linear_562_86014" x1="152.225" y1="46.7307" x2="154.231" y2="44.576" gradientUnits="userSpaceOnUse">
<stop stop-color="#070711"/>
<stop offset="0.0758" stop-color="#0A0A14"/>
<stop offset="0.1111" stop-color="#BABAC4"/>
<stop offset="0.1667" stop-color="#BABAC4"/>
<stop offset="0.2222" stop-color="#30303A"/>
<stop offset="0.5909" stop-color="#65656F"/>
<stop offset="0.6667" stop-color="#BDBDC7"/>
<stop offset="0.8131" stop-color="#BABAC4"/>
<stop offset="0.8788" stop-color="#696973"/>
<stop offset="1" stop-color="#070711"/>
</linearGradient>
<linearGradient id="paint3_linear_562_86014" x1="179.194" y1="71.6937" x2="181.053" y2="69.6975" gradientUnits="userSpaceOnUse">
<stop stop-color="#35353F"/>
<stop offset="0.0758" stop-color="#383842"/>
<stop offset="0.1111" stop-color="#D6D6E0"/>
<stop offset="0.1667" stop-color="#D6D6E0"/>
<stop offset="0.2222" stop-color="#5A5A64"/>
<stop offset="0.5909" stop-color="#8A8A94"/>
<stop offset="0.6667" stop-color="#D9D9E3"/>
<stop offset="0.8131" stop-color="#D6D6E0"/>
<stop offset="0.8788" stop-color="#8D8D97"/>
<stop offset="1" stop-color="#35353F"/>
</linearGradient>
<linearGradient id="paint4_linear_562_86014" x1="178.021" y1="68.7329" x2="178.836" y2="69.4913" gradientUnits="userSpaceOnUse">
<stop offset="0.0303"/>
<stop offset="1" stop-color="#808080"/>
</linearGradient>
<linearGradient id="paint5_linear_562_86014" x1="178.021" y1="68.7329" x2="178.836" y2="69.4913" gradientUnits="userSpaceOnUse">
<stop offset="0.0303"/>
<stop offset="1"/>
</linearGradient>
<linearGradient id="paint6_linear_562_86014" x1="179.76" y1="70.3531" x2="181.414" y2="71.8931" gradientUnits="userSpaceOnUse">
<stop stop-color="white"/>
<stop offset="1" stop-color="#1F1F1F"/>
</linearGradient>
<linearGradient id="paint7_linear_562_86014" x1="180.85" y1="71.3685" x2="202.847" y2="91.847" gradientUnits="userSpaceOnUse">
<stop stop-color="#F5BF00"/>
<stop offset="0.5123" stop-color="#FFD028"/>
<stop offset="1" stop-color="#FFF3C4"/>
</linearGradient>
<linearGradient id="paint8_linear_562_86014" x1="6.79622" y1="31.3216" x2="33.269" y2="16.4143" gradientUnits="userSpaceOnUse">
<stop stop-color="#E94E1B"/>
<stop offset="0.188" stop-color="#E94A1D"/>
<stop offset="0.3793" stop-color="#E73E24"/>
<stop offset="0.4902" stop-color="#E6332A"/>
<stop offset="1" stop-color="#E6332A"/>
</linearGradient>
<linearGradient id="paint9_linear_562_86014" x1="31.5244" y1="27.543" x2="57.6365" y2="9.78654" gradientUnits="userSpaceOnUse">
<stop stop-color="#E94E1B"/>
<stop offset="0.188" stop-color="#E94A1D"/>
<stop offset="0.3793" stop-color="#E73E24"/>
<stop offset="0.4902" stop-color="#E6332A"/>
<stop offset="1" stop-color="#E6332A"/>
</linearGradient>
<linearGradient id="paint10_linear_562_86014" x1="107.119" y1="12.6402" x2="106.328" y2="85.3854" gradientUnits="userSpaceOnUse">
<stop stop-color="white"/>
<stop offset="0.3245" stop-color="#FDFDFE"/>
<stop offset="0.4963" stop-color="#F5F8F9"/>
<stop offset="0.6324" stop-color="#E7EEF0"/>
<stop offset="0.7497" stop-color="#D4E1E5"/>
<stop offset="0.855" stop-color="#BBCFD5"/>
<stop offset="0.9501" stop-color="#9DBAC3"/>
<stop offset="1" stop-color="#8AADB7"/>
</linearGradient>
</defs>
</svg>
