<svg width="213" height="97" viewBox="0 0 213 97" fill="none" xmlns="http://www.w3.org/2000/svg">
<g filter="url(#filter0_d_210_25616)">
<path d="M168.59 27.4429L166.562 25.3887L120.603 70.7657L122.632 72.8199L168.59 27.4429Z" fill="white"/>
<g opacity="0.25">
<path opacity="0.25" d="M164.484 27.4331L162.526 29.3637C162.526 29.3637 163.032 28.9133 162.885 30.6233C162.738 32.3424 161.662 34.2731 161.662 34.2731L166.516 29.4833L164.484 27.4331Z" fill="#414147"/>
</g>
<path d="M123.649 72.94L120.419 69.6689L119.157 70.9156L122.386 74.1867L123.649 72.94Z" fill="white"/>
<path d="M176.252 34.1446C185.315 34.1446 192.663 26.7974 192.663 17.7342C192.663 8.67093 185.315 1.32373 176.252 1.32373C167.189 1.32373 159.842 8.67093 159.842 17.7342C159.842 26.7974 167.189 34.1446 176.252 34.1446Z" fill="#455BDD"/>
<path d="M165.165 28.6283C159.161 22.5422 159.226 12.7143 165.302 6.71097C171.389 0.707606 181.216 0.771983 187.22 6.84889C193.223 12.935 193.159 22.7629 187.082 28.7662C181.005 34.7696 171.168 34.7052 165.165 28.6283ZM186.576 7.48322C180.922 1.75566 171.664 1.70052 165.946 7.35453C160.228 13.0085 160.163 22.2664 165.817 27.9848C171.471 33.7123 180.729 33.7675 186.448 28.1135C192.175 22.4686 192.23 13.2108 186.576 7.48322Z" fill="#F0F2F2"/>
<path opacity="0.35" d="M173.678 1.54443C170.405 2.05927 167.261 3.55782 164.724 6.05845C158.27 12.4296 158.205 22.8182 164.576 29.2721C168.934 33.685 175.186 35.1099 180.766 33.5195L173.678 1.54443Z" fill="url(#paint0_linear_210_25616)"/>
<path d="M153.342 44.7725L151.963 46.2526L178.284 70.7625L179.663 69.2732L153.342 44.7725Z" fill="url(#paint1_linear_210_25616)"/>
<path d="M153.342 44.1475L151.338 46.2987L152.358 47.2549L154.372 45.1036L153.342 44.1475Z" fill="url(#paint2_linear_210_25616)"/>
<path d="M179.295 68.6484L177.631 70.4411C177.576 70.4963 177.585 70.5882 177.64 70.6434L180.113 72.951L181.97 70.956L179.497 68.6484C179.433 68.584 179.35 68.5932 179.295 68.6484Z" fill="url(#paint3_linear_210_25616)"/>
<mask id="mask0_210_25616" style="mask-type:alpha" maskUnits="userSpaceOnUse" x="176" y="68" width="4" height="3">
<path d="M176.96 69.5212L178.339 68.041L179.149 68.8041L177.769 70.2842L176.96 69.5212Z" fill="url(#paint4_linear_210_25616)"/>
</mask>
<g mask="url(#mask0_210_25616)">
<path d="M176.96 69.5212L178.339 68.041L179.149 68.8041L177.769 70.2842L176.96 69.5212Z" fill="url(#paint5_linear_210_25616)"/>
<path d="M180.316 69.4023L178.459 71.3973L180.114 72.9419L181.971 70.9468L180.316 69.4023Z" fill="url(#paint6_linear_210_25616)"/>
</g>
<path d="M188.746 62.5345C190.015 61.1739 191.55 60.5763 192.975 60.9073C194.391 61.2383 195.521 62.4426 196.064 64.217L203.18 87.4214C203.722 89.1957 203.465 90.8322 202.472 91.8986C201.479 92.9651 199.87 93.3328 198.059 92.9191L174.404 87.4766C172.593 87.0628 171.306 86.024 170.883 84.6266C170.46 83.2383 170.938 81.6571 172.207 80.2964L188.746 62.5345Z" fill="url(#paint7_linear_210_25616)"/>
<path d="M202.325 91.7607C201.387 92.772 199.842 93.1214 198.105 92.726L174.45 87.2835C172.712 86.879 171.48 85.8953 171.076 84.5714C170.671 83.2475 171.14 81.7398 172.354 80.4343L188.893 62.6724C190.107 61.367 191.577 60.797 192.929 61.1004C194.28 61.4129 195.347 62.5621 195.871 64.2721L202.987 87.4766C203.501 89.1865 203.262 90.7494 202.325 91.7607ZM202.472 91.8986C203.465 90.8322 203.722 89.2049 203.18 87.4214L196.064 64.217C195.521 62.4426 194.391 61.2291 192.975 60.9073C191.559 60.5763 190.015 61.1739 188.746 62.5345L172.207 80.2964C170.938 81.6571 170.46 83.2383 170.883 84.6266C171.315 86.0148 172.593 87.0536 174.404 87.4766L198.059 92.9191C199.87 93.3328 201.479 92.9651 202.472 91.8986Z" fill="#8C7100"/>
<path d="M200.615 90.1706C200.256 90.5568 199.53 90.6579 198.62 90.4465L186.797 87.7252L174.974 85.0039C174.073 84.7924 173.457 84.3879 173.31 83.8823C173.154 83.3766 173.43 82.6963 174.064 82.016L182.329 73.1351L190.594 64.2541C191.228 63.5738 191.881 63.252 192.396 63.3716C192.911 63.4911 193.361 64.0703 193.628 64.9528L197.186 76.555L200.744 88.1573C201.029 89.0582 200.974 89.7845 200.615 90.1706ZM201.507 90.9981C202.15 90.3086 202.334 89.187 201.911 87.8079L198.353 76.2057L194.795 64.6035C193.95 61.8454 191.67 61.3214 189.702 63.4359L181.437 72.3169L173.172 81.1978C171.205 83.3123 171.894 85.5463 174.708 86.1899L186.531 88.9111L198.353 91.6324C199.76 91.9634 200.863 91.6968 201.507 90.9981Z" fill="black"/>
<path d="M183.947 74.6055C184.517 73.9895 185.344 73.9803 185.988 74.5871C186.65 75.2031 186.687 76.0121 186.08 76.6648C185.482 77.3084 184.71 77.3175 184.011 76.6924C183.359 76.0856 183.322 75.2766 183.91 74.6423L183.947 74.6055ZM187.992 77.2072L196.478 84.369C196.818 84.654 197.039 85.2332 196.855 85.6101C196.744 85.8491 196.597 86.0606 196.432 86.2353C196.257 86.4191 196.046 86.5846 195.807 86.7225C195.421 86.9432 194.823 86.7777 194.51 86.4559L186.769 78.5127C186.457 78.1909 186.457 77.6761 186.76 77.3451L186.834 77.2624C187.128 76.959 187.652 76.9222 187.992 77.2072Z" fill="black"/>
<path d="M27.9705 31.3625L26.2018 33.2329L69.4014 74.0841L71.1701 72.2137L27.9705 31.3625Z" fill="white"/>
<g opacity="0.15">
<path opacity="0.15" d="M28.1355 35.0826L29.9742 36.8201C29.9742 36.8201 29.5421 36.3697 31.0958 36.48C32.6587 36.5811 34.4514 37.5281 34.4514 37.5281L29.8915 33.2163L28.1355 35.0826Z" fill="#414147"/>
</g>
<path d="M71.2361 71.3033L68.425 74.2759L69.6141 75.4003L72.4251 72.4277L71.2361 71.3033Z" fill="#C7D3D1"/>
<path d="M19.6865 38.4753C27.7545 38.4753 34.295 31.9348 34.295 23.8668C34.295 15.7987 27.7545 9.2583 19.6865 9.2583C11.6184 9.2583 5.078 15.7987 5.078 23.8668C5.078 31.9348 11.6184 38.4753 19.6865 38.4753Z" fill="white"/>
<path d="M30.7283 34.301C24.9731 40.3871 15.3383 40.6537 9.2614 34.8985C3.1753 29.1434 2.90868 19.5086 8.66382 13.4317C14.419 7.34558 24.0538 7.07898 30.1307 12.8341C36.2168 18.5801 36.4834 28.2149 30.7283 34.301ZM9.90495 14.6085C4.80255 20.005 5.04158 28.555 10.4382 33.6574C15.8348 38.7598 24.3847 38.5208 29.4871 33.1242C34.5895 27.7276 34.3505 19.1776 28.9539 14.0752C23.5481 8.97285 15.0073 9.21186 9.90495 14.6085Z" fill="url(#paint8_linear_210_25616)"/>
<path d="M17.7282 31.221C17.9764 31.0095 18.2063 30.7153 18.5188 30.3108C19.0245 29.6029 19.3279 28.7755 19.3279 27.9113C19.3463 26.9276 19.0061 25.8888 18.2063 24.8499L18.1695 24.8867C18.289 25.8428 18.004 26.7805 17.2501 27.5804C15.8895 29.0145 13.9405 28.9134 12.5798 27.6263C11.0721 26.2013 10.7779 23.857 12.3224 22.2205C13.8669 20.5841 16.1469 20.8323 18.1787 22.763C19.9346 24.427 20.6058 26.1737 20.6242 27.6815C20.6425 28.8674 20.2104 30.0626 19.5025 31.0096C19.19 31.46 18.8774 31.8186 18.62 32.0576L17.7282 31.221ZM13.5084 26.4863C14.5013 27.4241 15.77 27.4884 16.6526 26.5507C17.3329 25.8244 17.5167 24.9234 17.3053 24.188C17.2685 24.0317 17.1766 23.8846 17.0019 23.7191C15.6413 22.432 14.1151 21.9447 13.0487 23.0755C12.1845 24.0041 12.3868 25.4199 13.5084 26.4863Z" fill="#2E2E35"/>
<path d="M24.7888 17.1182C27.5009 19.6832 28.0433 22.1011 26.3793 23.8754C24.9083 25.4383 22.4445 25.1073 19.7875 22.6343C17.1122 20.1061 16.7261 17.5595 18.2614 15.9414C19.8519 14.2498 22.2514 14.7095 24.7888 17.1182ZM20.8172 21.5587C22.8949 23.5169 24.6693 23.9949 25.5978 23.0112C26.6459 21.908 25.8553 20.1612 23.8143 18.2306C21.8469 16.3735 20.0909 15.6564 19.0337 16.778C18.1419 17.7342 18.6475 19.5085 20.8172 21.5587Z" fill="#2E2E35"/>
<path opacity="0.15" d="M26.3337 10.2695L12.764 37.3077C16.6897 39.3578 21.4611 39.6796 25.828 37.7765C33.4954 34.4301 36.9981 25.494 33.6425 17.8358C32.144 14.3698 29.487 11.7865 26.3337 10.2695Z" fill="#2E2E35"/>
<path d="M44.2795 34.4665C52.9975 34.4665 60.0648 27.3992 60.0648 18.6813C60.0648 9.96331 52.9975 2.896 44.2795 2.896C35.5616 2.896 28.4943 9.96331 28.4943 18.6813C28.4943 27.3992 35.5616 34.4665 44.2795 34.4665Z" fill="url(#paint9_linear_210_25616)"/>
<path d="M47.3319 33.3085C39.2876 35.0093 31.3628 29.8517 29.662 21.8166C27.9612 13.7722 33.1188 5.84743 41.1539 4.14663C49.1982 2.44583 57.123 7.60339 58.8238 15.6385C60.5338 23.6828 55.3763 31.6077 47.3319 33.3085ZM41.3378 5.00162C33.7715 6.60129 28.9173 14.0664 30.517 21.6327C32.1167 29.1989 39.5818 34.0531 47.1481 32.4534C54.7143 30.8538 59.5685 23.3886 57.9688 15.8224C56.3692 8.25611 48.9132 3.40195 41.3378 5.00162Z" fill="white"/>
<path d="M54.5078 14.3743L34.0554 18.7061L35.1184 23.7247L55.5707 19.393L54.5078 14.3743Z" fill="white"/>
<path opacity="0.15" d="M30.1857 11.7217C28.0252 16.1438 27.9517 21.5036 30.4707 26.1647C34.617 33.8321 44.1966 36.682 51.864 32.5358C55.6242 30.504 58.2167 27.1576 59.4027 23.379L30.1857 11.7217Z" fill="white"/>
<path d="M197.113 43.844L197.563 42.658C197.591 42.5936 197.535 42.5293 197.471 42.5385L196.092 42.7407C196.074 42.7407 196.065 42.7683 196.083 42.7775L197.085 43.8532C197.085 43.8624 197.103 43.8624 197.113 43.844Z" fill="#A0A09F"/>
<path opacity="0.05" d="M196.423 42.8788C194.52 42.6857 187.239 41.3711 185.372 40.9758C183.543 40.5804 181.162 39.992 180.169 38.9715C183.653 40.9941 191.339 41.6929 192.764 41.6101C194.189 41.5274 193.968 40.0472 192.157 36.8019L192.387 36.1216C193.178 37.0501 194.566 38.659 195.697 39.9093C196.23 40.5069 196.671 41.0125 196.993 41.417C197.057 41.4998 197.112 41.5733 197.168 41.6469C197.857 42.6306 197.719 43.0075 196.423 42.8788Z" fill="black"/>
<path d="M197.112 43.9175L197.379 43.1637C197.407 43.0993 197.388 43.0625 197.324 43.0717L195.945 43.274C195.926 43.274 195.917 43.3015 195.936 43.3107L197.112 43.9175Z" fill="#040402"/>
<path d="M180.233 32.8119C180.233 32.8119 175.977 32.0948 174.248 31.819C172.52 31.5432 172.906 32.2327 174.248 33.8508C175.213 35.0183 178.873 39.2198 179.709 40.1299C180.674 41.178 183.092 41.7847 184.959 42.1893C186.825 42.5846 194.106 43.8993 196.009 44.0923C197.912 44.2854 197.324 43.3844 195.265 41.086C193.582 39.2106 191.321 36.5537 191.321 36.5537L180.233 32.8119Z" fill="#040402"/>
<path d="M173.108 31.9665L173.375 31.3413L174.34 32.3618L173.108 31.9665Z" fill="#040402"/>
<path d="M180.435 32.3338C180.435 32.3338 176.179 31.6168 174.45 31.3409C172.722 31.0651 173.108 31.7546 174.45 33.3727C175.416 34.5403 179.075 38.7417 179.911 39.6519C180.877 40.7 183.294 41.3067 185.161 41.7112C187.027 42.1066 194.235 43.412 196.138 43.5959C198.041 43.789 197.526 42.8972 195.457 40.608C193.775 38.7325 191.513 36.0756 191.513 36.0756L180.435 32.3338Z" fill="#EFEFEF"/>
<path d="M173.31 31.4975L173.586 30.6885L174.56 31.856L173.31 31.4975Z" fill="#EFEFEF"/>
<path d="M197.287 43.3936L197.59 42.6673C197.618 42.6029 197.563 42.5386 197.498 42.5478L196.119 42.75C196.101 42.75 196.092 42.7776 196.11 42.7868L197.287 43.3936Z" fill="#EFEFEF"/>
<path d="M180.683 31.6078C180.683 31.6078 176.427 30.8907 174.698 30.6149C172.97 30.3391 173.356 31.0286 174.698 32.6467C175.664 33.8142 179.323 38.0157 180.159 38.9258C181.125 39.9739 183.543 40.5806 185.409 40.9852C187.275 41.3805 194.556 42.6952 196.459 42.8882C198.362 43.0813 197.774 42.1803 195.715 39.8819C194.032 38.0065 191.771 35.3496 191.771 35.3496L180.683 31.6078Z" fill="#FE922B"/>
<path opacity="0.05" d="M196.46 42.8877C194.557 42.6946 187.275 41.3799 185.409 40.9846C183.543 40.5893 181.125 39.9825 180.16 38.9253C183.635 40.9478 191.348 41.6557 192.773 41.573C194.198 41.4903 193.977 40.0101 192.166 36.7648L192.396 36.0845C193.187 37.013 194.575 38.6219 195.706 39.8722C197.774 42.1798 198.363 43.0807 196.46 42.8877Z" fill="black"/>
<path opacity="0.15" d="M192.736 39.1739C192.736 39.1739 190.851 42.4192 185.06 40.2587C179.01 37.9971 178.587 34.145 178.587 34.145L194.373 7.69531L198.105 9.09272L192.736 39.1739Z" fill="black"/>
<path d="M192.745 39.1097C192.745 39.1097 190.906 42.3366 185.115 40.1669C179.065 37.9053 178.642 34.0532 178.642 34.0532L194.418 7.6219C194.428 7.6127 194.437 7.6035 194.455 7.61269L198.169 9.00092L192.745 39.1097Z" fill="#FC3D03"/>
<path d="M193.628 34.2094C192.405 34.6323 190.226 35.0736 187.257 33.9612C184.103 32.7752 182.311 31.0285 181.391 29.4564L184.306 24.5654C184.894 25.3469 186.236 26.7167 188.948 27.728C191.844 28.8128 193.674 28.7025 194.676 28.3532L193.628 34.2094Z" fill="#E9E9E9"/>
<path d="M195.733 22.5245C194.648 22.5613 193.325 22.3958 191.798 21.8258C189.905 21.1179 188.507 20.2078 187.487 19.2516L190.576 14.0757C191.302 14.5997 192.258 15.1329 193.499 15.6018C194.832 16.0983 195.936 16.3465 196.836 16.4384L195.733 22.5245Z" fill="#E9E9E9"/>
<path opacity="0.15" d="M192.745 39.1093C192.745 39.1093 190.906 42.3362 185.115 40.1665C179.065 37.9049 178.642 34.0528 178.642 34.0528L194.418 7.63066C194.428 7.62147 194.446 7.61229 194.455 7.62149L196.395 8.34776C192.396 13.0548 181.814 31.4235 180.794 34.4941C179.654 37.9417 189.344 42.5293 192.745 39.1093Z" fill="white"/>
<path opacity="0.25" d="M179.672 35.3953C179.644 35.3861 179.626 35.3769 179.608 35.3585C179.396 35.239 179.332 34.9724 179.451 34.7609L194.492 9.07427C194.612 8.86282 194.878 8.79848 195.09 8.91799C195.301 9.03751 195.365 9.30412 195.246 9.51557L180.205 35.2022C180.095 35.3861 179.865 35.4688 179.672 35.3953Z" fill="white"/>
<path opacity="0.15" d="M192.745 39.1094C192.745 39.1094 192.129 40.1942 190.474 40.6815C190.484 40.6355 190.502 40.5804 190.539 40.516C191.228 39.2841 191.872 37.9602 194.373 25.0985C196.873 12.2459 197.793 9.97515 196.092 8.95467L197.223 8.64209L198.169 8.99145L192.745 39.1094Z" fill="black"/>
<path opacity="0.15" d="M186.705 40.6538C186.209 40.5343 185.685 40.378 185.124 40.1665C179.075 37.9049 178.652 34.0529 178.652 34.0529L194.428 7.63068C194.437 7.61229 194.455 7.6123 194.474 7.6123L195.081 7.84214C190.383 14.4063 179.387 32.2693 180.058 35.9927C180.38 37.8222 183.533 39.4586 186.705 40.6538Z" fill="white"/>
<path d="M198.166 9.0707C198.286 8.75208 197.542 8.17928 196.505 7.79132C195.468 7.40336 194.531 7.34714 194.412 7.66576C194.293 7.98438 195.037 8.55718 196.073 8.94514C197.11 9.3331 198.047 9.38932 198.166 9.0707Z" fill="#F23206"/>
<path d="M202.389 17.1555L201.231 17.6795C201.166 17.7071 201.157 17.7898 201.212 17.8266L202.325 18.6632C202.343 18.6724 202.361 18.6632 202.361 18.6448L202.416 17.1738C202.416 17.1555 202.398 17.1463 202.389 17.1555Z" fill="#A0A09F"/>
<path opacity="0.05" d="M202.187 18.3233C203.4 19.8034 207.62 25.8803 208.65 27.48C209.67 29.0521 210.93 31.1482 210.911 32.5824C209.882 28.6936 204.936 22.7638 203.869 21.8076C202.803 20.8515 201.911 22.065 200.89 25.6321L200.247 25.9447C200.339 24.7312 200.495 22.6075 200.587 20.9251C200.633 20.1252 200.679 19.4633 200.743 18.9393C200.752 18.8381 200.771 18.7462 200.789 18.6543C201.001 17.4775 201.359 17.312 202.187 18.3233Z" fill="black"/>
<path d="M202.435 17.1006L201.709 17.4407C201.644 17.4683 201.635 17.5051 201.69 17.5419L202.803 18.3785C202.821 18.3877 202.84 18.3785 202.84 18.3601L202.435 17.1006Z" fill="#040402"/>
<path d="M206.526 36.8844C206.526 36.8844 209.027 40.4055 210.056 41.8213C211.086 43.2371 211.297 42.4833 211.49 40.378C211.628 38.8702 212.015 33.3081 212.07 32.0762C212.125 30.6512 210.847 28.5091 209.808 26.9095C208.769 25.3098 204.549 19.2329 203.345 17.7527C202.132 16.2726 201.911 17.3299 201.745 20.4097C201.607 22.9195 201.332 26.4038 201.332 26.4038L206.526 36.8844Z" fill="#040402"/>
<path d="M210.958 42.5295L210.323 42.7777L210.369 41.3711L210.958 42.5295Z" fill="#040402"/>
<path d="M206.039 37.078C206.039 37.078 208.539 40.5992 209.569 42.015C210.599 43.4308 210.81 42.6769 211.003 40.5716C211.141 39.0638 211.527 33.5018 211.582 32.2698C211.638 30.8448 210.36 28.7027 209.321 27.1031C208.282 25.5034 204.108 19.4908 202.895 18.0015C201.681 16.5121 201.424 17.5142 201.258 20.5941C201.12 23.1039 200.844 26.5882 200.844 26.5882L206.039 37.078Z" fill="#EFEFEF"/>
<path d="M210.479 42.7041L209.725 43.0902L209.854 41.5732L210.479 42.7041Z" fill="#EFEFEF"/>
<path d="M201.938 17.3486L201.212 17.652C201.148 17.6796 201.139 17.7623 201.194 17.7991L202.306 18.6357C202.325 18.6449 202.343 18.6357 202.343 18.6173L201.938 17.3486Z" fill="#EFEFEF"/>
<path d="M205.359 37.4186C205.359 37.4186 207.859 40.9398 208.889 42.3556C209.918 43.7714 210.13 43.0175 210.323 40.9122C210.461 39.4044 210.847 33.8424 210.902 32.6104C210.957 31.1854 209.679 29.0433 208.641 27.4437C207.602 25.844 203.382 19.7671 202.178 18.2869C200.964 16.8068 200.743 17.864 200.578 20.9439C200.44 23.4537 200.164 26.938 200.164 26.938L205.359 37.4186Z" fill="#FE922B"/>
<path opacity="0.05" d="M202.168 18.2862C203.382 19.7664 207.602 25.8433 208.632 27.443C209.67 29.0426 210.948 31.1847 210.893 32.6097C209.873 28.7208 204.917 22.7727 203.851 21.8165C202.784 20.8604 201.893 22.0739 200.872 25.641L200.229 25.9536C200.321 24.7401 200.477 22.6163 200.569 20.9339C200.743 17.8633 200.964 16.806 202.168 18.2862Z" fill="black"/>
<path opacity="0.15" d="M202.178 23.5449C202.178 23.5449 205.809 22.5796 208.374 28.2061C211.049 34.0807 208.631 37.1054 208.631 37.1054L178.771 44.6441L177.116 41.0126L202.178 23.5449Z" fill="black"/>
<path d="M202.123 23.5818C202.123 23.5818 205.708 22.6073 208.264 28.2245C210.939 34.0991 208.521 37.1238 208.521 37.1238L178.679 44.6533C178.67 44.6533 178.652 44.6533 178.652 44.6349L177.006 41.0218L202.123 23.5818Z" fill="#FC3D03"/>
<path d="M198.031 26.4229C199.189 26.9928 201.046 28.2156 202.361 31.1023C203.759 34.173 203.786 36.6736 203.326 38.4296L197.81 39.827C197.948 38.8617 197.967 36.9402 196.762 34.3017C195.484 31.4885 194.105 30.2657 193.158 29.8061L198.031 26.4229Z" fill="#E9E9E9"/>
<path d="M188.286 33.1982C189.077 33.9429 189.904 34.991 190.576 36.4803C191.412 38.319 191.762 39.9555 191.798 41.3529L185.96 42.8239C185.813 41.9413 185.519 40.884 184.977 39.6797C184.388 38.3834 183.782 37.4273 183.202 36.7286L188.286 33.1982Z" fill="#E9E9E9"/>
<path opacity="0.15" d="M202.122 23.5818C202.122 23.5818 205.708 22.6073 208.264 28.2245C210.939 34.0991 208.521 37.1238 208.521 37.1238L178.679 44.6533C178.66 44.6533 178.651 44.6533 178.642 44.6349L177.787 42.7502C183.947 42.2446 204.412 36.7469 207.307 35.2943C210.553 33.6762 206.949 23.5726 202.122 23.5818Z" fill="white"/>
<path opacity="0.25" d="M208.742 35.4601C208.751 35.4785 208.76 35.506 208.769 35.5336C208.834 35.7634 208.687 36.0025 208.457 36.0668L179.663 43.5963C179.433 43.6607 179.194 43.5136 179.129 43.2837C179.065 43.0539 179.212 42.8149 179.442 42.7505L208.236 35.221C208.438 35.1659 208.65 35.267 208.742 35.4601Z" fill="white"/>
<path opacity="0.15" d="M202.123 23.5818C202.123 23.5818 203.327 23.2508 204.844 24.0691C204.807 24.0967 204.752 24.1151 204.678 24.1426C203.318 24.5288 201.93 25.0068 191.072 32.334C180.215 39.6613 177.962 40.6082 178.44 42.5297L177.42 41.9505L177.006 41.0311L202.123 23.5818Z" fill="black"/>
<path opacity="0.15" d="M207.492 26.7627C207.758 27.1948 208.016 27.6821 208.264 28.2245C210.939 34.0991 208.521 37.1238 208.521 37.1238L178.688 44.6533C178.67 44.6533 178.652 44.6533 178.642 44.6349L178.376 44.0465C186.337 42.7318 206.747 37.8777 208.898 34.7611C209.956 33.2441 208.88 29.8517 207.492 26.7627Z" fill="white"/>
<path d="M178.727 44.6516C179.037 44.5106 178.916 43.5797 178.457 42.5723C177.998 41.5649 177.376 40.8626 177.066 41.0035C176.756 41.1445 176.877 42.0754 177.336 43.0828C177.795 44.0902 178.417 44.7925 178.727 44.6516Z" fill="#F23206"/>
<path d="M180.067 81.3076H32.6402C17.4066 81.3076 5.05969 68.9607 5.05969 53.727C5.05969 38.4934 17.4066 26.1465 32.6402 26.1465H180.058C195.292 26.1465 207.639 38.4934 207.639 53.727C207.648 68.9607 195.301 81.3076 180.067 81.3076Z" fill="white"/>
<path d="M25.9936 83.8547V82.6687C25.9936 82.6044 25.9293 82.5676 25.8741 82.5952L24.7341 83.2204C24.7157 83.2295 24.7157 83.2479 24.7341 83.2571L25.9661 83.8731C25.9753 83.8731 25.9936 83.8639 25.9936 83.8547Z" fill="#A0A09F"/>
<path opacity="0.05" d="M25.0739 83.2296C23.3455 83.6892 16.5515 84.9212 14.7956 85.1786C13.0672 85.436 10.7964 85.6934 9.59204 85.1234C13.297 85.7486 20.2473 83.8455 21.4701 83.3123C22.6928 82.7791 22.0125 81.5564 19.3647 79.3039L19.3464 78.6328C20.3393 79.1844 22.086 80.1405 23.4834 80.8668C24.1454 81.2162 24.697 81.5104 25.1107 81.7678C25.1934 81.8138 25.267 81.8689 25.3405 81.9149C26.2507 82.5493 26.2507 82.917 25.0739 83.2296Z" fill="black"/>
<path d="M26.0212 83.9096L26.012 83.1649C26.012 83.1005 25.9845 83.073 25.9293 83.1097L24.7893 83.7349C24.7709 83.7441 24.7709 83.7625 24.7893 83.7717L26.0212 83.9096Z" fill="#040402"/>
<path d="M7.62492 79.7267C7.62492 79.7267 3.66251 80.4898 2.07204 80.8208C0.472364 81.1425 1.03317 81.6206 2.74316 82.5951C3.97509 83.2938 8.54427 85.776 9.57394 86.2909C10.7599 86.8976 13.0767 86.6311 14.8326 86.3736C16.5886 86.1162 23.3918 84.8751 25.111 84.4246C26.8302 83.9741 26.0303 83.3765 23.4745 82.0435C21.3876 80.9586 18.5468 79.3682 18.5468 79.3682L7.62492 79.7267Z" fill="#040402"/>
<path d="M1.125 81.317L1.15258 80.6826L2.32935 81.2618L1.125 81.317Z" fill="#040402"/>
<path d="M7.65251 79.2394C7.65251 79.2394 3.6901 80.0025 2.09962 80.3334C0.499953 80.6552 1.06076 81.1333 2.77075 82.1078C4.00268 82.8065 8.57186 85.2887 9.60153 85.8036C10.7875 86.4103 13.1043 86.1437 14.8602 85.8863C16.6162 85.6289 23.3458 84.397 25.0742 83.9465C26.8026 83.4868 26.0579 82.8892 23.5021 81.5562C21.4152 80.4713 18.5744 78.8809 18.5744 78.8809L7.65251 79.2394Z" fill="#EFEFEF"/>
<path d="M1.1433 80.8482L1.11572 80.0483L2.35685 80.747L1.1433 80.8482Z" fill="#EFEFEF"/>
<path d="M26.0027 83.4042L26.0303 82.6687C26.0303 82.6044 25.9659 82.5676 25.9107 82.5952L24.7707 83.2204C24.7524 83.2295 24.7524 83.2479 24.7707 83.2571L26.0027 83.4042Z" fill="#EFEFEF"/>
<path d="M7.62492 78.5319C7.62492 78.5319 3.66251 79.2949 2.07204 79.6259C0.472364 79.9477 1.03317 80.4258 2.74316 81.4003C3.97509 82.099 8.54427 84.5812 9.57394 85.0961C10.7599 85.7028 13.0767 85.4362 14.8326 85.1788C16.5886 84.9214 23.3918 83.6803 25.111 83.2298C26.8302 82.7793 26.0303 82.1817 23.4745 80.8487C21.3876 79.7638 18.5468 78.1733 18.5468 78.1733L7.62492 78.5319Z" fill="#FE922B"/>
<path opacity="0.05" d="M25.1108 83.2293C23.3824 83.689 16.5884 84.9209 14.8324 85.1783C13.0765 85.4358 10.7597 85.7024 9.57373 85.0956C13.2695 85.7299 20.2474 83.8269 21.4701 83.2845C22.6929 82.7513 22.0034 81.5285 19.3648 79.2761L19.3464 78.605C20.3393 79.1566 22.0861 80.1127 23.4835 80.839C26.0301 82.1812 26.8391 82.7696 25.1108 83.2293Z" fill="black"/>
<path opacity="0.15" d="M20.6429 81.1978C20.6429 81.1978 20.0545 84.6545 14.2902 84.6545C8.25921 84.6545 6.63196 81.4276 6.63196 81.4276L11.7803 53.1392H15.5037L20.6429 81.1978Z" fill="black"/>
<path d="M20.6246 81.1422C20.6246 81.1422 20.073 84.5622 14.2994 84.5622C8.26849 84.5622 6.64124 81.3353 6.64124 81.3353L11.7896 53.0653C11.7896 53.0561 11.7988 53.0469 11.8172 53.0469H15.5222L20.6246 81.1422Z" fill="#FC3D03"/>
<path d="M19.7972 76.5636C18.8686 77.3358 17.1035 78.4298 14.1432 78.4298C10.999 78.4298 8.85691 77.4829 7.54224 76.4165L8.49836 71.1854C9.27062 71.6726 10.8887 72.4357 13.5916 72.4357C16.4783 72.4357 18.0504 71.7462 18.8043 71.1118L19.7972 76.5636Z" fill="#E9E9E9"/>
<path d="M17.8111 65.6697C16.8733 66.0558 15.6598 66.35 14.1429 66.35C12.2582 66.35 10.7321 66.0099 9.52771 65.5042L10.5298 59.9697C11.3388 60.1904 12.3409 60.3466 13.582 60.3466C14.9059 60.3466 15.954 60.1995 16.7722 59.9789L17.8111 65.6697Z" fill="#E9E9E9"/>
<path opacity="0.15" d="M20.6246 81.1422C20.6246 81.1422 20.073 84.5622 14.2994 84.5622C8.26849 84.5622 6.64124 81.3353 6.64124 81.3353L11.7896 53.0745C11.7896 53.0561 11.808 53.0469 11.8172 53.0469H13.7478C11.7896 58.471 8.54429 77.9888 8.66381 81.0043C8.79252 84.3967 18.7675 85.2517 20.6246 81.1422Z" fill="white"/>
<path opacity="0.25" d="M7.98351 82.1719C7.95593 82.1719 7.93754 82.1719 7.90996 82.1627C7.68932 82.126 7.54222 81.9145 7.579 81.6939L12.3228 54.3156C12.3596 54.0949 12.5711 53.9479 12.7917 53.9846C13.0124 54.0214 13.1595 54.2329 13.1227 54.4535L8.37883 81.8318C8.35125 82.0249 8.17657 82.1719 7.98351 82.1719Z" fill="white"/>
<path opacity="0.15" d="M20.6243 81.1423C20.6243 81.1423 20.4405 82.2915 19.1534 83.266C19.1442 83.2201 19.1442 83.1649 19.1534 83.1005C19.3464 81.7951 19.4751 80.4252 17.4618 68.3725C15.4484 56.3199 15.5035 54.0307 13.6832 53.6997L14.575 53.0562H15.5127L20.6243 81.1423Z" fill="black"/>
<path opacity="0.15" d="M15.8532 84.4703C15.3843 84.5346 14.8695 84.5622 14.3087 84.5622C8.27776 84.5622 6.65051 81.3353 6.65051 81.3353L11.7989 53.0745C11.7989 53.0561 11.8173 53.0469 11.8357 53.0469H12.4424C10.4842 60.3189 6.71487 79.5334 8.51679 82.5672C9.39018 84.0566 12.6906 84.4611 15.8532 84.4703Z" fill="white"/>
<path d="M13.6557 53.6906C14.6915 53.6906 15.5312 53.4313 15.5312 53.1114C15.5312 52.7915 14.6915 52.5322 13.6557 52.5322C12.62 52.5322 11.7803 52.7915 11.7803 53.1114C11.7803 53.4313 12.62 53.6906 13.6557 53.6906Z" fill="#F23206"/>
<path d="M39.5172 89.7746V88.5887C39.5172 88.5243 39.4528 88.4875 39.3977 88.5151L38.2577 89.1403C38.2393 89.1495 38.2393 89.1679 38.2577 89.1771L39.4896 89.793C39.4988 89.8022 39.5172 89.793 39.5172 89.7746Z" fill="#A0A09F"/>
<path opacity="0.05" d="M38.5981 89.1495C36.8697 89.6092 30.0757 90.8411 28.3197 91.0985C26.5914 91.3559 24.3206 91.6133 23.1162 91.0434C26.8212 91.6685 33.7715 89.7655 34.9942 89.2322C36.217 88.699 35.5366 87.4763 32.8889 85.2239L32.8705 84.5527C33.8634 85.1043 35.6102 86.0605 37.0076 86.7868C37.6695 87.1361 38.2212 87.4303 38.6349 87.6877C38.7176 87.7337 38.7912 87.7889 38.8647 87.8348C39.7749 88.4692 39.7749 88.8461 38.5981 89.1495Z" fill="black"/>
<path d="M39.5445 89.8393L39.5354 89.0946C39.5354 89.0302 39.5078 89.0026 39.4526 89.0394L38.3126 89.6646C38.2942 89.6738 38.2942 89.6922 38.3126 89.7014L39.5445 89.8393Z" fill="#040402"/>
<path d="M21.1484 85.6564C21.1484 85.6564 17.186 86.4194 15.5955 86.7504C13.9958 87.0722 14.5566 87.5503 16.2666 88.5248C17.4985 89.2235 22.0677 91.7057 23.0974 92.2206C24.2833 92.8273 26.6001 92.5607 28.3561 92.3033C30.112 92.0459 36.9152 90.8048 38.6344 90.3543C40.3628 89.8946 39.5538 89.3062 36.998 87.9732C34.911 86.8883 32.0702 85.2979 32.0702 85.2979L21.1484 85.6564Z" fill="#040402"/>
<path d="M14.6489 87.2374L14.6765 86.603L15.8533 87.1822L14.6489 87.2374Z" fill="#040402"/>
<path d="M21.1762 85.1593C21.1762 85.1593 17.2138 85.9224 15.6233 86.2534C14.0236 86.5751 14.5844 87.0532 16.2944 88.0277C17.5264 88.7264 22.0955 91.2087 23.1252 91.7235C24.3112 92.3303 26.6279 92.0637 28.3839 91.8062C30.1399 91.5488 36.8695 90.3169 38.5979 89.8664C40.3263 89.4159 39.5816 88.8092 37.0258 87.4761C34.9389 86.3913 32.0981 84.8008 32.0981 84.8008L21.1762 85.1593Z" fill="#EFEFEF"/>
<path d="M14.6765 86.7687L14.6489 85.978L15.8809 86.6675L14.6765 86.7687Z" fill="#EFEFEF"/>
<path d="M39.5261 89.3242L39.5537 88.5887C39.5537 88.5243 39.4893 88.4875 39.4342 88.5151L38.2942 89.1403C38.2758 89.1495 38.2758 89.1679 38.2942 89.1771L39.5261 89.3242Z" fill="#EFEFEF"/>
<path d="M21.1484 84.4518C21.1484 84.4518 17.186 85.2149 15.5955 85.5458C13.9958 85.8676 14.5566 86.3457 16.2666 87.3202C17.4985 88.0189 22.0677 90.5011 23.0974 91.016C24.2833 91.6227 26.6001 91.3561 28.3561 91.0987C30.112 90.8413 36.9152 89.6002 38.6344 89.1497C40.3536 88.6992 39.5538 88.1016 36.998 86.7686C34.911 85.6837 32.0702 84.0933 32.0702 84.0933L21.1484 84.4518Z" fill="#FE922B"/>
<path opacity="0.05" d="M38.6348 89.1502C36.9064 89.6099 30.1124 90.8418 28.3565 91.0992C26.6005 91.3567 24.2837 91.6233 23.0978 91.0165C26.7936 91.6508 33.7714 89.7478 34.9942 89.2054C36.2169 88.663 35.5274 87.4494 32.8889 85.197L32.8705 84.5259C33.8634 85.0775 35.6102 86.0336 37.0076 86.7599C39.5542 88.1021 40.3632 88.6997 38.6348 89.1502Z" fill="black"/>
<path opacity="0.15" d="M34.1666 87.1269C34.1666 87.1269 33.5782 90.5837 27.8138 90.5837C21.7829 90.5837 20.1556 87.3568 20.1556 87.3568L25.304 59.0684H29.0274L34.1666 87.1269Z" fill="black"/>
<path d="M34.1575 87.0627C34.1575 87.0627 33.6059 90.4826 27.8324 90.4826C21.8014 90.4826 20.1742 87.2557 20.1742 87.2557L25.3226 58.9857C25.3226 58.9765 25.3318 58.9673 25.3501 58.9673H29.0551L34.1575 87.0627Z" fill="#FC3D03"/>
<path d="M33.3207 82.4933C32.3922 83.2655 30.627 84.3596 27.6667 84.3596C24.5226 84.3596 22.3805 83.4126 21.0658 82.3462L22.0219 77.1151C22.7942 77.6023 24.4122 78.3654 27.1151 78.3654C30.0019 78.3654 31.574 77.6759 32.3278 77.0415L33.3207 82.4933Z" fill="#E9E9E9"/>
<path d="M31.3441 71.5901C30.4064 71.9763 29.1929 72.2704 27.6759 72.2704C25.7913 72.2704 24.2651 71.9303 23.0608 71.4246L24.0629 65.8901C24.8719 66.1108 25.874 66.2671 27.1151 66.2671C28.439 66.2671 29.4871 66.12 30.3053 65.8993L31.3441 71.5901Z" fill="#E9E9E9"/>
<path opacity="0.15" d="M34.1575 87.0627C34.1575 87.0627 33.6059 90.4826 27.8324 90.4826C21.8014 90.4826 20.1742 87.2557 20.1742 87.2557L25.3226 58.9949C25.3226 58.9765 25.3409 58.9673 25.3501 58.9673H27.2808C25.3226 64.3915 22.0773 83.9093 22.1968 86.9248C22.3255 90.3264 32.3004 91.1722 34.1575 87.0627Z" fill="white"/>
<path opacity="0.25" d="M21.5069 88.0924C21.4794 88.0924 21.461 88.0923 21.4334 88.0832C21.2128 88.0464 21.0657 87.8349 21.1024 87.6143L25.8463 60.236C25.8831 60.0154 26.0945 59.8683 26.3152 59.905C26.5358 59.9418 26.6829 60.1533 26.6461 60.3739L21.9023 87.7522C21.8747 87.9545 21.7 88.0924 21.5069 88.0924Z" fill="white"/>
<path opacity="0.15" d="M34.1573 87.0628C34.1573 87.0628 33.9734 88.2119 32.6863 89.1865C32.6771 89.1405 32.6771 89.0853 32.6863 89.021C32.8794 87.7155 33.0081 86.3457 30.9947 74.293C28.9813 62.2403 29.0365 59.9511 27.2162 59.6201L28.108 58.9766H29.0457L34.1573 87.0628Z" fill="black"/>
<path opacity="0.15" d="M29.3769 90.3907C28.908 90.4551 28.3932 90.4826 27.8324 90.4826C21.8014 90.4826 20.1742 87.2557 20.1742 87.2557L25.3226 58.9949C25.3226 58.9765 25.3409 58.9673 25.3593 58.9673H25.9661C24.0079 66.2394 20.2385 85.4538 22.0405 88.4877C22.9231 89.9862 26.2143 90.3815 29.3769 90.3907Z" fill="white"/>
<path d="M27.1886 59.6203C28.2244 59.6203 29.0641 59.361 29.0641 59.0411C29.0641 58.7212 28.2244 58.4619 27.1886 58.4619C26.1528 58.4619 25.3131 58.7212 25.3131 59.0411C25.3131 59.361 26.1528 59.6203 27.1886 59.6203Z" fill="#F23206"/>
<path d="M176.27 1.33321C180.499 1.33321 184.728 2.95125 187.937 6.19656C189.675 7.95252 190.916 10.0027 191.688 12.1907L194.372 7.69511L194.409 7.63074C194.409 7.62155 194.418 7.63076 194.428 7.62157C194.51 7.52044 194.703 7.46527 194.97 7.46527C195.356 7.46527 195.908 7.5756 196.487 7.79625C197.452 8.1548 198.151 8.67882 198.151 9.0006H198.16L196.818 16.4289L195.724 22.515L194.593 28.8034L195.044 28.4908L198.031 26.4131L200.311 24.8318C200.321 24.6663 200.339 24.5008 200.348 24.3262C200.348 24.2802 200.357 24.225 200.357 24.1791C200.367 24.032 200.376 23.8757 200.394 23.7194C200.394 23.6734 200.403 23.6275 200.403 23.5815C200.431 23.1586 200.459 22.7173 200.486 22.2852C200.486 22.2668 200.486 22.2484 200.486 22.23C200.495 22.0278 200.514 21.8347 200.523 21.6417C200.523 21.6141 200.523 21.5957 200.523 21.5681C200.532 21.3567 200.551 21.1452 200.56 20.9522C200.596 20.1799 200.642 19.5364 200.707 19.0307C200.725 18.902 200.744 18.7825 200.762 18.6722C200.799 18.4515 200.836 18.2677 200.891 18.1114C200.973 17.8631 201.065 17.716 201.194 17.6609C201.194 17.6609 201.194 17.6517 201.203 17.6517L201.727 17.4402L202.325 17.1552C202.343 17.146 202.352 17.1368 202.371 17.1368L202.426 17.1093V17.1185C202.444 17.1185 202.463 17.1093 202.481 17.1093C202.693 17.1093 202.968 17.3207 203.327 17.7712C204.54 19.2513 208.76 25.3283 209.79 26.9279C210.82 28.5276 212.107 30.6697 212.052 32.0947C211.996 33.3266 211.619 38.8795 211.472 40.3964C211.353 41.6468 211.233 42.4006 210.939 42.5293L210.948 42.5477L210.434 42.75L209.716 43.1085V43.0901C209.707 43.0901 209.698 43.0901 209.689 43.0901C209.496 43.0901 209.238 42.8695 208.88 42.373C208.071 41.2606 206.361 38.8611 205.662 37.8774L203.07 38.5302C205.956 42.8879 207.648 48.119 207.648 53.7454C207.648 61.6518 204.32 68.7676 198.997 73.7965L203.18 87.4488C203.722 89.2232 203.465 90.8596 202.472 91.9261C201.746 92.7075 200.688 93.112 199.466 93.112C199.015 93.112 198.546 93.0569 198.059 92.9466L174.404 87.504C172.593 87.0903 171.306 86.0514 170.883 84.654C170.561 83.5967 170.764 82.42 171.435 81.3259H33.1091L33.3205 82.5119L33.7802 85.0677C33.9181 85.1413 34.0652 85.224 34.2123 85.3067C34.2307 85.3159 34.2583 85.3343 34.2766 85.3435C34.4145 85.4171 34.5524 85.4906 34.6903 85.5733C34.7271 85.5917 34.7731 85.6193 34.8099 85.6377C35.1592 85.8308 35.527 86.0238 35.8855 86.2169C35.8855 86.2169 35.8947 86.2169 35.8947 86.2261C36.0602 86.318 36.2349 86.41 36.4003 86.4927C36.4279 86.5019 36.4463 86.5203 36.4739 86.5295C36.6486 86.6214 36.814 86.7133 36.9795 86.7961C37.6139 87.1271 38.1471 87.412 38.5516 87.6695C38.6528 87.7338 38.7447 87.789 38.8366 87.8533C39.0113 87.9729 39.1492 88.074 39.2595 88.1751C39.4342 88.3406 39.5261 88.4785 39.5261 88.6072C39.5261 88.6164 39.5353 88.6164 39.5353 88.6164L39.5169 89.1404L39.5261 89.7564C39.5261 89.7748 39.5261 89.784 39.5261 89.8024V89.8575H39.5169C39.471 90.0598 39.1768 90.2253 38.616 90.3724C36.8876 90.832 30.0936 92.064 28.3376 92.3214C27.3723 92.4685 26.2323 92.6064 25.2118 92.6064C24.3752 92.6064 23.6122 92.5144 23.0697 92.2386C22.0401 91.7146 17.4709 89.2416 16.239 88.5429C15.2185 87.9637 14.6301 87.5591 14.6393 87.2649H14.6209L14.6485 86.7501L14.6393 86.4284C13.7107 86.5663 12.6443 86.6949 11.679 86.6949C10.8424 86.6949 10.0793 86.603 9.54609 86.3272C8.51641 85.8032 3.94724 83.3301 2.71531 82.6314C1.69483 82.0522 1.10644 81.6477 1.11564 81.3535H1.09725L1.12483 80.8387L1.09725 80.0848L1.11564 80.094C1.1708 79.9193 1.46499 79.7814 2.05338 79.6527C3.31289 79.3953 6.01578 78.8713 7.119 78.6598L9.04964 68.0689C6.51223 63.8951 5.05046 58.9949 5.05046 53.7546C5.05046 47.1996 7.33964 41.1779 11.1641 36.4524C10.493 36.0019 9.84947 35.5055 9.2427 34.9355C3.1566 29.1803 2.88998 19.5455 8.64512 13.4686C11.6238 10.3153 15.6414 8.73398 19.6681 8.73398C23.2628 8.73398 26.8759 10.0027 29.7534 12.5585C31.7025 7.98011 35.766 4.39465 41.0063 3.28223C42.1095 3.05239 43.2127 2.93287 44.2884 2.93287C51.588 2.93287 58.143 8.02607 59.7151 15.4544C60.2943 18.1849 60.1196 20.9062 59.3473 23.3976L59.4025 23.416C59.0991 24.3721 58.713 25.3007 58.2349 26.1833H162.168C162.112 26.0913 162.057 25.9994 162.002 25.8982C161.745 25.4478 161.506 24.9881 161.294 24.5192C161.12 24.1331 160.954 23.7378 160.816 23.3333C160.559 22.6254 160.356 21.8991 160.2 21.1636C159.961 20.0052 159.823 18.8376 159.832 17.6609C159.86 13.4594 161.487 9.2672 164.714 6.08624C165.082 5.72769 165.459 5.39672 165.845 5.07495C165.983 4.96463 166.121 4.86349 166.259 4.75317C166.516 4.56011 166.774 4.36706 167.04 4.19238C167.215 4.07286 167.389 3.95334 167.573 3.84302C167.803 3.70512 168.024 3.57642 168.263 3.44771C168.474 3.32819 168.677 3.20867 168.897 3.09835C169.026 3.03399 169.164 2.97882 169.302 2.91447C169.89 2.63866 170.479 2.39964 171.085 2.20658C171.159 2.179 171.232 2.15143 171.297 2.13304C171.646 2.02272 171.995 1.93079 172.345 1.84805C172.418 1.82966 172.492 1.81127 172.565 1.79289C172.933 1.71014 173.301 1.63658 173.678 1.57222C174.542 1.40674 175.406 1.33321 176.27 1.33321ZM21.5252 79.809L21.6631 79.0276C21.1299 78.7977 20.6151 78.5495 20.1002 78.2921L20.2473 79.1287C20.3852 79.2023 20.5323 79.285 20.6794 79.3677C20.6978 79.3769 20.7254 79.3953 20.7438 79.4045C20.8725 79.4781 21.0104 79.5516 21.1483 79.6251C21.1943 79.6527 21.2402 79.6803 21.2862 79.6987C21.3781 79.7355 21.4517 79.7722 21.5252 79.809ZM176.27 0.873535V1.33321V0.873535C175.379 0.873535 174.487 0.947065 173.604 1.08497C173.246 1.14013 172.869 1.21367 172.464 1.3056L172.234 1.36079C171.83 1.46192 171.481 1.55383 171.159 1.65496C171.113 1.67335 171.067 1.68256 171.021 1.70095L170.938 1.72853C170.313 1.93078 169.697 2.179 169.099 2.46399L168.952 2.52836C168.86 2.56513 168.778 2.60191 168.686 2.64788C168.511 2.73981 168.336 2.83174 168.171 2.92367L168.033 2.99723C167.794 3.12594 167.564 3.26383 167.325 3.41093C167.141 3.53044 166.957 3.64997 166.774 3.76949C166.507 3.95336 166.24 4.14642 165.974 4.34868L165.854 4.44059C165.753 4.51414 165.652 4.59689 165.551 4.67963C165.11 5.03818 164.723 5.37835 164.383 5.71851C161.175 8.88107 159.391 13.1101 159.364 17.6149C159.354 18.7825 159.483 19.996 159.741 21.2188C159.897 21.9542 160.108 22.7081 160.375 23.4436C160.522 23.8389 160.678 24.2342 160.871 24.6571C161.028 24.9973 161.193 25.3374 161.368 25.6684H58.9888C59.329 24.9605 59.614 24.2342 59.8438 23.4988L59.9725 23.0942L59.9081 23.0667C60.6161 20.5384 60.708 17.8631 60.1656 15.2981C58.5843 7.833 51.9098 2.41804 44.2884 2.41804C43.1576 2.41804 42.0176 2.53754 40.9052 2.77657C35.9407 3.82463 31.7484 7.16189 29.5788 11.7586C26.7931 9.47866 23.2904 8.22834 19.6681 8.22834C15.3196 8.22834 11.2929 9.96592 8.31416 13.1101C2.38434 19.3801 2.66015 29.2999 8.93012 35.2297C9.3898 35.671 9.90463 36.0847 10.5022 36.5076C6.6869 41.4077 4.59998 47.4938 4.59998 53.7178C4.59998 58.8018 5.979 63.7847 8.58077 68.1241L6.74206 78.2369C5.50094 78.476 3.12902 78.9356 1.97983 79.1747C1.63967 79.2482 1.29951 79.3309 1.06047 79.4872L0.655961 79.2574L0.665154 80.0664L0.692735 80.8203L0.665154 81.2984L0.637573 81.804L0.839831 81.7948C1.08806 82.1442 1.63047 82.4935 2.51305 82.9992C3.72659 83.6887 8.33254 86.1893 9.36222 86.7134C9.91383 86.9984 10.6861 87.127 11.7066 87.127C12.5524 87.127 13.4441 87.0351 14.2072 86.934L14.1888 87.219L14.1612 87.7246L14.3635 87.7154C14.6117 88.0648 15.1541 88.4233 16.0367 88.9198C17.2503 89.6093 21.8562 92.1099 22.8859 92.634C23.4375 92.919 24.2097 93.0477 25.2302 93.0477C26.3151 93.0477 27.5102 92.8914 28.4204 92.7535C30.0752 92.5052 36.9703 91.2641 38.7539 90.7953C39.1308 90.6941 39.5169 90.5654 39.7652 90.3264L40.0134 90.354V89.8299V89.7748C40.0134 89.7564 40.0134 89.738 40.0134 89.7104L40.0042 89.1128L40.0226 88.6072L40.0318 88.4141L39.9858 88.3682C39.9306 88.1751 39.8019 87.9913 39.5997 87.8074C39.471 87.6971 39.3147 87.5683 39.1216 87.4396C39.0297 87.3753 38.9286 87.3109 38.8182 87.2466C38.4413 87.0167 37.9449 86.7409 37.2186 86.364L36.7129 86.0974L36.6394 86.0606L36.1337 85.794C35.766 85.6009 35.3982 85.3987 35.0489 85.2148L34.9753 85.178L34.9294 85.1504L34.5157 84.9206L34.4513 84.8838L34.2123 84.7551L33.8078 82.5027L33.7894 82.4108L33.6699 81.7672H170.699C170.258 82.7785 170.175 83.8174 170.46 84.7735C170.938 86.3272 172.345 87.4764 174.321 87.9361L197.976 93.3786C198.491 93.4982 198.997 93.5533 199.484 93.5533C200.836 93.5533 202.021 93.0753 202.821 92.2203C203.925 91.0343 204.219 89.2324 203.63 87.3017L199.53 73.9252C205.074 68.5837 208.117 61.4312 208.117 53.7362C208.117 48.4316 206.627 43.2832 203.814 38.8152L205.487 38.3923C206.269 39.4863 207.786 41.61 208.53 42.6397C208.806 43.0166 209.036 43.2648 209.248 43.4027L209.202 43.8716L209.937 43.5222L210.654 43.1637L211.132 42.9798L211.601 42.7959L211.509 42.6213C211.739 42.2351 211.849 41.5456 211.95 40.4516C212.088 38.9622 212.475 33.3634 212.53 32.1315C212.594 30.6145 211.39 28.5276 210.204 26.6981C209.229 25.1904 204.954 19.0307 203.704 17.4954C203.355 17.0725 203.07 16.8243 202.794 16.7231L202.72 16.4933L202.242 16.7139L202.187 16.7415C202.169 16.7507 202.15 16.7599 202.123 16.7691L201.543 17.0449L201.047 17.2472L200.872 17.3207L200.845 17.3759C200.688 17.5046 200.56 17.7069 200.468 17.9918C200.413 18.1665 200.367 18.3688 200.321 18.617C200.302 18.7365 200.284 18.856 200.266 18.9939C200.21 19.4628 200.164 20.0604 200.118 20.9522L200.082 21.5773L200.532 21.6784L200.072 21.6509L200.036 22.2392V22.2944C200.008 22.7265 199.98 23.1678 199.953 23.5907L199.944 23.7286L199.907 24.1883L199.898 24.3354L199.879 24.6204L197.857 26.027L197.774 26.0821L195.246 27.8381L196.184 22.6438L197.278 16.5577L198.62 9.12929L198.684 8.75235L198.528 8.6972C198.197 8.03526 197.048 7.55721 196.652 7.41011C196.036 7.18027 195.439 7.05155 194.97 7.05155C194.676 7.05155 194.446 7.10672 194.271 7.20785L194.179 7.17107L193.977 7.50205L191.771 11.1886C190.934 9.21202 189.757 7.43769 188.259 5.92076C185.078 2.65707 180.821 0.873535 176.27 0.873535Z" fill="white"/>
</g>
<path d="M96.9055 60.4058H94.2031V49.5154H88.9689V60.4058H86.2755V47.3337H96.9055V60.4058ZM112.315 63.6199H109.829V60.4058H101.946V63.6109H99.396L99.2524 58.2421H100.24C100.773 57.7991 101.183 57.1497 101.47 56.2938C101.763 55.4319 101.961 54.3665 102.063 53.0976L102.44 47.3337H111.005V58.2421H112.531L112.315 63.6199ZM103.328 58.2421H108.311V49.5154H104.998L104.774 52.954C104.594 55.2584 104.113 57.021 103.328 58.2421ZM127.169 63.6199H124.682V60.4058H116.799V63.6109H114.249L114.106 58.2421H115.093C115.626 57.7991 116.036 57.1497 116.323 56.2938C116.617 55.4319 116.814 54.3665 116.916 53.0976L117.293 47.3337H125.858V58.2421H127.384L127.169 63.6199ZM118.182 58.2421H123.165V49.5154H119.852L119.627 52.954C119.448 55.2584 118.966 57.021 118.182 58.2421Z" fill="#232323"/>
<defs>
<filter id="filter0_d_210_25616" x="0.637573" y="0.873535" width="211.895" height="95.4377" filterUnits="userSpaceOnUse" color-interpolation-filters="sRGB">
<feFlood flood-opacity="0" result="BackgroundImageFix"/>
<feColorMatrix in="SourceAlpha" type="matrix" values="0 0 0 0 0 0 0 0 0 0 0 0 0 0 0 0 0 0 127 0" result="hardAlpha"/>
<feOffset dy="2.75805"/>
<feComposite in2="hardAlpha" operator="out"/>
<feColorMatrix type="matrix" values="0 0 0 0 0 0 0 0 0 0 0 0 0 0 0 0 0 0 0.25 0"/>
<feBlend mode="normal" in2="BackgroundImageFix" result="effect1_dropShadow_210_25616"/>
<feBlend mode="normal" in="SourceGraphic" in2="effect1_dropShadow_210_25616" result="shape"/>
</filter>
<linearGradient id="paint0_linear_210_25616" x1="163.919" y1="28.6113" x2="182.335" y2="10.1948" gradientUnits="userSpaceOnUse">
<stop stop-color="white" stop-opacity="0"/>
<stop offset="1" stop-color="white"/>
</linearGradient>
<linearGradient id="paint1_linear_210_25616" x1="165.177" y1="58.461" x2="166.56" y2="56.9758" gradientUnits="userSpaceOnUse">
<stop stop-color="#070711"/>
<stop offset="0.0758" stop-color="#0A0A14"/>
<stop offset="0.1111" stop-color="#BABAC4"/>
<stop offset="0.1667" stop-color="#BABAC4"/>
<stop offset="0.2222" stop-color="#30303A"/>
<stop offset="0.5909" stop-color="#65656F"/>
<stop offset="0.6667" stop-color="#BDBDC7"/>
<stop offset="0.8131" stop-color="#BABAC4"/>
<stop offset="0.8788" stop-color="#696973"/>
<stop offset="1" stop-color="#070711"/>
</linearGradient>
<linearGradient id="paint2_linear_210_25616" x1="151.907" y1="46.7305" x2="153.913" y2="44.5758" gradientUnits="userSpaceOnUse">
<stop stop-color="#070711"/>
<stop offset="0.0758" stop-color="#0A0A14"/>
<stop offset="0.1111" stop-color="#BABAC4"/>
<stop offset="0.1667" stop-color="#BABAC4"/>
<stop offset="0.2222" stop-color="#30303A"/>
<stop offset="0.5909" stop-color="#65656F"/>
<stop offset="0.6667" stop-color="#BDBDC7"/>
<stop offset="0.8131" stop-color="#BABAC4"/>
<stop offset="0.8788" stop-color="#696973"/>
<stop offset="1" stop-color="#070711"/>
</linearGradient>
<linearGradient id="paint3_linear_210_25616" x1="178.876" y1="71.6934" x2="180.735" y2="69.6973" gradientUnits="userSpaceOnUse">
<stop stop-color="#35353F"/>
<stop offset="0.0758" stop-color="#383842"/>
<stop offset="0.1111" stop-color="#D6D6E0"/>
<stop offset="0.1667" stop-color="#D6D6E0"/>
<stop offset="0.2222" stop-color="#5A5A64"/>
<stop offset="0.5909" stop-color="#8A8A94"/>
<stop offset="0.6667" stop-color="#D9D9E3"/>
<stop offset="0.8131" stop-color="#D6D6E0"/>
<stop offset="0.8788" stop-color="#8D8D97"/>
<stop offset="1" stop-color="#35353F"/>
</linearGradient>
<linearGradient id="paint4_linear_210_25616" x1="177.703" y1="68.7324" x2="178.518" y2="69.4908" gradientUnits="userSpaceOnUse">
<stop offset="0.0303"/>
<stop offset="1" stop-color="#808080"/>
</linearGradient>
<linearGradient id="paint5_linear_210_25616" x1="177.703" y1="68.7324" x2="178.518" y2="69.4908" gradientUnits="userSpaceOnUse">
<stop offset="0.0303"/>
<stop offset="1"/>
</linearGradient>
<linearGradient id="paint6_linear_210_25616" x1="179.442" y1="70.3528" x2="181.096" y2="71.8929" gradientUnits="userSpaceOnUse">
<stop stop-color="white"/>
<stop offset="1" stop-color="#1F1F1F"/>
</linearGradient>
<linearGradient id="paint7_linear_210_25616" x1="180.532" y1="71.368" x2="202.529" y2="91.8465" gradientUnits="userSpaceOnUse">
<stop stop-color="#F5BF00"/>
<stop offset="0.5123" stop-color="#FFD028"/>
<stop offset="1" stop-color="#FFF3C4"/>
</linearGradient>
<linearGradient id="paint8_linear_210_25616" x1="6.47823" y1="31.3213" x2="32.951" y2="16.4141" gradientUnits="userSpaceOnUse">
<stop stop-color="#E94E1B"/>
<stop offset="0.188" stop-color="#E94A1D"/>
<stop offset="0.3793" stop-color="#E73E24"/>
<stop offset="0.4902" stop-color="#E6332A"/>
<stop offset="1" stop-color="#E6332A"/>
</linearGradient>
<linearGradient id="paint9_linear_210_25616" x1="31.2065" y1="27.5427" x2="57.3185" y2="9.78629" gradientUnits="userSpaceOnUse">
<stop stop-color="#E94E1B"/>
<stop offset="0.188" stop-color="#E94A1D"/>
<stop offset="0.3793" stop-color="#E73E24"/>
<stop offset="0.4902" stop-color="#E6332A"/>
<stop offset="1" stop-color="#E6332A"/>
</linearGradient>
</defs>
</svg>
