<svg width="217" height="98" viewBox="0 0 217 98" fill="none" xmlns="http://www.w3.org/2000/svg">
<g filter="url(#filter0_d_210_25764)">
<path d="M214.683 18.8774L209.668 12.1812L203.097 17.1029L208.112 23.7992L214.683 18.8774Z" stroke="#414147" stroke-width="0.919351" stroke-miterlimit="10"/>
<path d="M186.387 46.8986C187.255 46.8986 187.959 46.1947 187.959 45.3265C187.959 44.4582 187.255 43.7544 186.387 43.7544C185.518 43.7544 184.814 44.4582 184.814 45.3265C184.814 46.1947 185.518 46.8986 186.387 46.8986Z" fill="#2E2E35"/>
<path d="M176.32 33.4577C177.188 33.4577 177.892 32.7538 177.892 31.8856C177.892 31.0173 177.188 30.3135 176.32 30.3135C175.452 30.3135 174.748 31.0173 174.748 31.8856C174.748 32.7538 175.452 33.4577 176.32 33.4577Z" fill="#2E2E35"/>
<path d="M187.315 45.3452L176.559 30.9849C175.354 29.376 175.685 27.0961 177.285 25.8917L195.994 11.8808C197.603 10.6764 199.883 11.0074 201.087 12.6071L211.843 26.9673C213.048 28.5762 212.717 30.8562 211.117 32.0606L192.408 46.0715C190.8 47.285 188.52 46.954 187.315 45.3452Z" fill="url(#paint0_linear_210_25764)"/>
<path opacity="0.25" d="M181.551 29.3487C181.385 29.128 181.431 28.8155 181.652 28.65L197.989 16.4134C198.209 16.2479 198.522 16.2939 198.687 16.5145C198.853 16.7352 198.807 17.0478 198.586 17.2133L182.249 29.4498C182.029 29.6153 181.716 29.5693 181.551 29.3487Z" fill="white"/>
<path opacity="0.25" d="M185.918 35.1866C185.752 34.9659 185.798 34.6534 186.019 34.4879L202.356 22.2513C202.576 22.0858 202.889 22.1318 203.054 22.3524C203.22 22.5731 203.174 22.8857 202.953 23.0512L186.616 35.2877C186.396 35.4532 186.083 35.4072 185.918 35.1866Z" fill="white"/>
<path opacity="0.25" d="M190.294 41.0245C190.128 40.8038 190.174 40.4912 190.395 40.3258L206.732 28.0892C206.953 27.9237 207.265 27.9697 207.431 28.1903C207.596 28.411 207.55 28.7235 207.329 28.889L190.993 41.1256C190.772 41.2911 190.459 41.2451 190.294 41.0245Z" fill="white"/>
<path d="M214.463 19.6585L208.865 12.1842C208.57 11.798 208.653 11.2464 209.039 10.9614L209.122 10.8971C209.508 10.6029 210.06 10.6856 210.345 11.0717L215.944 18.5461C216.238 18.9322 216.155 19.4838 215.769 19.7688L215.686 19.8332C215.309 20.1274 214.758 20.0446 214.463 19.6585Z" fill="#2E2E35"/>
<path opacity="0.45" d="M199.533 24.8069C197.253 21.4881 197.235 15.0618 197.456 11.2373C196.941 11.3384 196.435 11.5407 195.985 11.8808L177.276 25.8918C175.878 26.9398 175.446 28.7969 176.154 30.323C175.878 30.3506 175.603 30.4425 175.364 30.6264C174.665 31.1504 174.527 32.1342 175.051 32.8237C175.575 33.5224 176.559 33.6603 177.248 33.1363C177.46 32.98 177.616 32.7777 177.717 32.5479L186.129 43.7731C185.881 43.8099 185.642 43.9019 185.43 44.0581C184.732 44.5822 184.594 45.5659 185.118 46.2554C185.642 46.9541 186.626 47.092 187.315 46.568C187.554 46.3933 187.72 46.1543 187.83 45.8968C189.099 47.0001 191.002 47.1104 192.399 46.0715L211.108 32.0606C211.843 31.509 212.303 30.7276 212.478 29.8909C207.991 29.275 201.639 27.8776 199.533 24.8069Z" fill="url(#paint1_linear_210_25764)"/>
<path fill-rule="evenodd" clip-rule="evenodd" d="M161.444 12.6624L167.54 6.38323C167.926 5.98791 168.606 6.19936 168.689 6.75097L169.967 15.4113C170.004 15.6319 170.142 15.8158 170.335 15.9169L178.195 19.769C178.692 20.0172 178.701 20.7251 178.195 20.9733L170.353 24.8622C170.151 24.9633 170.022 25.1472 169.985 25.3678L168.744 34.0281C168.661 34.5797 167.99 34.8004 167.595 34.4051L161.472 28.1535C161.316 27.9972 161.095 27.9236 160.874 27.9604L152.251 29.459C151.699 29.5509 151.286 28.9809 151.543 28.4844L155.597 20.7251C155.699 20.5321 155.699 20.293 155.597 20.1L151.506 12.359C151.249 11.8626 151.663 11.2926 152.214 11.3845L160.847 12.8463C161.068 12.9014 161.288 12.8279 161.444 12.6624Z" fill="url(#paint2_linear_210_25764)"/>
<path opacity="0.35" fill-rule="evenodd" clip-rule="evenodd" d="M163.532 19.99C162.079 18.1513 160.562 15.2645 159.321 12.6076L152.223 11.4033C151.672 11.3113 151.258 11.8905 151.516 12.3778L155.607 20.1187C155.708 20.3118 155.708 20.5508 155.607 20.7439L151.552 28.5032C151.295 28.9996 151.718 29.5696 152.26 29.4777L160.884 27.9792C161.104 27.9424 161.325 28.0159 161.481 28.1722L167.604 34.4238C167.99 34.8191 168.671 34.5985 168.753 34.0469L169.995 25.3866C170.013 25.2487 170.086 25.1292 170.178 25.028C167.742 23.695 165.067 21.9298 163.532 19.99Z" fill="url(#paint3_linear_210_25764)"/>
<path opacity="0.2" d="M59.7825 50.457C64.4486 50.457 68.2313 48.8147 68.2313 46.7888C68.2313 44.7629 64.4486 43.1206 59.7825 43.1206C55.1163 43.1206 51.3336 44.7629 51.3336 46.7888C51.3336 48.8147 55.1163 50.457 59.7825 50.457Z" fill="#2E2E35"/>
<path d="M63.975 37.4575L72.5801 22.5548C78.1697 12.8741 71.1827 0.775391 60.0034 0.775391C48.8241 0.775391 41.837 12.8741 47.4266 22.5548L56.0318 37.4575C57.7969 40.5098 62.2098 40.5098 63.975 37.4575Z" fill="url(#paint4_linear_210_25764)"/>
<path d="M60.0029 22.5824C63.8211 22.5824 66.9164 19.4871 66.9164 15.6689C66.9164 11.8507 63.8211 8.75537 60.0029 8.75537C56.1846 8.75537 53.0894 11.8507 53.0894 15.6689C53.0894 19.4871 56.1846 22.5824 60.0029 22.5824Z" fill="white"/>
<path opacity="0.35" d="M59.6997 18.2524C53.0988 15.669 52.2162 13.2052 46.9575 8.93018C44.9533 13.0213 44.8338 18.0501 47.4356 22.555L56.0407 37.4576C57.8058 40.5099 62.2187 40.5099 63.9839 37.4576L72.589 22.555C72.9016 22.0217 73.159 21.4793 73.398 20.9277C68.1302 19.99 66.4202 20.8817 59.6997 18.2524Z" fill="url(#paint5_linear_210_25764)"/>
<path d="M40.5405 49.5373L3.05854 35.5999C1.55999 35.0483 0.806126 33.3843 1.35774 31.8858L9.43884 10.1523C9.99045 8.65375 11.6545 7.89988 13.153 8.45149L50.635 22.3889C52.1335 22.9405 52.8874 24.6045 52.3358 26.103L44.2547 47.8365C43.6939 49.335 42.0298 50.0981 40.5405 49.5373Z" fill="url(#paint6_linear_210_25764)"/>
<path d="M40.5405 49.5373L3.05854 35.5999C1.55999 35.0483 0.806126 33.3843 1.35774 31.8858L9.43884 10.1523C9.99045 8.65375 11.6545 7.89988 13.153 8.45149L50.635 22.3889C52.1335 22.9405 52.8874 24.6045 52.3358 26.103L44.2547 47.8365C43.6939 49.335 42.0298 50.0981 40.5405 49.5373Z" stroke="#414147" stroke-width="0.919351" stroke-miterlimit="10"/>
<path d="M12.151 8.26778C12.4819 8.26778 12.8221 8.32294 13.1531 8.45165L50.635 22.389C52.1336 22.9406 52.8874 24.6046 52.3358 26.1032L44.2547 47.8367C43.8226 48.995 42.7194 49.7213 41.5518 49.7213C41.2209 49.7213 40.8807 49.6662 40.5497 49.5375L3.06779 35.6001C1.56925 35.0485 0.815377 33.3845 1.36699 31.8859L9.44808 10.1525C9.87099 8.98488 10.9742 8.26778 12.151 8.26778ZM12.151 7.80811C10.7628 7.80811 9.49405 8.68148 9.01599 9.98696L0.934892 31.7204C0.291346 33.4488 1.17392 35.3795 2.9023 36.023L40.3843 49.9604C40.7612 50.0983 41.1565 50.1718 41.5518 50.1718C42.94 50.1718 44.1996 49.2984 44.6868 47.9929L52.7679 26.2595C53.0805 25.4229 53.0437 24.5127 52.676 23.7037C52.3082 22.8947 51.6371 22.2695 50.8005 21.9569L13.3186 8.01955C12.9416 7.88165 12.5463 7.80811 12.151 7.80811Z" fill="white"/>
<path d="M42.2046 36.9612L34.1603 33.9641C33.3512 33.6607 32.9375 32.7597 33.2409 31.9507L36.4219 23.4007C36.7253 22.5917 37.6262 22.178 38.4352 22.4814L46.4796 25.4785C47.2886 25.7819 47.7023 26.6828 47.3989 27.4919L44.218 36.0418C43.9146 36.8417 43.0136 37.2554 42.2046 36.9612Z" fill="white"/>
<path d="M14.129 19.1858L11.1561 18.0801L10.0505 21.053L13.0233 22.1586L14.129 19.1858Z" fill="#2E2E35"/>
<path d="M18.1589 17.3088L15.186 16.2031L14.0804 19.176L17.0533 20.2817L18.1589 17.3088Z" fill="#2E2E35"/>
<path d="M20.0131 21.3742L17.0402 20.2686L15.9345 23.2415L18.9074 24.3471L20.0131 21.3742Z" fill="#2E2E35"/>
<path d="M24.0605 19.5066L21.0876 18.4009L19.982 21.3738L22.9549 22.4794L24.0605 19.5066Z" fill="#2E2E35"/>
<path d="M25.908 23.5617L22.9351 22.4561L21.8294 25.4289L24.8023 26.5346L25.908 23.5617Z" fill="#2E2E35"/>
<path d="M29.9444 21.6945L26.9716 20.5889L25.8659 23.5618L28.8388 24.6674L29.9444 21.6945Z" fill="#2E2E35"/>
<path d="M31.7926 25.7492L28.8197 24.6436L27.714 27.6164L30.6869 28.7221L31.7926 25.7492Z" fill="#2E2E35"/>
<path d="M27.6511 33.9727L8.78602 26.9581C8.26199 26.765 7.99538 26.1766 8.18844 25.6526C8.38151 25.1286 8.96989 24.862 9.49392 25.055L28.359 32.0697C28.883 32.2627 29.1497 32.8511 28.9566 33.3751C28.7635 33.9084 28.1751 34.175 27.6511 33.9727Z" fill="#2E2E35"/>
<path d="M26.5113 37.0528L7.64625 30.0381C7.12222 29.8451 6.85561 29.2567 7.04867 28.7327C7.24173 28.2086 7.83012 27.942 8.35415 28.1351L27.2192 35.1498C27.7433 35.3428 28.0099 35.9312 27.8168 36.4552C27.6146 36.9793 27.0354 37.2459 26.5113 37.0528Z" fill="#2E2E35"/>
<path d="M19.1014 37.7699L6.51551 33.0904C5.99148 32.8973 5.72487 32.309 5.91793 31.7849C6.111 31.2609 6.69938 30.9943 7.22341 31.1873L19.8093 35.8669C20.3334 36.0599 20.6 36.6483 20.4069 37.1723C20.2047 37.6964 19.6255 37.963 19.1014 37.7699Z" fill="#2E2E35"/>
<path d="M41.0921 30.3046C42.5595 30.3046 43.749 29.115 43.749 27.6476C43.749 26.1803 42.5595 24.9907 41.0921 24.9907C39.6247 24.9907 38.4352 26.1803 38.4352 27.6476C38.4352 29.115 39.6247 30.3046 41.0921 30.3046Z" fill="#2E2E35"/>
<path d="M42.0207 36.8781L34.3441 34.0281L34.6843 33.1087C35.4749 30.985 37.8285 29.9094 39.9522 30.7C42.0759 31.4907 43.1515 33.8442 42.3609 35.9679L42.0207 36.8781Z" fill="#2E2E35"/>
<path opacity="0.45" d="M24.838 12.8L13.153 8.45149C11.6545 7.89988 9.99964 8.65375 9.43884 10.1523L1.35774 31.8858C0.806126 33.3843 1.55999 35.0391 3.05854 35.5999L27.2742 44.6096L24.838 12.8Z" fill="url(#paint7_linear_210_25764)"/>
<path d="M179.712 83.2963H32.2939C17.0603 83.2963 4.71338 70.9494 4.71338 55.7158C4.71338 40.4821 17.0603 28.1353 32.2939 28.1353H179.712C194.946 28.1353 207.292 40.4821 207.292 55.7158C207.292 70.9494 194.946 83.2963 179.712 83.2963Z" fill="white"/>
<path fill-rule="evenodd" clip-rule="evenodd" d="M15.4147 84.1419L8.93328 78.2581C8.51958 77.8812 8.71264 77.2009 9.26425 77.0997L17.8786 75.5368C18.0992 75.5001 18.2831 75.3529 18.375 75.1507L21.9697 67.1707C22.1995 66.6651 22.9074 66.6375 23.174 67.1248L27.3203 74.8289C27.4214 75.022 27.6237 75.1507 27.8351 75.1783L36.5322 76.1344C37.0838 76.1988 37.332 76.8607 36.9459 77.2652L30.8966 83.5904C30.7403 83.7466 30.6759 83.9765 30.7219 84.1879L32.5054 92.7563C32.6158 93.2987 32.055 93.74 31.5585 93.501L23.6705 89.704C23.4682 89.6121 23.2384 89.6121 23.0453 89.7224L15.4423 94.0618C14.955 94.3376 14.3666 93.9423 14.4402 93.3906L15.617 84.7211C15.6629 84.5097 15.5802 84.289 15.4147 84.1419Z" fill="url(#paint8_linear_210_25764)"/>
<path opacity="0.35" fill-rule="evenodd" clip-rule="evenodd" d="M22.6687 81.8159C20.876 83.3328 18.0444 84.9417 15.4242 86.2656L14.4589 93.3997C14.3854 93.9513 14.9737 94.3467 15.461 94.0709L23.064 89.7315C23.2571 89.6212 23.4869 89.612 23.6892 89.7131L31.5772 93.51C32.0829 93.7491 32.6437 93.317 32.5242 92.7654L30.7406 84.197C30.6946 83.9764 30.759 83.7557 30.9153 83.5994L36.9646 77.2743C37.3507 76.8698 37.1025 76.1987 36.5509 76.1435L27.8539 75.1874C27.7159 75.169 27.5964 75.1046 27.4953 75.0127C26.2266 77.4857 24.5626 80.2162 22.6687 81.8159Z" fill="url(#paint9_linear_210_25764)"/>
<path fill-rule="evenodd" clip-rule="evenodd" d="M46.4062 83.6456L40.4488 77.2377C40.0719 76.8332 40.3201 76.162 40.8809 76.1069L49.5964 75.2703C49.817 75.2519 50.0101 75.1232 50.1204 74.9301L54.377 67.2811C54.6436 66.7938 55.3607 66.8306 55.5814 67.3363L59.0657 75.3622C59.1576 75.5645 59.3323 75.7116 59.553 75.7575L68.1397 77.4399C68.6821 77.5503 68.8752 78.2306 68.4523 78.6075L61.8973 84.3994C61.7318 84.5465 61.6491 84.7672 61.6767 84.9878L62.7339 93.6757C62.7983 94.2273 62.2007 94.6226 61.7226 94.3376L54.1839 89.8879C53.9909 89.7776 53.761 89.7684 53.5588 89.8604L45.6248 93.547C45.1191 93.786 44.5675 93.3355 44.687 92.7931L46.5901 84.2523C46.6177 84.0317 46.5625 83.8111 46.4062 83.6456Z" fill="url(#paint10_linear_210_25764)"/>
<path opacity="0.35" fill-rule="evenodd" clip-rule="evenodd" d="M53.8255 81.9359C51.9132 83.2965 48.9529 84.6571 46.2316 85.7604L44.6687 92.7842C44.5492 93.3266 45.1008 93.7771 45.6065 93.5381L53.5405 89.8515C53.7427 89.7596 53.9726 89.7687 54.1656 89.8791L61.7043 94.3287C62.1824 94.6137 62.78 94.2184 62.7156 93.6668L61.6583 84.9789C61.6308 84.7583 61.7135 84.5376 61.879 84.3905L68.434 78.5986C68.8477 78.2309 68.6638 77.5414 68.1214 77.431L59.5346 75.7486C59.3967 75.7211 59.2864 75.6383 59.1945 75.5464C57.7419 77.9183 55.848 80.5017 53.8255 81.9359Z" fill="url(#paint11_linear_210_25764)"/>
<path d="M185.715 89.8139L194.32 74.9113C199.91 65.2305 192.923 53.1318 181.744 53.1318C170.564 53.1318 163.577 65.2305 169.167 74.9113L177.772 89.8139C179.537 92.8662 183.95 92.8662 185.715 89.8139Z" fill="url(#paint12_linear_210_25764)"/>
<path d="M181.744 74.9301C185.562 74.9301 188.657 71.8348 188.657 68.0166C188.657 64.1983 185.562 61.103 181.744 61.103C177.925 61.103 174.83 64.1983 174.83 68.0166C174.83 71.8348 177.925 74.9301 181.744 74.9301Z" fill="white"/>
<path opacity="0.35" d="M181.44 70.6093C174.839 68.026 173.957 65.5621 168.698 61.2871C166.694 65.3782 166.574 70.4071 169.176 74.9119L177.781 89.8146C179.546 92.8668 183.959 92.8668 185.724 89.8146L194.329 74.9119C194.642 74.3787 194.899 73.8362 195.138 73.2846C189.871 72.3469 188.17 73.2387 181.44 70.6093Z" fill="url(#paint13_linear_210_25764)"/>
<path d="M185.715 89.8139L194.32 74.9113C199.91 65.2305 192.923 53.1318 181.744 53.1318C170.564 53.1318 163.577 65.2305 169.167 74.9113L177.772 89.8139C179.537 92.8662 183.95 92.8662 185.715 89.8139Z" fill="url(#paint14_linear_210_25764)"/>
<path d="M181.744 74.9301C185.562 74.9301 188.657 71.8348 188.657 68.0166C188.657 64.1983 185.562 61.103 181.744 61.103C177.925 61.103 174.83 64.1983 174.83 68.0166C174.83 71.8348 177.925 74.9301 181.744 74.9301Z" fill="white"/>
<path opacity="0.35" d="M181.44 70.6093C174.839 68.026 173.957 65.5621 168.698 61.2871C166.694 65.3782 166.574 70.4071 169.176 74.9119L177.781 89.8146C179.546 92.8668 183.959 92.8668 185.724 89.8146L194.329 74.9119C194.642 74.3787 194.899 73.8362 195.138 73.2846C189.871 72.3469 188.17 73.2387 181.44 70.6093Z" fill="url(#paint15_linear_210_25764)"/>
<path d="M60.003 0.775105C70.5664 0.775105 77.3788 11.5775 73.3796 20.9273C73.2601 21.1939 73.1405 21.4697 73.0118 21.7363C72.8739 22.0121 72.736 22.2787 72.5797 22.5545L69.3528 28.1442H151.736L155.606 20.7434C155.707 20.5504 155.707 20.3113 155.606 20.1183L151.515 12.3773C151.276 11.9177 151.616 11.3936 152.104 11.3936C152.14 11.3936 152.177 11.3936 152.223 11.4028L159.321 12.6072L160.856 12.8646C160.893 12.8738 160.929 12.8738 160.966 12.8738C161.15 12.8738 161.325 12.8002 161.444 12.6715L164.533 9.48136L167.54 6.39234C167.677 6.25444 167.852 6.1901 168.018 6.1901C168.027 6.1901 168.027 6.1901 168.036 6.1901H168.045C168.349 6.20848 168.634 6.41993 168.68 6.76009L169.957 15.4204C169.994 15.641 170.132 15.8249 170.325 15.926L178.186 19.7781C178.434 19.8976 178.563 20.1366 178.563 20.3757C178.563 20.4952 178.535 20.6147 178.471 20.725C178.406 20.8262 178.314 20.9181 178.186 20.9825L170.344 24.8713C170.27 24.9081 170.215 24.9632 170.16 25.0276C170.123 25.0644 170.095 25.1103 170.068 25.1563C170.04 25.2023 170.022 25.2574 170.003 25.3126C169.994 25.3402 169.976 25.3586 169.976 25.3861L169.82 26.471L169.58 28.1442H175.887C175.887 28.135 175.887 28.135 175.896 28.1258C175.924 28.0063 175.952 27.8868 175.979 27.7673C176.007 27.6753 176.034 27.5834 176.071 27.5007C176.117 27.3811 176.172 27.2616 176.237 27.1421C176.273 27.0594 176.319 26.9858 176.365 26.9123C176.439 26.7836 176.531 26.6732 176.623 26.5537C176.669 26.4986 176.715 26.4342 176.761 26.379C176.917 26.2136 177.082 26.0573 177.266 25.9102L195.975 11.8993C196.141 11.7706 196.315 11.6786 196.499 11.5867C196.554 11.5591 196.619 11.5223 196.674 11.4947C196.683 11.4855 196.701 11.4856 196.711 11.4764C196.95 11.3752 197.189 11.3017 197.437 11.2557C197.667 11.2098 197.896 11.1914 198.126 11.1914C198.191 11.1914 198.246 11.1914 198.31 11.1914C198.384 11.1914 198.457 11.1914 198.531 11.2006C198.65 11.2098 198.77 11.2373 198.889 11.2649C198.991 11.2833 199.082 11.3109 199.174 11.3385C199.276 11.366 199.377 11.4028 199.478 11.4488C199.588 11.4947 199.698 11.5407 199.8 11.5959C199.882 11.6418 199.974 11.6786 200.048 11.7338C200.167 11.8073 200.287 11.8993 200.397 11.982C200.461 12.028 200.526 12.0739 200.581 12.1291C200.746 12.2854 200.903 12.4509 201.05 12.6347L203.624 16.0731L208.828 12.1751C208.699 11.982 208.653 11.7614 208.68 11.5407C208.68 11.5223 208.699 11.5039 208.699 11.4856C208.717 11.3936 208.745 11.3109 208.791 11.2281C208.846 11.1362 208.92 11.0535 209.011 10.9799C209.011 10.9799 209.011 10.9707 209.021 10.9707L209.103 10.9064C209.205 10.8328 209.306 10.7868 209.416 10.7593C209.49 10.7409 209.554 10.7317 209.627 10.7317C209.894 10.7317 210.161 10.8512 210.326 11.081L215.925 18.5554C216.146 18.8496 216.155 19.2265 215.98 19.5207C215.925 19.6218 215.842 19.7046 215.75 19.7781L215.668 19.8425C215.566 19.916 215.465 19.962 215.355 19.9896C215.281 20.0079 215.217 20.0171 215.144 20.0171C215.098 20.0171 215.061 20.0171 215.015 20.0079C214.794 19.9804 214.583 19.8608 214.436 19.6678L209.241 23.5566L211.815 26.995C211.972 27.2065 212.1 27.4271 212.211 27.6569C212.229 27.6937 212.238 27.7397 212.257 27.7856C212.34 27.9879 212.404 28.1902 212.45 28.3924C212.459 28.42 212.459 28.4384 212.459 28.466C212.505 28.6958 212.533 28.9256 212.533 29.1647C212.533 29.1647 212.533 29.1647 212.533 29.1739C212.533 29.4221 212.505 29.6703 212.45 29.9186C212.404 30.13 212.349 30.3322 212.266 30.5253C212.266 30.5345 212.257 30.5345 212.257 30.5437C212.183 30.7368 212.091 30.9206 211.981 31.0953C211.953 31.1505 211.907 31.1965 211.871 31.2424C211.779 31.3711 211.696 31.4998 211.595 31.6102C211.439 31.7756 211.273 31.9411 211.08 32.079L201.693 39.1121C205.187 43.7364 207.265 49.4915 207.265 55.7339C207.265 67.0144 200.489 76.7043 190.799 80.9793L185.688 89.8327C185.467 90.2188 185.209 90.5498 184.915 90.8348C184.207 91.5243 183.325 91.9288 182.405 92.0667C182.359 92.0759 182.313 92.0851 182.258 92.0851C182.074 92.1035 181.9 92.1127 181.716 92.1127C180.558 92.1127 179.399 91.6806 178.526 90.8256C178.232 90.5406 177.974 90.2004 177.754 89.8235L173.993 83.3145H63.138L61.8877 84.4177C61.7222 84.5648 61.6395 84.7854 61.667 85.0061L62.7243 93.6939C62.7703 94.0433 62.5496 94.3191 62.2646 94.411C62.2095 94.4294 62.1451 94.4386 62.0899 94.4478C62.0808 94.4478 62.0716 94.4478 62.0624 94.4478C61.952 94.4478 61.8325 94.4202 61.7222 94.3559L56.9783 91.561L54.1835 89.9154C54.1651 89.9062 54.1376 89.9062 54.11 89.897C54.018 89.851 53.9169 89.8327 53.8158 89.8327C53.7239 89.8327 53.6411 89.851 53.5584 89.8878L45.6244 93.5744C45.5324 93.6204 45.4313 93.6388 45.3394 93.6388C45.1831 93.6388 45.036 93.5836 44.9165 93.4917C44.8705 93.4549 44.8245 93.409 44.7969 93.363C44.6866 93.2159 44.6407 93.0228 44.6866 92.8205L46.0565 86.6609L46.5897 84.2798C46.6357 84.0683 46.5805 83.8385 46.4242 83.673L46.1024 83.3237H32.3122C31.9536 83.3237 31.5859 83.3145 31.2273 83.2961L30.9147 83.6179C30.7585 83.7741 30.6941 84.004 30.7401 84.2154L32.5236 92.7838C32.542 92.8481 32.542 92.9217 32.5328 92.986C32.5144 93.2435 32.3397 93.4549 32.1191 93.5468C32.0639 93.5744 32.0088 93.5836 31.9444 93.5928C31.926 93.5928 31.8985 93.5928 31.8801 93.5928C31.8249 93.5928 31.7697 93.5836 31.7146 93.5744C31.6686 93.5652 31.6226 93.556 31.5675 93.5285L23.6794 89.7315C23.5875 89.6856 23.4864 89.6672 23.3853 89.6672C23.2657 89.6672 23.1554 89.6948 23.0543 89.7591L15.4513 94.0985C15.3409 94.1628 15.2306 94.1904 15.1203 94.1904C14.9732 94.1904 14.8353 94.1444 14.725 94.0617C14.6514 94.0065 14.5963 93.9422 14.5503 93.8686C14.5043 93.7951 14.4676 93.7215 14.4584 93.6296C14.4492 93.5652 14.4492 93.5009 14.4584 93.4273L15.6351 84.7578C15.6627 84.5372 15.5892 84.3166 15.4237 84.1695L8.94225 78.2856C8.52854 77.9087 8.72161 77.2284 9.27322 77.1272L13.8976 76.2906C8.26193 71.2434 4.72243 63.9161 4.72243 55.7523C4.72243 49.2249 6.99322 43.2308 10.7901 38.5053L3.0676 35.6369C2.69066 35.499 2.36889 35.2876 2.09308 35.0301C1.81728 34.7727 1.60583 34.4693 1.44954 34.1292C1.14615 33.4581 1.09099 32.6674 1.3668 31.9227L9.44789 10.1893C9.7237 9.44459 10.2845 8.8746 10.9556 8.57121C11.2958 8.41492 11.6543 8.33218 12.0313 8.3138C12.0772 8.3138 12.114 8.3138 12.16 8.3138C12.4909 8.3138 12.8311 8.36895 13.1621 8.49766L24.847 12.8462L46.6081 20.9365C46.5897 20.8997 46.5805 20.8629 46.5621 20.8262C46.5069 20.7067 46.4702 20.5779 46.4242 20.4584C46.3598 20.2837 46.2863 20.1091 46.2311 19.9252C46.1852 19.7873 46.1484 19.6586 46.1024 19.5207C46.0473 19.3552 46.0013 19.1897 45.9553 19.015C45.9186 18.8771 45.8818 18.73 45.8542 18.5921C45.8174 18.4267 45.7807 18.2704 45.7439 18.1049C45.7163 17.9578 45.6887 17.8107 45.6703 17.6636C45.6428 17.5073 45.6244 17.351 45.5968 17.1947C45.5784 17.0384 45.56 16.8913 45.5416 16.735C45.5232 16.5879 45.514 16.4409 45.5048 16.2938C45.4957 16.1375 45.4865 15.9812 45.4773 15.8249C45.4773 15.687 45.4681 15.5399 45.4681 15.402C45.4681 15.2365 45.4681 15.0802 45.4773 14.9147C45.4773 14.7768 45.4865 14.6481 45.4957 14.5102C45.5048 14.3447 45.514 14.1793 45.5324 14.0138C45.5416 13.8851 45.56 13.7655 45.5784 13.646C45.5968 13.4713 45.6244 13.2967 45.6519 13.122C45.6703 13.0117 45.6887 12.9014 45.7071 12.791C45.7439 12.6072 45.7715 12.4233 45.8174 12.2394C45.8358 12.1567 45.8634 12.0739 45.8818 11.982C45.9277 11.7797 45.9829 11.5775 46.0381 11.3752C46.0473 11.3569 46.0565 11.3293 46.0565 11.3109C46.2955 10.511 46.5897 9.72959 46.9574 8.98492C46.9574 8.98492 46.9574 8.98492 46.9574 8.97573C49.2558 4.23188 54.0272 0.775105 60.003 0.775105ZM159.918 28.135H161.435C161.306 28.0247 161.15 27.9603 160.985 27.9603C160.948 27.9603 160.911 27.9603 160.874 27.9695L159.918 28.135ZM60.003 0.31543C54.2387 0.31543 49.0811 3.54236 46.5437 8.7275C46.1668 9.49976 45.8542 10.3088 45.6152 11.127L45.5968 11.1914C45.5416 11.4028 45.4865 11.6051 45.4313 11.8165L45.4037 11.9177C45.3853 11.9728 45.3761 12.028 45.3669 12.0831C45.3302 12.2578 45.2934 12.4417 45.2658 12.6164L45.2382 12.7543C45.2198 12.837 45.2107 12.9105 45.1923 12.9933C45.1647 13.168 45.1463 13.3518 45.1187 13.5265L45.1095 13.5909C45.1003 13.7012 45.0819 13.8023 45.0728 13.9126C45.0544 14.0873 45.0452 14.2528 45.036 14.4275C45.0268 14.5654 45.0176 14.7033 45.0176 14.8412C45.0084 15.0067 45.0084 15.1722 45.0084 15.3468C45.0084 15.4939 45.0084 15.641 45.0176 15.7881C45.0268 15.9536 45.0268 16.1099 45.0452 16.2754C45.0544 16.4317 45.0636 16.5788 45.0819 16.735C45.1003 16.8913 45.1187 17.0476 45.1371 17.2131C45.1555 17.3694 45.1831 17.5349 45.2107 17.6912C45.2382 17.8475 45.2566 17.9946 45.2934 18.1509C45.3302 18.3163 45.3669 18.4818 45.4037 18.6473L45.4129 18.7025C45.4405 18.8312 45.4773 18.9599 45.5048 19.0886C45.5508 19.2541 45.5968 19.4196 45.6519 19.585L45.6887 19.7046C45.7163 19.8057 45.7531 19.916 45.7898 20.0171C45.799 20.0447 45.8082 20.0723 45.8174 20.0999L25.0125 12.3589L13.3276 8.01041C12.9506 7.87251 12.5553 7.79896 12.16 7.79896C12.114 7.79896 12.0589 7.79896 12.0129 7.79896C11.5808 7.81735 11.1579 7.91847 10.7626 8.10234C9.95354 8.47008 9.32837 9.14121 9.0158 9.97782L0.9347 31.7113C0.62212 32.5479 0.658895 33.458 1.02664 34.2671C1.21051 34.6624 1.45873 35.0118 1.77131 35.306C2.09308 35.6093 2.47921 35.8484 2.90211 36.0047L10.0363 38.6616C6.25774 43.5893 4.26275 49.464 4.26275 55.6972C4.26275 63.337 7.40693 70.6734 12.9138 75.9505L9.19967 76.6216C8.77676 76.6951 8.43661 77.0077 8.31709 77.4214C8.19757 77.8351 8.32628 78.2764 8.64806 78.5706L15.1295 84.4545C15.1846 84.5004 15.203 84.574 15.1938 84.6383L14.0171 93.3078C13.9987 93.4181 13.9987 93.5285 14.0171 93.6388C14.0355 93.7767 14.0906 93.9146 14.1734 94.0433C14.2561 94.172 14.3572 94.2915 14.4767 94.3743C14.6698 94.5122 14.8996 94.5857 15.1387 94.5857C15.3317 94.5857 15.5248 94.5305 15.6995 94.4386L23.3025 90.0993C23.3301 90.0809 23.3669 90.0717 23.4036 90.0717C23.4404 90.0717 23.468 90.0809 23.4956 90.0901L31.3836 93.887C31.4755 93.933 31.5675 93.9513 31.6226 93.9697C31.7146 93.9881 31.8065 94.0065 31.8893 94.0065C31.9352 94.0065 31.972 94.0065 32.0088 93.9973C32.1099 93.9881 32.211 93.9605 32.303 93.9146C32.6891 93.7491 32.9557 93.3905 32.9925 92.9676C33.0017 92.8573 32.9925 92.747 32.9741 92.6367L31.1906 84.0683C31.1722 84.004 31.1997 83.9304 31.2457 83.8753L31.4112 83.7006C31.7054 83.7098 31.9996 83.719 32.303 83.719H45.9002L46.084 83.9212C46.13 83.9764 46.1484 84.0407 46.1392 84.1143L45.606 86.4954L44.2361 92.6551C44.1626 92.9768 44.227 93.2986 44.4292 93.5652C44.4844 93.648 44.5579 93.7215 44.6407 93.7859C44.8429 93.9514 45.0911 94.0341 45.3486 94.0341C45.514 94.0341 45.6703 93.9973 45.8266 93.9238L53.7606 90.2372C53.779 90.228 53.7974 90.228 53.825 90.228C53.8618 90.228 53.8985 90.2372 53.9353 90.2556L53.9813 90.2739L54.0089 90.2832L56.7577 91.9012L61.5016 94.696C61.6762 94.7972 61.8785 94.8523 62.0716 94.8523H62.0807H62.1175C62.2187 94.8523 62.3198 94.8248 62.4209 94.7972C62.9449 94.6225 63.2575 94.126 63.1932 93.5836L62.1359 84.8957C62.1267 84.8222 62.1543 84.7579 62.2095 84.7119L63.3311 83.7282H173.773L177.404 90.0073C177.643 90.4118 177.928 90.7888 178.259 91.1106C179.197 92.0299 180.447 92.5264 181.771 92.5264C181.973 92.5264 182.166 92.5172 182.369 92.4896C182.405 92.4896 182.442 92.4804 182.479 92.4712L182.525 92.462C183.582 92.3057 184.538 91.8368 185.292 91.1014C185.623 90.7796 185.908 90.4119 186.147 89.9982L191.185 81.2735C201.28 76.7595 207.789 66.7294 207.789 55.6696C207.789 49.6662 205.932 43.9662 202.401 39.1396L211.42 32.3824C211.622 32.2261 211.825 32.0514 211.999 31.8492C212.1 31.7297 212.192 31.6102 212.284 31.4814L212.321 31.4355L212.358 31.3895C212.385 31.3435 212.422 31.3068 212.45 31.2608C212.56 31.0861 212.661 30.8839 212.753 30.6448C212.845 30.4058 212.919 30.1852 212.965 29.9369C213.02 29.6519 213.057 29.3669 213.057 29.1003C213.057 28.8337 213.029 28.5671 212.974 28.3097C212.974 28.2821 212.965 28.2637 212.965 28.2361C212.919 28.0155 212.845 27.7857 212.744 27.5466C212.726 27.4823 212.707 27.4455 212.689 27.4087C212.569 27.1513 212.431 26.9031 212.266 26.6916V26.6824L212.238 26.6457L209.949 23.5842L214.472 20.201C214.638 20.3113 214.822 20.3757 215.015 20.4033C215.079 20.4125 215.144 20.4124 215.208 20.4124C215.318 20.4124 215.419 20.4033 215.53 20.3757C215.704 20.3297 215.861 20.2562 216.008 20.1458L216.09 20.0815C216.238 19.9712 216.357 19.8425 216.44 19.6862C216.706 19.2173 216.679 18.6473 216.357 18.2152L210.758 10.7409C210.51 10.4099 210.105 10.2077 209.692 10.2077C209.581 10.2077 209.48 10.2168 209.37 10.2444C209.195 10.2904 209.039 10.3639 208.892 10.4743L208.809 10.5386L208.754 10.5846L208.745 10.5938C208.635 10.6857 208.533 10.8052 208.46 10.9248C208.386 11.0443 208.35 11.1638 208.322 11.2741C208.313 11.3017 208.294 11.3385 208.294 11.3936C208.267 11.5775 208.276 11.7706 208.322 11.9452L203.78 15.3468L201.482 12.2854C201.335 12.0831 201.16 11.8993 200.958 11.7154C200.912 11.6694 200.857 11.6326 200.811 11.5959L200.756 11.5499C200.627 11.4488 200.498 11.3476 200.36 11.2649C200.278 11.2097 200.186 11.1638 200.103 11.1178C199.956 11.0443 199.836 10.9891 199.717 10.9339C199.607 10.888 199.487 10.8512 199.377 10.8144C199.266 10.7869 199.156 10.7593 199.046 10.7317C198.908 10.7041 198.779 10.6765 198.641 10.6673C198.577 10.6581 198.512 10.6581 198.448 10.6581H198.384C198.319 10.6581 198.246 10.6489 198.181 10.6489C197.915 10.6489 197.648 10.6765 197.4 10.7225C197.115 10.7777 196.839 10.8604 196.582 10.9799L196.536 10.9983C196.481 11.0259 196.426 11.0535 196.38 11.081L196.334 11.0994C196.104 11.2189 195.911 11.3293 195.745 11.458L177.036 25.4689L177.009 25.4873C176.825 25.6252 176.641 25.7907 176.466 25.9929C176.42 26.0389 176.384 26.0849 176.347 26.14L176.301 26.1952C176.2 26.3239 176.099 26.4526 176.007 26.5997C175.961 26.6732 175.924 26.7468 175.887 26.8203L175.86 26.8663L175.85 26.8847C175.786 27.0134 175.731 27.1329 175.676 27.2616C175.639 27.3628 175.602 27.4639 175.575 27.565C175.565 27.5834 175.565 27.6018 175.556 27.6202H170.141L170.307 26.471L170.454 25.4413C170.463 25.4229 170.472 25.3953 170.481 25.3678C170.491 25.3586 170.491 25.3402 170.5 25.3218C170.5 25.3218 170.509 25.3034 170.527 25.285C170.555 25.2574 170.564 25.2391 170.592 25.2207L178.415 21.341C178.618 21.2399 178.774 21.0928 178.884 20.9089C178.985 20.7342 179.041 20.532 179.041 20.3297C179.041 19.8976 178.802 19.5115 178.406 19.3184L170.546 15.4663C170.481 15.4388 170.435 15.3744 170.426 15.3101L169.148 6.64977C169.066 6.10736 168.634 5.71203 168.082 5.68445H168.036H168.008C167.696 5.69365 167.42 5.81316 167.209 6.02461L164.202 9.12282L161.113 12.313C161.076 12.3497 161.021 12.3773 160.957 12.3773L159.394 12.1107L152.297 10.9064C152.232 10.8972 152.168 10.888 152.104 10.888C151.708 10.888 151.35 11.0902 151.138 11.4396C150.936 11.7797 150.918 12.1935 151.111 12.552L155.202 20.2929C155.239 20.3573 155.239 20.4308 155.202 20.4952L151.46 27.6478H70.1527L72.9751 22.7476C73.1313 22.481 73.2785 22.196 73.4256 21.9018C73.5635 21.626 73.683 21.3502 73.8025 21.0744C75.7699 16.4684 75.2734 11.2005 72.4878 6.98073C69.6746 2.7609 65.1238 0.31543 60.003 0.31543Z" fill="white"/>
</g>
<path d="M86.0309 57.985C85.9291 59.3916 85.4084 60.4989 84.4687 61.3069C83.535 62.1149 82.302 62.5189 80.7698 62.5189C79.0939 62.5189 77.7741 61.9563 76.8104 60.831C75.8528 59.6998 75.374 58.1496 75.374 56.1804V55.3814C75.374 54.1244 75.5954 53.0172 76.0383 52.0595C76.4812 51.1018 77.1127 50.3686 77.9327 49.8599C78.7587 49.3451 79.7163 49.0878 80.8057 49.0878C82.314 49.0878 83.529 49.4918 84.4508 50.2998C85.3725 51.1078 85.9052 52.2421 86.0488 53.7025H83.3554C83.2896 52.8585 83.0532 52.248 82.6462 51.871C82.2452 51.4879 81.6317 51.2964 80.8057 51.2964C79.9079 51.2964 79.2345 51.6196 78.7856 52.266C78.3427 52.9064 78.1153 53.903 78.1033 55.2557V56.2433C78.1033 57.6558 78.3158 58.6883 78.7407 59.3407C79.1717 59.9931 79.848 60.3193 80.7698 60.3193C81.6017 60.3193 82.2212 60.1308 82.6282 59.7537C83.0412 59.3706 83.2776 58.7811 83.3375 57.985H86.0309ZM92.1 62.5189C90.6755 62.5189 89.5144 62.082 88.6166 61.2081C87.7247 60.3343 87.2788 59.1701 87.2788 57.7157V57.4643C87.2788 56.4887 87.4674 55.6178 87.8445 54.8517C88.2215 54.0796 88.7542 53.487 89.4425 53.074C90.1368 52.655 90.9269 52.4456 91.8127 52.4456C93.1415 52.4456 94.1859 52.8645 94.9461 53.7025C95.7122 54.5404 96.0953 55.7285 96.0953 57.2668V58.3262H89.9094C89.9932 58.9606 90.2446 59.4694 90.6636 59.8524C91.0885 60.2355 91.6242 60.427 92.2706 60.427C93.2702 60.427 94.0513 60.0649 94.6139 59.3407L95.8888 60.7682C95.4997 61.3189 94.973 61.7498 94.3086 62.061C93.6443 62.3663 92.9081 62.5189 92.1 62.5189ZM91.8038 54.5464C91.289 54.5464 90.8701 54.72 90.5468 55.0671C90.2296 55.4143 90.0261 55.9111 89.9363 56.5575H93.5455V56.351C93.5335 55.7764 93.3779 55.3335 93.0786 55.0223C92.7794 54.705 92.3544 54.5464 91.8038 54.5464ZM106.321 57.572C106.321 59.0684 105.98 60.2684 105.298 61.1722C104.621 62.07 103.706 62.5189 102.55 62.5189C101.569 62.5189 100.776 62.1778 100.171 61.4954V66.0742H97.5767V52.6251H99.9828L100.073 53.5768C100.701 52.8226 101.521 52.4456 102.533 52.4456C103.73 52.4456 104.66 52.8885 105.325 53.7743C105.989 54.6601 106.321 55.8812 106.321 57.4373V57.572ZM103.727 57.3835C103.727 56.4797 103.565 55.7824 103.242 55.2916C102.925 54.8008 102.461 54.5554 101.85 54.5554C101.036 54.5554 100.477 54.8666 100.171 55.4891V59.4664C100.489 60.1068 101.054 60.427 101.868 60.427C103.107 60.427 103.727 59.4125 103.727 57.3835ZM108.108 62.3394V52.6251H112.166C113.489 52.6251 114.503 52.8585 115.21 53.3254C115.916 53.7923 116.269 54.4626 116.269 55.3365C116.269 55.7854 116.119 56.1894 115.82 56.5485C115.527 56.9017 115.096 57.174 114.527 57.3655C115.221 57.4972 115.766 57.7576 116.161 58.1466C116.562 58.5297 116.763 59.0025 116.763 59.5651C116.763 60.4689 116.422 61.1572 115.739 61.6301C115.063 62.1029 114.078 62.3394 112.785 62.3394H108.108ZM110.703 58.3082V60.2654H112.794C113.71 60.2654 114.168 59.9452 114.168 59.3048C114.168 58.6524 113.731 58.3202 112.857 58.3082H110.703ZM110.703 56.5665H112.31C113.219 56.5545 113.674 56.2612 113.674 55.6866C113.674 55.3335 113.549 55.0821 113.297 54.9325C113.052 54.7828 112.675 54.708 112.166 54.708H110.703V56.5665ZM124.206 52.6251H126.8V62.3394H124.206V56.342L120.955 62.3394H118.352V52.6251H120.955V58.6135L124.206 52.6251ZM132.824 60.427C133.303 60.427 133.692 60.2954 133.992 60.032C134.291 59.7686 134.446 59.4185 134.458 58.9816H136.891C136.886 59.64 136.706 60.2445 136.353 60.7951C136 61.3398 135.515 61.7648 134.898 62.07C134.288 62.3693 133.612 62.5189 132.869 62.5189C131.481 62.5189 130.385 62.079 129.583 61.1991C128.781 60.3133 128.38 59.0923 128.38 57.5361V57.3655C128.38 55.8692 128.778 54.6751 129.574 53.7833C130.37 52.8915 131.463 52.4456 132.851 52.4456C134.066 52.4456 135.039 52.7927 135.769 53.487C136.505 54.1753 136.88 55.0941 136.891 56.2433H134.458C134.446 55.7405 134.291 55.3335 133.992 55.0223C133.692 54.705 133.297 54.5464 132.806 54.5464C132.202 54.5464 131.744 54.7679 131.433 55.2108C131.128 55.6477 130.975 56.36 130.975 57.3476V57.6169C130.975 58.6165 131.128 59.3347 131.433 59.7716C131.738 60.2086 132.202 60.427 132.824 60.427Z" fill="#232323"/>
<defs>
<filter id="filter0_d_210_25764" x="0.717529" y="0.31543" width="215.904" height="97.2952" filterUnits="userSpaceOnUse" color-interpolation-filters="sRGB">
<feFlood flood-opacity="0" result="BackgroundImageFix"/>
<feColorMatrix in="SourceAlpha" type="matrix" values="0 0 0 0 0 0 0 0 0 0 0 0 0 0 0 0 0 0 127 0" result="hardAlpha"/>
<feOffset dy="2.75805"/>
<feComposite in2="hardAlpha" operator="out"/>
<feColorMatrix type="matrix" values="0 0 0 0 0 0 0 0 0 0 0 0 0 0 0 0 0 0 0.25 0"/>
<feBlend mode="normal" in2="BackgroundImageFix" result="effect1_dropShadow_210_25764"/>
<feBlend mode="normal" in="SourceGraphic" in2="effect1_dropShadow_210_25764" result="shape"/>
</filter>
<linearGradient id="paint0_linear_210_25764" x1="176.154" y1="26.3276" x2="212.239" y2="31.6493" gradientUnits="userSpaceOnUse">
<stop offset="0.2021" stop-color="#6476EE"/>
<stop offset="0.4421" stop-color="#5461CF"/>
<stop offset="0.952" stop-color="#2D2E83"/>
</linearGradient>
<linearGradient id="paint1_linear_210_25764" x1="175.5" y1="26.6606" x2="212.157" y2="32.0667" gradientUnits="userSpaceOnUse">
<stop offset="0.2021" stop-color="white" stop-opacity="0"/>
<stop offset="0.952" stop-color="white"/>
</linearGradient>
<linearGradient id="paint2_linear_210_25764" x1="150.896" y1="27.8678" x2="175.699" y2="14.7601" gradientUnits="userSpaceOnUse">
<stop stop-color="#EEDA76"/>
<stop offset="0.2806" stop-color="#F1AB29"/>
<stop offset="0.4236" stop-color="#F39200"/>
<stop offset="0.9168" stop-color="#EA5B0C"/>
</linearGradient>
<linearGradient id="paint3_linear_210_25764" x1="152.006" y1="29.6857" x2="165.098" y2="18.8682" gradientUnits="userSpaceOnUse">
<stop offset="0.5577" stop-color="white" stop-opacity="0"/>
<stop offset="0.952" stop-color="white"/>
</linearGradient>
<linearGradient id="paint4_linear_210_25764" x1="45.4593" y1="20.2618" x2="74.5426" y2="20.2618" gradientUnits="userSpaceOnUse">
<stop stop-color="#E94E1B"/>
<stop offset="0.188" stop-color="#E94A1D"/>
<stop offset="0.3793" stop-color="#E73E24"/>
<stop offset="0.4902" stop-color="#E6332A"/>
<stop offset="1" stop-color="#E6332A"/>
</linearGradient>
<linearGradient id="paint5_linear_210_25764" x1="64.6736" y1="38.6618" x2="56.0534" y2="6.49059" gradientUnits="userSpaceOnUse">
<stop stop-color="white" stop-opacity="0"/>
<stop offset="0.952" stop-color="white"/>
</linearGradient>
<linearGradient id="paint6_linear_210_25764" x1="37.3495" y1="51.9326" x2="16.3477" y2="6.05815" gradientUnits="userSpaceOnUse">
<stop stop-color="#EEDA76"/>
<stop offset="0.6671" stop-color="#FDC56E"/>
</linearGradient>
<linearGradient id="paint7_linear_210_25764" x1="29.967" y1="42.1702" x2="4.5922" y2="14.0869" gradientUnits="userSpaceOnUse">
<stop stop-color="white" stop-opacity="0"/>
<stop offset="1" stop-color="white"/>
</linearGradient>
<linearGradient id="paint8_linear_210_25764" x1="30.8978" y1="94.1729" x2="16.9827" y2="69.8162" gradientUnits="userSpaceOnUse">
<stop stop-color="#EEDA76"/>
<stop offset="0.2806" stop-color="#F1AB29"/>
<stop offset="0.4236" stop-color="#F39200"/>
<stop offset="0.9168" stop-color="#EA5B0C"/>
</linearGradient>
<linearGradient id="paint9_linear_210_25764" x1="32.7891" y1="93.0042" x2="21.5466" y2="80.275" gradientUnits="userSpaceOnUse">
<stop offset="0.5577" stop-color="white" stop-opacity="0"/>
<stop offset="0.952" stop-color="white"/>
</linearGradient>
<linearGradient id="paint10_linear_210_25764" x1="61.0347" y1="94.9338" x2="49.2144" y2="69.4939" gradientUnits="userSpaceOnUse">
<stop stop-color="#EEDA76"/>
<stop offset="0.2806" stop-color="#F1AB29"/>
<stop offset="0.4236" stop-color="#F39200"/>
<stop offset="0.9168" stop-color="#EA5B0C"/>
</linearGradient>
<linearGradient id="paint11_linear_210_25764" x1="62.827" y1="93.9668" x2="52.6953" y2="80.338" gradientUnits="userSpaceOnUse">
<stop offset="0.5577" stop-color="white" stop-opacity="0"/>
<stop offset="0.952" stop-color="white"/>
</linearGradient>
<linearGradient id="paint12_linear_210_25764" x1="167.205" y1="72.618" x2="196.289" y2="72.618" gradientUnits="userSpaceOnUse">
<stop stop-color="#E94E1B"/>
<stop offset="0.188" stop-color="#E94A1D"/>
<stop offset="0.3793" stop-color="#E73E24"/>
<stop offset="0.4902" stop-color="#E6332A"/>
<stop offset="1" stop-color="#E6332A"/>
</linearGradient>
<linearGradient id="paint13_linear_210_25764" x1="186.42" y1="91.0185" x2="177.8" y2="58.8473" gradientUnits="userSpaceOnUse">
<stop stop-color="white" stop-opacity="0"/>
<stop offset="0.952" stop-color="white"/>
</linearGradient>
<linearGradient id="paint14_linear_210_25764" x1="167.205" y1="72.618" x2="196.289" y2="72.618" gradientUnits="userSpaceOnUse">
<stop stop-color="#E94E1B"/>
<stop offset="0.188" stop-color="#E94A1D"/>
<stop offset="0.3793" stop-color="#E73E24"/>
<stop offset="0.4902" stop-color="#E6332A"/>
<stop offset="1" stop-color="#E6332A"/>
</linearGradient>
<linearGradient id="paint15_linear_210_25764" x1="186.42" y1="91.0185" x2="177.8" y2="58.8473" gradientUnits="userSpaceOnUse">
<stop stop-color="white" stop-opacity="0"/>
<stop offset="0.952" stop-color="white"/>
</linearGradient>
</defs>
</svg>
