<svg width="216" height="98" viewBox="0 0 216 98" fill="none" xmlns="http://www.w3.org/2000/svg">
<g filter="url(#filter0_d_562_86162)">
<path d="M214.001 18.8774L208.986 12.1812L202.415 17.1029L207.43 23.7992L214.001 18.8774Z" stroke="#414147" stroke-width="0.919351" stroke-miterlimit="10"/>
<path d="M185.705 46.8988C186.573 46.8988 187.277 46.195 187.277 45.3267C187.277 44.4585 186.573 43.7546 185.705 43.7546C184.836 43.7546 184.133 44.4585 184.133 45.3267C184.133 46.195 184.836 46.8988 185.705 46.8988Z" fill="#2E2E35"/>
<path d="M175.638 33.4577C176.506 33.4577 177.21 32.7538 177.21 31.8856C177.21 31.0173 176.506 30.3135 175.638 30.3135C174.77 30.3135 174.066 31.0173 174.066 31.8856C174.066 32.7538 174.77 33.4577 175.638 33.4577Z" fill="#2E2E35"/>
<path d="M186.633 45.3447L175.877 30.9844C174.672 29.3756 175.003 27.0956 176.603 25.8912L195.312 11.8803C196.921 10.6759 199.201 11.0069 200.405 12.6066L211.161 26.9669C212.366 28.5757 212.035 30.8557 210.435 32.0601L191.726 46.071C190.117 47.2845 187.837 46.9536 186.633 45.3447Z" fill="url(#paint0_linear_562_86162)"/>
<path opacity="0.25" d="M180.869 29.3484C180.703 29.1278 180.749 28.8152 180.97 28.6497L197.307 16.4132C197.527 16.2477 197.84 16.2937 198.005 16.5143C198.171 16.7349 198.125 17.0475 197.904 17.213L181.567 29.4496C181.347 29.6151 181.034 29.5691 180.869 29.3484Z" fill="white"/>
<path opacity="0.25" d="M185.236 35.1863C185.07 34.9657 185.116 34.6531 185.337 34.4876L201.674 22.2511C201.895 22.0856 202.207 22.1316 202.373 22.3522C202.538 22.5728 202.492 22.8854 202.272 23.0509L185.935 35.2875C185.714 35.453 185.401 35.407 185.236 35.1863Z" fill="white"/>
<path opacity="0.25" d="M189.612 41.0242C189.446 40.8036 189.492 40.491 189.713 40.3255L206.05 28.089C206.271 27.9235 206.583 27.9694 206.749 28.1901C206.914 28.4107 206.868 28.7233 206.647 28.8888L190.311 41.1254C190.09 41.2908 189.777 41.2449 189.612 41.0242Z" fill="white"/>
<path d="M213.782 19.6582L208.183 12.1839C207.889 11.7978 207.971 11.2462 208.357 10.9612L208.44 10.8968C208.826 10.6026 209.378 10.6854 209.663 11.0715L215.262 18.5458C215.556 18.9319 215.473 19.4836 215.087 19.7686L215.004 19.8329C214.627 20.1271 214.076 20.0444 213.782 19.6582Z" fill="#2E2E35"/>
<path opacity="0.45" d="M198.851 24.8064C196.571 21.4876 196.553 15.0613 196.774 11.2368C196.259 11.3379 195.753 11.5402 195.303 11.8804L176.594 25.8913C175.196 26.9393 174.764 28.7964 175.472 30.3226C175.196 30.3501 174.921 30.4421 174.682 30.6259C173.983 31.15 173.845 32.1337 174.369 32.8232C174.893 33.5219 175.877 33.6598 176.566 33.1358C176.778 32.9795 176.934 32.7772 177.035 32.5474L185.447 43.7727C185.199 43.8094 184.96 43.9014 184.748 44.0577C184.05 44.5817 183.912 45.5654 184.436 46.2549C184.96 46.9536 185.944 47.0915 186.633 46.5675C186.872 46.3928 187.038 46.1538 187.148 45.8964C188.417 46.9996 190.32 47.1099 191.717 46.071L210.426 32.0601C211.161 31.5085 211.621 30.7271 211.796 29.8905C207.309 29.2745 200.957 27.8771 198.851 24.8064Z" fill="url(#paint1_linear_562_86162)"/>
<path fill-rule="evenodd" clip-rule="evenodd" d="M160.762 12.6622L166.858 6.38299C167.244 5.98767 167.924 6.19911 168.007 6.75072L169.285 15.411C169.322 15.6317 169.459 15.8155 169.652 15.9167L177.513 19.7687C178.009 20.017 178.019 20.7249 177.513 20.9731L169.671 24.862C169.469 24.9631 169.34 25.1469 169.303 25.3676L168.062 34.0279C167.979 34.5795 167.308 34.8001 166.913 34.4048L160.79 28.1532C160.634 27.9969 160.413 27.9234 160.192 27.9602L151.569 29.4587C151.017 29.5506 150.604 28.9807 150.861 28.4842L154.915 20.7249C155.016 20.5318 155.016 20.2928 154.915 20.0997L150.824 12.3588C150.567 11.8623 150.98 11.2923 151.532 11.3843L160.165 12.846C160.385 12.9012 160.606 12.8276 160.762 12.6622Z" fill="url(#paint2_linear_562_86162)"/>
<path opacity="0.35" fill-rule="evenodd" clip-rule="evenodd" d="M162.849 19.9895C161.397 18.1508 159.88 15.264 158.639 12.6071L151.541 11.4028C150.99 11.3108 150.576 11.89 150.833 12.3773L154.925 20.1182C155.026 20.3113 155.026 20.5503 154.925 20.7434L150.87 28.5027C150.613 28.9991 151.036 29.5691 151.578 29.4772L160.202 27.9787C160.422 27.9419 160.643 28.0154 160.799 28.1717L166.922 34.4233C167.308 34.8186 167.989 34.598 168.071 34.0464L169.312 25.3861C169.331 25.2482 169.404 25.1287 169.496 25.0275C167.06 23.6945 164.385 21.9293 162.849 19.9895Z" fill="url(#paint3_linear_562_86162)"/>
<path opacity="0.2" d="M59.1005 50.457C63.7666 50.457 67.5493 48.8147 67.5493 46.7888C67.5493 44.7629 63.7666 43.1206 59.1005 43.1206C54.4343 43.1206 50.6516 44.7629 50.6516 46.7888C50.6516 48.8147 54.4343 50.457 59.1005 50.457Z" fill="#2E2E35"/>
<path d="M63.293 37.4573L71.8981 22.5546C77.4877 12.8738 70.5007 0.775146 59.3214 0.775146C48.142 0.775146 41.155 12.8738 46.7446 22.5546L55.3498 37.4573C57.1149 40.5095 61.5278 40.5095 63.293 37.4573Z" fill="url(#paint4_linear_562_86162)"/>
<path d="M59.321 22.5822C63.1392 22.5822 66.2345 19.4869 66.2345 15.6687C66.2345 11.8504 63.1392 8.75513 59.321 8.75513C55.5028 8.75513 52.4075 11.8504 52.4075 15.6687C52.4075 19.4869 55.5028 22.5822 59.321 22.5822Z" fill="white"/>
<path opacity="0.35" d="M59.0177 18.2524C52.4168 15.669 51.5342 13.2052 46.2755 8.93018C44.2713 13.0213 44.1518 18.0501 46.7536 22.555L55.3587 37.4576C57.1238 40.5099 61.5367 40.5099 63.3019 37.4576L71.907 22.555C72.2196 22.0217 72.477 21.4793 72.716 20.9277C67.4481 19.99 65.7382 20.8817 59.0177 18.2524Z" fill="url(#paint5_linear_562_86162)"/>
<path d="M39.8584 49.5371L2.37641 35.5997C0.877866 35.0481 0.123997 33.3841 0.675608 31.8855L8.75671 10.152C9.30832 8.65351 10.9723 7.89963 12.4709 8.45124L49.9528 22.3886C51.4514 22.9402 52.2052 24.6042 51.6536 26.1028L43.5725 47.8362C43.0117 49.3348 41.3477 50.0979 39.8584 49.5371Z" fill="url(#paint6_linear_562_86162)"/>
<path d="M39.8584 49.5371L2.37641 35.5997C0.877866 35.0481 0.123997 33.3841 0.675608 31.8855L8.75671 10.152C9.30832 8.65351 10.9723 7.89963 12.4709 8.45124L49.9528 22.3886C51.4514 22.9402 52.2052 24.6042 51.6536 26.1028L43.5725 47.8362C43.0117 49.3348 41.3477 50.0979 39.8584 49.5371Z" stroke="#414147" stroke-width="0.919351" stroke-miterlimit="10"/>
<path d="M11.469 8.26754C11.7999 8.26754 12.1401 8.3227 12.4711 8.4514L49.953 22.3888C51.4516 22.9404 52.2054 24.6044 51.6538 26.1029L43.5727 47.8364C43.1406 48.9948 42.0374 49.7211 40.8698 49.7211C40.5388 49.7211 40.1987 49.6659 39.8677 49.5372L2.38578 35.5998C0.887239 35.0482 0.133371 33.3842 0.684981 31.8857L8.76608 10.1522C9.18898 8.98463 10.2922 8.26754 11.469 8.26754ZM11.469 7.80786C10.0808 7.80786 8.81204 8.68124 8.33398 9.98672L0.252885 31.7202C-0.390661 33.4486 0.491918 35.3792 2.2203 36.0228L39.7022 49.9601C40.0792 50.098 40.4745 50.1716 40.8698 50.1716C42.258 50.1716 43.5176 49.2982 44.0048 47.9927L52.0859 26.2592C52.3985 25.4226 52.3617 24.5125 51.994 23.7034C51.6262 22.8944 50.9551 22.2693 50.1185 21.9567L12.6365 8.01931C12.2596 7.88141 11.8643 7.80786 11.469 7.80786Z" fill="white"/>
<path d="M41.5225 36.9607L33.4781 33.9636C32.6691 33.6602 32.2554 32.7592 32.5588 31.9502L35.7397 23.4003C36.0431 22.5912 36.9441 22.1775 37.7531 22.4809L45.7974 25.478C46.6065 25.7814 47.0202 26.6823 46.7168 27.4914L43.5358 36.0413C43.2324 36.8412 42.3315 37.2549 41.5225 36.9607Z" fill="white"/>
<path d="M13.447 19.1855L10.4741 18.0798L9.36845 21.0527L12.3413 22.1584L13.447 19.1855Z" fill="#2E2E35"/>
<path d="M17.4768 17.3088L14.5039 16.2031L13.3982 19.176L16.3711 20.2817L17.4768 17.3088Z" fill="#2E2E35"/>
<path d="M19.331 21.374L16.3582 20.2683L15.2525 23.2412L18.2254 24.3469L19.331 21.374Z" fill="#2E2E35"/>
<path d="M23.3787 19.5063L20.4058 18.4006L19.3001 21.3735L22.273 22.4792L23.3787 19.5063Z" fill="#2E2E35"/>
<path d="M25.2261 23.5615L22.2532 22.4558L21.1475 25.4287L24.1204 26.5344L25.2261 23.5615Z" fill="#2E2E35"/>
<path d="M29.2624 21.6945L26.2896 20.5889L25.1839 23.5618L28.1568 24.6674L29.2624 21.6945Z" fill="#2E2E35"/>
<path d="M31.1106 25.7492L28.1377 24.6436L27.032 27.6164L30.0049 28.7221L31.1106 25.7492Z" fill="#2E2E35"/>
<path d="M26.9691 33.9727L8.10401 26.9581C7.57998 26.765 7.31337 26.1766 7.50644 25.6526C7.6995 25.1286 8.28788 24.862 8.81191 25.055L27.677 32.0697C28.201 32.2627 28.4676 32.8511 28.2746 33.3751C28.0815 33.9084 27.4931 34.175 26.9691 33.9727Z" fill="#2E2E35"/>
<path d="M25.8292 37.0526L6.96412 30.0379C6.44009 29.8448 6.17348 29.2565 6.36654 28.7324C6.55961 28.2084 7.14799 27.9418 7.67202 28.1349L26.5371 35.1495C27.0611 35.3426 27.3277 35.931 27.1347 36.455C26.9324 36.979 26.3532 37.2456 25.8292 37.0526Z" fill="#2E2E35"/>
<path d="M18.4194 37.7694L5.83351 33.0899C5.30948 32.8969 5.04286 32.3085 5.23593 31.7844C5.42899 31.2604 6.01738 30.9938 6.54141 31.1869L19.1273 35.8664C19.6514 36.0594 19.918 36.6478 19.7249 37.1718C19.5226 37.6959 18.9435 37.9625 18.4194 37.7694Z" fill="#2E2E35"/>
<path d="M40.4101 30.3046C41.8775 30.3046 43.067 29.115 43.067 27.6476C43.067 26.1803 41.8775 24.9907 40.4101 24.9907C38.9427 24.9907 37.7532 26.1803 37.7532 27.6476C37.7532 29.115 38.9427 30.3046 40.4101 30.3046Z" fill="#2E2E35"/>
<path d="M41.3387 36.8778L33.6621 34.0278L34.0023 33.1085C34.7929 30.9848 37.1464 29.9091 39.2702 30.6998C41.3939 31.4904 42.4695 33.844 41.6789 35.9677L41.3387 36.8778Z" fill="#2E2E35"/>
<path opacity="0.45" d="M24.1558 12.7998L12.4709 8.45124C10.9723 7.89963 9.31751 8.65351 8.75671 10.152L0.675608 31.8855C0.123997 33.3841 0.877866 35.0389 2.37641 35.5997L26.5921 44.6093L24.1558 12.7998Z" fill="url(#paint7_linear_562_86162)"/>
<path d="M179.03 83.2961H31.612C16.3784 83.2961 4.03149 70.9492 4.03149 55.7155C4.03149 40.4819 16.3784 28.135 31.612 28.135H179.03C194.264 28.135 206.611 40.4819 206.611 55.7155C206.611 70.9492 194.264 83.2961 179.03 83.2961Z" fill="url(#paint8_linear_562_86162)"/>
<path fill-rule="evenodd" clip-rule="evenodd" d="M14.7328 84.1419L8.2514 78.2581C7.83769 77.8812 8.03075 77.2009 8.58236 77.0997L17.1967 75.5368C17.4173 75.5001 17.6012 75.3529 17.6931 75.1507L21.2878 67.1707C21.5176 66.6651 22.2255 66.6375 22.4921 67.1248L26.6384 74.8289C26.7396 75.022 26.9418 75.1507 27.1533 75.1783L35.8503 76.1344C36.4019 76.1988 36.6502 76.8607 36.264 77.2652L30.2147 83.5904C30.0584 83.7466 29.9941 83.9765 30.04 84.1879L31.8236 92.7563C31.9339 93.2987 31.3731 93.74 30.8766 93.501L22.9886 89.704C22.7863 89.6121 22.5565 89.6121 22.3634 89.7224L14.7604 94.0618C14.2731 94.3376 13.6848 93.9423 13.7583 93.3906L14.9351 84.7211C14.981 84.5097 14.8983 84.289 14.7328 84.1419Z" fill="url(#paint9_linear_562_86162)"/>
<path opacity="0.35" fill-rule="evenodd" clip-rule="evenodd" d="M21.9868 81.8161C20.1941 83.3331 17.3625 84.942 14.7423 86.2658L13.777 93.4C13.7035 93.9516 14.2919 94.3469 14.7791 94.0711L22.3821 89.7318C22.5752 89.6214 22.805 89.6123 23.0073 89.7134L30.8953 93.5103C31.401 93.7493 31.9618 93.3172 31.8423 92.7656L30.0587 84.1973C30.0128 83.9766 30.0771 83.756 30.2334 83.5997L36.2827 77.2746C36.6689 76.87 36.4206 76.1989 35.869 76.1438L27.172 75.1876C27.0341 75.1692 26.9145 75.1049 26.8134 75.0129C25.5447 77.486 23.8807 80.2165 21.9868 81.8161Z" fill="url(#paint10_linear_562_86162)"/>
<path fill-rule="evenodd" clip-rule="evenodd" d="M45.7242 83.6453L39.7668 77.2374C39.3899 76.8329 39.6381 76.1618 40.1989 76.1066L48.9144 75.27C49.135 75.2516 49.3281 75.1229 49.4384 74.9299L53.695 67.2809C53.9616 66.7936 54.6787 66.8304 54.8994 67.336L58.3837 75.362C58.4756 75.5642 58.6503 75.7113 58.8709 75.7573L67.4577 77.4397C68.0001 77.55 68.1932 78.2303 67.7703 78.6073L61.2153 84.3992C61.0498 84.5463 60.9671 84.7669 60.9946 84.9876L62.0519 93.6755C62.1163 94.2271 61.5187 94.6224 61.0406 94.3374L53.5019 89.8877C53.3089 89.7774 53.079 89.7682 52.8768 89.8601L44.9428 93.5467C44.4371 93.7858 43.8855 93.3353 44.005 92.7929L45.9081 84.2521C45.9357 84.0315 45.8805 83.8108 45.7242 83.6453Z" fill="url(#paint11_linear_562_86162)"/>
<path opacity="0.35" fill-rule="evenodd" clip-rule="evenodd" d="M53.1435 81.9356C51.2312 83.2963 48.2709 84.6569 45.5496 85.7601L43.9867 92.784C43.8672 93.3264 44.4188 93.7769 44.9245 93.5378L52.8585 89.8512C53.0607 89.7593 53.2906 89.7685 53.4836 89.8788L61.0223 94.3285C61.5004 94.6135 62.0979 94.2182 62.0336 93.6665L60.9763 84.9787C60.9488 84.758 61.0315 84.5374 61.197 84.3903L67.752 78.5984C68.1657 78.2306 67.9818 77.5411 67.4394 77.4308L58.8526 75.7484C58.7147 75.7208 58.6044 75.6381 58.5125 75.5461C57.0599 77.9181 55.166 80.5014 53.1435 81.9356Z" fill="url(#paint12_linear_562_86162)"/>
<path d="M185.033 89.8134L193.638 74.9108C199.228 65.23 192.241 53.1313 181.062 53.1313C169.882 53.1313 162.895 65.23 168.485 74.9108L177.09 89.8134C178.855 92.8657 183.268 92.8657 185.033 89.8134Z" fill="url(#paint13_linear_562_86162)"/>
<path d="M181.061 74.9298C184.88 74.9298 187.975 71.8345 187.975 68.0163C187.975 64.1981 184.88 61.1028 181.061 61.1028C177.243 61.1028 174.148 64.1981 174.148 68.0163C174.148 71.8345 177.243 74.9298 181.061 74.9298Z" fill="white"/>
<path opacity="0.35" d="M180.758 70.6086C174.157 68.0252 173.274 65.5614 168.016 61.2864C166.012 65.3775 165.892 70.4063 168.494 74.9112L177.099 89.8138C178.864 92.8661 183.277 92.8661 185.042 89.8138L193.647 74.9112C193.96 74.3779 194.217 73.8355 194.456 73.2839C189.188 72.3462 187.488 73.238 180.758 70.6086Z" fill="url(#paint14_linear_562_86162)"/>
<path d="M185.033 89.8134L193.638 74.9108C199.228 65.23 192.241 53.1313 181.062 53.1313C169.882 53.1313 162.895 65.23 168.485 74.9108L177.09 89.8134C178.855 92.8657 183.268 92.8657 185.033 89.8134Z" fill="url(#paint15_linear_562_86162)"/>
<path d="M181.061 74.9298C184.88 74.9298 187.975 71.8345 187.975 68.0163C187.975 64.1981 184.88 61.1028 181.061 61.1028C177.243 61.1028 174.148 64.1981 174.148 68.0163C174.148 71.8345 177.243 74.9298 181.061 74.9298Z" fill="white"/>
<path opacity="0.35" d="M180.758 70.6086C174.157 68.0252 173.274 65.5614 168.016 61.2864C166.012 65.3775 165.892 70.4063 168.494 74.9112L177.099 89.8138C178.864 92.8661 183.277 92.8661 185.042 89.8138L193.647 74.9112C193.96 74.3779 194.217 73.8355 194.456 73.2839C189.188 72.3462 187.488 73.238 180.758 70.6086Z" fill="url(#paint16_linear_562_86162)"/>
<path d="M59.321 0.774861C69.8844 0.774861 76.6967 11.5773 72.6976 20.9271C72.5781 21.1937 72.4585 21.4695 72.3298 21.7361C72.1919 22.0119 72.054 22.2785 71.8977 22.5543L68.6708 28.144H151.054L154.924 20.7432C155.025 20.5501 155.025 20.3111 154.924 20.118L150.833 12.3771C150.594 11.9174 150.934 11.3934 151.422 11.3934C151.458 11.3934 151.495 11.3934 151.541 11.4026L158.639 12.6069L160.174 12.8643C160.211 12.8735 160.247 12.8735 160.284 12.8735C160.468 12.8735 160.643 12.8 160.762 12.6713L163.851 9.48112L166.858 6.3921C166.995 6.2542 167.17 6.18985 167.336 6.18985C167.345 6.18985 167.345 6.18985 167.354 6.18985H167.363C167.667 6.20824 167.952 6.41969 167.998 6.75985L169.275 15.4201C169.312 15.6408 169.45 15.8247 169.643 15.9258L177.504 19.7779C177.752 19.8974 177.881 20.1364 177.881 20.3754C177.881 20.495 177.853 20.6145 177.789 20.7248C177.724 20.8259 177.632 20.9179 177.504 20.9822L169.662 24.8711C169.588 24.9078 169.533 24.963 169.478 25.0274C169.441 25.0641 169.413 25.1101 169.386 25.1561C169.358 25.202 169.34 25.2572 169.321 25.3123C169.312 25.3399 169.294 25.3583 169.294 25.3859L169.138 26.4707L168.898 28.144H175.205C175.205 28.1348 175.205 28.1348 175.214 28.1256C175.242 28.006 175.27 27.8865 175.297 27.767C175.325 27.6751 175.352 27.5831 175.389 27.5004C175.435 27.3809 175.49 27.2614 175.555 27.1419C175.591 27.0591 175.637 26.9856 175.683 26.912C175.757 26.7833 175.849 26.673 175.941 26.5535C175.987 26.4983 176.033 26.434 176.079 26.3788C176.235 26.2133 176.4 26.057 176.584 25.9099L195.293 11.899C195.459 11.7703 195.633 11.6784 195.817 11.5864C195.872 11.5589 195.937 11.5221 195.992 11.4945C196.001 11.4853 196.019 11.4853 196.029 11.4761C196.268 11.375 196.507 11.3014 196.755 11.2555C196.985 11.2095 197.214 11.1911 197.444 11.1911C197.509 11.1911 197.564 11.1911 197.628 11.1911C197.702 11.1911 197.775 11.1911 197.849 11.2003C197.968 11.2095 198.088 11.2371 198.207 11.2647C198.309 11.283 198.4 11.3106 198.492 11.3382C198.594 11.3658 198.695 11.4026 198.796 11.4485C198.906 11.4945 199.016 11.5405 199.118 11.5956C199.2 11.6416 199.292 11.6784 199.366 11.7335C199.485 11.8071 199.605 11.899 199.715 11.9818C199.779 12.0277 199.844 12.0737 199.899 12.1289C200.064 12.2851 200.221 12.4506 200.368 12.6345L202.942 16.0729L208.146 12.1748C208.017 11.9818 207.971 11.7611 207.998 11.5405C207.998 11.5221 208.017 11.5037 208.017 11.4853C208.035 11.3934 208.063 11.3106 208.109 11.2279C208.164 11.136 208.238 11.0532 208.329 10.9797C208.329 10.9797 208.329 10.9705 208.339 10.9705L208.421 10.9061C208.523 10.8326 208.624 10.7866 208.734 10.759C208.808 10.7406 208.872 10.7314 208.945 10.7314C209.212 10.7314 209.479 10.851 209.644 11.0808L215.243 18.5551C215.464 18.8493 215.473 19.2263 215.298 19.5204C215.243 19.6216 215.16 19.7043 215.068 19.7779L214.986 19.8422C214.884 19.9158 214.783 19.9617 214.673 19.9893C214.599 20.0077 214.535 20.0169 214.462 20.0169C214.416 20.0169 214.379 20.0169 214.333 20.0077C214.112 19.9801 213.901 19.8606 213.754 19.6675L208.559 23.5564L211.133 26.9948C211.29 27.2062 211.418 27.4269 211.529 27.6567C211.547 27.6935 211.556 27.7394 211.575 27.7854C211.658 27.9877 211.722 28.1899 211.768 28.3922C211.777 28.4198 211.777 28.4381 211.777 28.4657C211.823 28.6956 211.851 28.9254 211.851 29.1644C211.851 29.1644 211.851 29.1644 211.851 29.1736C211.851 29.4219 211.823 29.6701 211.768 29.9183C211.722 30.1298 211.667 30.332 211.584 30.5251C211.584 30.5343 211.575 30.5343 211.575 30.5435C211.501 30.7365 211.409 30.9204 211.299 31.0951C211.271 31.1502 211.225 31.1962 211.189 31.2422C211.097 31.3709 211.014 31.4996 210.913 31.6099C210.757 31.7754 210.591 31.9409 210.398 32.0788L201.011 39.1118C204.505 43.7362 206.583 49.4913 206.583 55.7337C206.583 67.0141 199.807 76.7041 190.117 80.9791L185.006 89.8324C184.785 90.2185 184.527 90.5495 184.233 90.8345C183.525 91.524 182.643 91.9286 181.723 92.0665C181.677 92.0756 181.631 92.0848 181.576 92.0848C181.392 92.1032 181.218 92.1124 181.034 92.1124C179.876 92.1124 178.717 91.6803 177.844 90.8253C177.55 90.5403 177.292 90.2002 177.072 89.8232L173.311 83.3142H62.456L61.2057 84.4174C61.0402 84.5645 60.9575 84.7852 60.985 85.0058L62.0423 93.6937C62.0883 94.0431 61.8676 94.3189 61.5826 94.4108C61.5275 94.4292 61.4631 94.4384 61.4079 94.4476C61.3987 94.4476 61.3896 94.4476 61.3804 94.4476C61.27 94.4476 61.1505 94.42 61.0402 94.3556L56.2963 91.5608L53.5015 89.9152C53.4831 89.906 53.4556 89.906 53.428 89.8968C53.336 89.8508 53.2349 89.8324 53.1338 89.8324C53.0418 89.8324 52.9591 89.8508 52.8764 89.8876L44.9424 93.5742C44.8504 93.6201 44.7493 93.6385 44.6574 93.6385C44.5011 93.6385 44.354 93.5834 44.2345 93.4914C44.1885 93.4547 44.1425 93.4087 44.1149 93.3627C44.0046 93.2156 43.9587 93.0226 44.0046 92.8203L45.3745 86.6607L45.9077 84.2795C45.9536 84.0681 45.8985 83.8383 45.7422 83.6728L45.4204 83.3234H31.6301C31.2716 83.3234 30.9039 83.3142 30.5453 83.2958L30.2327 83.6176C30.0765 83.7739 30.0121 84.0037 30.0581 84.2152L31.8416 92.7835C31.86 92.8479 31.86 92.9214 31.8508 92.9858C31.8324 93.2432 31.6577 93.4547 31.4371 93.5466C31.3819 93.5742 31.3268 93.5834 31.2624 93.5926C31.244 93.5926 31.2164 93.5926 31.1981 93.5926C31.1429 93.5926 31.0877 93.5834 31.0326 93.5742C30.9866 93.565 30.9406 93.5558 30.8855 93.5282L22.9974 89.7313C22.9055 89.6853 22.8044 89.6669 22.7032 89.6669C22.5837 89.6669 22.4734 89.6945 22.3723 89.7589L14.7692 94.0982C14.6589 94.1626 14.5486 94.1902 14.4383 94.1902C14.2912 94.1902 14.1533 94.1442 14.043 94.0614C13.9694 94.0063 13.9143 93.9419 13.8683 93.8684C13.8223 93.7948 13.7855 93.7213 13.7764 93.6293C13.7672 93.565 13.7672 93.5006 13.7764 93.4271L14.9531 84.7576C14.9807 84.537 14.9072 84.3163 14.7417 84.1692L8.26024 78.2854C7.84653 77.9084 8.0396 77.2281 8.59121 77.127L13.2155 76.2904C7.57992 71.2431 4.04042 63.9159 4.04042 55.7521C4.04042 49.2247 6.31122 43.2305 10.1081 38.505L2.38559 35.6367C2.00866 35.4988 1.68688 35.2873 1.41108 35.0299C1.13527 34.7725 0.923821 34.4691 0.767531 34.1289C0.464145 33.4578 0.408984 32.6672 0.684789 31.9225L8.76589 10.189C9.04169 9.44435 9.60249 8.87436 10.2736 8.57097C10.6138 8.41468 10.9723 8.33194 11.3493 8.31355C11.3952 8.31355 11.432 8.31355 11.478 8.31355C11.8089 8.31355 12.1491 8.36871 12.4801 8.49742L24.165 12.8459L45.9261 20.9362C45.9077 20.8995 45.8985 20.8627 45.8801 20.8259C45.8249 20.7064 45.7882 20.5777 45.7422 20.4582C45.6778 20.2835 45.6043 20.1088 45.5491 19.9249C45.5032 19.787 45.4664 19.6583 45.4204 19.5204C45.3653 19.355 45.3193 19.1895 45.2733 19.0148C45.2365 18.8769 45.1998 18.7298 45.1722 18.5919C45.1354 18.4264 45.0987 18.2701 45.0619 18.1046C45.0343 17.9575 45.0067 17.8104 44.9883 17.6634C44.9607 17.5071 44.9424 17.3508 44.9148 17.1945C44.8964 17.0382 44.878 16.8911 44.8596 16.7348C44.8412 16.5877 44.832 16.4406 44.8228 16.2935C44.8136 16.1372 44.8045 15.9809 44.7953 15.8246C44.7953 15.6867 44.7861 15.5396 44.7861 15.4017C44.7861 15.2363 44.7861 15.08 44.7953 14.9145C44.7953 14.7766 44.8045 14.6479 44.8136 14.51C44.8228 14.3445 44.832 14.179 44.8504 14.0135C44.8596 13.8848 44.878 13.7653 44.8964 13.6458C44.9148 13.4711 44.9424 13.2964 44.9699 13.1218C44.9883 13.0114 45.0067 12.9011 45.0251 12.7908C45.0619 12.6069 45.0895 12.423 45.1354 12.2392C45.1538 12.1564 45.1814 12.0737 45.1998 11.9818C45.2457 11.7795 45.3009 11.5773 45.3561 11.375C45.3653 11.3566 45.3745 11.329 45.3745 11.3106C45.6135 10.5108 45.9077 9.72935 46.2754 8.98467C46.2754 8.98467 46.2754 8.98468 46.2754 8.97549C48.5738 4.23163 53.3452 0.774861 59.321 0.774861ZM159.236 28.1348H160.753C160.624 28.0244 160.468 27.9601 160.303 27.9601C160.266 27.9601 160.229 27.9601 160.192 27.9693L159.236 28.1348ZM59.321 0.315186C53.5567 0.315186 48.3991 3.54212 45.8617 8.72726C45.4848 9.49951 45.1722 10.3085 44.9332 11.1268L44.9148 11.1911C44.8596 11.4026 44.8045 11.6048 44.7493 11.8163L44.7217 11.9174C44.7033 11.9726 44.6941 12.0277 44.6849 12.0829C44.6482 12.2576 44.6114 12.4414 44.5838 12.6161L44.5562 12.754C44.5378 12.8368 44.5286 12.9103 44.5103 12.993C44.4827 13.1677 44.4643 13.3516 44.4367 13.5263L44.4275 13.5906C44.4183 13.7009 44.3999 13.8021 44.3907 13.9124C44.3724 14.0871 44.3632 14.2526 44.354 14.4272C44.3448 14.5651 44.3356 14.703 44.3356 14.8409C44.3264 15.0064 44.3264 15.1719 44.3264 15.3466C44.3264 15.4937 44.3264 15.6408 44.3356 15.7879C44.3448 15.9534 44.3448 16.1096 44.3632 16.2751C44.3724 16.4314 44.3816 16.5785 44.3999 16.7348C44.4183 16.8911 44.4367 17.0474 44.4551 17.2129C44.4735 17.3692 44.5011 17.5346 44.5287 17.6909C44.5562 17.8472 44.5746 17.9943 44.6114 18.1506C44.6482 18.3161 44.6849 18.4816 44.7217 18.6471L44.7309 18.7022C44.7585 18.8309 44.7953 18.9596 44.8228 19.0884C44.8688 19.2538 44.9148 19.4193 44.9699 19.5848L45.0067 19.7043C45.0343 19.8054 45.0711 19.9158 45.1078 20.0169C45.117 20.0445 45.1262 20.072 45.1354 20.0996L24.3305 12.3587L12.6455 8.01016C12.2686 7.87226 11.8733 7.79872 11.478 7.79872C11.432 7.79872 11.3768 7.79872 11.3309 7.79872C10.8988 7.8171 10.4759 7.91822 10.0806 8.10209C9.27153 8.46983 8.64637 9.14097 8.33379 9.97758L0.252693 31.711C-0.0598865 32.5476 -0.0231121 33.4578 0.344628 34.2668C0.528499 34.6622 0.776725 35.0115 1.0893 35.3057C1.41108 35.6091 1.7972 35.8481 2.22011 36.0044L9.35427 38.6613C5.57574 43.5891 3.58075 49.4637 3.58075 55.6969C3.58075 63.3367 6.72493 70.6731 12.2318 75.9502L8.51766 76.6213C8.09476 76.6949 7.7546 77.0075 7.63508 77.4212C7.51557 77.8349 7.64428 78.2762 7.96605 78.5704L14.4475 84.4542C14.5026 84.5002 14.521 84.5737 14.5118 84.6381L13.3351 93.3076C13.3167 93.4179 13.3167 93.5282 13.3351 93.6385C13.3534 93.7764 13.4086 93.9143 13.4914 94.0431C13.5741 94.1718 13.6752 94.2913 13.7947 94.374C13.9878 94.5119 14.2176 94.5855 14.4567 94.5855C14.6497 94.5855 14.8428 94.5303 15.0175 94.4384L22.6205 90.099C22.6481 90.0806 22.6849 90.0714 22.7216 90.0714C22.7584 90.0714 22.786 90.0806 22.8136 90.0898L30.7016 93.8867C30.7935 93.9327 30.8855 93.9511 30.9406 93.9695C31.0326 93.9879 31.1245 94.0063 31.2073 94.0063C31.2532 94.0063 31.29 94.0063 31.3268 93.9971C31.4279 93.9879 31.529 93.9603 31.621 93.9143C32.0071 93.7488 32.2737 93.3903 32.3105 92.9674C32.3197 92.8571 32.3105 92.7468 32.2921 92.6364L30.5085 84.0681C30.4902 84.0037 30.5177 83.9302 30.5637 83.875L30.7292 83.7004C31.0234 83.7095 31.3176 83.7187 31.621 83.7187H45.2182L45.402 83.921C45.448 83.9762 45.4664 84.0405 45.4572 84.114L44.924 86.4952L43.5541 92.6548C43.4806 92.9766 43.5449 93.2984 43.7472 93.565C43.8024 93.6477 43.8759 93.7213 43.9586 93.7856C44.1609 93.9511 44.4091 94.0339 44.6666 94.0339C44.832 94.0339 44.9883 93.9971 45.1446 93.9235L53.0786 90.2369C53.097 90.2277 53.1154 90.2278 53.143 90.2278C53.1797 90.2278 53.2165 90.2369 53.2533 90.2553L53.2993 90.2737L53.3268 90.2829L56.0757 91.9009L60.8196 94.6958C60.9942 94.7969 61.1965 94.8521 61.3895 94.8521H61.3987H61.4355C61.5366 94.8521 61.6378 94.8245 61.7389 94.7969C62.2629 94.6223 62.5755 94.1258 62.5112 93.5834L61.4539 84.8955C61.4447 84.822 61.4723 84.7576 61.5275 84.7116L62.6491 83.7279H173.091L176.722 90.0071C176.961 90.4116 177.246 90.7886 177.577 91.1103C178.515 92.0297 179.765 92.5261 181.089 92.5261C181.291 92.5261 181.484 92.5169 181.687 92.4893C181.723 92.4893 181.76 92.4802 181.797 92.471L181.843 92.4618C182.9 92.3055 183.856 91.8366 184.61 91.1011C184.941 90.7793 185.226 90.4116 185.465 89.9979L190.503 81.2733C200.598 76.7592 207.107 66.7291 207.107 55.6693C207.107 49.666 205.25 43.966 201.719 39.1394L210.738 32.3822C210.94 32.2259 211.143 32.0512 211.317 31.8489C211.418 31.7294 211.51 31.6099 211.602 31.4812L211.639 31.4352L211.676 31.3893C211.703 31.3433 211.74 31.3065 211.768 31.2606C211.878 31.0859 211.979 30.8836 212.071 30.6446C212.163 30.4056 212.237 30.1849 212.283 29.9367C212.338 29.6517 212.375 29.3667 212.375 29.1001C212.375 28.8335 212.347 28.5669 212.292 28.3094C212.292 28.2819 212.283 28.2635 212.283 28.2359C212.237 28.0152 212.163 27.7854 212.062 27.5464C212.044 27.482 212.025 27.4452 212.007 27.4085C211.887 27.151 211.749 26.9028 211.584 26.6914V26.6822L211.556 26.6454L209.267 23.584L213.79 20.2008C213.956 20.3111 214.14 20.3754 214.333 20.403C214.397 20.4122 214.462 20.4122 214.526 20.4122C214.636 20.4122 214.737 20.403 214.848 20.3754C215.022 20.3295 215.179 20.2559 215.326 20.1456L215.408 20.0812C215.556 19.9709 215.675 19.8422 215.758 19.6859C216.024 19.2171 215.997 18.6471 215.675 18.215L210.076 10.7406C209.828 10.4097 209.423 10.2074 209.01 10.2074C208.899 10.2074 208.798 10.2166 208.688 10.2442C208.513 10.2901 208.357 10.3637 208.21 10.474L208.127 10.5384L208.072 10.5844L208.063 10.5935C207.953 10.6855 207.851 10.805 207.778 10.9245C207.704 11.044 207.668 11.1635 207.64 11.2739C207.631 11.3014 207.612 11.3382 207.612 11.3934C207.585 11.5772 207.594 11.7703 207.64 11.945L203.098 15.3466L200.8 12.2851C200.653 12.0829 200.478 11.899 200.276 11.7151C200.23 11.6692 200.175 11.6324 200.129 11.5956L200.074 11.5497C199.945 11.4485 199.816 11.3474 199.678 11.2647C199.596 11.2095 199.504 11.1635 199.421 11.1176C199.274 11.044 199.154 10.9889 199.035 10.9337C198.924 10.8877 198.805 10.851 198.695 10.8142C198.584 10.7866 198.474 10.759 198.364 10.7314C198.226 10.7039 198.097 10.6763 197.959 10.6671C197.895 10.6579 197.83 10.6579 197.766 10.6579H197.702C197.637 10.6579 197.564 10.6487 197.499 10.6487C197.233 10.6487 196.966 10.6763 196.718 10.7222C196.433 10.7774 196.157 10.8601 195.9 10.9797L195.854 10.9981C195.799 11.0256 195.744 11.0532 195.698 11.0808L195.652 11.0992C195.422 11.2187 195.229 11.329 195.063 11.4577L176.354 25.4686L176.327 25.487C176.143 25.6249 175.959 25.7904 175.784 25.9927C175.738 26.0386 175.702 26.0846 175.665 26.1398L175.619 26.1949C175.518 26.3236 175.417 26.4524 175.325 26.5994C175.279 26.673 175.242 26.7465 175.205 26.8201L175.178 26.8661L175.168 26.8844C175.104 27.0132 175.049 27.1327 174.994 27.2614C174.957 27.3625 174.92 27.4636 174.893 27.5648C174.883 27.5832 174.883 27.6015 174.874 27.6199H169.459L169.625 26.4707L169.772 25.4411C169.781 25.4227 169.79 25.3951 169.799 25.3675C169.809 25.3583 169.809 25.3399 169.818 25.3216C169.818 25.3216 169.827 25.3032 169.845 25.2848C169.873 25.2572 169.882 25.2388 169.91 25.2204L177.733 21.3408C177.936 21.2396 178.092 21.0925 178.202 20.9087C178.303 20.734 178.359 20.5317 178.359 20.3295C178.359 19.8974 178.12 19.5113 177.724 19.3182L169.864 15.4661C169.799 15.4385 169.753 15.3742 169.744 15.3098L168.466 6.64953C168.384 6.10711 167.952 5.71179 167.4 5.68421H167.354H167.326C167.014 5.6934 166.738 5.81291 166.527 6.02436L163.52 9.12257L160.431 12.3127C160.394 12.3495 160.339 12.3771 160.275 12.3771L158.712 12.1105L151.615 10.9061C151.55 10.8969 151.486 10.8877 151.422 10.8877C151.026 10.8877 150.668 11.09 150.456 11.4393C150.254 11.7795 150.236 12.1932 150.429 12.5518L154.52 20.2927C154.557 20.3571 154.557 20.4306 154.52 20.495L150.778 27.6475H69.4706L72.2931 22.7474C72.4493 22.4808 72.5964 22.1958 72.7435 21.9016C72.8814 21.6258 73.001 21.3499 73.1205 21.0741C75.0879 16.4682 74.5914 11.2003 71.8058 6.98048C68.9926 2.76066 64.4418 0.315186 59.321 0.315186Z" fill="white"/>
</g>
<path d="M85.3489 57.9848C85.2471 59.3913 84.7264 60.4986 83.7867 61.3066C82.853 62.1147 81.62 62.5187 80.0878 62.5187C78.4119 62.5187 77.0921 61.956 76.1284 60.8308C75.1708 59.6996 74.6919 58.1494 74.6919 56.1802V55.3811C74.6919 54.1242 74.9134 53.0169 75.3563 52.0593C75.7992 51.1016 76.4307 50.3684 77.2507 49.8596C78.0767 49.3449 79.0343 49.0875 80.1237 49.0875C81.632 49.0875 82.847 49.4915 83.7687 50.2996C84.6905 51.1076 85.2232 52.2418 85.3668 53.7022H82.6734C82.6076 52.8583 82.3712 52.2478 81.9642 51.8707C81.5631 51.4877 80.9496 51.2961 80.1237 51.2961C79.2259 51.2961 78.5525 51.6193 78.1036 52.2657C77.6607 52.9062 77.4332 53.9027 77.4213 55.2554V56.243C77.4213 57.6556 77.6338 58.688 78.0587 59.3404C78.4897 59.9928 79.166 60.3191 80.0878 60.3191C80.9197 60.3191 81.5392 60.1305 81.9462 59.7534C82.3592 59.3704 82.5956 58.7808 82.6555 57.9848H85.3489ZM91.418 62.5187C89.9935 62.5187 88.8324 62.0817 87.9346 61.2079C87.0427 60.334 86.5968 59.1699 86.5968 57.7154V57.464C86.5968 56.4884 86.7854 55.6176 87.1624 54.8514C87.5395 54.0793 88.0722 53.4868 88.7605 53.0738C89.4548 52.6548 90.2449 52.4453 91.1307 52.4453C92.4595 52.4453 93.5039 52.8643 94.2641 53.7022C95.0302 54.5402 95.4133 55.7283 95.4133 57.2665V58.3259H89.2274C89.3112 58.9604 89.5626 59.4691 89.9815 59.8522C90.4065 60.2353 90.9422 60.4268 91.5886 60.4268C92.5882 60.4268 93.3693 60.0647 93.9319 59.3404L95.2068 60.768C94.8177 61.3186 94.291 61.7496 93.6266 62.0608C92.9623 62.366 92.2261 62.5187 91.418 62.5187ZM91.1218 54.5462C90.607 54.5462 90.188 54.7197 89.8648 55.0669C89.5476 55.414 89.3441 55.9108 89.2543 56.5573H92.8635V56.3508C92.8515 55.7762 92.6959 55.3332 92.3966 55.022C92.0974 54.7048 91.6724 54.5462 91.1218 54.5462ZM105.639 57.5718C105.639 59.0681 105.298 60.2682 104.616 61.172C103.939 62.0698 103.024 62.5187 101.868 62.5187C100.887 62.5187 100.094 62.1775 99.4893 61.4952V66.074H96.8946V52.6249H99.3008L99.3905 53.5765C100.019 52.8224 100.839 52.4453 101.851 52.4453C103.048 52.4453 103.978 52.8882 104.643 53.7741C105.307 54.6599 105.639 55.8809 105.639 57.4371V57.5718ZM103.045 57.3832C103.045 56.4794 102.883 55.7821 102.56 55.2913C102.243 54.8005 101.779 54.5551 101.168 54.5551C100.354 54.5551 99.7946 54.8664 99.4893 55.4889V59.4661C99.8065 60.1066 100.372 60.4268 101.186 60.4268C102.425 60.4268 103.045 59.4123 103.045 57.3832ZM107.426 62.3391V52.6249H111.484C112.807 52.6249 113.821 52.8583 114.528 53.3252C115.234 53.792 115.587 54.4624 115.587 55.3362C115.587 55.7851 115.437 56.1892 115.138 56.5483C114.845 56.9014 114.414 57.1737 113.845 57.3653C114.539 57.497 115.084 57.7573 115.479 58.1464C115.88 58.5294 116.081 59.0023 116.081 59.5649C116.081 60.4687 115.74 61.157 115.057 61.6298C114.381 62.1027 113.396 62.3391 112.103 62.3391H107.426ZM110.021 58.308V60.2652H112.112C113.028 60.2652 113.486 59.945 113.486 59.3045C113.486 58.6521 113.049 58.3199 112.175 58.308H110.021ZM110.021 56.5662H111.628C112.537 56.5543 112.992 56.261 112.992 55.6864C112.992 55.3332 112.867 55.0819 112.615 54.9322C112.37 54.7826 111.993 54.7078 111.484 54.7078H110.021V56.5662ZM123.524 52.6249H126.118V62.3391H123.524V56.3418L120.273 62.3391H117.67V52.6249H120.273V58.6132L123.524 52.6249ZM132.142 60.4268C132.621 60.4268 133.01 60.2951 133.31 60.0318C133.609 59.7684 133.764 59.4183 133.776 58.9813H136.209C136.203 59.6397 136.024 60.2442 135.671 60.7949C135.318 61.3396 134.833 61.7645 134.216 62.0698C133.606 62.369 132.93 62.5187 132.187 62.5187C130.799 62.5187 129.703 62.0787 128.901 61.1989C128.099 60.3131 127.698 59.0921 127.698 57.5359V57.3653C127.698 55.8689 128.096 54.6749 128.892 53.783C129.688 52.8912 130.781 52.4453 132.169 52.4453C133.384 52.4453 134.357 52.7925 135.087 53.4868C135.823 54.1751 136.198 55.0938 136.209 56.243H133.776C133.764 55.7403 133.609 55.3332 133.31 55.022C133.01 54.7048 132.615 54.5462 132.124 54.5462C131.52 54.5462 131.062 54.7676 130.751 55.2105C130.446 55.6475 130.293 56.3597 130.293 57.3473V57.6167C130.293 58.6162 130.446 59.3345 130.751 59.7714C131.056 60.2083 131.52 60.4268 132.142 60.4268Z" fill="#232323"/>
<defs>
<filter id="filter0_d_562_86162" x="0.0354004" y="0.315186" width="215.904" height="97.2949" filterUnits="userSpaceOnUse" color-interpolation-filters="sRGB">
<feFlood flood-opacity="0" result="BackgroundImageFix"/>
<feColorMatrix in="SourceAlpha" type="matrix" values="0 0 0 0 0 0 0 0 0 0 0 0 0 0 0 0 0 0 127 0" result="hardAlpha"/>
<feOffset dy="2.75805"/>
<feComposite in2="hardAlpha" operator="out"/>
<feColorMatrix type="matrix" values="0 0 0 0 0 0 0 0 0 0 0 0 0 0 0 0 0 0 0.25 0"/>
<feBlend mode="normal" in2="BackgroundImageFix" result="effect1_dropShadow_562_86162"/>
<feBlend mode="normal" in="SourceGraphic" in2="effect1_dropShadow_562_86162" result="shape"/>
</filter>
<linearGradient id="paint0_linear_562_86162" x1="175.472" y1="26.3271" x2="211.557" y2="31.6488" gradientUnits="userSpaceOnUse">
<stop offset="0.2021" stop-color="#6476EE"/>
<stop offset="0.4421" stop-color="#5461CF"/>
<stop offset="0.952" stop-color="#2D2E83"/>
</linearGradient>
<linearGradient id="paint1_linear_562_86162" x1="174.818" y1="26.6601" x2="211.475" y2="32.0662" gradientUnits="userSpaceOnUse">
<stop offset="0.2021" stop-color="white" stop-opacity="0"/>
<stop offset="0.952" stop-color="white"/>
</linearGradient>
<linearGradient id="paint2_linear_562_86162" x1="150.214" y1="27.8676" x2="175.017" y2="14.7599" gradientUnits="userSpaceOnUse">
<stop stop-color="#EEDA76"/>
<stop offset="0.2806" stop-color="#F1AB29"/>
<stop offset="0.4236" stop-color="#F39200"/>
<stop offset="0.9168" stop-color="#EA5B0C"/>
</linearGradient>
<linearGradient id="paint3_linear_562_86162" x1="151.324" y1="29.6852" x2="164.416" y2="18.8677" gradientUnits="userSpaceOnUse">
<stop offset="0.5577" stop-color="white" stop-opacity="0"/>
<stop offset="0.952" stop-color="white"/>
</linearGradient>
<linearGradient id="paint4_linear_562_86162" x1="44.7773" y1="20.2615" x2="73.8606" y2="20.2615" gradientUnits="userSpaceOnUse">
<stop stop-color="#E94E1B"/>
<stop offset="0.188" stop-color="#E94A1D"/>
<stop offset="0.3793" stop-color="#E73E24"/>
<stop offset="0.4902" stop-color="#E6332A"/>
<stop offset="1" stop-color="#E6332A"/>
</linearGradient>
<linearGradient id="paint5_linear_562_86162" x1="63.9916" y1="38.6618" x2="55.3714" y2="6.49059" gradientUnits="userSpaceOnUse">
<stop stop-color="white" stop-opacity="0"/>
<stop offset="0.952" stop-color="white"/>
</linearGradient>
<linearGradient id="paint6_linear_562_86162" x1="36.6674" y1="51.9323" x2="15.6656" y2="6.05791" gradientUnits="userSpaceOnUse">
<stop stop-color="#EEDA76"/>
<stop offset="0.6671" stop-color="#FDC56E"/>
</linearGradient>
<linearGradient id="paint7_linear_562_86162" x1="29.2849" y1="42.17" x2="3.91007" y2="14.0866" gradientUnits="userSpaceOnUse">
<stop stop-color="white" stop-opacity="0"/>
<stop offset="1" stop-color="white"/>
</linearGradient>
<linearGradient id="paint8_linear_562_86162" x1="105.77" y1="14.6362" x2="104.979" y2="87.3815" gradientUnits="userSpaceOnUse">
<stop stop-color="white"/>
<stop offset="0.3245" stop-color="#FDFDFE"/>
<stop offset="0.4963" stop-color="#F5F8F9"/>
<stop offset="0.6324" stop-color="#E7EEF0"/>
<stop offset="0.7497" stop-color="#D4E1E5"/>
<stop offset="0.855" stop-color="#BBCFD5"/>
<stop offset="0.9501" stop-color="#9DBAC3"/>
<stop offset="1" stop-color="#8AADB7"/>
</linearGradient>
<linearGradient id="paint9_linear_562_86162" x1="30.216" y1="94.1729" x2="16.3008" y2="69.8162" gradientUnits="userSpaceOnUse">
<stop stop-color="#EEDA76"/>
<stop offset="0.2806" stop-color="#F1AB29"/>
<stop offset="0.4236" stop-color="#F39200"/>
<stop offset="0.9168" stop-color="#EA5B0C"/>
</linearGradient>
<linearGradient id="paint10_linear_562_86162" x1="32.1072" y1="93.0044" x2="20.8647" y2="80.2752" gradientUnits="userSpaceOnUse">
<stop offset="0.5577" stop-color="white" stop-opacity="0"/>
<stop offset="0.952" stop-color="white"/>
</linearGradient>
<linearGradient id="paint11_linear_562_86162" x1="60.3527" y1="94.9336" x2="48.5324" y2="69.4937" gradientUnits="userSpaceOnUse">
<stop stop-color="#EEDA76"/>
<stop offset="0.2806" stop-color="#F1AB29"/>
<stop offset="0.4236" stop-color="#F39200"/>
<stop offset="0.9168" stop-color="#EA5B0C"/>
</linearGradient>
<linearGradient id="paint12_linear_562_86162" x1="62.145" y1="93.9665" x2="52.0133" y2="80.3378" gradientUnits="userSpaceOnUse">
<stop offset="0.5577" stop-color="white" stop-opacity="0"/>
<stop offset="0.952" stop-color="white"/>
</linearGradient>
<linearGradient id="paint13_linear_562_86162" x1="166.523" y1="72.6175" x2="195.607" y2="72.6175" gradientUnits="userSpaceOnUse">
<stop stop-color="#E94E1B"/>
<stop offset="0.188" stop-color="#E94A1D"/>
<stop offset="0.3793" stop-color="#E73E24"/>
<stop offset="0.4902" stop-color="#E6332A"/>
<stop offset="1" stop-color="#E6332A"/>
</linearGradient>
<linearGradient id="paint14_linear_562_86162" x1="185.738" y1="91.0177" x2="177.117" y2="58.8466" gradientUnits="userSpaceOnUse">
<stop stop-color="white" stop-opacity="0"/>
<stop offset="0.952" stop-color="white"/>
</linearGradient>
<linearGradient id="paint15_linear_562_86162" x1="166.523" y1="72.6175" x2="195.607" y2="72.6175" gradientUnits="userSpaceOnUse">
<stop stop-color="#E94E1B"/>
<stop offset="0.188" stop-color="#E94A1D"/>
<stop offset="0.3793" stop-color="#E73E24"/>
<stop offset="0.4902" stop-color="#E6332A"/>
<stop offset="1" stop-color="#E6332A"/>
</linearGradient>
<linearGradient id="paint16_linear_562_86162" x1="185.738" y1="91.0177" x2="177.117" y2="58.8466" gradientUnits="userSpaceOnUse">
<stop stop-color="white" stop-opacity="0"/>
<stop offset="0.952" stop-color="white"/>
</linearGradient>
</defs>
</svg>
