<svg width="600" height="48" viewBox="0 0 600 48" fill="none" xmlns="http://www.w3.org/2000/svg">
<path d="M53.4898 17.6385H6.97802H1.64874C1.28582 17.6385 0.989746 17.9344 0.989746 18.2971V22.1918V38.983C0.989746 39.3458 1.28582 39.6417 1.64874 39.6417H6.31902C6.68194 39.6417 6.97802 39.3458 6.97802 38.983V22.8505C6.97802 22.4878 7.27409 22.1918 7.63702 22.1918H52.8308C53.1937 22.1918 53.4898 22.4878 53.4898 22.8505V38.983C53.4898 39.3458 53.7859 39.6417 54.1488 39.6417H58.8191C59.182 39.6417 59.4781 39.3458 59.4781 38.983V22.1823V18.2876C59.4781 17.9248 59.182 17.6289 58.8191 17.6289H53.4898V17.6385Z" fill="url(#paint0_linear_226_17415)"/>
<path d="M33.2231 0.658666V27.1962C33.2231 27.559 32.9271 27.8549 32.5641 27.8549H27.8939C27.5309 27.8549 27.2349 27.559 27.2349 27.1962V0.658666C27.2349 0.295922 27.5309 0 27.8939 0H32.5641C32.9271 0 33.2231 0.295922 33.2231 0.658666Z" fill="url(#paint1_linear_226_17415)"/>
<path d="M51.1791 25.7739V46.8321C51.1791 47.1949 50.883 47.4908 50.5201 47.4908H9.93926C9.57634 47.4908 9.28027 47.1949 9.28027 46.8321V25.7739C9.28027 25.4112 9.57634 25.1152 9.93926 25.1152H50.5201C50.883 25.1152 51.1791 25.4112 51.1791 25.7739Z" fill="url(#paint2_linear_226_17415)"/>
<path d="M40.3296 5.14499V22.7094C40.3296 23.0722 40.0335 23.3681 39.6706 23.3681H20.7889C20.4259 23.3681 20.1299 23.0722 20.1299 22.7094V5.14499C20.1299 4.78225 20.4259 4.48633 20.7889 4.48633H39.6706C40.0335 4.48633 40.3296 4.78225 40.3296 5.14499Z" fill="url(#paint3_linear_226_17415)"/>
<path d="M413.369 17.6385H366.857H361.528C361.165 17.6385 360.869 17.9344 360.869 18.2971V22.1918V38.9831C360.869 39.3458 361.165 39.6417 361.528 39.6417H366.198C366.561 39.6417 366.857 39.3458 366.857 38.9831V22.8505C366.857 22.4878 367.153 22.1918 367.516 22.1918H412.71C413.073 22.1918 413.369 22.4878 413.369 22.8505V38.9831C413.369 39.3458 413.665 39.6417 414.028 39.6417H418.698C419.061 39.6417 419.357 39.3458 419.357 38.9831V22.1823V18.2876C419.357 17.9248 419.061 17.6289 418.698 17.6289H413.369V17.6385Z" fill="url(#paint4_linear_226_17415)"/>
<path d="M393.102 0.658666V27.1962C393.102 27.559 392.806 27.8549 392.443 27.8549H387.773C387.41 27.8549 387.114 27.559 387.114 27.1962V0.658666C387.114 0.295922 387.41 0 387.773 0H392.443C392.806 0 393.102 0.295922 393.102 0.658666Z" fill="url(#paint5_linear_226_17415)"/>
<path d="M411.058 25.7739V46.8321C411.058 47.1949 410.761 47.4908 410.399 47.4908H369.818C369.455 47.4908 369.159 47.1949 369.159 46.8321V25.7739C369.159 25.4112 369.455 25.1152 369.818 25.1152H410.399C410.771 25.1152 411.058 25.4112 411.058 25.7739Z" fill="url(#paint6_linear_226_17415)"/>
<path d="M400.218 5.14499V22.7094C400.218 23.0722 399.922 23.3681 399.559 23.3681H380.677C380.314 23.3681 380.018 23.0722 380.018 22.7094V5.14499C380.018 4.78225 380.314 4.48633 380.677 4.48633H399.559C399.922 4.48633 400.218 4.78225 400.218 5.14499Z" fill="url(#paint7_linear_226_17415)"/>
<path d="M233.424 17.6385H186.912H181.583C181.22 17.6385 180.924 17.9344 180.924 18.2971V22.1918V38.983C180.924 39.3458 181.22 39.6417 181.583 39.6417H186.253C186.616 39.6417 186.912 39.3458 186.912 38.983V22.8505C186.912 22.4878 187.208 22.1918 187.571 22.1918H232.765C233.128 22.1918 233.424 22.4878 233.424 22.8505V38.983C233.424 39.3458 233.72 39.6417 234.083 39.6417H238.753C239.116 39.6417 239.412 39.3458 239.412 38.983V22.1823V18.2876C239.412 17.9248 239.116 17.6289 238.753 17.6289H233.424V17.6385Z" fill="url(#paint8_linear_226_17415)"/>
<path d="M213.167 0.658666V27.1962C213.167 27.559 212.871 27.8549 212.508 27.8549H207.838C207.475 27.8549 207.179 27.559 207.179 27.1962V0.658666C207.179 0.295922 207.475 0 207.838 0H212.508C212.871 0 213.167 0.295922 213.167 0.658666Z" fill="url(#paint9_linear_226_17415)"/>
<path d="M231.122 25.7739V46.8321C231.122 47.1949 230.826 47.4908 230.463 47.4908H189.883C189.52 47.4908 189.224 47.1949 189.224 46.8321V25.7739C189.224 25.4112 189.52 25.1152 189.883 25.1152H230.463C230.826 25.1152 231.122 25.4112 231.122 25.7739Z" fill="url(#paint10_linear_226_17415)"/>
<path d="M220.273 5.14499V22.7094C220.273 23.0722 219.977 23.3681 219.614 23.3681H200.732C200.369 23.3681 200.073 23.0722 200.073 22.7094V5.14499C200.073 4.78225 200.369 4.48633 200.732 4.48633H219.614C219.977 4.48633 220.273 4.78225 220.273 5.14499Z" fill="url(#paint11_linear_226_17415)"/>
<path d="M593.495 17.6385H546.983H541.654C541.291 17.6385 540.995 17.9344 540.995 18.2971V22.1918V38.9831C540.995 39.3458 541.291 39.6417 541.654 39.6417H546.324C546.687 39.6417 546.983 39.3458 546.983 38.9831V22.8505C546.983 22.4878 547.279 22.1918 547.642 22.1918H592.836C593.199 22.1918 593.495 22.4878 593.495 22.8505V38.9831C593.495 39.3458 593.791 39.6417 594.154 39.6417H598.825C599.187 39.6417 599.484 39.3458 599.484 38.9831V22.1823V18.2876C599.484 17.9248 599.187 17.6289 598.825 17.6289H593.495V17.6385Z" fill="url(#paint12_linear_226_17415)"/>
<path d="M573.229 0.658666V27.1962C573.229 27.559 572.933 27.8549 572.57 27.8549H567.9C567.537 27.8549 567.241 27.559 567.241 27.1962V0.658666C567.241 0.295922 567.537 0 567.9 0H572.57C572.943 0 573.229 0.295922 573.229 0.658666Z" fill="url(#paint13_linear_226_17415)"/>
<path d="M591.193 25.7739V46.8321C591.193 47.1949 590.897 47.4908 590.534 47.4908H549.953C549.59 47.4908 549.294 47.1949 549.294 46.8321V25.7739C549.294 25.4112 549.59 25.1152 549.953 25.1152H590.534C590.897 25.1152 591.193 25.4112 591.193 25.7739Z" fill="url(#paint14_linear_226_17415)"/>
<path d="M580.344 5.14499V22.7094C580.344 23.0722 580.048 23.3681 579.685 23.3681H560.804C560.441 23.3681 560.145 23.0722 560.145 22.7094V5.14499C560.145 4.78225 560.441 4.48633 560.804 4.48633H579.685C580.048 4.48633 580.344 4.78225 580.344 5.14499Z" fill="url(#paint15_linear_226_17415)"/>
<defs>
<linearGradient id="paint0_linear_226_17415" x1="30.2315" y1="9.68903" x2="30.2315" y2="87.2031" gradientUnits="userSpaceOnUse">
<stop stop-color="#2F5075"/>
<stop offset="0.146" stop-color="#3D5F83"/>
<stop offset="0.4272" stop-color="#6286A6"/>
<stop offset="0.8117" stop-color="#9DC6E0"/>
<stop offset="1" stop-color="#BCE7FE"/>
</linearGradient>
<linearGradient id="paint1_linear_226_17415" x1="30.2315" y1="27.8562" x2="30.2315" y2="0" gradientUnits="userSpaceOnUse">
<stop stop-color="#FE8965"/>
<stop offset="0.2326" stop-color="#FE9872"/>
<stop offset="0.6768" stop-color="#FDBF94"/>
<stop offset="0.9944" stop-color="#FDDEAF"/>
</linearGradient>
<linearGradient id="paint2_linear_226_17415" x1="30.2321" y1="47.4864" x2="30.2321" y2="25.1142" gradientUnits="userSpaceOnUse">
<stop stop-color="#FE8965"/>
<stop offset="0.2326" stop-color="#FE9872"/>
<stop offset="0.6768" stop-color="#FDBF94"/>
<stop offset="0.9944" stop-color="#FDDEAF"/>
</linearGradient>
<linearGradient id="paint3_linear_226_17415" x1="30.2322" y1="23.3691" x2="30.2322" y2="4.48671" gradientUnits="userSpaceOnUse">
<stop stop-color="#FE8965"/>
<stop offset="0.2326" stop-color="#FE9872"/>
<stop offset="0.6768" stop-color="#FDBF94"/>
<stop offset="0.9944" stop-color="#FDDEAF"/>
</linearGradient>
<linearGradient id="paint4_linear_226_17415" x1="390.112" y1="9.68902" x2="390.112" y2="87.2031" gradientUnits="userSpaceOnUse">
<stop stop-color="#2F5075"/>
<stop offset="0.146" stop-color="#3D5F83"/>
<stop offset="0.4272" stop-color="#6286A6"/>
<stop offset="0.8117" stop-color="#9DC6E0"/>
<stop offset="1" stop-color="#BCE7FE"/>
</linearGradient>
<linearGradient id="paint5_linear_226_17415" x1="390.112" y1="27.8562" x2="390.112" y2="0" gradientUnits="userSpaceOnUse">
<stop stop-color="#FE8965"/>
<stop offset="0.2326" stop-color="#FE9872"/>
<stop offset="0.6768" stop-color="#FDBF94"/>
<stop offset="0.9944" stop-color="#FDDEAF"/>
</linearGradient>
<linearGradient id="paint6_linear_226_17415" x1="390.112" y1="47.4864" x2="390.112" y2="25.1142" gradientUnits="userSpaceOnUse">
<stop stop-color="#FE8965"/>
<stop offset="0.2326" stop-color="#FE9872"/>
<stop offset="0.6768" stop-color="#FDBF94"/>
<stop offset="0.9944" stop-color="#FDDEAF"/>
</linearGradient>
<linearGradient id="paint7_linear_226_17415" x1="390.112" y1="23.3691" x2="390.112" y2="4.48671" gradientUnits="userSpaceOnUse">
<stop stop-color="#FE8965"/>
<stop offset="0.2326" stop-color="#FE9872"/>
<stop offset="0.6768" stop-color="#FDBF94"/>
<stop offset="0.9944" stop-color="#FDDEAF"/>
</linearGradient>
<linearGradient id="paint8_linear_226_17415" x1="210.171" y1="9.68903" x2="210.171" y2="87.2031" gradientUnits="userSpaceOnUse">
<stop stop-color="#2F5075"/>
<stop offset="0.146" stop-color="#3D5F83"/>
<stop offset="0.4272" stop-color="#6286A6"/>
<stop offset="0.8117" stop-color="#9DC6E0"/>
<stop offset="1" stop-color="#BCE7FE"/>
</linearGradient>
<linearGradient id="paint9_linear_226_17415" x1="210.172" y1="27.8562" x2="210.172" y2="0" gradientUnits="userSpaceOnUse">
<stop stop-color="#FE8965"/>
<stop offset="0.2326" stop-color="#FE9872"/>
<stop offset="0.6768" stop-color="#FDBF94"/>
<stop offset="0.9944" stop-color="#FDDEAF"/>
</linearGradient>
<linearGradient id="paint10_linear_226_17415" x1="210.171" y1="47.4864" x2="210.171" y2="25.1142" gradientUnits="userSpaceOnUse">
<stop stop-color="#FE8965"/>
<stop offset="0.2326" stop-color="#FE9872"/>
<stop offset="0.6768" stop-color="#FDBF94"/>
<stop offset="0.9944" stop-color="#FDDEAF"/>
</linearGradient>
<linearGradient id="paint11_linear_226_17415" x1="210.172" y1="23.3691" x2="210.172" y2="4.48671" gradientUnits="userSpaceOnUse">
<stop stop-color="#FE8965"/>
<stop offset="0.2326" stop-color="#FE9872"/>
<stop offset="0.6768" stop-color="#FDBF94"/>
<stop offset="0.9944" stop-color="#FDDEAF"/>
</linearGradient>
<linearGradient id="paint12_linear_226_17415" x1="570.24" y1="9.68902" x2="570.24" y2="87.2031" gradientUnits="userSpaceOnUse">
<stop stop-color="#2F5075"/>
<stop offset="0.146" stop-color="#3D5F83"/>
<stop offset="0.4272" stop-color="#6286A6"/>
<stop offset="0.8117" stop-color="#9DC6E0"/>
<stop offset="1" stop-color="#BCE7FE"/>
</linearGradient>
<linearGradient id="paint13_linear_226_17415" x1="570.241" y1="27.8562" x2="570.241" y2="0" gradientUnits="userSpaceOnUse">
<stop stop-color="#FE8965"/>
<stop offset="0.2326" stop-color="#FE9872"/>
<stop offset="0.6768" stop-color="#FDBF94"/>
<stop offset="0.9944" stop-color="#FDDEAF"/>
</linearGradient>
<linearGradient id="paint14_linear_226_17415" x1="570.24" y1="47.4864" x2="570.24" y2="25.1142" gradientUnits="userSpaceOnUse">
<stop stop-color="#FE8965"/>
<stop offset="0.2326" stop-color="#FE9872"/>
<stop offset="0.6768" stop-color="#FDBF94"/>
<stop offset="0.9944" stop-color="#FDDEAF"/>
</linearGradient>
<linearGradient id="paint15_linear_226_17415" x1="570.24" y1="23.3691" x2="570.24" y2="4.48671" gradientUnits="userSpaceOnUse">
<stop stop-color="#FE8965"/>
<stop offset="0.2326" stop-color="#FE9872"/>
<stop offset="0.6768" stop-color="#FDBF94"/>
<stop offset="0.9944" stop-color="#FDDEAF"/>
</linearGradient>
</defs>
</svg>
