<svg width="346" height="162" viewBox="0 0 346 162" fill="none" xmlns="http://www.w3.org/2000/svg">
<mask id="mask0_415_10174" style="mask-type:alpha" maskUnits="userSpaceOnUse" x="0" y="13" width="346" height="138">
<rect y="13" width="346" height="138" rx="30" fill="#C4C4C4"/>
</mask>
<g mask="url(#mask0_415_10174)">
<path d="M346 1.10938H0V153.861H346V1.10938Z" fill="url(#paint0_linear_415_10174)"/>
</g>
<mask id="mask1_415_10174" style="mask-type:alpha" maskUnits="userSpaceOnUse" x="0" y="13" width="346" height="138">
<rect y="13" width="346" height="138" rx="30" fill="#C4C4C4"/>
</mask>
<g mask="url(#mask1_415_10174)">
<path d="M379.1 185.289C379.1 185.289 294.262 224.139 165.761 77.4909C61.1778 -41.863 -9.45007 -17.2865 -9.45007 -17.2865" stroke="#414147" stroke-width="52.7813" stroke-miterlimit="10"/>
<path d="M379.1 185.289C379.1 185.289 294.262 224.139 165.761 77.4909C61.1778 -41.863 -9.45007 -17.2865 -9.45007 -17.2865" stroke="white" stroke-width="2.63907" stroke-miterlimit="10" stroke-dasharray="13.2 13.2"/>
<path d="M302.644 42.9643C306.268 42.9327 310.604 43.1992 312.221 45.643C313.797 47.9997 311.736 50.966 309.168 52.874C305.241 55.8087 299.934 57.6085 294.563 57.8539C289.913 58.0677 285.2 57.1678 280.658 58.0888C277.444 58.7327 274.583 60.2529 271.392 60.9812C266.354 62.116 260.918 61.1317 256.463 59.192C252.008 57.2628 248.353 54.4469 244.759 51.6521C241.708 49.2849 238.428 46.4136 239.085 43.0514C239.808 39.3673 245.192 37.0106 250.024 37.0001C254.856 36.9895 259.3 38.6495 263.744 39.998C276.507 43.8537 295.827 42.6318 302.644 42.9643Z" fill="url(#paint1_linear_415_10174)"/>
<path d="M233.351 110.214C231.39 108.964 230.211 108.508 229.016 108.464C228.858 108.754 228.608 108.965 228.286 109.043L225.34 110.025C224.996 110.109 224.645 110.026 224.352 109.85C224.239 109.917 224.123 109.986 223.998 110.064L225.709 111.453L218.939 119.782L217.24 118.403C217.172 118.532 217.13 118.659 217.086 118.786C217.324 119.032 217.48 119.352 217.466 119.688L217.103 122.771C217.088 123.131 216.933 123.422 216.693 123.618C216.974 124.789 217.644 125.866 219.281 127.52C223.607 131.9 231.365 137.603 233.195 139.117C242.908 147.207 249.236 151.612 251.809 152.678C252.301 152.881 252.868 152.842 253.453 152.659C253.473 152.536 253.541 152.405 253.641 152.28C254.24 151.544 255.005 151.604 255.53 150.691C255.864 150.084 256.46 150.281 256.835 150.479C257.301 150.077 257.743 149.631 258.153 149.227C258.103 149.068 258.134 148.883 258.246 148.744L262.061 144.053C262.174 143.914 262.358 143.836 262.52 143.855C262.754 143.493 263.013 143.103 263.25 142.714C262.965 142.406 262.581 141.826 263.139 141.335C263.936 140.651 263.722 139.886 264.308 139.165C264.49 138.945 264.697 138.859 264.891 138.838C265.014 138.101 264.956 137.443 264.607 136.939C263.049 134.626 257.443 129.331 247.55 121.465C245.698 119.979 238.536 113.541 233.351 110.214Z" fill="url(#paint2_radial_415_10174)"/>
<path d="M225.719 111.466L224.008 110.077C221.299 111.819 218.387 115.401 217.226 118.419L218.937 119.808L225.719 111.466Z" fill="url(#paint3_linear_415_10174)"/>
<path d="M233.229 110.975C229.985 108.859 229.219 109.334 226.518 109.799C222.86 110.439 217.351 117.212 217.479 120.916C217.585 123.645 217.278 124.485 220.014 127.229C224.173 131.448 231.593 136.979 233.363 138.422C242.711 146.205 248.816 150.447 251.284 151.468C254.124 152.664 259.469 145.823 259.469 145.823C259.469 145.823 265.06 139.189 263.324 136.659C261.816 134.459 256.432 129.328 246.894 121.782C245.124 120.34 238.201 114.196 233.229 110.975Z" fill="url(#paint4_linear_415_10174)"/>
<path d="M233.768 130.446C232.83 132.016 232.417 133.352 232.289 133.852L233.029 134.286C233.029 134.286 233.33 132.695 234.458 130.77C235.443 129.096 238.194 125.708 239.627 124.413C241.286 122.91 242.78 122.295 242.78 122.295L242.208 121.652C241.738 121.888 240.526 122.55 239.174 123.797C237.662 125.166 234.795 128.693 233.768 130.446Z" fill="url(#paint5_linear_415_10174)"/>
<path d="M226.232 129.672C226.435 128.933 226.801 127.628 227.668 125.879C228.921 123.335 231.223 120.503 233.458 118.759C235.006 117.539 236.198 116.928 236.899 116.579C237.196 116.433 237.417 116.36 237.565 116.346L237.541 116.326C237.541 116.326 237.148 115.857 236.961 115.818C236.809 115.783 236.579 115.848 236.213 116.029C235.513 116.375 234.332 116.996 232.772 118.209C230.537 119.953 228.237 122.785 226.994 125.315C226.129 127.088 225.761 128.369 225.56 129.133C225.465 129.519 225.435 129.773 225.507 129.906C225.581 130.084 226.132 130.359 226.132 130.359L226.156 130.379C226.128 130.218 226.159 130.009 226.232 129.672Z" fill="url(#paint6_linear_415_10174)"/>
<path d="M233.769 130.445C234.808 128.702 237.675 125.175 239.175 123.797C240.527 122.55 241.739 121.888 242.211 121.652L237.565 116.345C237.392 116.364 237.196 116.433 236.899 116.579C236.199 116.925 235.019 117.545 233.459 118.756C231.226 120.5 228.924 123.332 227.671 125.877C226.804 127.625 226.438 128.931 226.235 129.67C226.162 130.006 226.131 130.212 226.159 130.376L232.293 133.849C232.418 133.352 232.831 132.016 233.769 130.445Z" fill="url(#paint7_linear_415_10174)"/>
<path d="M256.664 134.123C256.383 133.981 256.113 133.848 255.832 133.705C255.832 133.705 255.81 133.827 255.745 134.029C255.519 134.821 254.709 136.99 252.281 139.975C250.069 142.694 247.934 144.1 247.178 144.539C246.996 144.642 246.893 144.697 246.893 144.697C247.072 144.943 247.262 145.172 247.441 145.415C249.309 147.662 251.603 149.168 251.603 149.168C251.603 149.168 253.138 148.426 254.856 146.997C256.188 145.872 258.872 142.568 259.697 141.043C260.768 139.07 261.158 137.413 261.158 137.413C261.158 137.413 259.219 135.498 256.664 134.123ZM260.258 137.375C260.258 137.375 259.921 138.937 258.955 140.786C258.209 142.216 255.705 145.297 254.453 146.323C252.837 147.651 251.379 148.298 251.379 148.298C251.379 148.298 249.521 147.065 247.765 145.193C248.861 144.409 250.774 142.86 252.794 140.376C254.961 137.712 256.017 135.654 256.513 134.483C258.672 135.833 260.258 137.375 260.258 137.375Z" fill="url(#paint8_linear_415_10174)"/>
<path d="M247.752 145.207C249.496 147.069 251.366 148.312 251.366 148.312C251.366 148.312 252.834 147.654 254.45 146.325C255.692 145.314 258.197 142.23 258.942 140.8C259.91 138.952 260.245 137.389 260.245 137.389C260.245 137.389 258.669 135.832 256.497 134.521C256.013 135.68 254.958 137.735 252.78 140.414C250.773 142.884 248.858 144.432 247.752 145.207Z" fill="url(#paint9_linear_415_10174)"/>
<path d="M237.448 140.147L238.832 139.302L233.081 134.962L225.561 130.723C225.561 130.723 227.182 132.2 229.689 134.075C231.278 135.268 233.538 136.794 234.906 137.92C236.194 138.976 237.021 139.742 237.448 140.147Z" fill="url(#paint10_linear_415_10174)"/>
<path d="M249.418 125.419L248.872 126.945L243.451 122.204L237.771 115.679C237.771 115.679 239.538 116.974 241.888 119.042C243.389 120.349 245.342 122.248 246.723 123.36C248.017 124.428 248.939 125.108 249.418 125.419Z" fill="url(#paint11_linear_415_10174)"/>
<path d="M237.931 140.6L239.478 139.798L244.252 143.454C244.252 143.454 244.74 144.028 245.321 145.264C245.979 146.681 246.072 147.203 246.072 147.203C246.072 147.203 239.576 142.145 237.931 140.6Z" fill="url(#paint12_linear_415_10174)"/>
<path d="M249.96 125.803L249.499 127.471L254.045 131.408C254.045 131.408 254.713 131.761 256.031 132.094C257.558 132.442 258.088 132.419 258.088 132.419C258.088 132.419 251.821 127.085 249.96 125.803Z" fill="url(#paint13_linear_415_10174)"/>
<path d="M217.115 122.784L217.478 119.701C217.483 119.356 217.325 119.035 217.087 118.787C216.825 119.547 216.691 120.253 216.704 120.871C216.732 122.084 216.491 122.77 216.694 123.618C216.931 123.425 217.088 123.135 217.115 122.784Z" fill="url(#paint14_radial_415_10174)"/>
<path d="M225.329 110.016L228.274 109.033C228.597 108.953 228.847 108.745 228.991 108.469C228.121 108.44 227.505 108.832 226.292 109.051C225.68 109.167 225.025 109.436 224.328 109.854C224.645 110.026 224.993 110.108 225.329 110.016Z" fill="url(#paint15_radial_415_10174)"/>
<path d="M255.52 150.679C255.006 151.602 254.218 151.547 253.631 152.271C253.528 152.395 253.462 152.527 253.44 152.649C254.534 152.307 255.742 151.429 256.832 150.455C256.462 150.281 255.854 150.072 255.52 150.679Z" fill="#F15A29"/>
<path d="M263.138 141.311C262.581 141.799 262.965 142.38 263.25 142.69C264.009 141.412 264.698 140.005 264.891 138.814C264.694 138.835 264.488 138.918 264.306 139.141C263.731 139.872 263.933 140.627 263.138 141.311Z" fill="#F15A29"/>
<path d="M236.887 116.572C236.187 116.918 235.007 117.538 233.447 118.752C232.9 119.18 232.355 119.68 231.809 120.202C232.301 123.091 233.923 127.35 234.624 129.154C235.939 127.315 237.983 124.874 239.163 123.787C240.515 122.54 241.73 121.879 242.2 121.642L237.554 116.336C237.39 116.364 237.197 116.433 236.887 116.572Z" fill="url(#paint16_linear_415_10174)"/>
<path d="M237.482 127.933C233.831 132.202 233.484 134.338 233.484 134.338C233.484 134.338 244.569 143.277 245.938 143.82C246.861 144.197 249.425 141.729 250.978 140.088L252.142 138.658C253.433 136.801 255.327 133.787 254.763 132.964C253.936 131.731 242.94 122.703 242.94 122.703C242.94 122.703 240.918 123.485 237.482 127.933Z" fill="url(#paint17_linear_415_10174)"/>
<path d="M259.735 144.762C263.023 140.422 263.284 137.535 263.284 137.535L261.556 137.508C260.945 141.409 257.888 144.54 257.888 144.54C257.888 144.54 255.442 148.183 251.751 149.569L252.123 151.261C252.123 151.261 254.908 150.401 258.479 146.299C258.674 146.089 259.113 145.547 259.113 145.547C259.365 145.244 259.555 144.985 259.735 144.762Z" fill="url(#paint18_linear_415_10174)"/>
<path d="M259.735 144.762C263.023 140.422 263.284 137.535 263.284 137.535L261.556 137.508C260.945 141.409 257.888 144.54 257.888 144.54C257.888 144.54 255.442 148.183 251.751 149.569L252.123 151.261C252.123 151.261 254.908 150.401 258.479 146.299C258.674 146.089 259.113 145.547 259.113 145.547C259.365 145.244 259.555 144.985 259.735 144.762Z" fill="url(#paint19_linear_415_10174)"/>
<path d="M217.807 120.002C217.807 120.002 216.805 123.53 219.66 126.323C222.572 129.166 224.189 130.406 224.189 130.406C224.189 130.406 217.654 123.612 217.807 120.002Z" fill="#474747"/>
<path d="M238.137 116.08C238.137 116.08 238.832 115.521 239.456 115.998C240.068 116.49 240.744 118.179 239.953 117.561C239.164 116.944 238.328 116.336 238.137 116.08Z" fill="url(#paint20_linear_415_10174)"/>
<path d="M241.399 114.806C241.049 114.792 239.508 115.787 239.508 115.787C239.191 115.986 239.369 116.277 239.559 116.484L241.776 115.028C241.705 114.944 241.586 114.821 241.399 114.806Z" fill="url(#paint21_radial_415_10174)"/>
<path d="M239.561 116.481C239.679 116.628 239.809 116.712 239.809 116.712L241.871 115.198C241.871 115.198 241.846 115.107 241.775 115.022L239.561 116.481Z" fill="url(#paint22_linear_415_10174)"/>
<path d="M225.96 130.985C225.96 130.985 225.527 131.813 226.118 132.334C226.72 132.84 228.545 133.11 227.779 132.466C226.998 131.81 226.252 131.092 225.96 130.985Z" fill="url(#paint23_linear_415_10174)"/>
<path d="M225.968 132.371C225.968 132.371 225.298 134.099 225.389 134.431C225.45 134.623 225.603 134.73 225.719 134.78L226.686 132.297C226.436 132.159 226.099 132.014 225.968 132.371Z" fill="url(#paint24_radial_415_10174)"/>
<path d="M225.706 134.768C225.785 134.789 225.858 134.802 225.858 134.802L226.92 132.471C226.92 132.471 226.815 132.382 226.673 132.288L225.706 134.768Z" fill="url(#paint25_linear_415_10174)"/>
<path d="M232.921 138.867C232.841 138.962 232.857 139.116 232.962 139.205L234.532 140.476C234.637 140.565 234.801 140.537 234.868 140.456L232.921 138.867Z" fill="#595959"/>
<path d="M240.833 145.163C240.756 145.262 240.77 145.413 240.887 145.488L242.445 146.773C242.562 146.848 242.713 146.834 242.793 146.738L240.833 145.163Z" fill="#595959"/>
<path d="M247.243 121.255C247.32 121.156 247.471 121.142 247.588 121.22L249.146 122.505C249.253 122.594 249.279 122.734 249.2 122.829L247.243 121.255Z" fill="#595959"/>
<path d="M255.018 127.716C255.098 127.618 255.247 127.604 255.366 127.681L256.924 128.967C257.041 129.041 257.057 129.195 256.978 129.291L255.018 127.716Z" fill="#595959"/>
<path d="M262.073 144.039L258.26 148.73C258.145 148.869 258.115 149.051 258.167 149.213C259.504 147.86 260.474 146.619 260.474 146.619C260.474 146.619 261.479 145.43 262.532 143.838C262.359 143.836 262.186 143.9 262.073 144.039Z" fill="url(#paint26_linear_415_10174)"/>
<path d="M256.512 134.507C256.027 135.665 254.972 137.721 252.794 140.399C252.342 140.955 251.902 141.449 251.496 141.902C250.961 144.023 252.482 146.795 252.878 147.478C253.334 147.184 253.895 146.79 254.466 146.335C255.708 145.324 258.213 142.24 258.958 140.81C259.926 138.962 260.261 137.399 260.261 137.399C260.261 137.399 258.673 135.832 256.512 134.507Z" fill="url(#paint27_linear_415_10174)"/>
<path d="M234.219 133.976C234.219 133.976 234.917 134.631 235.968 135.61C236.487 136.094 237.102 136.679 237.777 137.271C237.944 137.435 238.119 137.557 238.285 137.721C238.366 137.791 238.462 137.871 238.533 137.953C238.626 138.032 238.722 138.088 238.815 138.167C239.181 138.473 239.546 138.782 239.924 139.076C240.289 139.382 240.677 139.662 241.033 139.961C241.41 140.256 241.774 140.538 242.128 140.813C242.845 141.346 243.505 141.876 244.082 142.291C245.226 143.157 245.991 143.731 245.991 143.731C246.051 143.782 246.075 143.873 246.018 143.94C245.973 143.995 245.893 143.997 245.821 143.961C245.821 143.961 245.023 143.43 243.857 142.59C243.271 142.166 242.586 141.686 241.858 141.167C241.491 140.906 241.128 140.625 240.738 140.344C240.372 140.06 239.984 139.759 239.594 139.478C239.206 139.199 238.829 138.904 238.45 138.613C238.355 138.533 238.274 138.463 238.168 138.398C238.073 138.318 237.979 138.263 237.886 138.183C237.707 138.033 237.53 137.884 237.353 137.737C236.656 137.151 236.031 136.601 235.477 136.136C234.391 135.201 233.669 134.547 233.669 134.547C233.514 134.396 233.487 134.16 233.631 134.004C233.778 133.849 234.022 133.818 234.177 133.97C234.219 133.976 234.219 133.976 234.219 133.976Z" fill="#727278"/>
<path d="M91.6441 73.9643C95.2675 73.9327 99.6035 74.1992 101.221 76.643C102.797 78.9997 100.736 81.966 98.1679 83.874C94.2409 86.8087 88.9338 88.6085 83.5633 88.8539C78.9132 89.0677 74.1999 88.1678 69.6581 89.0888C66.4437 89.7327 63.5829 91.2529 60.3923 91.9812C55.3543 93.116 49.9178 92.1317 45.4631 90.192C41.0083 88.2628 37.3532 85.4469 33.7588 82.6521C30.7081 80.2849 27.4277 77.4136 28.0848 74.0514C28.808 70.3673 34.1916 68.0106 39.0238 68.0001C43.8559 67.9895 48.3001 69.6495 52.7443 70.998C65.5068 74.8537 84.8274 73.6318 91.6441 73.9643Z" fill="url(#paint28_linear_415_10174)"/>
</g>
<path d="M42.2664 103.521C40.9258 103.508 39.5508 103.508 38.2682 103.936C36.9857 104.363 35.7717 105.284 35.3099 106.62C35.0327 107.422 35.009 108.356 34.5366 109.037C33.9692 109.839 32.9637 110.066 32.0981 110.451C30.9079 110.971 29.7995 111.987 29.5672 113.336C29.2558 115.099 30.5147 116.78 32.0057 117.595C33.4968 118.385 35.2043 118.543 36.8352 118.944C38.4635 119.332 40.1631 120.066 41.0419 121.588C41.7465 122.802 41.9445 124.512 43.1452 125.114C44.0109 125.542 45.0506 125.18 45.8819 124.687C46.7264 124.193 47.5235 123.539 48.4709 123.391C49.698 123.19 50.8962 123.845 52.1233 123.966C53.8678 124.14 55.6227 123.193 56.7206 121.723C57.8184 120.253 58.2803 118.332 58.2222 116.474C58.1747 114.592 57.6443 112.774 56.9053 111.08C56.0951 109.198 55.021 107.422 53.588 106.018C52.1576 104.63 50.3525 103.614 48.4339 103.387L42.2664 103.521Z" fill="url(#paint29_linear_415_10174)"/>
<path d="M42.0689 104.603C42.3909 105.524 42.726 106.458 42.7155 107.448C42.7023 108.422 42.251 109.464 41.4091 109.865C40.5778 110.253 39.5935 109.945 38.7041 110.158C37.6986 110.412 36.9122 111.441 36.8673 112.549C36.8435 113.338 37.1444 114.085 37.1338 114.872C37.1101 115.993 36.3368 117.062 35.3314 117.355C34.3127 117.661 33.1462 117.181 32.5815 116.234C32.2938 115.766 32.1539 115.191 31.795 114.764C31.1009 113.948 29.887 113.988 29.0108 113.389C27.8206 112.573 27.6464 110.504 28.6756 109.475C29.1612 108.995 29.8764 108.673 30.0506 107.992C30.2591 107.163 29.5439 106.443 29.1744 105.696C28.607 104.561 28.8736 103.012 29.7867 102.157C30.6998 101.315 32.1803 101.249 33.162 102.022L42.0689 104.603Z" fill="url(#paint30_linear_415_10174)"/>
<path d="M49.9612 121.176C51.162 121.67 52.5026 121.765 53.231 120.509C53.2442 120.495 53.3234 120.268 53.5318 119.735C53.6137 119.535 53.6823 119.321 53.7509 119.12C53.9462 118.466 54.0623 118.279 54.7564 117.825C55.3686 117.41 56.1313 117.397 56.8148 117.17C57.7966 116.851 58.6173 115.996 58.8258 114.901C59.0686 113.605 58.2584 112.618 57.3136 111.937C56.7937 111.562 56.2263 111.177 55.6246 110.947C55.0572 110.734 54.5268 110.813 53.9488 110.894C53.5661 110.947 53.2099 110.974 52.851 110.802C52.5026 110.628 52.2149 110.348 51.9141 110.095C51.5103 109.76 51.0828 109.52 50.5629 109.52C49.6709 109.533 48.771 110.214 48.5862 111.161C48.4701 111.75 48.6337 112.349 48.6548 112.937C48.6892 113.845 48.1455 114.394 47.5438 114.94C46.6544 115.782 46.1688 116.756 46.6069 118.025C47.1057 119.453 48.6548 120.627 49.9612 121.176Z" fill="url(#paint31_linear_415_10174)"/>
<path d="M43.8708 100.37L42.7148 136.293H45.5571L43.8708 100.37Z" fill="#434343"/>
<path d="M58.1886 103.817C57.3916 102.561 56.2832 101.922 55.1035 101.159C54.5018 100.771 53.9951 100.317 53.6573 99.6497C53.3222 98.982 53.1374 98.2219 52.8709 97.512C52.4196 96.298 51.6939 95.2952 50.596 94.6935C48.1918 93.3317 45.4182 94.1182 43.3491 95.8151C42.2856 96.6833 41.4886 97.9527 40.3459 98.7128C39.029 99.581 37.8493 98.66 36.5562 98.2325C34.0939 97.4302 31.7373 99.7024 31.9114 102.386C32.0962 105.419 35.2974 108.557 38.1739 107.261C38.9129 106.926 39.5489 106.392 40.301 106.1C40.9476 105.859 41.6285 105.78 42.3014 105.846C42.9718 105.925 43.6289 106.126 44.22 106.474C44.6133 106.78 44.7505 107.409 44.9036 107.862C45.0988 108.451 45.3416 109.063 45.8061 109.478C46.2204 109.852 46.7535 109.958 47.2734 109.797C47.7696 109.649 48.4637 108.902 48.9941 109.142C49.5826 109.422 49.6064 110.544 49.7911 111.079C50.0101 111.734 50.4034 112.293 50.9127 112.721C52.0106 113.655 53.4647 113.843 54.7948 113.481C57.257 112.813 59.1149 110.317 59.2099 107.62C59.2522 106.287 58.8801 104.925 58.1886 103.817Z" fill="url(#paint32_linear_415_10174)"/>
<path d="M290.264 31.5238C288.924 31.5106 287.549 31.5106 286.266 31.9381C284.984 32.3656 283.77 33.2866 283.308 34.622C283.031 35.4243 283.007 36.3585 282.535 37.0394C281.967 37.8417 280.962 38.0686 280.096 38.4539C278.906 38.9738 277.798 39.9899 277.565 41.3384C277.254 43.1013 278.513 44.7824 280.004 45.5979C281.495 46.387 283.202 46.5453 284.833 46.9464C286.462 47.3344 288.161 48.0681 289.04 49.5908C289.745 50.8048 289.943 52.5149 291.143 53.1166C292.009 53.5441 293.049 53.1826 293.88 52.6891C294.725 52.1956 295.521 51.5411 296.469 51.3933C297.696 51.1927 298.894 51.8472 300.121 51.9686C301.866 52.1428 303.621 51.1953 304.719 49.7254C305.816 48.2554 306.278 46.3342 306.22 44.4763C306.173 42.5946 305.642 40.7763 304.903 39.082C304.093 37.2004 303.019 35.4243 301.586 34.0203C300.156 32.6322 298.351 31.6161 296.432 31.3892L290.264 31.5238Z" fill="url(#paint33_linear_415_10174)"/>
<path d="M290.069 32.6036C290.391 33.5247 290.726 34.4589 290.715 35.4486C290.702 36.4224 290.251 37.4648 289.409 37.8659C288.578 38.2539 287.593 37.9451 286.704 38.1589C285.699 38.4122 284.912 39.4415 284.867 40.5499C284.844 41.3389 285.144 42.0858 285.134 42.8723C285.11 43.9939 284.337 45.0627 283.331 45.3556C282.313 45.6617 281.146 45.1814 280.581 44.234C280.294 43.7669 280.154 43.1916 279.795 42.764C279.101 41.9486 277.887 41.9882 277.011 41.3891C275.821 40.5736 275.646 38.5046 276.676 37.4754C277.161 36.995 277.876 36.6731 278.051 35.9922C278.259 35.1635 277.544 34.4431 277.174 33.6962C276.607 32.5614 276.874 31.0123 277.787 30.1572C278.7 29.3154 280.18 29.2494 281.162 30.0226L290.069 32.6036Z" fill="url(#paint34_linear_415_10174)"/>
<path d="M297.959 49.1768C299.16 49.6703 300.501 49.7653 301.229 48.5091C301.242 48.4959 301.321 48.2689 301.53 47.7358C301.612 47.5353 301.68 47.3215 301.749 47.1209C301.944 46.4665 302.06 46.2791 302.754 45.8252C303.367 45.4108 304.129 45.3976 304.813 45.1707C305.795 44.8514 306.615 43.9963 306.824 42.9011C307.067 41.6053 306.256 40.6183 305.312 39.9374C304.792 39.5627 304.224 39.1774 303.623 38.9478C303.055 38.734 302.525 38.8132 301.947 38.895C301.564 38.9478 301.208 38.9741 300.849 38.8026C300.501 38.6284 300.213 38.3487 299.912 38.0953C299.508 37.7602 299.081 37.52 298.561 37.52C297.669 37.5332 296.769 38.2141 296.584 39.1615C296.468 39.75 296.632 40.3491 296.653 40.9376C296.687 41.8455 296.144 42.3944 295.542 42.9407C294.652 43.7825 294.167 44.7563 294.605 46.0257C295.104 47.4535 296.653 48.6279 297.959 49.1768Z" fill="url(#paint35_linear_415_10174)"/>
<path d="M291.871 28.3701L290.715 64.2931H293.557L291.871 28.3701Z" fill="#434343"/>
<path d="M306.186 31.8167C305.389 30.5605 304.281 29.9219 303.101 29.1592C302.499 28.7713 301.993 28.3173 301.657 27.6497C301.322 26.982 301.137 26.2219 300.871 25.512C300.42 24.298 299.694 23.2952 298.596 22.6935C296.192 21.3317 293.418 22.1182 291.349 23.8151C290.286 24.6833 289.489 25.9527 288.346 26.7128C287.029 27.581 285.849 26.66 284.556 26.2325C282.094 25.4302 279.737 27.7024 279.911 30.3864C280.096 33.4187 283.297 36.5565 286.174 35.2607C286.913 34.9256 287.549 34.3925 288.301 34.0995C288.948 33.8594 289.628 33.7802 290.301 33.8462C290.972 33.9254 291.629 34.1259 292.22 34.4743C292.613 34.7804 292.75 35.4085 292.904 35.8624C293.099 36.4509 293.342 37.0632 293.806 37.4775C294.22 37.8523 294.754 37.9578 295.273 37.7969C295.77 37.6491 296.464 36.9022 296.994 37.1424C297.583 37.4221 297.606 38.5437 297.791 39.0794C298.01 39.7339 298.403 40.2934 298.913 40.7209C300.011 41.6552 301.467 41.8426 302.795 41.481C305.257 40.8133 307.115 38.3168 307.21 35.6196C307.25 34.2869 306.88 32.9251 306.186 31.8167Z" fill="url(#paint36_linear_415_10174)"/>
<path d="M83.2645 39.5238C81.9238 39.5106 80.5489 39.5106 79.2663 39.9381C77.9837 40.3656 76.7697 41.2866 76.3079 42.622C76.0308 43.4243 76.0071 44.3585 75.5347 45.0394C74.9673 45.8417 73.9618 46.0686 73.0961 46.4539C71.9059 46.9738 70.7975 47.9899 70.5653 49.3384C70.2539 51.1013 71.5127 52.7824 73.0038 53.5979C74.4949 54.387 76.2023 54.5453 77.8333 54.9464C79.4616 55.3344 81.1611 56.0681 82.0399 57.5908C82.7446 58.8048 82.9425 60.5149 84.1433 61.1166C85.0089 61.5441 86.0487 61.1826 86.88 60.6891C87.7245 60.1956 88.5215 59.5411 89.4689 59.3933C90.6961 59.1927 91.8942 59.8472 93.1214 59.9686C94.8658 60.1428 96.6208 59.1953 97.7186 57.7254C98.8165 56.2554 99.2783 54.3342 99.2203 52.4763C99.1728 50.5946 98.6423 48.7763 97.9034 47.082C97.0932 45.2004 96.0191 43.4243 94.5861 42.0203C93.1557 40.6322 91.3506 39.6161 89.432 39.3892L83.2645 39.5238Z" fill="url(#paint37_linear_415_10174)"/>
<path d="M83.0689 40.6036C83.3909 41.5247 83.726 42.4589 83.7155 43.4486C83.7023 44.4224 83.251 45.4648 82.4091 45.8659C81.5778 46.2539 80.5935 45.9451 79.7041 46.1589C78.6986 46.4122 77.9122 47.4415 77.8673 48.5499C77.8436 49.3389 78.1444 50.0858 78.1339 50.8723C78.1101 51.9939 77.3368 53.0627 76.3314 53.3556C75.3127 53.6617 74.1462 53.1814 73.5815 52.234C73.2938 51.7669 73.1539 51.1916 72.795 50.764C72.101 49.9486 70.887 49.9882 70.0108 49.3891C68.8206 48.5736 68.6464 46.5046 69.6756 45.4754C70.1612 44.995 70.8764 44.6731 71.0506 43.9922C71.2591 43.1635 70.5439 42.4431 70.1744 41.6962C69.607 40.5614 69.8736 39.0123 70.7867 38.1572C71.6998 37.3154 73.1803 37.2494 74.162 38.0226L83.0689 40.6036Z" fill="url(#paint38_linear_415_10174)"/>
<path d="M90.9592 57.1768C92.16 57.6703 93.5006 57.7653 94.229 56.5091C94.2422 56.4959 94.3214 56.2689 94.5299 55.7358C94.6117 55.5353 94.6803 55.3215 94.7489 55.1209C94.9442 54.4665 95.0603 54.2791 95.7544 53.8252C96.3667 53.4108 97.1293 53.3976 97.8129 53.1707C98.7946 52.8514 99.6153 51.9963 99.8238 50.9011C100.067 49.6053 99.2564 48.6183 98.3117 47.9374C97.7918 47.5627 97.2244 47.1774 96.6226 46.9478C96.0552 46.734 95.5248 46.8132 94.9468 46.895C94.5642 46.9478 94.2079 46.9741 93.849 46.8026C93.5006 46.6284 93.213 46.3487 92.9121 46.0953C92.5084 45.7602 92.0808 45.52 91.5609 45.52C90.6689 45.5332 89.769 46.2141 89.5843 47.1615C89.4682 47.75 89.6318 48.3491 89.6529 48.9376C89.6872 49.8455 89.1435 50.3944 88.5418 50.9407C87.6525 51.7825 87.1669 52.7563 87.605 54.0257C88.1038 55.4535 89.6529 56.6279 90.9592 57.1768Z" fill="url(#paint39_linear_415_10174)"/>
<path d="M84.8708 36.3701L83.7148 72.2931H86.5571L84.8708 36.3701Z" fill="#434343"/>
<path d="M99.186 39.8167C98.389 38.5605 97.2806 37.9219 96.1009 37.1592C95.4992 36.7713 94.9925 36.3173 94.6573 35.6497C94.3222 34.982 94.1375 34.2219 93.8709 33.512C93.4196 32.298 92.6939 31.2952 91.596 30.6935C89.1918 29.3317 86.4182 30.1182 84.3491 31.8151C83.2856 32.6833 82.4886 33.9527 81.3459 34.7128C80.029 35.581 78.8493 34.66 77.5562 34.2325C75.0939 33.4302 72.7373 35.7024 72.9114 38.3864C73.0962 41.4187 76.2974 44.5565 79.1739 43.2607C79.9129 42.9256 80.5489 42.3925 81.301 42.0995C81.9476 41.8594 82.6285 41.7802 83.3014 41.8462C83.9718 41.9254 84.6289 42.1259 85.22 42.4743C85.6133 42.7804 85.7505 43.4085 85.9036 43.8624C86.0988 44.4509 86.3416 45.0632 86.8061 45.4775C87.2205 45.8523 87.7535 45.9578 88.2734 45.7969C88.7696 45.6491 89.4637 44.9022 89.9941 45.1424C90.5826 45.4221 90.6064 46.5437 90.7911 47.0794C91.0102 47.7339 91.4034 48.2934 91.9127 48.7209C93.0106 49.6552 94.4673 49.8426 95.7948 49.481C98.257 48.8133 100.115 46.3168 100.21 43.6196C100.25 42.2869 99.8801 40.9251 99.186 39.8167Z" fill="url(#paint40_linear_415_10174)"/>
<path d="M270.264 80.5238C268.924 80.5106 267.549 80.5106 266.266 80.9381C264.984 81.3656 263.77 82.2866 263.308 83.622C263.031 84.4243 263.007 85.3585 262.535 86.0394C261.967 86.8417 260.962 87.0686 260.096 87.4539C258.906 87.9738 257.798 88.9899 257.565 90.3384C257.254 92.1013 258.513 93.7824 260.004 94.5979C261.495 95.387 263.202 95.5453 264.833 95.9464C266.462 96.3344 268.161 97.0681 269.04 98.5908C269.745 99.8048 269.943 101.515 271.143 102.117C272.009 102.544 273.049 102.183 273.88 101.689C274.725 101.196 275.521 100.541 276.469 100.393C277.696 100.193 278.894 100.847 280.121 100.969C281.866 101.143 283.621 100.195 284.719 98.7254C285.816 97.2554 286.278 95.3342 286.22 93.4763C286.173 91.5946 285.642 89.7763 284.903 88.082C284.093 86.2004 283.019 84.4243 281.586 83.0203C280.156 81.6322 278.351 80.6161 276.432 80.3892L270.264 80.5238Z" fill="url(#paint41_linear_415_10174)"/>
<path d="M270.069 81.6036C270.391 82.5247 270.726 83.4589 270.715 84.4486C270.702 85.4224 270.251 86.4648 269.409 86.8659C268.578 87.2539 267.593 86.9451 266.704 87.1589C265.699 87.4122 264.912 88.4415 264.867 89.5499C264.844 90.3389 265.144 91.0858 265.134 91.8723C265.11 92.9939 264.337 94.0627 263.331 94.3556C262.313 94.6617 261.146 94.1814 260.581 93.234C260.294 92.7669 260.154 92.1916 259.795 91.764C259.101 90.9486 257.887 90.9882 257.011 90.3891C255.821 89.5736 255.646 87.5046 256.676 86.4754C257.161 85.995 257.876 85.6731 258.051 84.9922C258.259 84.1635 257.544 83.4431 257.174 82.6962C256.607 81.5614 256.874 80.0123 257.787 79.1572C258.7 78.3154 260.18 78.2494 261.162 79.0226L270.069 81.6036Z" fill="url(#paint42_linear_415_10174)"/>
<path d="M277.959 98.1768C279.16 98.6703 280.501 98.7653 281.229 97.5091C281.242 97.4959 281.321 97.2689 281.53 96.7358C281.612 96.5353 281.68 96.3215 281.749 96.1209C281.944 95.4665 282.06 95.2791 282.754 94.8252C283.367 94.4108 284.129 94.3976 284.813 94.1707C285.795 93.8514 286.615 92.9963 286.824 91.9011C287.067 90.6053 286.256 89.6183 285.312 88.9374C284.792 88.5627 284.224 88.1774 283.623 87.9478C283.055 87.734 282.525 87.8132 281.947 87.895C281.564 87.9478 281.208 87.9741 280.849 87.8026C280.501 87.6284 280.213 87.3487 279.912 87.0953C279.508 86.7602 279.081 86.52 278.561 86.52C277.669 86.5332 276.769 87.2141 276.584 88.1615C276.468 88.75 276.632 89.3491 276.653 89.9376C276.687 90.8455 276.144 91.3944 275.542 91.9407C274.652 92.7825 274.167 93.7563 274.605 95.0257C275.104 96.4535 276.653 97.6279 277.959 98.1768Z" fill="url(#paint43_linear_415_10174)"/>
<path d="M271.871 77.3701L270.715 113.293H273.557L271.871 77.3701Z" fill="#434343"/>
<path d="M286.186 80.8167C285.389 79.5605 284.281 78.9219 283.101 78.1592C282.499 77.7713 281.993 77.3173 281.657 76.6497C281.322 75.982 281.137 75.2219 280.871 74.512C280.42 73.298 279.694 72.2952 278.596 71.6935C276.192 70.3317 273.418 71.1182 271.349 72.8151C270.286 73.6833 269.489 74.9527 268.346 75.7128C267.029 76.581 265.849 75.66 264.556 75.2325C262.094 74.4302 259.737 76.7024 259.911 79.3864C260.096 82.4187 263.297 85.5565 266.174 84.2607C266.913 83.9256 267.549 83.3925 268.301 83.0995C268.948 82.8594 269.628 82.7802 270.301 82.8462C270.972 82.9254 271.629 83.1259 272.22 83.4743C272.613 83.7804 272.75 84.4085 272.904 84.8624C273.099 85.4509 273.342 86.0632 273.806 86.4775C274.22 86.8523 274.754 86.9578 275.273 86.7969C275.77 86.6491 276.464 85.9022 276.994 86.1424C277.583 86.4221 277.606 87.5437 277.791 88.0794C278.01 88.7339 278.403 89.2934 278.913 89.7209C280.011 90.6552 281.467 90.8426 282.795 90.481C285.257 89.8133 287.115 87.3168 287.21 84.6196C287.25 83.2869 286.88 81.9251 286.186 80.8167Z" fill="url(#paint44_linear_415_10174)"/>
<path d="M112.084 126.702C112.279 127.05 112.464 127.623 112.187 128.584H88.3034C87.955 128.037 87.7255 127.436 87.7017 126.742C87.6674 125.686 87.9894 124.604 88.5911 123.752C89.2746 122.749 90.2326 122.255 91.2618 121.656C91.7817 121.35 92.2198 120.988 92.5101 120.455C92.8004 119.922 92.9614 119.334 93.1804 118.772C93.5736 117.811 94.1991 117.035 95.1439 116.542C97.2234 115.473 99.6171 116.101 101.396 117.423C102.76 118.439 102.876 119.627 103.995 119.719C104.666 119.772 104.827 119.371 105.798 119.344C106.051 119.331 107.426 119.292 108.294 120.147C108.674 120.535 109.392 121.321 109.334 123.044C109.324 123.525 109.382 124.258 109.878 124.913C110.582 125.821 111.575 125.821 112.084 126.702Z" fill="url(#paint45_linear_415_10174)"/>
<path d="M334.084 113.702C334.279 114.05 334.464 114.623 334.187 115.584H310.303C309.955 115.037 309.725 114.436 309.702 113.742C309.667 112.686 309.989 111.604 310.591 110.752C311.275 109.749 312.233 109.255 313.262 108.656C313.782 108.35 314.22 107.988 314.51 107.455C314.8 106.922 314.961 106.334 315.18 105.772C315.574 104.811 316.199 104.035 317.144 103.542C319.223 102.473 321.617 103.101 323.396 104.423C324.76 105.439 324.876 106.627 325.995 106.719C326.666 106.772 326.827 106.371 327.798 106.344C328.051 106.331 329.426 106.292 330.294 107.147C330.674 107.535 331.392 108.321 331.334 110.044C331.324 110.525 331.382 111.258 331.878 111.913C332.582 112.821 333.575 112.821 334.084 113.702Z" fill="url(#paint46_linear_415_10174)"/>
<path d="M79.4657 130.093C78.6001 128.971 78.9906 127.103 80.2284 126.419C81.4661 125.752 83.0601 126.232 84.3427 125.63C85.7414 124.989 86.3879 123.253 87.784 122.611C89.2751 121.93 91.009 122.717 92.4182 123.572C93.8275 124.427 95.4241 125.374 97.0049 124.96C97.6409 124.799 98.1951 124.427 98.7968 124.171C99.3985 123.918 100.103 123.77 100.692 124.063C101.779 124.596 101.813 126.266 102.843 126.921C103.64 127.428 104.69 127.108 105.627 127.24C106.954 127.414 108.076 128.628 108.144 129.964L79.4657 130.093Z" fill="url(#paint47_linear_415_10174)"/>
<path d="M301.466 117.093C300.6 115.971 300.991 114.103 302.228 113.419C303.466 112.752 305.06 113.232 306.343 112.63C307.741 111.989 308.388 110.253 309.784 109.611C311.275 108.93 313.009 109.717 314.418 110.572C315.827 111.427 317.424 112.374 319.005 111.96C319.641 111.799 320.195 111.427 320.797 111.171C321.399 110.918 322.103 110.77 322.692 111.063C323.779 111.596 323.813 113.266 324.843 113.921C325.64 114.428 326.69 114.108 327.627 114.24C328.954 114.414 330.076 115.628 330.144 116.964L301.466 117.093Z" fill="url(#paint48_linear_415_10174)"/>
<path d="M222.264 15.5238C220.924 15.5106 219.549 15.5106 218.266 15.9381C216.984 16.3656 215.77 17.2866 215.308 18.622C215.031 19.4243 215.007 20.3585 214.535 21.0394C213.967 21.8417 212.962 22.0686 212.096 22.4539C210.906 22.9738 209.798 23.9899 209.565 25.3384C209.254 27.1013 210.513 28.7824 212.004 29.5979C213.495 30.387 215.202 30.5453 216.833 30.9464C218.462 31.3344 220.161 32.0681 221.04 33.5908C221.745 34.8048 221.943 36.5149 223.143 37.1166C224.009 37.5441 225.049 37.1826 225.88 36.6891C226.725 36.1956 227.521 35.5411 228.469 35.3933C229.696 35.1927 230.894 35.8472 232.121 35.9686C233.866 36.1428 235.621 35.1953 236.719 33.7254C237.816 32.2554 238.278 30.3342 238.22 28.4763C238.173 26.5946 237.642 24.7763 236.903 23.082C236.093 21.2004 235.019 19.4243 233.586 18.0203C232.156 16.6322 230.351 15.6161 228.432 15.3892L222.264 15.5238Z" fill="url(#paint49_linear_415_10174)"/>
<path d="M222.069 16.6036C222.391 17.5247 222.726 18.4589 222.715 19.4486C222.702 20.4224 222.251 21.4648 221.409 21.8659C220.578 22.2539 219.593 21.9451 218.704 22.1589C217.699 22.4122 216.912 23.4415 216.867 24.5499C216.844 25.3389 217.144 26.0858 217.134 26.8723C217.11 27.9939 216.337 29.0627 215.331 29.3556C214.313 29.6617 213.146 29.1814 212.581 28.234C212.294 27.7669 212.154 27.1916 211.795 26.764C211.101 25.9486 209.887 25.9882 209.011 25.3891C207.821 24.5736 207.646 22.5046 208.676 21.4754C209.161 20.995 209.876 20.6731 210.051 19.9922C210.259 19.1635 209.544 18.4431 209.174 17.6962C208.607 16.5614 208.874 15.0123 209.787 14.1572C210.7 13.3154 212.18 13.2494 213.162 14.0226L222.069 16.6036Z" fill="url(#paint50_linear_415_10174)"/>
<path d="M229.959 33.1768C231.16 33.6703 232.501 33.7653 233.229 32.5091C233.242 32.4959 233.321 32.2689 233.53 31.7358C233.612 31.5353 233.68 31.3215 233.749 31.1209C233.944 30.4665 234.06 30.2791 234.754 29.8252C235.367 29.4108 236.129 29.3976 236.813 29.1707C237.795 28.8514 238.615 27.9963 238.824 26.9011C239.067 25.6053 238.256 24.6183 237.312 23.9374C236.792 23.5627 236.224 23.1774 235.623 22.9478C235.055 22.734 234.525 22.8132 233.947 22.895C233.564 22.9478 233.208 22.9741 232.849 22.8026C232.501 22.6284 232.213 22.3487 231.912 22.0953C231.508 21.7602 231.081 21.52 230.561 21.52C229.669 21.5332 228.769 22.2141 228.584 23.1615C228.468 23.75 228.632 24.3491 228.653 24.9376C228.687 25.8455 228.144 26.3944 227.542 26.9407C226.652 27.7825 226.167 28.7563 226.605 30.0257C227.104 31.4535 228.653 32.6279 229.959 33.1768Z" fill="url(#paint51_linear_415_10174)"/>
<path d="M223.871 12.3701L222.715 48.2931H225.557L223.871 12.3701Z" fill="#434343"/>
<path d="M238.186 15.8167C237.389 14.5605 236.281 13.9219 235.101 13.1592C234.499 12.7713 233.993 12.3173 233.657 11.6497C233.322 10.982 233.137 10.2219 232.871 9.51201C232.42 8.29804 231.694 7.2952 230.596 6.69349C228.192 5.33173 225.418 6.11817 223.349 7.81509C222.286 8.68335 221.489 9.95274 220.346 10.7128C219.029 11.581 217.849 10.66 216.556 10.2325C214.094 9.4302 211.737 11.7024 211.911 14.3864C212.096 17.4187 215.297 20.5565 218.174 19.2607C218.913 18.9256 219.549 18.3925 220.301 18.0995C220.948 17.8594 221.628 17.7802 222.301 17.8462C222.972 17.9254 223.629 18.1259 224.22 18.4743C224.613 18.7804 224.75 19.4085 224.904 19.8624C225.099 20.4509 225.342 21.0632 225.806 21.4775C226.22 21.8523 226.754 21.9578 227.273 21.7969C227.77 21.6491 228.464 20.9022 228.994 21.1424C229.583 21.4221 229.606 22.5437 229.791 23.0794C230.01 23.7339 230.403 24.2934 230.913 24.7209C232.011 25.6552 233.467 25.8426 234.795 25.481C237.257 24.8133 239.115 22.3168 239.21 19.6196C239.25 18.2869 238.88 16.9251 238.186 15.8167Z" fill="url(#paint52_linear_415_10174)"/>
<path d="M231.084 51.7021C231.279 52.0504 231.464 52.6231 231.187 53.5837H207.303C206.955 53.0374 206.725 52.4357 206.702 51.7416C206.667 50.686 206.989 49.604 207.591 48.7516C208.275 47.7487 209.233 47.2552 210.262 46.6562C210.782 46.35 211.22 45.9885 211.51 45.4554C211.8 44.9223 211.961 44.3338 212.18 43.7717C212.574 42.811 213.199 42.0352 214.144 41.5416C216.223 40.4728 218.617 41.1009 220.396 42.4231C221.76 43.4391 221.876 44.6267 222.995 44.7191C223.666 44.7719 223.827 44.3707 224.798 44.3443C225.051 44.3311 226.426 44.2916 227.294 45.1466C227.674 45.5346 228.392 46.321 228.334 48.0443C228.324 48.5246 228.382 49.2583 228.878 49.9128C229.582 50.8206 230.575 50.8206 231.084 51.7021Z" fill="url(#paint53_linear_415_10174)"/>
<path d="M198.466 55.093C197.6 53.9714 197.991 52.1029 199.228 51.4194C200.466 50.7517 202.06 51.232 203.343 50.6303C204.741 49.989 205.388 48.2525 206.784 47.6112C208.275 46.9303 210.009 47.7168 211.418 48.5719C212.827 49.4269 214.424 50.3743 216.005 49.96C216.641 49.799 217.195 49.4269 217.797 49.1709C218.399 48.9176 219.103 48.7698 219.692 49.0627C220.779 49.5958 220.813 51.2663 221.843 51.9208C222.64 52.4275 223.69 52.1082 224.627 52.2402C225.954 52.4143 227.076 53.6283 227.144 54.9637L198.466 55.093Z" fill="url(#paint54_linear_415_10174)"/>
<path d="M134.568 130.888C134.568 130.888 142.974 117.898 145.266 99.9409C147.559 81.9837 152.908 68.2293 154.818 58.6777C156.728 49.126 158.256 41.4847 158.639 34.2254C159.021 26.9662 163.987 26.5841 166.28 33.0792C166.28 33.0792 172.775 34.6075 171.247 53.3288C169.718 72.05 168.572 73.9603 168.572 73.9603C168.572 73.9603 172.393 73.9603 173.157 80.4555C173.921 86.9506 168.572 99.5588 168.572 99.5588C168.572 99.5588 174.303 109.493 172.011 118.662C169.718 127.832 164.37 130.888 164.37 130.888C164.37 130.888 158.256 142.732 154.818 146.553C154.818 146.553 144.502 144.261 134.568 130.888Z" fill="#FFBB95"/>
<path d="M128.084 137.88L121.107 144.394C121.107 144.394 129.337 158.905 144.066 161.507L149.25 154.626L128.084 137.88Z" fill="url(#paint55_linear_415_10174)"/>
<path d="M134.567 130.888C134.567 130.888 131.828 127.178 128.038 134.216C124.247 141.258 149.426 158.817 153.9 154.252C158.037 150.026 156.15 146.962 154.817 146.553C154.817 146.553 141.746 141.097 134.567 130.888Z" fill="url(#paint56_linear_415_10174)"/>
<path d="M166.279 33.0791C166.279 33.0791 162.478 31.6196 161.935 36.2235C161.519 39.75 157.496 58.4063 153.381 70.2465" stroke="#FF9477" stroke-width="1.1462" stroke-miterlimit="10" stroke-linecap="round"/>
<path d="M168.571 73.9604C168.571 73.9604 164.212 72.8103 162.045 77.3569C159.879 81.9073 154.308 87.4282 153.9 92.0856C153.491 96.743 152.73 100.315 152.73 100.315" stroke="#FF9477" stroke-width="1.1462" stroke-miterlimit="10" stroke-linecap="round"/>
<path d="M164.369 130.888C164.369 130.888 161.61 131.977 159.303 131.618" stroke="#FF9477" stroke-width="1.1462" stroke-miterlimit="10" stroke-linecap="round"/>
<path d="M195.285 145.277C195.285 145.277 189.18 139.825 186.181 130.395C186.181 130.395 174.306 128.806 174.505 114.433C174.604 107.242 178.039 100.078 178.039 100.078C178.039 100.078 167.567 82.5376 173.645 76.4016C175.139 74.8963 176.43 75.0071 176.43 75.0071C176.43 75.0071 166.573 46.7265 174.608 35.4747C174.608 35.4747 176.43 27.0119 180.499 28.9413C184.572 30.8708 183.071 38.4777 183.82 43.8343C184.568 49.1909 198.174 84.1155 199.247 90.7559C200.317 97.3962 205.032 120.912 213.388 128.814C213.392 128.814 205.678 140.039 195.285 145.277Z" fill="#FFCF98"/>
<path d="M219.634 136.126L229.888 143.68C229.888 143.68 220.57 157.713 206.319 162L202.67 151.696L219.634 136.126Z" fill="url(#paint57_linear_415_10174)"/>
<path d="M195.286 145.276C195.286 145.276 191.645 147.214 197.215 151.607C202.786 156.001 221.748 139.179 219.926 133.287C218.103 127.396 214.997 126.674 213.392 128.813C211.784 130.953 200.857 141.303 195.286 145.276Z" fill="url(#paint58_linear_415_10174)"/>
<path d="M174.611 35.4783C174.611 35.4783 177.611 32.6511 179.005 34.7944C180.4 36.9378 181.362 52.1899 191.541 72.2217" stroke="#FFC07A" stroke-width="1.13378" stroke-miterlimit="10" stroke-linecap="round"/>
<path d="M176.43 75.0107C176.43 75.0107 181.236 74.3994 183.395 79.2975C186.18 85.6169 192.423 85.892 193.573 96.9757" stroke="#FFC07A" stroke-width="1.13378" stroke-miterlimit="10" stroke-linecap="round"/>
<path d="M186.182 130.395C186.182 130.395 187.358 130.575 188.218 130.395" stroke="#FFC07A" stroke-width="1.13378" stroke-miterlimit="10" stroke-linecap="round"/>
<path d="M119.542 77.3301C121.498 77.3301 123.084 75.7444 123.084 73.7883C123.084 71.8323 121.498 70.2466 119.542 70.2466C117.586 70.2466 116 71.8323 116 73.7883C116 75.7444 117.586 77.3301 119.542 77.3301Z" fill="url(#paint59_linear_415_10174)"/>
<path d="M220.583 94.6875C222.539 94.6875 224.125 93.1018 224.125 91.1458C224.125 89.1897 222.539 87.604 220.583 87.604C218.627 87.604 217.041 89.1897 217.041 91.1458C217.041 93.1018 218.627 94.6875 220.583 94.6875Z" fill="url(#paint60_linear_415_10174)"/>
<path d="M171.458 7.08351C173.414 7.08351 175 5.49781 175 3.54176C175 1.5857 173.414 0 171.458 0C169.502 0 167.916 1.5857 167.916 3.54176C167.916 5.49781 169.502 7.08351 171.458 7.08351Z" fill="url(#paint61_linear_415_10174)"/>
<path d="M222.867 34.8141C224.129 34.8141 225.152 33.7912 225.152 32.5294C225.152 31.2675 224.129 30.2446 222.867 30.2446C221.605 30.2446 220.582 31.2675 220.582 32.5294C220.582 33.7912 221.605 34.8141 222.867 34.8141Z" fill="url(#paint62_linear_415_10174)"/>
<path d="M145.9 51.5372C146.531 51.5372 147.043 51.0257 147.043 50.3948C147.043 49.7639 146.531 49.2524 145.9 49.2524C145.269 49.2524 144.758 49.7639 144.758 50.3948C144.758 51.0257 145.269 51.5372 145.9 51.5372Z" fill="url(#paint63_linear_415_10174)"/>
<path d="M125.715 22.97C129.125 22.97 131.889 20.2057 131.889 16.7958C131.889 13.3859 129.125 10.6216 125.715 10.6216C122.305 10.6216 119.541 13.3859 119.541 16.7958C119.541 20.2057 122.305 22.97 125.715 22.97Z" fill="url(#paint64_linear_415_10174)"/>
<path d="M204.551 53.3787C207.961 53.3787 210.725 50.6144 210.725 47.2045C210.725 43.7946 207.961 41.0303 204.551 41.0303C201.141 41.0303 198.377 43.7946 198.377 47.2045C198.377 50.6144 201.141 53.3787 204.551 53.3787Z" fill="url(#paint65_linear_415_10174)"/>
<path d="M145.9 7.0835L152.732 18.7785" stroke="url(#paint66_linear_415_10174)" stroke-width="0.764133" stroke-miterlimit="10" stroke-linecap="round"/>
<path d="M194.53 7.19043L187.34 18.6715" stroke="url(#paint67_linear_415_10174)" stroke-width="0.764133" stroke-miterlimit="10" stroke-linecap="round"/>
<path d="M119.775 49.7949L141.993 60.3667" stroke="url(#paint68_linear_415_10174)" stroke-width="0.764133" stroke-miterlimit="10" stroke-linecap="round"/>
<path d="M226.766 49.7949L204.553 60.3667" stroke="url(#paint69_linear_415_10174)" stroke-width="0.764133" stroke-miterlimit="10" stroke-linecap="round"/>
<path d="M145.9 7.0835L152.732 18.7785" stroke="url(#paint70_linear_415_10174)" stroke-width="0.382066" stroke-miterlimit="10" stroke-linecap="round"/>
<path d="M194.53 7.19043L187.34 18.6715" stroke="url(#paint71_linear_415_10174)" stroke-width="0.382066" stroke-miterlimit="10" stroke-linecap="round"/>
<path d="M119.775 49.7949L141.993 60.3667" stroke="url(#paint72_linear_415_10174)" stroke-width="0.382066" stroke-miterlimit="10" stroke-linecap="round"/>
<path d="M226.766 49.7949L204.553 60.3667" stroke="url(#paint73_linear_415_10174)" stroke-width="0.382066" stroke-miterlimit="10" stroke-linecap="round"/>
<defs>
<linearGradient id="paint0_linear_415_10174" x1="355.655" y1="-85.1678" x2="-11.6177" y2="241.885" gradientUnits="userSpaceOnUse">
<stop stop-color="#6476EE"/>
<stop offset="0.1572" stop-color="#96CB95"/>
<stop offset="0.2929" stop-color="#80C38C"/>
<stop offset="0.643" stop-color="#4BB076"/>
<stop offset="0.8138" stop-color="#36A96E"/>
</linearGradient>
<linearGradient id="paint1_linear_415_10174" x1="311.201" y1="41.099" x2="239.783" y2="52.7019" gradientUnits="userSpaceOnUse">
<stop stop-color="#25ABD2"/>
<stop offset="0.1955" stop-color="#39AEC6"/>
<stop offset="0.46" stop-color="#4CB1BA"/>
<stop offset="0.7275" stop-color="#58B2B2"/>
<stop offset="1" stop-color="#5CB3B0"/>
</linearGradient>
<radialGradient id="paint2_radial_415_10174" cx="0" cy="0" r="1" gradientUnits="userSpaceOnUse" gradientTransform="translate(240.529 130.356) rotate(-50.8883) scale(19.8526)">
<stop stop-color="#FFBA00"/>
<stop offset="1" stop-color="#FFA100"/>
</radialGradient>
<linearGradient id="paint3_linear_415_10174" x1="217.785" y1="118.923" x2="224.567" y2="110.581" gradientUnits="userSpaceOnUse">
<stop stop-color="#525956"/>
<stop offset="1" stop-color="#2C2E2E"/>
</linearGradient>
<linearGradient id="paint4_linear_415_10174" x1="233.182" y1="138.474" x2="246.862" y2="121.646" gradientUnits="userSpaceOnUse">
<stop stop-color="#EEDA76"/>
<stop offset="0.2835" stop-color="#F1D675"/>
<stop offset="0.5535" stop-color="#F9CB70"/>
<stop offset="0.6452" stop-color="#FDC56E"/>
</linearGradient>
<linearGradient id="paint5_linear_415_10174" x1="232.135" y1="133.78" x2="242.065" y2="121.565" gradientUnits="userSpaceOnUse">
<stop/>
<stop offset="1" stop-color="#1B1C1C"/>
</linearGradient>
<linearGradient id="paint6_linear_415_10174" x1="224.932" y1="129.534" x2="236.428" y2="115.395" gradientUnits="userSpaceOnUse">
<stop/>
<stop offset="1" stop-color="#1B1C1C"/>
</linearGradient>
<linearGradient id="paint7_linear_415_10174" x1="228.017" y1="131.946" x2="239.426" y2="117.913" gradientUnits="userSpaceOnUse">
<stop stop-color="#363B39"/>
<stop offset="1" stop-color="#1B1C1C"/>
</linearGradient>
<linearGradient id="paint8_linear_415_10174" x1="253.429" y1="149.322" x2="254.585" y2="133.632" gradientUnits="userSpaceOnUse">
<stop/>
<stop offset="1" stop-color="#1B1C1C"/>
</linearGradient>
<linearGradient id="paint9_linear_415_10174" x1="250.006" y1="147.346" x2="258.97" y2="136.322" gradientUnits="userSpaceOnUse">
<stop stop-color="#363B39"/>
<stop offset="1" stop-color="#1B1C1C"/>
</linearGradient>
<linearGradient id="paint10_linear_415_10174" x1="231.615" y1="135.768" x2="232.744" y2="134.38" gradientUnits="userSpaceOnUse">
<stop stop-color="#363B39"/>
<stop offset="1" stop-color="#1B1C1C"/>
</linearGradient>
<linearGradient id="paint11_linear_415_10174" x1="242.767" y1="122.035" x2="243.884" y2="120.661" gradientUnits="userSpaceOnUse">
<stop stop-color="#363B39"/>
<stop offset="1" stop-color="#1B1C1C"/>
</linearGradient>
<linearGradient id="paint12_linear_415_10174" x1="241.949" y1="144.006" x2="243.111" y2="142.576" gradientUnits="userSpaceOnUse">
<stop stop-color="#363B39"/>
<stop offset="1" stop-color="#1B1C1C"/>
</linearGradient>
<linearGradient id="paint13_linear_415_10174" x1="252.908" y1="130.528" x2="254.069" y2="129.098" gradientUnits="userSpaceOnUse">
<stop stop-color="#363B39"/>
<stop offset="1" stop-color="#1B1C1C"/>
</linearGradient>
<radialGradient id="paint14_radial_415_10174" cx="0" cy="0" r="1" gradientUnits="userSpaceOnUse" gradientTransform="translate(216.959 121.179) rotate(-50.8896) scale(1.67296 1.83372)">
<stop stop-color="white"/>
<stop offset="1" stop-color="#D2D6D5"/>
</radialGradient>
<radialGradient id="paint15_radial_415_10174" cx="0" cy="0" r="1" gradientUnits="userSpaceOnUse" gradientTransform="translate(226.742 109.144) rotate(-50.8895) scale(1.67296 1.83373)">
<stop stop-color="white"/>
<stop offset="1" stop-color="#D2D6D5"/>
</radialGradient>
<linearGradient id="paint16_linear_415_10174" x1="232.233" y1="123.86" x2="238.333" y2="122.164" gradientUnits="userSpaceOnUse">
<stop stop-color="#363B39"/>
<stop offset="1"/>
</linearGradient>
<linearGradient id="paint17_linear_415_10174" x1="239.782" y1="139.515" x2="249.239" y2="127.883" gradientUnits="userSpaceOnUse">
<stop stop-color="#FFFA61"/>
<stop offset="1" stop-color="#FFC552"/>
</linearGradient>
<linearGradient id="paint18_linear_415_10174" x1="252.657" y1="143.76" x2="270.58" y2="146.202" gradientUnits="userSpaceOnUse">
<stop stop-color="#FFFA61"/>
<stop offset="1" stop-color="#FFC552"/>
</linearGradient>
<linearGradient id="paint19_linear_415_10174" x1="252.273" y1="151.022" x2="263.483" y2="137.896" gradientUnits="userSpaceOnUse">
<stop stop-color="#BABABA"/>
<stop offset="0.0728" stop-color="#979797"/>
<stop offset="0.1696" stop-color="#6F6F6F"/>
<stop offset="0.273" stop-color="#4D4D4D"/>
<stop offset="0.3824" stop-color="#313131"/>
<stop offset="0.4997" stop-color="#1B1B1B"/>
<stop offset="0.6289" stop-color="#0C0C0C"/>
<stop offset="0.7791" stop-color="#030303"/>
<stop offset="1"/>
</linearGradient>
<linearGradient id="paint20_linear_415_10174" x1="238.242" y1="116.521" x2="242.585" y2="117.413" gradientUnits="userSpaceOnUse">
<stop stop-color="#363B39"/>
<stop offset="1" stop-color="#1B1C1C"/>
</linearGradient>
<radialGradient id="paint21_radial_415_10174" cx="0" cy="0" r="1" gradientUnits="userSpaceOnUse" gradientTransform="translate(240.461 115.684) rotate(-50.8886) scale(1.01354)">
<stop stop-color="#FFBA00"/>
<stop offset="1" stop-color="#FFA100"/>
</radialGradient>
<linearGradient id="paint22_linear_415_10174" x1="239.92" y1="116.861" x2="241.546" y2="114.863" gradientUnits="userSpaceOnUse">
<stop stop-color="#363B39"/>
<stop offset="1" stop-color="#1B1C1C"/>
</linearGradient>
<linearGradient id="paint23_linear_415_10174" x1="226.222" y1="131.846" x2="230.363" y2="132.919" gradientUnits="userSpaceOnUse">
<stop stop-color="#363B39"/>
<stop offset="1" stop-color="#1B1C1C"/>
</linearGradient>
<radialGradient id="paint24_radial_415_10174" cx="0" cy="0" r="1" gradientUnits="userSpaceOnUse" gradientTransform="translate(226.033 133.365) rotate(-50.8907) scale(1.02084)">
<stop stop-color="#FFBA00"/>
<stop offset="1" stop-color="#FFA100"/>
</radialGradient>
<linearGradient id="paint25_linear_415_10174" x1="225.417" y1="134.626" x2="227.042" y2="132.628" gradientUnits="userSpaceOnUse">
<stop stop-color="#363B39"/>
<stop offset="1" stop-color="#1B1C1C"/>
</linearGradient>
<linearGradient id="paint26_linear_415_10174" x1="258.13" y1="149.237" x2="262.487" y2="143.88" gradientUnits="userSpaceOnUse">
<stop stop-color="#363B39"/>
<stop offset="1" stop-color="#1B1C1C"/>
</linearGradient>
<linearGradient id="paint27_linear_415_10174" x1="246.894" y1="140.231" x2="253.844" y2="140.954" gradientUnits="userSpaceOnUse">
<stop stop-color="#363B39"/>
<stop offset="1"/>
</linearGradient>
<linearGradient id="paint28_linear_415_10174" x1="100.201" y1="72.099" x2="28.783" y2="83.7019" gradientUnits="userSpaceOnUse">
<stop stop-color="#25ABD2"/>
<stop offset="0.1955" stop-color="#39AEC6"/>
<stop offset="0.46" stop-color="#4CB1BA"/>
<stop offset="0.7275" stop-color="#58B2B2"/>
<stop offset="1" stop-color="#5CB3B0"/>
</linearGradient>
<linearGradient id="paint29_linear_415_10174" x1="45.8373" y1="123.647" x2="42.7018" y2="109.625" gradientUnits="userSpaceOnUse">
<stop stop-color="#018574"/>
<stop offset="1" stop-color="#0D4F51"/>
</linearGradient>
<linearGradient id="paint30_linear_415_10174" x1="35.3188" y1="102.44" x2="35.4069" y2="117.17" gradientUnits="userSpaceOnUse">
<stop stop-color="#16A264"/>
<stop offset="1" stop-color="#018574"/>
</linearGradient>
<linearGradient id="paint31_linear_415_10174" x1="52.7052" y1="109.104" x2="52.6157" y2="121.069" gradientUnits="userSpaceOnUse">
<stop stop-color="#16A264"/>
<stop offset="1" stop-color="#018574"/>
</linearGradient>
<linearGradient id="paint32_linear_415_10174" x1="45.557" y1="94.1074" x2="45.557" y2="110.159" gradientUnits="userSpaceOnUse">
<stop stop-color="#FDE988"/>
<stop offset="1" stop-color="#16A264"/>
</linearGradient>
<linearGradient id="paint33_linear_415_10174" x1="293.837" y1="51.6472" x2="290.701" y2="37.6255" gradientUnits="userSpaceOnUse">
<stop stop-color="#018574"/>
<stop offset="1" stop-color="#0D4F51"/>
</linearGradient>
<linearGradient id="paint34_linear_415_10174" x1="283.317" y1="30.4412" x2="283.405" y2="45.1708" gradientUnits="userSpaceOnUse">
<stop stop-color="#16A264"/>
<stop offset="1" stop-color="#018574"/>
</linearGradient>
<linearGradient id="paint35_linear_415_10174" x1="300.704" y1="37.1047" x2="300.615" y2="49.07" gradientUnits="userSpaceOnUse">
<stop stop-color="#16A264"/>
<stop offset="1" stop-color="#018574"/>
</linearGradient>
<linearGradient id="paint36_linear_415_10174" x1="293.556" y1="22.1079" x2="293.556" y2="38.1594" gradientUnits="userSpaceOnUse">
<stop stop-color="#FDE988"/>
<stop offset="1" stop-color="#16A264"/>
</linearGradient>
<linearGradient id="paint37_linear_415_10174" x1="86.8366" y1="59.6472" x2="83.7011" y2="45.6255" gradientUnits="userSpaceOnUse">
<stop stop-color="#018574"/>
<stop offset="1" stop-color="#0D4F51"/>
</linearGradient>
<linearGradient id="paint38_linear_415_10174" x1="76.3174" y1="38.4412" x2="76.4055" y2="53.1708" gradientUnits="userSpaceOnUse">
<stop stop-color="#16A264"/>
<stop offset="1" stop-color="#018574"/>
</linearGradient>
<linearGradient id="paint39_linear_415_10174" x1="93.7044" y1="45.1047" x2="93.6149" y2="57.07" gradientUnits="userSpaceOnUse">
<stop stop-color="#16A264"/>
<stop offset="1" stop-color="#018574"/>
</linearGradient>
<linearGradient id="paint40_linear_415_10174" x1="86.5556" y1="30.1079" x2="86.5556" y2="46.1594" gradientUnits="userSpaceOnUse">
<stop stop-color="#FDE988"/>
<stop offset="1" stop-color="#16A264"/>
</linearGradient>
<linearGradient id="paint41_linear_415_10174" x1="273.837" y1="100.647" x2="270.701" y2="86.6255" gradientUnits="userSpaceOnUse">
<stop stop-color="#018574"/>
<stop offset="1" stop-color="#0D4F51"/>
</linearGradient>
<linearGradient id="paint42_linear_415_10174" x1="263.317" y1="79.4412" x2="263.405" y2="94.1708" gradientUnits="userSpaceOnUse">
<stop stop-color="#16A264"/>
<stop offset="1" stop-color="#018574"/>
</linearGradient>
<linearGradient id="paint43_linear_415_10174" x1="280.704" y1="86.1047" x2="280.615" y2="98.07" gradientUnits="userSpaceOnUse">
<stop stop-color="#16A264"/>
<stop offset="1" stop-color="#018574"/>
</linearGradient>
<linearGradient id="paint44_linear_415_10174" x1="273.556" y1="71.1079" x2="273.556" y2="87.1594" gradientUnits="userSpaceOnUse">
<stop stop-color="#FDE988"/>
<stop offset="1" stop-color="#16A264"/>
</linearGradient>
<linearGradient id="paint45_linear_415_10174" x1="100.015" y1="116.072" x2="100.015" y2="126.342" gradientUnits="userSpaceOnUse">
<stop stop-color="#FDE988"/>
<stop offset="1" stop-color="#16A264"/>
</linearGradient>
<linearGradient id="paint46_linear_415_10174" x1="322.015" y1="103.072" x2="322.015" y2="113.342" gradientUnits="userSpaceOnUse">
<stop stop-color="#FDE988"/>
<stop offset="1" stop-color="#16A264"/>
</linearGradient>
<linearGradient id="paint47_linear_415_10174" x1="93.6423" y1="120.652" x2="93.5636" y2="130.427" gradientUnits="userSpaceOnUse">
<stop stop-color="#FDE988"/>
<stop offset="1" stop-color="#16A264"/>
</linearGradient>
<linearGradient id="paint48_linear_415_10174" x1="315.642" y1="107.652" x2="315.564" y2="117.427" gradientUnits="userSpaceOnUse">
<stop stop-color="#FDE988"/>
<stop offset="1" stop-color="#16A264"/>
</linearGradient>
<linearGradient id="paint49_linear_415_10174" x1="225.837" y1="35.6472" x2="222.701" y2="21.6255" gradientUnits="userSpaceOnUse">
<stop stop-color="#018574"/>
<stop offset="1" stop-color="#0D4F51"/>
</linearGradient>
<linearGradient id="paint50_linear_415_10174" x1="215.317" y1="14.4412" x2="215.405" y2="29.1708" gradientUnits="userSpaceOnUse">
<stop stop-color="#16A264"/>
<stop offset="1" stop-color="#018574"/>
</linearGradient>
<linearGradient id="paint51_linear_415_10174" x1="232.704" y1="21.1047" x2="232.615" y2="33.07" gradientUnits="userSpaceOnUse">
<stop stop-color="#16A264"/>
<stop offset="1" stop-color="#018574"/>
</linearGradient>
<linearGradient id="paint52_linear_415_10174" x1="225.556" y1="6.10786" x2="225.556" y2="22.1594" gradientUnits="userSpaceOnUse">
<stop stop-color="#FDE988"/>
<stop offset="1" stop-color="#16A264"/>
</linearGradient>
<linearGradient id="paint53_linear_415_10174" x1="219.015" y1="41.0723" x2="219.015" y2="51.3416" gradientUnits="userSpaceOnUse">
<stop stop-color="#FDE988"/>
<stop offset="1" stop-color="#16A264"/>
</linearGradient>
<linearGradient id="paint54_linear_415_10174" x1="212.642" y1="45.6524" x2="212.564" y2="55.4274" gradientUnits="userSpaceOnUse">
<stop stop-color="#FDE988"/>
<stop offset="1" stop-color="#16A264"/>
</linearGradient>
<linearGradient id="paint55_linear_415_10174" x1="124.114" y1="161.426" x2="147.096" y2="138.444" gradientUnits="userSpaceOnUse">
<stop stop-color="#347BC0"/>
<stop offset="0.1756" stop-color="#4388C8"/>
<stop offset="0.5136" stop-color="#6AACDC"/>
<stop offset="0.9762" stop-color="#AAE4FD"/>
<stop offset="1" stop-color="#ADE7FF"/>
</linearGradient>
<linearGradient id="paint56_linear_415_10174" x1="142.039" y1="193.226" x2="142.039" y2="119.095" gradientUnits="userSpaceOnUse">
<stop stop-color="#ADC9E6"/>
<stop offset="0.3339" stop-color="#BCD4EA"/>
<stop offset="0.9722" stop-color="#E3EFF5"/>
<stop offset="0.9944" stop-color="#E4F0F5"/>
</linearGradient>
<linearGradient id="paint57_linear_415_10174" x1="191.134" y1="173.391" x2="240.402" y2="124.123" gradientUnits="userSpaceOnUse">
<stop stop-color="#347BC0"/>
<stop offset="0.1756" stop-color="#4388C8"/>
<stop offset="0.5136" stop-color="#6AACDC"/>
<stop offset="0.9762" stop-color="#AAE4FD"/>
<stop offset="1" stop-color="#ADE7FF"/>
</linearGradient>
<linearGradient id="paint58_linear_415_10174" x1="207.084" y1="189.836" x2="207.084" y2="117.102" gradientUnits="userSpaceOnUse">
<stop stop-color="#ADC9E6"/>
<stop offset="0.3339" stop-color="#BCD4EA"/>
<stop offset="0.9722" stop-color="#E3EFF5"/>
<stop offset="0.9944" stop-color="#E4F0F5"/>
</linearGradient>
<linearGradient id="paint59_linear_415_10174" x1="116" y1="47.3434" x2="225.153" y2="47.3434" gradientUnits="userSpaceOnUse">
<stop stop-color="#FF805A"/>
<stop offset="0.2178" stop-color="#FF8F66"/>
<stop offset="0.6335" stop-color="#FFB687"/>
<stop offset="0.9944" stop-color="#FFDCA7"/>
</linearGradient>
<linearGradient id="paint60_linear_415_10174" x1="116" y1="47.3435" x2="225.153" y2="47.3435" gradientUnits="userSpaceOnUse">
<stop stop-color="#FF805A"/>
<stop offset="0.2178" stop-color="#FF8F66"/>
<stop offset="0.6335" stop-color="#FFB687"/>
<stop offset="0.9944" stop-color="#FFDCA7"/>
</linearGradient>
<linearGradient id="paint61_linear_415_10174" x1="116.001" y1="47.3435" x2="225.154" y2="47.3435" gradientUnits="userSpaceOnUse">
<stop stop-color="#FF805A"/>
<stop offset="0.2178" stop-color="#FF8F66"/>
<stop offset="0.6335" stop-color="#FFB687"/>
<stop offset="0.9944" stop-color="#FFDCA7"/>
</linearGradient>
<linearGradient id="paint62_linear_415_10174" x1="115.999" y1="47.3438" x2="225.152" y2="47.3438" gradientUnits="userSpaceOnUse">
<stop stop-color="#FF805A"/>
<stop offset="0.2178" stop-color="#FF8F66"/>
<stop offset="0.6335" stop-color="#FFB687"/>
<stop offset="0.9944" stop-color="#FFDCA7"/>
</linearGradient>
<linearGradient id="paint63_linear_415_10174" x1="116" y1="47.3438" x2="225.153" y2="47.3438" gradientUnits="userSpaceOnUse">
<stop stop-color="#FF805A"/>
<stop offset="0.2178" stop-color="#FF8F66"/>
<stop offset="0.6335" stop-color="#FFB687"/>
<stop offset="0.9944" stop-color="#FFDCA7"/>
</linearGradient>
<linearGradient id="paint64_linear_415_10174" x1="115.999" y1="47.3437" x2="225.152" y2="47.3437" gradientUnits="userSpaceOnUse">
<stop stop-color="#FF805A"/>
<stop offset="0.2178" stop-color="#FF8F66"/>
<stop offset="0.6335" stop-color="#FFB687"/>
<stop offset="0.9944" stop-color="#FFDCA7"/>
</linearGradient>
<linearGradient id="paint65_linear_415_10174" x1="116" y1="47.3437" x2="225.153" y2="47.3437" gradientUnits="userSpaceOnUse">
<stop stop-color="#FF805A"/>
<stop offset="0.2178" stop-color="#FF8F66"/>
<stop offset="0.6335" stop-color="#FFB687"/>
<stop offset="0.9944" stop-color="#FFDCA7"/>
</linearGradient>
<linearGradient id="paint66_linear_415_10174" x1="149.317" y1="19.1608" x2="149.317" y2="6.70002" gradientUnits="userSpaceOnUse">
<stop stop-color="#ADC9E6"/>
<stop offset="0.3339" stop-color="#BCD4EA"/>
<stop offset="0.9722" stop-color="#E3EFF5"/>
<stop offset="0.9944" stop-color="#E4F0F5"/>
</linearGradient>
<linearGradient id="paint67_linear_415_10174" x1="185.454" y1="15.839" x2="196.491" y2="10.0547" gradientUnits="userSpaceOnUse">
<stop stop-color="#ADC9E6"/>
<stop offset="0.3339" stop-color="#BCD4EA"/>
<stop offset="0.9722" stop-color="#E3EFF5"/>
<stop offset="0.9944" stop-color="#E4F0F5"/>
</linearGradient>
<linearGradient id="paint68_linear_415_10174" x1="136.347" y1="64.181" x2="125.406" y2="45.9508" gradientUnits="userSpaceOnUse">
<stop stop-color="#ADC9E6"/>
<stop offset="0.3339" stop-color="#BCD4EA"/>
<stop offset="0.9722" stop-color="#E3EFF5"/>
<stop offset="0.9944" stop-color="#E4F0F5"/>
</linearGradient>
<linearGradient id="paint69_linear_415_10174" x1="210.164" y1="64.1998" x2="221.105" y2="45.9695" gradientUnits="userSpaceOnUse">
<stop stop-color="#ADC9E6"/>
<stop offset="0.3339" stop-color="#BCD4EA"/>
<stop offset="0.9722" stop-color="#E3EFF5"/>
<stop offset="0.9944" stop-color="#E4F0F5"/>
</linearGradient>
<linearGradient id="paint70_linear_415_10174" x1="173.271" y1="6.70002" x2="173.271" y2="60.7489" gradientUnits="userSpaceOnUse">
<stop stop-color="#205178"/>
<stop offset="0.1468" stop-color="#2E6086"/>
<stop offset="0.4296" stop-color="#5387A9"/>
<stop offset="0.8161" stop-color="#8EC7E2"/>
<stop offset="1" stop-color="#ADE7FF"/>
</linearGradient>
<linearGradient id="paint71_linear_415_10174" x1="173.272" y1="6.69997" x2="173.272" y2="60.7489" gradientUnits="userSpaceOnUse">
<stop stop-color="#205178"/>
<stop offset="0.1468" stop-color="#2E6086"/>
<stop offset="0.4296" stop-color="#5387A9"/>
<stop offset="0.8161" stop-color="#8EC7E2"/>
<stop offset="1" stop-color="#ADE7FF"/>
</linearGradient>
<linearGradient id="paint72_linear_415_10174" x1="173.272" y1="6.70023" x2="173.272" y2="60.7491" gradientUnits="userSpaceOnUse">
<stop stop-color="#205178"/>
<stop offset="0.1468" stop-color="#2E6086"/>
<stop offset="0.4296" stop-color="#5387A9"/>
<stop offset="0.8161" stop-color="#8EC7E2"/>
<stop offset="1" stop-color="#ADE7FF"/>
</linearGradient>
<linearGradient id="paint73_linear_415_10174" x1="173.272" y1="6.70023" x2="173.272" y2="60.7491" gradientUnits="userSpaceOnUse">
<stop stop-color="#205178"/>
<stop offset="0.1468" stop-color="#2E6086"/>
<stop offset="0.4296" stop-color="#5387A9"/>
<stop offset="0.8161" stop-color="#8EC7E2"/>
<stop offset="1" stop-color="#ADE7FF"/>
</linearGradient>
</defs>
</svg>
