<svg width="177" height="177" viewBox="0 0 177 177" fill="none" xmlns="http://www.w3.org/2000/svg">
<path opacity="0.5" d="M88.7411 176.223C137.284 176.223 176.636 136.891 176.636 88.3723C176.636 39.8536 137.284 0.521484 88.7411 0.521484C40.1981 0.521484 0.846191 39.8536 0.846191 88.3723C0.846191 136.891 40.1981 176.223 88.7411 176.223Z" fill="url(#paint0_linear_439_10122)"/>
<path d="M62.1143 88.3688V49.9562C62.1143 49.4502 62.6682 49.1352 63.1075 49.3834L96.3916 68.5897L129.676 87.796C130.115 88.0538 130.115 88.6838 129.676 88.9415L96.3916 108.148L63.1075 127.354C62.6682 127.612 62.1143 127.287 62.1143 126.781V88.3688Z" fill="white"/>
<defs>
<linearGradient id="paint0_linear_439_10122" x1="0.841607" y1="88.3709" x2="176.636" y2="88.3709" gradientUnits="userSpaceOnUse">
<stop stop-color="#FE8965"/>
<stop offset="0.2326" stop-color="#FE9872"/>
<stop offset="0.6768" stop-color="#FDBF94"/>
<stop offset="0.9944" stop-color="#FDDEAF"/>
</linearGradient>
</defs>
</svg>
