<svg width="69" height="86" viewBox="0 0 69 86" fill="none" xmlns="http://www.w3.org/2000/svg">
<path opacity="0.6" d="M21.9955 85.1421L22.3571 75.7393L37.908 80.8023L38.2696 84.4188C34.6531 85.5037 28.1435 86.9503 21.9955 85.1421Z" fill="#FC8D84"/>
<path d="M11.8701 55.8475C12.5934 58.7407 11.5084 61.2722 9.33854 61.9955C7.16865 62.7188 4.63712 60.9106 3.91383 58.379C3.19053 55.4859 4.27547 52.9543 6.44536 52.231C8.25359 51.5077 10.7851 53.316 11.8701 55.8475Z" fill="#F99893"/>
<path d="M11.1465 71.3994C10.4232 70.3144 10.0616 68.8678 9.69991 67.7829C8.61497 64.1664 8.25333 60.5499 8.25333 57.2951C8.25333 56.5718 8.25333 55.8485 8.25333 55.1252C7.89168 52.2321 8.25333 49.3389 8.97662 46.4457C11.8698 37.0429 20.5493 30.5332 30.3138 30.5332C43.3331 30.5332 53.4592 41.7443 52.3743 54.4019C53.8209 53.6786 55.2675 53.6786 56.7141 54.4019C59.2456 55.8485 59.9689 59.465 58.1607 62.7198C56.3524 65.9746 53.0976 67.4212 50.5661 65.9746C50.2044 65.613 49.8428 65.613 49.4811 65.2514C47.6729 76.1008 37.9084 83.6954 27.4206 82.6104C22.3576 82.2488 17.6562 79.7172 14.4013 75.7391C14.0397 75.3775 14.0397 75.3775 13.678 75.0158C12.9547 74.6542 11.8698 73.2076 11.1465 71.3994Z" fill="url(#paint0_linear_60_4478)"/>
<path d="M57.799 39.5734C57.799 37.7651 57.4374 35.9569 57.0757 34.872C55.6291 30.1706 53.0976 28.3623 51.651 28.0007C53.0976 28.3623 55.9908 28.3623 54.9058 26.5541C53.8209 24.3842 49.4811 24.0226 49.4811 24.0226C49.4811 24.0226 55.6291 21.1294 52.3743 19.6828C49.1195 18.2362 46.2263 22.9376 46.2263 22.9376C35.0152 15.343 15.4863 20.0444 7.8917 24.7459C0.297105 29.8089 7.1684 30.1706 7.1684 30.1706C-3.31937 39.5734 6.08346 39.935 6.08346 39.935C1.38205 51.5078 24.8891 42.4666 24.8891 42.4666C21.6343 48.6146 41.8865 39.2117 41.8865 39.2117C41.8865 39.2117 47.6729 52.5927 46.588 59.464C46.588 59.464 50.9277 53.6776 55.9908 54.4009C55.6291 54.4009 58.1607 46.8063 57.799 39.5734Z" fill="url(#paint1_linear_60_4478)"/>
<path d="M66.4782 22.5764C64.67 20.4066 61.7768 17.5134 57.0754 14.2586C50.9274 10.2804 49.4808 3.04749 37.9081 0.877606C26.697 -0.93063 22.7189 5.57902 15.4859 7.38726C10.0612 8.83385 6.44475 10.6421 3.91322 12.0887C0.658391 13.8969 -2.23479 17.5134 2.46663 20.4066C6.0831 22.9381 7.89134 26.1929 7.89134 26.1929L33.9299 26.9162L58.8836 34.8724C58.8836 34.8724 61.7768 32.3409 65.7549 31.256C70.4563 29.8094 69.0097 25.4696 66.4782 22.5764Z" fill="url(#paint2_linear_60_4478)"/>
<path d="M36.1002 21.8541C35.0153 21.4925 33.5687 21.4925 32.4838 21.1308C32.4838 20.0459 32.8454 18.9609 32.8454 17.876C34.292 17.876 35.3769 18.2376 36.8235 18.5993C36.8235 19.6842 36.4619 20.7692 36.1002 21.8541Z" fill="#232323"/>
<path d="M38.632 25.8307C37.5471 25.469 36.4621 25.1074 35.3772 25.1074C35.7388 24.0224 35.7388 22.9375 36.1005 21.8525C37.1854 22.2142 38.2704 22.5758 39.717 22.5758C39.3553 23.6608 38.9937 24.7457 38.632 25.8307Z" fill="#232323"/>
<path d="M42.9716 24.0243C41.8867 23.6627 40.8017 23.301 39.7168 22.9394C40.0784 21.8545 40.4401 20.7695 40.8017 19.6846C41.8867 20.0462 43.3333 20.4079 44.4182 21.1312C44.0566 21.8545 43.3333 22.9394 42.9716 24.0243Z" fill="#232323"/>
<path d="M32.1221 24.385C31.0372 24.385 29.9523 24.0234 28.8673 24.0234C28.8673 22.9384 28.8673 21.8535 28.8673 20.7686C29.9523 20.7686 31.3988 20.7685 32.4838 21.1302C32.4838 22.2151 32.4838 23.3001 32.1221 24.385Z" fill="#232323"/>
<path d="M29.2284 20.7685C28.1435 20.7685 26.6969 20.7685 25.6119 20.7685C25.6119 19.6836 25.6119 18.5986 25.6119 17.5137C27.0585 17.5137 28.1435 17.5137 29.5901 17.5137C29.2284 18.5986 29.2284 19.6836 29.2284 20.7685Z" fill="#232323"/>
<path d="M33.9299 24.7465C33.9299 24.7465 16.5708 21.8533 7.52966 26.1931C7.89131 27.6396 8.25296 30.1712 10.0612 32.3411C12.9544 35.9575 17.2941 36.6808 20.1873 37.0425C37.5464 39.574 58.5219 34.8726 58.5219 34.8726C51.289 28.0013 33.9299 24.7465 33.9299 24.7465Z" fill="url(#paint3_linear_60_4478)"/>
<path d="M32.845 58.3789C32.845 59.4638 33.9299 60.1871 35.0149 60.1871C36.0998 60.1871 36.8231 59.1022 36.8231 58.0172C36.8231 56.9323 35.7381 56.209 34.6532 56.209C33.5683 56.5706 32.845 57.2939 32.845 58.3789Z" fill="#232323"/>
<path d="M14.4015 58.3789C14.4015 59.4638 15.4864 60.1871 16.5714 60.1871C17.6563 60.1871 18.3796 59.1022 18.3796 58.0172C18.3796 56.9323 17.2947 56.209 16.2097 56.209C15.1248 56.209 14.4015 57.2939 14.4015 58.3789Z" fill="#232323"/>
<path d="M24.5277 70.3139C23.8044 70.3139 23.0811 69.9523 22.3578 69.5906C21.2729 68.8673 20.9113 67.4207 20.9113 67.4207L21.2729 59.4645C21.2729 59.1028 21.6346 58.7412 21.9962 58.7412C22.3578 58.7412 22.7195 59.1028 22.7195 59.4645L22.3578 67.4207C22.3578 67.4207 22.3578 68.144 23.0811 68.5057C23.8044 68.8673 24.8894 68.8673 25.9743 68.5057C26.336 68.5057 26.6976 68.5057 26.6976 68.8673C26.6976 69.229 26.6976 69.5906 26.336 69.5906C25.6127 69.9523 24.8894 70.3139 24.5277 70.3139Z" fill="#EF947F"/>
<path d="M40.0778 52.5943C40.0778 52.5943 39.7162 52.5943 40.0778 52.5943L31.0366 52.2327C29.9517 52.2327 29.2284 51.5094 29.2284 50.4244C29.2284 49.3395 29.9517 48.6162 31.0366 48.6162L39.7162 48.9779C40.8011 48.9779 41.5244 49.7012 41.5244 50.7861C41.5244 51.871 40.8011 52.5943 40.0778 52.5943Z" fill="#383838"/>
<path d="M18.3795 52.232C18.3795 52.232 18.0179 52.232 18.3795 52.232L12.5931 51.8704C11.5082 51.8704 10.7849 51.1471 10.7849 50.0621C10.7849 48.9772 11.5082 48.2539 12.5931 48.2539L18.0179 48.6155C19.1028 48.6155 19.8261 49.3388 19.8261 50.4238C19.8261 51.5087 19.1028 51.8704 18.3795 52.232Z" fill="#383838"/>
<path d="M26.336 74.6533C24.5277 74.6533 23.0811 74.2916 23.0811 74.2916C22.7195 74.2916 22.7195 73.93 22.7195 73.5683C22.7195 73.2067 23.0811 73.2067 23.4428 73.2067C23.8044 73.2067 31.0374 75.7382 36.8237 67.782C37.1854 67.4203 37.547 67.4203 37.9087 67.782C38.2703 68.1436 38.2703 68.5053 37.9087 68.8669C33.9306 73.93 29.2291 74.6533 26.336 74.6533Z" fill="#EF947F"/>
<defs>
<linearGradient id="paint0_linear_60_4478" x1="33.8713" y1="83.3453" x2="33.8713" y2="30.9968" gradientUnits="userSpaceOnUse">
<stop offset="0.00537634" stop-color="#FFDDC9"/>
<stop offset="1" stop-color="#FFB3A9"/>
</linearGradient>
<linearGradient id="paint1_linear_60_4478" x1="1.98166" y1="39.3662" x2="57.9571" y2="39.3662" gradientUnits="userSpaceOnUse">
<stop stop-color="#231F20"/>
<stop offset="1" stop-color="#808285"/>
</linearGradient>
<linearGradient id="paint2_linear_60_4478" x1="33.0514" y1="30.2781" x2="38.8814" y2="-3.99307" gradientUnits="userSpaceOnUse">
<stop stop-color="#FFA900"/>
<stop offset="1" stop-color="#FFE300"/>
</linearGradient>
<linearGradient id="paint3_linear_60_4478" x1="31.3193" y1="40.4595" x2="34.2177" y2="23.4218" gradientUnits="userSpaceOnUse">
<stop stop-color="#0047BF"/>
<stop offset="1" stop-color="#7F96FF"/>
</linearGradient>
</defs>
</svg>
