<svg width="54" height="64" viewBox="0 0 54 64" fill="none" xmlns="http://www.w3.org/2000/svg">
<path d="M25.2333 40.7192H28.7552V37.1973H32.2772V40.7192H35.7992V37.1973H32.2772V33.6753H28.7552V37.1973H25.2333V33.6753H21.7113V37.1973H18.1893V40.7192H21.7113V37.1973H25.2333V40.7192Z" fill="#FDB913"/>
<path d="M53.3211 26.2793C53.3211 11.7649 41.5562 0 27.0418 0C12.5274 0 0.762512 11.7649 0.762512 26.2793C0.762512 33.525 3.70804 40.1078 8.4405 44.8345C8.844 45.238 9.37431 45.4743 9.9738 45.4743C11.1555 45.4743 12.1066 44.5174 12.1066 43.3415C12.1066 42.742 11.853 42.1944 11.4552 41.7967C7.5067 37.8482 5.03959 32.3375 5.03959 26.2793C5.03959 14.1455 14.908 4.27132 27.0475 4.27132C39.1871 4.27132 49.0555 14.1455 49.0555 26.2793C49.0555 32.3491 46.5827 37.8482 42.5996 41.837L24.0155 60.421L27.0418 63.4473L45.6373 44.8517C50.3813 40.0905 53.3211 33.5307 53.3211 26.2793Z" fill="#FDB913"/>
<path d="M30.2237 14.1513C31.0826 14.1513 34.2125 15.5347 34.2125 19.3968L35.3712 19.3852L34.9446 12.814H27.0015H19.0525L18.626 19.3852L19.7788 19.3968C19.7788 15.5347 22.9088 14.1513 23.7677 14.1513C24.6208 14.1513 24.7188 14.8199 24.7188 14.8199V28.1123C24.7188 29.2479 24.0617 29.1845 24.0617 29.1845H22.1364V30.6889H26.9957H31.8492V29.1845H29.9239C29.9239 29.1845 29.2668 29.2421 29.2668 28.1123V14.8199C29.2726 14.8199 29.3648 14.1513 30.2237 14.1513Z" fill="#FDB913"/>
</svg>
