<svg width="35" height="48" viewBox="0 0 35 48" fill="none" xmlns="http://www.w3.org/2000/svg">
<path d="M25.6719 21.7052L0.718262 7.29883V31.3267L25.6633 45.7243L25.6719 21.7052Z" fill="#C78D69"/>
<path d="M25.6636 45.7239L34.5929 40.5757V16.5479L25.6722 21.6961L25.6636 45.7239Z" fill="#A16845"/>
<path d="M25.6719 45.7156L0.718262 31.3093V32.6505L25.6633 47.0481L25.6719 45.7156Z" fill="#A7A9AC"/>
<path d="M25.6636 47.0477L34.5929 41.8995V40.5583L25.6722 45.7152L25.6636 47.0477Z" fill="#939598"/>
<path d="M9.64759 2.1416L0.718262 7.2898L25.6719 21.7048L34.5926 16.5479L9.64759 2.1416Z" fill="#C0C7CE"/>
<path d="M9.60419 1.65723L0.71812 6.00941L0.709473 6.82274L25.5593 21.1858L34.5232 16.0116V15.2416L9.60419 1.65723Z" fill="#A7A9AC"/>
<path d="M9.64661 0.869873L0.717285 6.00943L25.6017 20.3898L34.5224 15.2416L9.64661 0.869873Z" fill="#C0C7CE"/>
<path d="M11.3002 15.2157V17.9152L10.4004 17.3701V14.6792L11.3002 15.2157Z" fill="#9BCCE5"/>
<path d="M10.4089 14.7486V17.2665L10.2705 17.353V14.6621L10.4089 14.7486Z" fill="#6D6E71"/>
<path d="M11.3002 17.7857V17.9415L10.2878 17.3358L10.409 17.2666L11.3002 17.7857Z" fill="#6D6E71"/>
<path d="M10.4088 14.7486V17.2838L10.2617 17.353V14.6621L10.4088 14.7486Z" fill="#BCBEC0"/>
<path d="M11.3 17.7944V17.9501L10.2791 17.3445L10.4088 17.2666L11.3 17.7944Z" fill="#D1D3D4"/>
<path d="M10.1753 14.5149V19.0747L11.4212 19.7929V15.233L10.1753 14.5149ZM11.3001 17.9413L10.2791 17.3442V14.7052L11.3001 15.285V17.9413Z" fill="white"/>
<path d="M10.1751 14.6103V17.3271L7.71777 15.8995L10.0885 17.2752V14.5583L10.1751 14.6103Z" fill="#27AAE1"/>
<path d="M10.1743 14.5318V17.2487L7.71704 15.821V13.1128L10.1743 14.5318Z" fill="#9BCCE5"/>
<path d="M10.0962 14.5474L7.72546 13.1803V15.7154L7.57837 15.802V13.0938L10.0962 14.5474Z" fill="#6D6E71"/>
<path d="M10.175 17.1019V17.2836L7.60522 15.7867L7.72636 15.7175L10.175 17.1019Z" fill="#6D6E71"/>
<path d="M10.0877 14.5474L7.71691 13.1803V15.7327L7.56982 15.802V13.0938L10.0877 14.5474Z" fill="#BCBEC0"/>
<path d="M10.1749 17.1192V17.3009L7.59644 15.7954L7.71757 15.7175L10.1749 17.1192Z" fill="#D1D3D4"/>
<path d="M8.90319 13.8485V16.401L8.7561 16.4788V13.762L8.90319 13.8485Z" fill="#BCBEC0"/>
<path d="M8.66113 13.6411V16.4185L8.75631 16.4791V13.7622L8.66113 13.6411Z" fill="white"/>
<path d="M7.48438 12.9575V15.8474L10.1666 17.4049V14.5063L7.48438 12.9575ZM10.0714 17.2405L7.59685 15.7955V13.1392L10.0714 14.5755V17.2405Z" fill="white"/>
<path d="M5.22607 16.4601L6.86139 15.5083V17.1436L5.22607 18.0867V16.4601Z" fill="#443029"/>
<path d="M6.86139 15.5099L6.63641 15.3801L5.22607 16.2021L5.45103 16.3319L6.86139 15.5099Z" fill="#E6E7E8"/>
<path d="M10.6771 19.3776L5.22607 16.2021V18.097L10.6771 21.2638V19.3776Z" fill="#704738"/>
<path d="M5.22607 16.2021L5.45103 16.0723L10.9021 19.2477L10.6771 19.3775L5.22607 16.2021Z" fill="#E6E7E8"/>
<path d="M12.1222 18.5471L11.8886 18.4087L10.6772 19.1182L10.6859 19.3778L12.1222 18.5471Z" fill="#E6E7E8"/>
<path d="M10.6772 19.3778L12.1222 18.5471L12.1135 20.4334L10.6772 21.264V19.3778Z" fill="#443029"/>
<path d="M11.3525 22.2158V24.9154L10.4526 24.3789V21.688L11.3525 22.2158Z" fill="#9BCCE5"/>
<path d="M10.4611 21.7574V24.2753L10.314 24.3618V21.6709L10.4611 21.7574Z" fill="#6D6E71"/>
<path d="M11.3522 24.7943V24.9414L10.3398 24.3444L10.461 24.2751L11.3522 24.7943Z" fill="#6D6E71"/>
<path d="M10.4525 21.7574V24.2926L10.3054 24.3618V21.6709L10.4525 21.7574Z" fill="#BCBEC0"/>
<path d="M11.3523 24.7943V24.9587L10.3313 24.353L10.4524 24.2751L11.3523 24.7943Z" fill="#D1D3D4"/>
<path d="M10.2275 21.5237V26.0835L11.4735 26.8017V22.2418L10.2275 21.5237ZM11.3524 24.9414L10.3314 24.3444V21.7054L11.3524 22.2851V24.9414Z" fill="white"/>
<path d="M10.2276 21.6191V24.3359L7.77026 22.9083L10.141 24.284V21.5671L10.2276 21.6191Z" fill="#27AAE1"/>
<path d="M10.2182 21.5404V24.2573L7.76953 22.8297V20.1128L10.2182 21.5404Z" fill="#9BCCE5"/>
<path d="M10.148 21.5562L7.77722 20.1891V22.7242L7.63013 22.8108V20.1025L10.148 21.5562Z" fill="#6D6E71"/>
<path d="M10.2189 24.1106V24.2923L7.64917 22.7954L7.77895 22.7175L10.2189 24.1106Z" fill="#6D6E71"/>
<path d="M10.1397 21.5562L7.76893 20.1891V22.7415L7.62183 22.8108V20.1025L10.1397 21.5562Z" fill="#BCBEC0"/>
<path d="M10.2275 24.1278V24.3095L7.64038 22.8039L7.77018 22.7261L10.2275 24.1278Z" fill="#D1D3D4"/>
<path d="M8.95568 20.8573V23.4098L8.80859 23.479V20.7708L8.95568 20.8573Z" fill="#BCBEC0"/>
<path d="M8.70483 20.6411V23.4185L8.80867 23.4791V20.7709L8.70483 20.6411Z" fill="white"/>
<path d="M7.53662 19.9663V22.8562L10.2275 24.4223V21.5238L7.53662 19.9663ZM10.115 24.2493L7.64045 22.8043V20.148L10.115 21.5843V24.2493Z" fill="white"/>
<path d="M5.27808 23.46L6.91339 22.5168V24.1522L5.27808 25.0953V23.46Z" fill="#443029"/>
<path d="M6.91339 22.5185L6.68843 22.3887L5.27808 23.2107L5.50304 23.3404L6.91339 22.5185Z" fill="#E6E7E8"/>
<path d="M10.7291 26.3777L5.27808 23.2109V25.1058L10.7291 28.2726V26.3777Z" fill="#704738"/>
<path d="M5.27808 23.2108L5.50303 23.0811L10.9541 26.2479L10.7291 26.3776L5.27808 23.2108Z" fill="#E6E7E8"/>
<path d="M12.1655 25.5469L11.9406 25.4084L10.7292 26.1179V26.3862L12.1655 25.5469Z" fill="#E6E7E8"/>
<path d="M10.7292 26.3775L12.1655 25.5469V27.4418L10.7292 28.2724V26.3775Z" fill="#443029"/>
<path d="M11.3173 29.103V31.8026L10.4175 31.2661V28.5752L11.3173 29.103Z" fill="#9BCCE5"/>
<path d="M10.4261 28.6444V31.1622L10.2791 31.2488V28.5579L10.4261 28.6444Z" fill="#6D6E71"/>
<path d="M11.3175 31.6815V31.8286L10.3052 31.2316L10.4263 31.1624L11.3175 31.6815Z" fill="#6D6E71"/>
<path d="M10.4176 28.6444V31.1796L10.2705 31.2488V28.5579L10.4176 28.6444Z" fill="#BCBEC0"/>
<path d="M11.3174 31.6815V31.8459L10.2964 31.2402L10.4175 31.1624L11.3174 31.6815Z" fill="#D1D3D4"/>
<path d="M10.1841 28.4106V32.9705L11.43 33.6886V29.1288L10.1841 28.4106ZM11.3176 31.8284L10.2966 31.24V28.601L11.3176 29.1807V31.8284Z" fill="white"/>
<path d="M10.184 28.506V31.2229L7.73535 29.7952L10.1061 31.171V28.4541L10.184 28.506Z" fill="#27AAE1"/>
<path d="M10.1834 28.4273V31.1442L7.72607 29.7165V27.0083L10.1834 28.4273Z" fill="#9BCCE5"/>
<path d="M10.1136 28.4429L7.74281 27.0758V29.6109L7.5957 29.6975V26.9893L10.1136 28.4429Z" fill="#6D6E71"/>
<path d="M10.1838 30.9979V31.1796L7.61401 29.6827L7.74381 29.6135L10.1838 30.9979Z" fill="#6D6E71"/>
<path d="M10.105 28.4429L7.73425 27.0758V29.6282L7.58716 29.6975V26.9893L10.105 28.4429Z" fill="#BCBEC0"/>
<path d="M10.1839 31.0152V31.1969L7.60547 29.6914L7.73525 29.6135L10.1839 31.0152Z" fill="#D1D3D4"/>
<path d="M8.92053 27.7445V30.297L8.77344 30.3662V27.658L8.92053 27.7445Z" fill="#BCBEC0"/>
<path d="M8.66968 27.5281V30.3055L8.7735 30.3661V27.6579L8.66968 27.5281Z" fill="white"/>
<path d="M7.50171 26.8535V29.7434L10.1926 31.3095V28.411L7.50171 26.8535ZM10.0801 31.1365L7.60555 29.6915V27.0352L10.0801 28.4715V31.1365Z" fill="white"/>
<path d="M5.23462 30.3553L6.87859 29.4036V31.0389L5.23462 31.982V30.3553Z" fill="#443029"/>
<path d="M6.87702 29.4059L6.65205 29.2761L5.2417 30.0981L5.45801 30.2279L6.87702 29.4059Z" fill="#E6E7E8"/>
<path d="M10.6947 33.2647L5.24365 30.0979V31.9928L10.6947 35.1596V33.2647Z" fill="#704738"/>
<path d="M5.24365 30.098L5.46862 29.9683L10.9197 33.1351L10.6947 33.2648L5.24365 30.098Z" fill="#E6E7E8"/>
<path d="M12.1309 32.4341L11.9059 32.2957L10.6946 33.0052V33.2734L12.1309 32.4341Z" fill="#E6E7E8"/>
<path d="M10.6946 33.2647L12.1309 32.4341V34.329L10.6946 35.1596V33.2647Z" fill="#443029"/>
<path d="M15.7985 17.8538V20.5534L14.8987 20.0083V17.3174L15.7985 17.8538Z" fill="#9BCCE5"/>
<path d="M15.7994 20.4242V20.5799L14.7871 19.9743L14.9082 19.905L15.7994 20.4242Z" fill="#6D6E71"/>
<path d="M15.7993 20.4328V20.5886L14.7783 19.9829L14.8995 19.905L15.7993 20.4328Z" fill="#D1D3D4"/>
<path d="M14.9069 17.3846V19.9025L14.7598 19.989V17.2981L14.9069 17.3846Z" fill="#6D6E71"/>
<path d="M14.8983 17.3846V19.9198L14.7512 19.989V17.2981L14.8983 17.3846Z" fill="#BCBEC0"/>
<path d="M14.6746 17.1538V21.7137L15.9205 22.4318V17.872L14.6746 17.1538ZM15.7994 20.5802L14.7784 19.9832V17.3442L15.7994 17.9239V20.5802Z" fill="white"/>
<path d="M18.6027 19.5246V22.2414L16.1541 20.8138L18.5248 22.1895V19.4727L18.6027 19.5246Z" fill="#27AAE1"/>
<path d="M18.6021 19.4459V22.1627L16.1448 20.7351V18.0269L18.6021 19.4459Z" fill="#9BCCE5"/>
<path d="M18.5234 19.4617L16.1613 18.0946V20.6298L16.0142 20.7163V18.0081L18.5234 19.4617Z" fill="#6D6E71"/>
<path d="M18.6025 22.0162V22.1979L16.0327 20.7011L16.1625 20.6318L18.6025 22.0162Z" fill="#6D6E71"/>
<path d="M18.5232 19.4617L16.1525 18.0946V20.6471L16.0054 20.7163V18.0081L18.5232 19.4617Z" fill="#BCBEC0"/>
<path d="M18.6026 22.0335V22.2152L16.0242 20.7097L16.154 20.6318L18.6026 22.0335Z" fill="#D1D3D4"/>
<path d="M17.3395 18.763V21.3155L17.1924 21.3847V18.6765L17.3395 18.763Z" fill="#BCBEC0"/>
<path d="M17.0886 18.5469V21.3243L17.1925 21.3849V18.6767L17.0886 18.5469Z" fill="white"/>
<path d="M15.9204 17.8718V20.7704L18.6113 22.3278V19.4293L15.9204 17.8718ZM18.4988 22.1548L16.0242 20.7098V18.0535L18.4988 19.4812V22.1548Z" fill="white"/>
<path d="M12.416 20.6477L14.0513 19.7046V21.3399L12.416 22.283V20.6477Z" fill="#443029"/>
<path d="M14.0513 19.7062L13.8264 19.5764L12.416 20.3984L12.641 20.5282L14.0513 19.7062Z" fill="#E6E7E8"/>
<path d="M17.8671 23.5655L12.416 20.3987V22.2936L17.8671 25.4604V23.5655Z" fill="#704738"/>
<path d="M12.416 20.3987L12.641 20.2603L18.092 23.4357L17.8671 23.5655L12.416 20.3987Z" fill="#E6E7E8"/>
<path d="M19.3035 22.7346L19.0785 22.5962L17.8672 23.3057V23.5739L19.3035 22.7346Z" fill="#E6E7E8"/>
<path d="M17.8672 23.5653L19.3035 22.7346V24.6295L17.8672 25.4601V23.5653Z" fill="#443029"/>
<path d="M15.7985 24.7763V27.4759L14.8987 26.9394V24.2485L15.7985 24.7763Z" fill="#9BCCE5"/>
<path d="M15.7997 27.3551V27.5022L14.7874 26.9052L14.9085 26.8359L15.7997 27.3551Z" fill="#6D6E71"/>
<path d="M15.7993 27.3551V27.5195L14.7783 26.9052L14.8995 26.8359L15.7993 27.3551Z" fill="#D1D3D4"/>
<path d="M14.9065 24.316V26.8339L14.7681 26.9204V24.2295L14.9065 24.316Z" fill="#6D6E71"/>
<path d="M14.8983 24.316V26.8512L14.7512 26.9204V24.2295L14.8983 24.316Z" fill="#BCBEC0"/>
<path d="M14.6746 24.0845V28.6443L15.9205 29.3625V24.8026L14.6746 24.0845ZM15.7994 27.5022L14.7784 26.9052V24.2662L15.7994 24.8459V27.5022Z" fill="white"/>
<path d="M18.6027 26.4466V29.1635L16.1541 27.7358L18.5248 29.1115V26.4033L18.6027 26.4466Z" fill="#27AAE1"/>
<path d="M18.6017 26.3682V29.0851L16.1531 27.6661V24.9492L18.6017 26.3682Z" fill="#9BCCE5"/>
<path d="M18.532 26.3926L16.1613 25.0255V27.5607L16.0142 27.6472V24.939L18.532 26.3926Z" fill="#6D6E71"/>
<path d="M18.6025 28.9472V29.1203L16.0327 27.6321L16.1625 27.5542L18.6025 28.9472Z" fill="#6D6E71"/>
<path d="M18.5232 26.3927L16.1525 25.0169V27.5694L16.0054 27.6473V24.9304L18.5232 26.3927Z" fill="#BCBEC0"/>
<path d="M18.6026 28.9644V29.1375L16.0242 27.632L16.154 27.5627L18.6026 28.9644Z" fill="#D1D3D4"/>
<path d="M17.3395 25.6941V28.2379L17.1924 28.3157V25.5989L17.3395 25.6941Z" fill="#BCBEC0"/>
<path d="M17.0886 25.4778V28.2552L17.1925 28.3158V25.5989L17.0886 25.4778Z" fill="white"/>
<path d="M15.9204 24.8027V27.6926L18.6027 29.2587V26.3602L15.9204 24.8027ZM18.4988 29.077L16.0242 27.6321V24.9758L18.4988 26.4121V29.077Z" fill="white"/>
<path d="M12.416 27.579L14.0513 26.6272V28.2712L12.416 29.2143V27.579Z" fill="#443029"/>
<path d="M14.0511 26.6286L13.8261 26.4988L12.4158 27.3208L12.6407 27.4505L14.0511 26.6286Z" fill="#E6E7E8"/>
<path d="M17.8668 30.496L12.4158 27.3206V29.2154L17.8668 32.3909V30.496Z" fill="#704738"/>
<path d="M12.4158 27.3207L12.6407 27.1909L18.0918 30.3664L17.8668 30.4962L12.4158 27.3207Z" fill="#E6E7E8"/>
<path d="M19.303 29.6653L19.078 29.5269L17.8667 30.2364V30.5046L19.303 29.6653Z" fill="#E6E7E8"/>
<path d="M17.8667 30.4959L19.303 29.6653V31.5602L17.8667 32.3908V30.4959Z" fill="#443029"/>
<path d="M15.7985 31.7154V34.415L14.8987 33.8699V31.179L15.7985 31.7154Z" fill="#9BCCE5"/>
<path d="M15.7997 34.2857V34.4415L14.7874 33.8358L14.9085 33.7666L15.7997 34.2857Z" fill="#6D6E71"/>
<path d="M15.7993 34.2944V34.4501L14.7783 33.8445L14.8995 33.7666L15.7993 34.2944Z" fill="#D1D3D4"/>
<path d="M14.9076 31.2472V33.765L14.7605 33.8602V31.1606L14.9076 31.2472Z" fill="#6D6E71"/>
<path d="M14.899 31.2472V33.7823L14.752 33.8516V31.1606L14.899 31.2472Z" fill="#BCBEC0"/>
<path d="M14.6746 31.0149V35.5747L15.9205 36.2929V31.733L14.6746 31.0149ZM15.7994 34.4413L14.7784 33.8442V31.2052L15.7994 31.785V34.4413Z" fill="white"/>
<path d="M18.6027 33.3857V36.1025L16.1541 34.6749L18.5248 36.0506V33.3337L18.6027 33.3857Z" fill="#27AAE1"/>
<path d="M18.6021 33.3073V36.0242L16.1448 34.5965V31.8796L18.6021 33.3073Z" fill="#9BCCE5"/>
<path d="M18.5234 33.323L16.1613 31.9559V34.4911L16.0142 34.5776V31.8694L18.5234 33.323Z" fill="#6D6E71"/>
<path d="M18.6025 35.8778V36.0595L16.0327 34.5626L16.1625 34.4934L18.6025 35.8778Z" fill="#6D6E71"/>
<path d="M18.5232 33.323L16.1525 31.9559V34.5084L16.0054 34.5776V31.8694L18.5232 33.323Z" fill="#BCBEC0"/>
<path d="M18.6026 35.8951V36.0768L16.0242 34.5713L16.154 34.4934L18.6026 35.8951Z" fill="#D1D3D4"/>
<path d="M17.3395 32.6244V35.1768L17.1924 35.2461V32.5378L17.3395 32.6244Z" fill="#BCBEC0"/>
<path d="M17.0886 32.408V35.1854L17.1925 35.246V32.5377L17.0886 32.408Z" fill="white"/>
<path d="M15.9204 31.7332V34.6317L18.6113 36.1892V33.2906L15.9204 31.7332ZM18.4988 36.0161L16.0242 34.5712V31.9149L18.4988 33.3425V36.0161Z" fill="white"/>
<path d="M12.4158 34.5083L14.0511 33.5652V35.2005L12.4158 36.1436V34.5083Z" fill="#443029"/>
<path d="M14.0511 33.5673L13.8261 33.4375L12.4158 34.2595L12.6407 34.3893L14.0511 33.5673Z" fill="#E6E7E8"/>
<path d="M17.8668 37.4263L12.4158 34.2595V36.1544L17.8668 39.3212V37.4263Z" fill="#704738"/>
<path d="M12.4158 34.2595L12.6407 34.1211L18.0918 37.2965L17.8668 37.4263L12.4158 34.2595Z" fill="#E6E7E8"/>
<path d="M19.303 36.5957L19.078 36.4573L17.8667 37.1668V37.435L19.303 36.5957Z" fill="#E6E7E8"/>
<path d="M17.8667 37.4263L19.303 36.5957V38.4906L17.8667 39.3212V37.4263Z" fill="#443029"/>
<path d="M31.1812 20.3006V23.0002L32.081 22.4637V19.7642L31.1812 20.3006Z" fill="#9BCCE5"/>
<path d="M31.1829 22.8731V23.0289L32.1952 22.4319L32.0741 22.354L31.1829 22.8731Z" fill="#6D6E71"/>
<path d="M31.1829 22.8815V23.0372L32.2125 22.4315L32.0827 22.3623L31.1829 22.8815Z" fill="#D1D3D4"/>
<path d="M32.0745 19.8447V22.3626L32.2215 22.4491V19.7495L32.0745 19.8447Z" fill="#6D6E71"/>
<path d="M32.083 19.836V22.3712L32.2301 22.4491V19.7495L32.083 19.836Z" fill="#BCBEC0"/>
<path d="M31.0708 20.3292V24.8891L32.3168 24.1709V19.6111L31.0708 20.3292ZM31.1833 20.3725L32.2043 19.7928V22.4318L31.1833 23.0288V20.3725Z" fill="white"/>
<path d="M28.3799 21.9731V24.6899L30.8372 23.2623L28.4664 24.638V21.9211L28.3799 21.9731Z" fill="#27AAE1"/>
<path d="M28.3799 21.8924V24.6093L30.8372 23.1816V20.4734L28.3799 21.8924Z" fill="#9BCCE5"/>
<path d="M28.4565 21.9188L30.8273 20.5431V23.0782L30.9744 23.1734V20.4565L28.4565 21.9188Z" fill="#6D6E71"/>
<path d="M28.3799 24.465V24.6467L30.9497 23.1584L30.8285 23.0806L28.3799 24.465Z" fill="#6D6E71"/>
<path d="M28.4651 21.9102V21.9188L30.8359 20.5431V23.0955L30.983 23.1648V20.4565L28.4651 21.9102Z" fill="#BCBEC0"/>
<path d="M28.3799 24.4822V24.6639L30.9583 23.1583L30.8372 23.0891L28.3799 24.4822Z" fill="#D1D3D4"/>
<path d="M29.6519 21.2115V23.764L29.7989 23.8419V21.125L29.6519 21.2115Z" fill="#BCBEC0"/>
<path d="M29.894 21.0039V23.7813L29.7988 23.8419V21.125L29.894 21.0039Z" fill="white"/>
<path d="M28.3806 21.8779V24.7765L31.0715 23.219V20.3291L28.3806 21.8779ZM28.4844 21.9298L30.959 20.5022V23.1585L28.4844 24.6034V21.9298Z" fill="white"/>
<path d="M34.5751 23.1044L32.9312 22.1526V23.7879L34.5751 24.731V23.1044Z" fill="#443029"/>
<path d="M32.9382 22.1547L33.1545 22.0249L34.5735 22.8469L34.3486 22.9767L32.9382 22.1547Z" fill="#E6E7E8"/>
<path d="M29.115 26.014L34.5747 22.8472V24.7421L29.115 27.9088V26.014Z" fill="#704738"/>
<path d="M34.5753 22.8471L34.3417 22.7173L28.8906 25.8927L29.1156 26.0139L34.5753 22.8471Z" fill="#E6E7E8"/>
<path d="M27.6792 25.1919L27.9042 25.0535L29.1155 25.763V26.0225L27.6792 25.1919Z" fill="#E6E7E8"/>
<path d="M29.1155 26.0139L27.6792 25.1919V27.0781L29.1155 27.9088V26.0139Z" fill="#443029"/>
<path d="M31.1824 27.232V29.9316L32.0822 29.3865V26.6956L31.1824 27.232Z" fill="#9BCCE5"/>
<path d="M31.1836 29.8038V29.9596L32.1959 29.3539L32.0748 29.2847L31.1836 29.8038Z" fill="#6D6E71"/>
<path d="M31.1836 29.8125V29.9682L32.2046 29.3625L32.0835 29.2847L31.1836 29.8125Z" fill="#D1D3D4"/>
<path d="M32.0747 26.7667V29.2846L32.2218 29.3711V26.6802L32.0747 26.7667Z" fill="#6D6E71"/>
<path d="M32.0833 26.7667V29.3019L32.2303 29.3711V26.6802L32.0833 26.7667Z" fill="#BCBEC0"/>
<path d="M31.0625 27.2511V31.8109L32.3085 31.0928V26.533L31.0625 27.2511ZM31.1836 27.303L32.2046 26.7233V29.3623L31.1836 29.9593V27.303Z" fill="white"/>
<path d="M28.3799 28.904V31.6208L30.8372 30.1932L28.4664 31.5689V28.8521L28.3799 28.904Z" fill="#27AAE1"/>
<path d="M28.3799 28.8243V31.5411L30.8372 30.1135V27.4053L28.3799 28.8243Z" fill="#9BCCE5"/>
<path d="M28.4565 28.8413L30.8273 27.4742V30.0094L30.9744 30.0959V27.3877L28.4565 28.8413Z" fill="#6D6E71"/>
<path d="M28.3799 31.3959V31.5776L30.9497 30.0807L30.8285 30.0115L28.3799 31.3959Z" fill="#6D6E71"/>
<path d="M28.4651 28.8413L30.8359 27.4742V30.0267L30.983 30.0959V27.3877L28.4651 28.8413Z" fill="#BCBEC0"/>
<path d="M28.3799 31.4132V31.5949L30.9583 30.0894L30.8285 30.0115L28.3799 31.4132Z" fill="#D1D3D4"/>
<path d="M29.6519 28.1424V30.6949L29.7989 30.7641V28.0559L29.6519 28.1424Z" fill="#BCBEC0"/>
<path d="M29.8938 27.9263V30.7124L29.7986 30.7643V28.0561L29.8938 27.9263Z" fill="white"/>
<path d="M28.3806 28.8087V31.7072L31.0629 30.1411V27.2512L28.3806 28.8087ZM28.4844 28.8606L30.959 27.4243V30.0806L28.4844 31.5255V28.8606Z" fill="white"/>
<path d="M34.5754 30.0266L32.9314 29.0835V30.7188L34.5754 31.6619V30.0266Z" fill="#443029"/>
<path d="M32.9314 29.0856L33.1564 28.9558L34.5667 29.7778L34.3504 29.9076L32.9314 29.0856Z" fill="#E6E7E8"/>
<path d="M29.1152 32.9444L34.5663 29.7776V31.6725L29.1152 34.8393V32.9444Z" fill="#704738"/>
<path d="M34.5666 29.7776L34.3417 29.6392L28.8906 32.8146L29.1156 32.9444L34.5666 29.7776Z" fill="#E6E7E8"/>
<path d="M27.6792 32.1138L27.9042 31.9753L29.1155 32.6848V32.9531L27.6792 32.1138Z" fill="#E6E7E8"/>
<path d="M29.1155 32.9444L27.6792 32.1138V34.0087L29.1155 34.8393V32.9444Z" fill="#443029"/>
<path d="M31.1824 34.1627V36.8622L32.0822 36.3258V33.6262L31.1824 34.1627Z" fill="#9BCCE5"/>
<path d="M31.1836 36.734V36.8897L32.1959 36.2927L32.0748 36.2148L31.1836 36.734Z" fill="#6D6E71"/>
<path d="M31.1836 36.7428V36.8985L32.2132 36.2929L32.0835 36.2236L31.1836 36.7428Z" fill="#D1D3D4"/>
<path d="M32.0747 33.6969V36.2234L32.2218 36.3099V33.6104L32.0747 33.6969Z" fill="#6D6E71"/>
<path d="M32.0833 33.6969V36.232L32.2303 36.3099V33.6104L32.0833 33.6969Z" fill="#BCBEC0"/>
<path d="M31.0625 34.1903V38.7502L32.3085 38.032V33.4722L31.0625 34.1903ZM31.1836 34.2336L32.2046 33.6539V36.2929L31.1836 36.8899V34.2336Z" fill="white"/>
<path d="M28.3799 35.8341V38.551L30.8372 37.1234L28.4664 38.4991V35.7822L28.3799 35.8341Z" fill="#27AAE1"/>
<path d="M28.3799 35.7537V38.4706L30.8372 37.0429V34.3347L28.3799 35.7537Z" fill="#9BCCE5"/>
<path d="M28.4565 35.7715V35.7801L30.8273 34.4044V36.9396L30.9744 37.0347V34.3179L28.4565 35.7715Z" fill="#6D6E71"/>
<path d="M28.3799 38.326V38.5077L30.9497 37.0109L30.8285 36.9417L28.3799 38.326Z" fill="#6D6E71"/>
<path d="M28.4651 35.7715V35.7801L30.8359 34.4044V36.9569L30.983 37.0261V34.3179L28.4651 35.7715Z" fill="#BCBEC0"/>
<path d="M28.3799 38.3435V38.5252L30.9583 37.0197L30.8372 36.9504L28.3799 38.3435Z" fill="#D1D3D4"/>
<path d="M29.6519 35.0729V37.6253L29.7989 37.7032V34.9863L29.6519 35.0729Z" fill="#BCBEC0"/>
<path d="M29.894 34.865V37.6424L29.7988 37.703V34.9861L29.894 34.865Z" fill="white"/>
<path d="M28.3806 35.7391V38.6376L31.0629 37.0802V34.1816L28.3806 35.7391ZM28.4844 35.791L30.959 34.3547V37.011L28.4844 38.456V35.791Z" fill="white"/>
<path d="M34.5754 36.9652L32.9314 36.0134V37.6487L34.5754 38.5919V36.9652Z" fill="#443029"/>
<path d="M32.9385 36.0158L33.1548 35.886L34.5651 36.708L34.3488 36.8378L32.9385 36.0158Z" fill="#E6E7E8"/>
<path d="M29.1152 39.8835L34.5663 36.708V38.6029L29.1152 41.7697V39.8835Z" fill="#704738"/>
<path d="M34.5666 36.7082L34.3417 36.5784L28.8906 39.7538L29.1156 39.8836L34.5666 36.7082Z" fill="#E6E7E8"/>
<path d="M27.6792 39.0527L27.9042 38.9143L29.1155 39.6238V39.8834L27.6792 39.0527Z" fill="#E6E7E8"/>
<path d="M29.1155 39.8834L27.6792 39.0527V40.939L29.1155 41.7696V39.8834Z" fill="#443029"/>
<path d="M4.48987 11.2523V14.272L3.47754 13.6663V10.6553L4.48987 11.2523Z" fill="#9BCCE5"/>
<path d="M3.49448 10.7319V13.5526L3.33008 13.6478V10.6367L3.49448 10.7319Z" fill="#6D6E71"/>
<path d="M4.4905 14.134V14.2984L3.34839 13.6322L3.49548 13.5457L4.4905 14.134Z" fill="#6D6E71"/>
<path d="M3.47776 10.7319V13.5699L3.32202 13.6478V10.6367L3.47776 10.7319Z" fill="#BCBEC0"/>
<path d="M4.49062 14.1339V14.3156L3.33984 13.6407L3.47829 13.5542L4.49062 14.1339Z" fill="#D1D3D4"/>
<path d="M3.22754 10.4739V13.7012L4.62058 14.5059V11.2786L3.22754 10.4739ZM4.49079 14.2983L3.34867 13.632V10.6815L4.49079 11.3305V14.2983Z" fill="white"/>
<path d="M4.49002 18.1827V21.2024L3.48633 20.5967V17.5857L4.49002 18.1827Z" fill="#9BCCE5"/>
<path d="M3.50351 17.6626V20.4833L3.33911 20.5784V17.5674L3.50351 17.6626Z" fill="#6D6E71"/>
<path d="M4.49065 21.056V21.2291L3.35718 20.5542L3.50427 20.4763L4.49065 21.056Z" fill="#6D6E71"/>
<path d="M3.48641 17.6626V20.4919L3.32202 20.5784V17.5674L3.48641 17.6626Z" fill="#BCBEC0"/>
<path d="M4.4905 21.0648V21.2465L3.34839 20.563L3.48682 20.4851L4.4905 21.0648Z" fill="#D1D3D4"/>
<path d="M3.23608 17.4048V20.6322L4.62913 21.4368V18.2095L3.23608 17.4048ZM4.49069 21.2292L3.34857 20.5629V17.6124L4.49069 18.2614V21.2292Z" fill="white"/>
<path d="M4.49002 25.1131V28.1242L3.48633 27.5272V24.5161L4.49002 25.1131Z" fill="#9BCCE5"/>
<path d="M3.49448 24.5932V27.4053L3.33008 27.5091V24.498L3.49448 24.5932Z" fill="#6D6E71"/>
<path d="M4.49065 27.9865V28.1595L3.35718 27.4846L3.49562 27.4067L4.49065 27.9865Z" fill="#6D6E71"/>
<path d="M3.48641 24.5932V27.4226L3.32202 27.5004V24.498L3.48641 24.5932Z" fill="#BCBEC0"/>
<path d="M4.4905 27.9951V28.1682L3.34839 27.4933L3.48682 27.4067L4.4905 27.9951Z" fill="#D1D3D4"/>
<path d="M3.22754 24.3352V27.5626L4.62058 28.3672V25.1399L3.22754 24.3352ZM4.49079 28.1596L3.34867 27.4933V24.5429L4.49079 25.1918V28.1596Z" fill="white"/>
<path d="M23.2312 22.0934V25.1131L22.2275 24.5074V21.4963L23.2312 22.0934Z" fill="#9BCCE5"/>
<path d="M22.2445 21.5819V24.3939L22.0801 24.4891V21.478L22.2445 21.5819Z" fill="#6D6E71"/>
<path d="M23.2319 24.9757V25.1401L22.0984 24.4739L22.2455 24.396L23.2319 24.9757Z" fill="#6D6E71"/>
<path d="M22.2363 21.5732V24.4112L22.0632 24.4891V21.478L22.2363 21.5732Z" fill="#BCBEC0"/>
<path d="M23.232 24.9757V25.1574L22.0898 24.4825L22.2369 24.396L23.232 24.9757Z" fill="#D1D3D4"/>
<path d="M21.9773 21.3157V24.543L23.3703 25.3477V22.1203L21.9773 21.3157ZM23.2319 25.1401L22.0898 24.4738V21.5233L23.2319 22.1723V25.1401Z" fill="white"/>
<path d="M23.2398 29.024V32.0437L22.2361 31.4381V28.427L23.2398 29.024Z" fill="#9BCCE5"/>
<path d="M22.2447 28.5041V31.3248L22.0803 31.42V28.4089L22.2447 28.5041Z" fill="#6D6E71"/>
<path d="M23.2404 31.8971V32.0701L22.1069 31.4039L22.2454 31.3174L23.2404 31.8971Z" fill="#6D6E71"/>
<path d="M22.2362 28.5041V31.3421L22.0718 31.42V28.4089L22.2362 28.5041Z" fill="#BCBEC0"/>
<path d="M23.2405 31.9059V32.0876L22.0984 31.404L22.2368 31.3262L23.2405 31.9059Z" fill="#D1D3D4"/>
<path d="M21.9861 28.2461V31.4735L23.3791 32.2781V29.0508L21.9861 28.2461ZM23.2407 32.0705L22.0986 31.4042V28.4538L23.2407 29.1027V32.0705Z" fill="white"/>
<path d="M23.2402 35.9549V38.966L22.2366 38.369V35.3579L23.2402 35.9549Z" fill="#9BCCE5"/>
<path d="M22.2447 35.4348V38.2555L22.0803 38.3507V35.3396L22.2447 35.4348Z" fill="#6D6E71"/>
<path d="M23.2411 38.8282V39.0013L22.1077 38.3264L22.2461 38.2485L23.2411 38.8282Z" fill="#6D6E71"/>
<path d="M22.2362 35.4348V38.2641L22.0718 38.3507V35.3396L22.2362 35.4348Z" fill="#BCBEC0"/>
<path d="M23.2407 38.837V39.0101L22.0986 38.3352L22.2371 38.2573L23.2407 38.837Z" fill="#D1D3D4"/>
<path d="M21.9775 35.1768V38.4041L23.3706 39.2088V35.9814L21.9775 35.1768ZM23.2408 39.0011L22.0987 38.3349V35.3844L23.2408 36.0333V39.0011Z" fill="white"/>
</svg>
