<svg width="26" height="61" viewBox="0 0 26 61" fill="none" xmlns="http://www.w3.org/2000/svg">
<path d="M13.5668 58.924L6.60156 54.9006L13.5668 50.8772L20.532 54.9006L13.5668 58.924Z" fill="#C9C9C9"/>
<path d="M20.5319 56.51L13.5667 60.5334V58.924L20.5319 54.9006V56.51Z" fill="#707070"/>
<path d="M13.567 60.5334L6.60181 56.51V54.9006L13.567 58.924V60.5334Z" fill="#D9D9D9"/>
<path d="M12.2776 14.9523V55.3246C12.2776 55.5064 12.3987 55.6967 12.6583 55.8351C13.1601 56.1206 13.9821 56.1206 14.484 55.8351C14.7349 55.6967 14.8647 55.5064 14.8647 55.3246V14.9004C13.9994 14.935 13.1428 14.961 12.2776 14.9523Z" fill="url(#paint0_linear_562_34287)"/>
<path d="M24.33 10.2278C24.33 16.8555 19.675 24.9196 13.9298 28.2335C8.18455 31.5474 3.52954 28.8652 3.52954 22.2287C3.52954 15.601 8.18455 7.53684 13.9298 4.22295C19.675 0.909066 24.33 3.59998 24.33 10.2278Z" fill="white"/>
<path d="M13.9385 29.2807C7.70876 32.8801 2.63843 29.9556 2.63843 22.7567C2.63843 15.5579 7.70876 6.78432 13.9385 3.18491C20.1683 -0.414511 25.2386 2.51 25.2386 9.70883C25.2386 16.899 20.1683 25.6812 13.9385 29.2807ZM13.9385 5.27012C8.70379 8.28983 4.44679 15.6704 4.44679 21.7098C4.44679 27.7492 8.70379 30.2151 13.9385 27.1868C19.1733 24.1671 23.4303 16.7865 23.4303 10.7471C23.4303 4.70773 19.1733 2.25042 13.9385 5.27012Z" fill="#ED1C24"/>
<path d="M6.46289 25.5426V23.7343C6.68785 23.2151 6.98203 22.6613 7.34544 22.073C7.70884 21.4846 8.2799 20.654 9.05862 19.5811H9.06728C10.4949 17.617 11.2044 16.2672 11.2044 15.5231C11.2044 15.1078 11.0833 14.8569 10.8324 14.7617C10.5815 14.6665 10.244 14.7444 9.82004 14.9866C9.37876 15.2462 9.00671 15.601 8.71253 16.0509C8.41834 16.5095 8.24529 16.9853 8.19338 17.4872L6.53211 18.1275C6.69651 17.167 7.06856 16.2672 7.65693 15.4366C8.24529 14.6059 8.9894 13.9311 9.88926 13.4119C10.8064 12.8841 11.5505 12.7283 12.1216 12.9447C12.6927 13.161 12.9782 13.7061 12.9782 14.5886C12.9782 15.2116 12.8051 15.8951 12.4504 16.6306C12.0956 17.3661 11.4727 18.3438 10.5641 19.5551C10.3911 19.7888 10.1575 20.1089 9.84599 20.5155C8.92883 21.7269 8.39238 22.5402 8.23664 22.9382L12.9263 20.23V21.8221L6.46289 25.5426Z" fill="black"/>
<path d="M14.4233 15.9471C14.4233 14.2512 14.7175 12.7889 15.3059 11.5776C15.8943 10.3662 16.7682 9.42311 17.9189 8.76552C19.0611 8.10794 19.9349 8.03873 20.5233 8.56653C21.1117 9.09433 21.4059 10.2105 21.4059 11.915C21.4059 13.6196 21.1117 15.0732 20.5233 16.2845C19.9349 17.4958 19.0611 18.439 17.9189 19.0965C16.7682 19.7628 15.9029 19.8234 15.3059 19.2956C14.7175 18.7678 14.4233 17.6516 14.4233 15.9471ZM16.1452 14.952C16.1452 16.1374 16.2923 16.9421 16.5951 17.3834C16.8979 17.8247 17.3392 17.8766 17.9189 17.5391C18.4986 17.2017 18.9313 16.6479 19.2254 15.8692C19.5196 15.0905 19.6667 14.1041 19.6667 12.9101C19.6667 11.7074 19.5196 10.8854 19.2254 10.4528C18.9313 10.0115 18.49 9.95957 17.9189 10.2884C17.3392 10.6258 16.8979 11.1882 16.5951 11.9756C16.3009 12.7803 16.1452 13.7667 16.1452 14.952Z" fill="black"/>
<path d="M0.96875 21.7789C0.96875 25.3091 2.18874 27.8097 4.17015 29.021C4.20476 29.047 4.24802 29.0643 4.29129 29.0903L5.65837 29.8776C5.47667 29.7565 5.30363 29.618 5.13923 29.4796C3.58179 28.1471 2.64732 25.8456 2.64732 22.748C2.64732 22.0558 2.69059 21.355 2.78576 20.6368C3.54718 14.5974 7.40617 7.935 12.2775 4.28367C12.2775 4.28367 12.2861 4.28371 12.2861 4.27506C12.8312 3.8684 13.385 3.49632 13.9561 3.16752C16.6556 1.61008 19.1302 1.28129 21.077 1.98214C21.3366 2.06867 21.5789 2.18981 21.8125 2.31094L20.5233 1.56684L20.0387 1.2813C18.0141 0.23435 15.2799 0.459303 12.2775 2.18979C6.03908 5.79786 0.96875 14.5801 0.96875 21.7789Z" fill="url(#paint1_linear_562_34287)"/>
<defs>
<linearGradient id="paint0_linear_562_34287" x1="12.2784" y1="35.4773" x2="14.8585" y2="35.4773" gradientUnits="userSpaceOnUse">
<stop stop-color="#F7F7F7"/>
<stop offset="1" stop-color="#CECECE"/>
</linearGradient>
<linearGradient id="paint1_linear_562_34287" x1="21.8037" y1="15.2714" x2="0.966933" y2="15.2714" gradientUnits="userSpaceOnUse">
<stop stop-color="#C4C4C4"/>
<stop offset="1" stop-color="#D9D9D9"/>
</linearGradient>
</defs>
</svg>
