<svg width="41" height="63" viewBox="0 0 41 63" fill="none" xmlns="http://www.w3.org/2000/svg">
<path d="M25.5758 15.5086C20.7045 17.9918 16.5254 24.4033 16.2485 29.8284C15.963 35.2534 19.7008 37.6588 24.5721 35.1929C29.4435 32.7096 33.6312 26.3068 33.8995 20.8731C34.185 15.4394 30.4558 13.0426 25.5758 15.5086Z" fill="white"/>
<path d="M40.7087 17.6631C40.2155 27.2933 24.0354 60.4668 23.1875 62.2059C22.4693 61.2542 8.91961 43.1706 9.4128 33.549C9.91464 23.9189 17.3211 12.5582 25.9476 8.17141C34.5914 3.79327 41.2019 8.04159 40.7087 17.6631ZM24.5805 35.193C29.4519 32.7097 33.6396 26.3069 33.9079 20.8732C34.1934 15.4395 30.4555 13.0341 25.5842 15.5087C20.7129 17.9919 16.5338 24.4034 16.2569 29.8284C15.9714 35.2622 19.7092 37.6676 24.5805 35.193Z" fill="url(#paint0_linear_562_35290)"/>
<path d="M17.4163 2.57321C21.7685 0.366835 25.6015 0.349541 28.2751 2.09733C31.1217 3.95761 33.9684 5.82657 36.8151 7.69549C34.1328 5.93905 30.3084 5.96499 25.9562 8.16271C17.3298 12.5495 9.92326 23.9102 9.42141 33.5403C8.91957 43.1619 22.478 61.2455 23.1961 62.1972L14.6648 56.5991C13.938 55.656 0.396912 37.5724 0.890101 27.9422C1.38329 18.3207 8.78113 6.96 17.4163 2.57321Z" fill="#9B1A00"/>
<defs>
<linearGradient id="paint0_linear_562_35290" x1="34.1823" y1="59.2668" x2="20.7557" y2="9.15787" gradientUnits="userSpaceOnUse">
<stop stop-color="#EEDA76"/>
<stop offset="0.2243" stop-color="#F1AB29"/>
<stop offset="0.3386" stop-color="#F39200"/>
<stop offset="0.9168" stop-color="#EA5B0C"/>
</linearGradient>
</defs>
</svg>
