<svg width="24" height="87" viewBox="0 0 24 87" fill="none" xmlns="http://www.w3.org/2000/svg">
<path opacity="0.3" d="M15.3929 86.8763C19.7462 86.8763 23.2753 84.8387 23.2753 82.3251C23.2753 79.8116 19.7462 77.7739 15.3929 77.7739C11.0396 77.7739 7.5105 79.8116 7.5105 82.3251C7.5105 84.8387 11.0396 86.8763 15.3929 86.8763Z" fill="#A1A7FF"/>
<path d="M23.4048 81.7887C23.4048 81.8752 23.3962 81.9531 23.3962 82.0309C23.3529 82.5847 23.1193 83.1471 22.7299 83.6489C22.3406 84.1594 21.7782 84.6353 21.0946 85.0247C20.9389 85.1112 20.7831 85.1976 20.6187 85.2842C20.3765 85.4053 20.1169 85.5178 19.8573 85.613C19.5891 85.7168 19.3122 85.8034 19.0353 85.8812C18.4643 86.0456 17.8586 86.1668 17.2356 86.2533C16.6213 86.3312 15.9724 86.3744 15.3408 86.3657C14.7091 86.3571 14.0688 86.3052 13.4545 86.21C12.8402 86.1149 12.2432 85.9764 11.6894 85.7947C11.1357 85.6217 10.6165 85.3967 10.1406 85.1458C9.6734 84.8949 9.26672 84.6094 8.91197 84.3065C8.55722 84.0037 8.28036 83.6662 8.06405 83.3202C7.84774 82.9741 7.70929 82.6107 7.64872 82.2473C7.62276 82.1088 7.60547 81.9617 7.60547 81.8146C7.60547 81.7108 7.61411 81.5983 7.62276 81.4945C7.63142 81.3907 7.64873 81.2781 7.68334 81.1743C8.16787 79.2188 8.65241 77.2548 9.13694 75.2993C9.09368 75.4637 9.07637 75.6281 9.07637 75.8011C9.06772 76.1732 9.16289 76.5453 9.34459 76.9087C9.53495 77.2634 9.8205 77.6009 10.1752 77.9124C10.5386 78.2152 10.9886 78.492 11.4904 78.7257C11.9923 78.9593 12.5633 79.1496 13.169 79.2881C13.7747 79.4265 14.4063 79.5131 15.0552 79.5304C15.6955 79.5563 16.3531 79.5216 16.9847 79.4438C17.6163 79.3572 18.222 79.2188 18.7758 79.0285C19.243 78.8727 19.6756 78.6738 20.0563 78.4575C20.5063 78.1893 20.9043 77.8864 21.1985 77.5576C21.5013 77.2288 21.709 76.8654 21.8301 76.502C21.9512 76.1386 21.9685 75.7665 21.8906 75.4031C22.3752 77.324 22.8511 79.2534 23.3183 81.1743C23.3443 81.2781 23.3616 81.382 23.3789 81.4858C23.4048 81.581 23.4048 81.6935 23.4048 81.7887Z" fill="#6272A3"/>
<path d="M18.1439 72.7209C18.066 72.4527 17.867 72.2364 17.6334 72.0633C17.3305 71.8297 16.9844 71.6912 16.6297 71.5961C16.3182 71.5182 15.9894 71.4749 15.6693 71.4576C15.5222 71.4489 15.3751 71.4489 15.228 71.4662C15.1328 71.4749 15.0376 71.4836 14.9338 71.4922C14.5704 71.5355 14.2157 71.6306 13.8696 71.7777C13.5235 71.9335 13.1514 72.1065 12.9611 72.4353C12.8226 72.6776 12.7967 73.015 12.8745 73.2832C12.9178 73.4563 13.0735 73.7159 13.0735 73.7159L13.1168 73.7678C13.186 73.837 13.2812 73.9062 13.3591 73.9668C13.6619 74.2004 14.0253 74.3216 14.3887 74.4081C14.3974 74.4081 14.3973 74.4081 14.3973 74.4081C14.5877 74.46 14.7781 74.4946 14.9684 74.5206C15.2193 74.5552 15.4702 74.5639 15.7212 74.5466C15.7385 74.5466 15.7471 74.5466 15.7644 74.5466C16.2317 74.5206 16.6903 74.4168 17.1229 74.2264C17.2094 74.1832 17.2959 74.1485 17.3824 74.1053C17.6334 73.9668 17.8583 73.7851 17.9968 73.5429C18.1612 73.3006 18.2131 72.9891 18.1439 72.7209Z" fill="#56648F"/>
<path d="M23.405 81.7886C23.405 81.6848 23.3963 81.581 23.379 81.4685C23.405 81.581 23.405 81.6848 23.405 81.7886Z" fill="#D3C3A5"/>
<path d="M21.8301 75.1353C21.8558 75.1867 21.8729 75.2381 21.8729 75.2895C21.8643 75.2381 21.8472 75.1867 21.8301 75.1353Z" fill="#D3C3A5"/>
<path d="M12.5199 72.5566C12.4767 72.6258 12.4421 72.7124 12.4161 72.7816C12.3815 72.8681 12.3642 72.9719 12.3469 73.0671C12.3382 73.093 12.3382 73.1104 12.3382 73.1364C12.3296 73.1796 12.3296 73.2229 12.3296 73.2575C12.3296 73.7594 12.3296 74.2612 12.3296 74.7544C12.1219 75.0053 11.9921 75.3513 12.0094 75.6715C12.0267 76.1041 12.3209 76.5022 12.6584 76.7963C13.2554 77.3068 14.0168 77.4886 14.7955 77.5664C15.9117 77.6789 17.0624 77.5751 17.9969 77.0386C18.3257 76.8483 18.6458 76.5973 18.8362 76.2599C18.9919 75.9917 19.0525 75.6715 18.992 75.3687C18.9487 75.1437 18.8362 74.9361 18.6978 74.7544C18.6978 74.2525 18.6978 73.7507 18.6978 73.2575C18.6978 73.2316 18.6978 73.197 18.6891 73.1624C18.6805 73.0758 18.6718 73.0066 18.6458 72.9201C18.6199 72.8335 18.594 72.7643 18.5593 72.6864C18.5334 72.6259 18.4988 72.5826 18.4728 72.522C18.542 72.5479 18.6199 72.5653 18.6978 72.5999C19.2169 72.7816 19.7014 73.0153 20.1081 73.2748C20.5061 73.5431 20.8522 73.8458 21.0945 74.166C21.3454 74.4861 21.5098 74.8323 21.5877 75.187C21.6656 75.5418 21.6396 75.8965 21.5271 76.2512C21.4146 76.5973 21.207 76.9435 20.9214 77.255C20.6359 77.5664 20.2638 77.8606 19.8312 78.1115C19.4592 78.3192 19.0525 78.5096 18.6113 78.6566C18.0835 78.8297 17.5037 78.9681 16.8981 79.046C16.301 79.1325 15.6781 79.1584 15.0724 79.1325C14.4581 79.1065 13.8524 79.0287 13.2813 78.8989C12.7103 78.7692 12.1652 78.5874 11.6893 78.371C11.2048 78.1461 10.7808 77.8866 10.4347 77.5924C10.0886 77.2982 9.82035 76.9693 9.63865 76.6319C9.4656 76.2944 9.37043 75.9311 9.37908 75.5763C9.38774 75.2216 9.4829 74.8669 9.6646 74.5294C9.85496 74.192 10.1318 73.8632 10.4779 73.5777C10.8327 73.2921 11.2653 73.0239 11.7498 72.8076C12.0008 72.6951 12.2604 72.6 12.5286 72.5134C12.5372 72.5307 12.5199 72.548 12.5199 72.5566Z" fill="#56648F"/>
<path d="M16.9327 72.1759C16.4655 71.9509 15.9809 71.8989 15.505 71.8989C15.0292 71.8989 14.5533 71.9509 14.0774 72.1759C13.6102 72.4008 13.1429 72.7815 13.1429 73.2574C13.1429 73.292 13.1516 73.318 13.1516 73.3526C13.1516 73.3699 13.1602 73.3958 13.1602 73.4131C13.1689 73.4564 13.1949 73.517 13.2208 73.5689C13.2468 73.6122 13.2814 73.6727 13.3246 73.7246C13.3679 73.7678 13.4285 73.8285 13.4804 73.8804C13.5323 73.9236 13.6102 73.9841 13.6794 74.0361C13.7486 74.0793 13.8438 74.1313 13.9217 74.1745C13.9995 74.2178 14.1207 74.2611 14.2072 74.2957C14.2937 74.3303 14.51 74.3822 14.51 74.3822L14.5273 74.3908C14.6312 74.4168 14.7696 74.4428 14.8648 74.4601C14.8994 74.4688 14.934 74.4687 14.96 74.4773C15.0465 74.486 15.133 74.4947 15.2195 74.5033C15.3753 74.512 15.5483 74.512 15.7127 74.5033C15.7819 74.5033 15.8598 74.4947 15.929 74.486C16.0502 74.4773 16.154 74.4601 16.2665 74.4341C16.3443 74.4255 16.4049 74.4081 16.4741 74.3908C16.5174 74.3822 16.552 74.3649 16.5953 74.3563C16.7077 74.3217 16.7856 74.2956 16.8981 74.2524C17.0019 74.2091 17.0711 74.1746 17.1577 74.1313C17.1836 74.1227 17.2009 74.1053 17.2269 74.0967C17.2529 74.0794 17.2875 74.062 17.3134 74.0447C17.374 74.0015 17.4605 73.9409 17.5124 73.889C17.5643 73.8458 17.6249 73.7852 17.6682 73.7332C17.7114 73.6813 17.7547 73.6208 17.772 73.5776C17.798 73.5256 17.8153 73.491 17.8326 73.4477C17.8412 73.3958 17.8585 73.3267 17.8585 73.2747C17.8672 72.7816 17.4 72.4008 16.9327 72.1759Z" fill="#485377"/>
<path d="M13.1431 73.7333C13.2123 73.8112 13.2902 73.8718 13.3767 73.941C13.6795 74.1746 14.0083 74.2871 14.3717 74.3736C14.3804 74.3736 14.4756 74.365 14.4409 74.3909C14.8909 74.5121 15.3235 74.5727 15.7821 74.5467C16.2493 74.5208 16.7079 74.4169 17.1405 74.2266C17.227 74.1833 17.3135 74.1487 17.4001 74.1054C17.651 73.967 17.876 73.7853 18.0144 73.543C18.1529 73.3094 18.2134 72.998 18.1355 72.7297C18.0663 72.4615 17.8587 72.2452 17.625 72.0721C17.3222 71.8385 16.9761 71.7001 16.6214 71.6049C16.1714 71.4924 15.6869 71.4751 15.2197 71.5011C14.7524 71.527 14.3025 71.6049 13.8612 71.7952C13.5151 71.9509 13.1777 72.15 12.9873 72.4788C12.8489 72.7211 12.8229 73.0238 12.8922 73.2921C12.9527 73.4392 13.0219 73.5949 13.1431 73.7333ZM12.6845 73.3007C12.6066 73.0238 12.6672 72.6951 12.8143 72.4355C12.8143 72.4268 12.8229 72.4268 12.8229 72.4268C13.0219 72.0807 13.3853 71.8644 13.7661 71.7C14.2333 71.4924 14.7178 71.3799 15.2197 71.3539C15.7215 71.328 16.2234 71.3713 16.7165 71.4924C17.0973 71.5962 17.4866 71.7433 17.8154 71.9942C17.9538 72.098 18.0663 72.2105 18.1615 72.349C18.1874 72.3749 18.2134 72.4095 18.2221 72.4355C18.274 72.522 18.3086 72.6086 18.3432 72.7038C18.4211 72.9893 18.3691 73.3181 18.2134 73.5777C18.0577 73.8372 17.8241 74.0275 17.5558 74.1746C17.4693 74.2265 17.3741 74.2698 17.2789 74.3131C16.8117 74.5208 16.3445 74.6333 15.8426 74.6679C15.3408 74.6938 14.813 74.6419 14.3285 74.5121C14.2939 74.5034 14.2506 74.4947 14.2246 74.4774C13.8699 74.3823 13.5497 74.2439 13.2469 74.0103C12.9787 73.8199 12.7624 73.5863 12.6845 73.3007Z" fill="#56648F"/>
<path d="M18.6979 73.2576V75.3427C18.6979 75.4812 18.672 75.611 18.6114 75.7408C18.4989 76.009 18.3345 76.234 18.1095 76.4071C18.0057 76.4936 17.8846 76.5714 17.7634 76.6406C17.0107 77.0732 16.0762 77.1858 15.185 77.1598C14.4842 77.1339 13.8006 77.0127 13.195 76.6147C13.0738 76.5368 12.9527 76.4416 12.8402 76.3378C12.5374 76.0609 12.321 75.7234 12.321 75.3427V73.2576C12.321 73.2749 12.321 73.3008 12.321 73.3181V73.3267C12.321 73.3441 12.3211 73.37 12.3297 73.3873C12.3297 73.3873 12.3297 73.3873 12.3297 73.3959C12.3384 73.4392 12.347 73.4825 12.3557 73.5171C12.3643 73.5344 12.3643 73.5604 12.373 73.5777C12.3903 73.6383 12.4162 73.6988 12.4508 73.7594C12.4681 73.8026 12.4941 73.8373 12.5201 73.8805C12.546 73.9151 12.572 73.9584 12.5979 73.993C12.6239 74.0276 12.6498 74.0536 12.6758 74.0795C12.6931 74.0968 12.7018 74.1142 12.7191 74.1228C12.745 74.1488 12.771 74.1747 12.7883 74.2007C12.8056 74.218 12.8229 74.2352 12.8402 74.2525C12.8488 74.2612 12.8575 74.2698 12.8662 74.2785C12.9181 74.3218 12.97 74.365 13.0306 74.4083C13.0825 74.4516 13.143 74.4948 13.195 74.5295C13.8093 74.9275 14.4842 75.0486 15.185 75.0746C16.0762 75.1092 17.0107 74.9967 17.7634 74.5641C17.8846 74.4862 17.9971 74.4083 18.1095 74.3305C18.3345 74.1574 18.4989 73.9324 18.6114 73.6642C18.672 73.5258 18.6979 73.396 18.6979 73.2576Z" fill="#6272A3"/>
<path d="M18.6893 73.1622C18.6806 73.0757 18.672 73.0065 18.646 72.9199C18.62 72.8334 18.5941 72.7642 18.5595 72.6863C18.5335 72.6257 18.5076 72.5738 18.473 72.5218C18.4643 72.5045 18.447 72.4786 18.4297 72.47C18.421 72.4527 18.4124 72.444 18.4037 72.4267C18.3605 72.3661 18.3172 72.3229 18.2653 72.2537C18.1961 72.1758 18.1442 72.1326 18.0663 72.0633C17.9884 71.9941 17.9192 71.9508 17.824 71.8902C17.7375 71.8297 17.6596 71.7951 17.5644 71.7432C17.4606 71.6913 17.3914 71.6567 17.2789 71.6134C17.1751 71.5701 17.0886 71.5442 16.9761 71.5096C16.8636 71.475 16.7771 71.4577 16.6559 71.4231C16.5435 71.3971 16.4396 71.3711 16.3185 71.3538C16.0762 71.3105 15.8599 71.2933 15.6176 71.2933C15.3927 71.2846 15.1158 71.3019 14.8995 71.3279C14.787 71.3452 14.6572 71.3625 14.5534 71.3884C14.4496 71.4057 14.3198 71.4403 14.2159 71.4663C14.1121 71.4836 13.991 71.5268 13.8958 71.5614C13.8006 71.596 13.6795 71.648 13.593 71.6826C13.5064 71.7258 13.394 71.7778 13.3161 71.8297C13.2382 71.873 13.143 71.9335 13.0825 71.9854C13.0046 72.0373 12.9267 72.1066 12.8662 72.1672C12.8056 72.2277 12.7364 72.2969 12.6845 72.3575C12.6672 72.3835 12.6412 72.4094 12.6239 72.4353C12.5979 72.4613 12.5806 72.4959 12.5547 72.5218C12.546 72.5391 12.5374 72.5478 12.5374 72.5651C12.4941 72.6344 12.4595 72.7209 12.4249 72.7901C12.3903 72.8766 12.373 72.9804 12.3557 73.0756C12.347 73.1016 12.347 73.1189 12.347 73.1449C12.3384 73.1882 12.3384 73.2314 12.3384 73.266C12.3384 73.2834 12.3384 73.3093 12.3384 73.3266V73.3352C12.3384 73.3525 12.347 73.3784 12.347 73.3957C12.347 73.3957 12.347 73.3958 12.347 73.4044C12.3557 73.4477 12.3643 73.4909 12.373 73.5256C12.3816 73.5429 12.3903 73.5689 12.3903 73.5862C12.4076 73.6467 12.4422 73.7073 12.4682 73.7679C12.4855 73.8111 12.5114 73.8457 12.5374 73.889C12.5633 73.9323 12.5893 73.9669 12.6152 74.0015C12.6412 74.0361 12.6671 74.062 12.6931 74.088C12.7104 74.1053 12.7191 74.1226 12.7364 74.1313C12.7623 74.1572 12.7883 74.1832 12.8056 74.2091C12.8229 74.2264 12.8316 74.2523 12.8489 74.2697C12.8575 74.2783 12.8748 74.2697 12.8835 74.2783C12.9354 74.3216 12.9873 74.3649 13.0479 74.4081C13.0998 74.4514 13.1603 74.4947 13.2123 74.5293C13.8266 74.9273 14.5015 75.0484 15.2023 75.0744C16.0935 75.109 17.028 74.9965 17.7807 74.5639C17.9019 74.486 18.0144 74.4082 18.1269 74.3303C18.3518 74.1572 18.5162 73.9323 18.6287 73.664C18.6806 73.5256 18.7152 73.3958 18.7152 73.2574C18.6979 73.2314 18.6979 73.1968 18.6893 73.1622ZM18.1961 73.5775C18.0403 73.8371 17.8067 74.0274 17.5385 74.1745C17.452 74.2264 17.3568 74.2697 17.2616 74.313C16.7944 74.5206 16.3012 74.6245 15.808 74.6591C15.3061 74.685 14.7957 74.6417 14.3111 74.5119C14.2765 74.5033 14.2332 74.4946 14.2073 74.4773C13.8525 74.3821 13.5324 74.2438 13.2296 74.0101C13.1604 73.9582 13.0911 73.8976 13.0219 73.837C12.8662 73.6899 12.7364 73.5083 12.6845 73.3092C12.6066 73.0324 12.6672 72.7036 12.8143 72.444C12.8143 72.4353 12.8229 72.4353 12.8229 72.4353C13.0219 72.0892 13.3853 71.8643 13.766 71.7086C14.2333 71.5096 14.7178 71.3884 15.2196 71.3624C15.7215 71.3365 16.2233 71.3884 16.7165 71.5096C16.9674 71.5788 17.2183 71.6653 17.452 71.7864C17.5731 71.847 17.6942 71.9249 17.7981 72.0114C17.9365 72.1152 18.0576 72.2277 18.1528 72.3662C18.1788 72.3921 18.2047 72.4267 18.2134 72.4527C18.2653 72.5392 18.2999 72.6258 18.3345 72.7209C18.4124 72.9892 18.3518 73.3093 18.1961 73.5775Z" fill="#6272A3"/>
<path d="M12.0008 75.6715C11.9835 75.3514 12.1133 75.0053 12.3209 74.7544C12.3209 74.9534 12.3209 75.1437 12.3209 75.3427C12.3209 75.8618 12.7363 76.3119 13.1949 76.6147C13.8092 77.0127 14.4841 77.1338 15.1849 77.1598C16.0761 77.1944 17.0106 77.0818 17.7633 76.6406C17.8845 76.5627 17.997 76.4936 18.1094 76.407C18.3344 76.234 18.4988 76.0177 18.6113 75.7408C18.6719 75.611 18.6978 75.4725 18.6978 75.3427C18.6978 75.1437 18.6978 74.9534 18.6978 74.7544C18.8362 74.9361 18.9487 75.1524 18.992 75.3687C19.0526 75.6715 19.1304 76.0263 18.9833 76.2859C18.793 76.6233 18.5075 77.0733 18.1787 77.2723C17.2442 77.8087 15.929 77.7136 14.8129 77.6011C14.0341 77.5232 13.2554 77.3069 12.6584 76.7964C12.3123 76.5022 12.0181 76.1128 12.0008 75.6715Z" fill="#56648F"/>
<path d="M21.8302 76.4849C21.7091 76.8483 21.5014 77.2117 21.1986 77.5405C20.8957 77.8693 20.5064 78.1722 20.0564 78.4404C19.6757 78.6654 19.2345 78.8556 18.7759 79.0114C18.2221 79.2017 17.6078 79.3403 16.9848 79.4268C16.3532 79.5133 15.6956 79.5479 15.0553 79.5133C14.4064 79.4873 13.7748 79.4008 13.1691 79.271C12.5634 79.1412 12.001 78.9422 11.4905 78.7086C10.9887 78.4749 10.5387 78.1981 10.1753 77.8953C9.8206 77.5838 9.53505 77.2463 9.34469 76.8916C9.16299 76.5368 9.06782 76.1561 9.07647 75.784C9.07647 75.611 9.10243 75.4466 9.13704 75.2822C9.21492 74.988 9.3447 74.6939 9.51775 74.4256C9.6908 74.1574 9.92443 73.8892 10.2013 73.6556C10.4695 73.4219 10.7897 73.2056 11.1444 73.0153C11.4992 72.8249 11.8799 72.6519 12.2952 72.5135C12.399 72.4702 12.5028 72.4442 12.6153 72.4182C12.5894 72.4442 12.5721 72.4789 12.5461 72.5048C12.2779 72.5913 12.0183 72.6865 11.7674 72.799C11.2915 73.0153 10.8502 73.2749 10.4955 73.5691C10.1494 73.8546 9.86385 74.1834 9.68215 74.5208C9.4918 74.8582 9.39661 75.213 9.39661 75.5677C9.38795 75.9225 9.48315 76.2859 9.6562 76.6234C9.8379 76.9608 10.1061 77.2896 10.4522 77.5838C10.7983 77.878 11.2223 78.1375 11.6982 78.3624C12.174 78.5874 12.7191 78.7606 13.2902 78.899C13.8613 79.0288 14.4756 79.1066 15.0813 79.1325C15.6956 79.1585 16.3186 79.1325 16.9069 79.046C17.504 78.9681 18.0923 78.8297 18.6201 78.6567C19.0614 78.501 19.4767 78.3192 19.8401 78.1116C20.2727 77.8607 20.6448 77.5665 20.9303 77.255C21.2159 76.9435 21.4235 76.5974 21.536 76.2513C21.6398 75.9052 21.6658 75.5418 21.5879 75.1871C21.5101 74.8323 21.3543 74.4948 21.0947 74.166C20.8438 73.8459 20.5063 73.5345 20.1083 73.2749C19.7017 73.0067 19.2171 72.773 18.698 72.5913C18.6201 72.5654 18.5509 72.5394 18.473 72.5135C18.4644 72.4962 18.4471 72.4702 18.4298 72.4615C18.4211 72.4442 18.4125 72.4355 18.4038 72.4182C18.6374 72.4874 18.8624 72.5653 19.0787 72.6518C19.4767 72.8076 19.8401 72.9893 20.1776 73.197C20.5064 73.4046 20.8005 73.6383 21.0428 73.8892C21.2937 74.1401 21.4927 74.3996 21.6398 74.6851C21.7004 74.7976 21.7523 74.9101 21.7956 75.0313C21.8042 75.0659 21.8215 75.1005 21.8302 75.1438C21.8475 75.1957 21.8648 75.2476 21.8734 75.2995C21.8821 75.3342 21.8907 75.3688 21.8994 75.4034C21.9686 75.7495 21.9513 76.1302 21.8302 76.4849Z" fill="#6272A3"/>
<path d="M7.63143 81.4856C7.61412 81.5894 7.60547 81.7019 7.60547 81.8057C7.60547 81.7019 7.61412 81.5894 7.63143 81.4856Z" fill="#D3C3A5"/>
<path d="M23.4047 82.0307C23.3874 82.3336 23.3182 82.6277 23.2144 82.9132C23.1019 83.1987 22.9461 83.4757 22.7558 83.7352C22.5654 84.0035 22.3318 84.2544 22.0549 84.488C21.7867 84.7216 21.4925 84.9466 21.1551 85.1456C21.1118 85.1716 21.0685 85.1975 21.0253 85.2234C20.8003 85.3532 20.5581 85.4744 20.3071 85.5869C19.9264 85.7599 19.5284 85.907 19.1044 86.0368C18.6891 86.158 18.2479 86.2618 17.772 86.3483C17.3221 86.4262 16.8462 86.4867 16.3703 86.5213C15.8944 86.5473 15.4185 86.5559 14.9426 86.5386C14.4667 86.5213 13.9908 86.4694 13.5323 86.4002C13.065 86.3309 12.6151 86.2358 12.1825 86.1147C11.7499 86.0022 11.3346 85.8638 10.9452 85.6994C10.5558 85.5436 10.1924 85.3619 9.85497 85.1543C9.51753 84.9466 9.2147 84.7389 8.94648 84.4967C8.93783 84.488 8.92051 84.4793 8.91186 84.462C8.65229 84.2371 8.436 83.9948 8.25429 83.7439C8.05529 83.4757 7.89954 83.1987 7.79572 82.9219C7.68323 82.6363 7.614 82.3421 7.5967 82.048C7.58805 81.9701 7.58805 81.8923 7.5967 81.8058C7.5967 81.9529 7.61399 82.1 7.63995 82.2384C7.70052 82.6104 7.83897 82.9652 8.05528 83.3113C8.26294 83.6574 8.54848 83.9948 8.90323 84.2977C9.25798 84.6005 9.66463 84.8947 10.1319 85.1369C10.5991 85.3879 11.1269 85.6042 11.6807 85.7859C12.2344 85.9589 12.8314 86.106 13.4458 86.2012C14.0601 86.2963 14.7004 86.357 15.332 86.357C15.9636 86.3656 16.6126 86.331 17.2269 86.2445C17.8499 86.1666 18.4555 86.0454 19.0266 85.8724C19.3121 85.7945 19.589 85.6994 19.8486 85.6042C20.1168 85.5004 20.3677 85.3879 20.61 85.2754C20.783 85.1975 20.9388 85.111 21.0859 85.0158C21.7694 84.6264 22.3318 84.1506 22.7212 83.6401C23.1105 83.1382 23.3442 82.5758 23.3874 82.0221C23.3961 81.9442 23.3961 81.8663 23.3961 81.7798C23.4134 81.875 23.4134 81.9529 23.4047 82.0307Z" fill="#56648F"/>
<path d="M23.1106 48.416C23.0327 50.2935 22.8683 51.8943 22.6693 53.3652C22.2713 56.3157 21.7435 58.7816 20.8956 61.1091C20.3591 62.5627 19.018 64.8989 18.0835 66.4477C17.4692 67.4687 15.384 69.0348 15.384 69.0348L14.934 69.303C14.934 69.303 13.9131 69.7269 13.3939 69.7269C12.9959 69.7269 12.5892 69.6491 12.2085 69.4847C11.2394 69.0694 10.0454 68.455 9.47436 67.7975C8.42741 66.5775 7.64868 64.8816 6.84401 62.6406C6.52387 61.7494 6.20371 60.789 5.88357 59.6383L9.39646 59.4998L5.27792 57.2502C4.98373 55.9523 4.68088 54.4381 4.36939 52.647C4.15308 51.4097 3.93678 50.0254 3.70317 48.4766C3.46955 46.9278 3.21862 45.2146 2.94175 43.3111C2.65621 41.4076 2.35339 39.2963 1.98134 36.9688C1.8602 36.1901 1.73041 35.3855 1.59197 34.5462C1.43622 33.5771 1.28913 32.6079 1.15934 31.6389L5.08756 33.5684L0.847869 29.1297C0.545033 26.4129 0.337363 23.6873 0.268143 20.9618C0.250838 20.3388 0.233544 19.7158 0.224891 19.0929C0.207587 18.2622 0.190274 17.4316 0.190274 16.601C0.190274 16.1683 0.181613 15.7444 0.181613 15.3117C0.172961 12.941 0.207576 10.5529 0.268143 8.14749C0.302753 6.9448 0.346028 5.74213 0.38929 4.53944C0.441205 3.33675 0.510406 2.1254 0.614236 0.914062C1.566 1.51108 2.50048 2.13407 3.40899 2.7657C4.31749 3.40598 5.20003 4.0722 6.04797 4.74709C7.5708 5.97574 8.98115 7.26499 10.2963 8.62342L10.9366 14.5849L11.4212 9.83473C15.2628 14.1263 18.0316 19.2746 19.641 24.8122C19.7967 25.34 19.9438 25.8677 20.0822 26.3782C20.3851 27.4857 20.662 28.55 20.9042 29.571C20.5235 31.0852 19.9438 33.2396 19.416 34.3644L21.3022 31.3102C21.3888 31.6909 21.4666 32.0629 21.5358 32.4263C21.9165 34.2779 22.2107 35.9651 22.4357 37.5139C22.6607 39.0713 22.8164 40.4817 22.9289 41.7883C23.1539 44.3753 23.1798 46.5384 23.1106 48.416Z" fill="url(#paint0_linear_562_34063)"/>
<path d="M6.6278 15.3294C6.05674 13.5903 5.48568 11.9463 4.81944 10.2071C4.16185 8.46797 3.50426 6.8327 2.75149 5.11086C2.50057 4.53115 2.241 3.96008 1.97278 3.38037C2.26696 3.99469 2.54385 4.60032 2.82073 5.22329C3.5908 6.94513 4.26568 8.57184 4.94922 10.3023C5.62411 12.0415 6.21247 13.6681 6.80949 15.3986C7.39786 17.1377 7.90837 18.7558 8.41886 20.4949C8.92935 22.2254 9.37062 23.8434 9.81189 25.5566C10.2532 27.2871 10.6339 28.8877 11.0146 30.5923C11.3866 32.3055 11.7154 33.9062 12.0356 35.5934C12.3557 37.2893 12.6326 38.8727 12.9008 40.5512C13.169 42.2298 13.4027 43.8046 13.6276 45.4659C13.8526 47.1271 14.043 48.6932 14.2333 50.3372C14.415 51.9812 14.5707 53.5386 14.7178 55.1652C14.8649 56.7919 14.9861 58.3321 15.0985 59.9501C15.211 61.5594 15.3062 63.0995 15.3841 64.6916C15.4619 66.1279 15.9205 73.0412 15.9724 74.4602C15.8859 74.4862 15.5052 74.4861 15.5052 74.4861C15.5052 74.4861 15.1245 74.4862 14.9687 74.4602C14.9601 74.166 14.8649 68.7496 14.8476 68.4554L14.6919 64.2416C14.6227 62.814 14.5534 61.421 14.4669 59.9587C14.3631 58.3494 14.2592 56.8006 14.1295 55.1739C13.991 53.5472 13.8526 51.9898 13.6882 50.3459C13.5151 48.7019 13.3421 47.1358 13.1344 45.4745C12.9268 43.8133 12.7105 42.2385 12.4509 40.5599C12.2 38.8813 11.9317 37.2893 11.6289 35.5934C11.3261 33.8975 11.0146 32.2968 10.6512 30.5749C10.2964 28.8618 9.92437 27.2524 9.50905 25.5306C9.08508 23.8088 8.66111 22.1821 8.15927 20.4516C7.69204 18.7038 7.19886 17.0772 6.6278 15.3294Z" fill="#B2B2B2"/>
<path d="M12.6067 72.4265C12.5807 72.4525 12.5634 72.4872 12.5375 72.5131C12.2692 72.5996 12.0097 72.6948 11.7587 72.8073C11.2829 73.0236 10.8416 73.2832 10.4868 73.5774C10.1407 73.8629 9.85521 74.1917 9.67351 74.5291C9.48315 74.8665 9.38799 75.2213 9.38799 75.576C9.37933 75.9308 9.4745 76.2941 9.64755 76.6316C9.82925 76.969 10.0975 77.2979 10.4436 77.5921C10.2532 77.6094 10.184 77.869 10.184 77.9036L8.90345 84.3064C8.5487 84.0036 8.27181 83.6661 8.0555 83.32C7.83919 82.9739 7.70074 82.6105 7.64018 82.2471C7.61422 82.1087 7.59692 81.9616 7.59692 81.8145C7.59692 81.7107 7.60557 81.5982 7.61422 81.4944C7.62287 81.3905 7.64018 81.278 7.67479 81.1741C8.15933 79.2187 8.64386 77.2546 9.1284 75.2992C9.20627 75.005 9.33606 74.7108 9.50911 74.4426C9.68216 74.1744 9.91578 73.9061 10.1927 73.6725C10.4609 73.4389 10.781 73.2226 11.1358 73.0322C11.4905 72.8419 11.8712 72.6688 12.2866 72.5303C12.3904 72.4784 12.5029 72.4525 12.6067 72.4265Z" fill="#485377"/>
<path d="M17.5559 71.7346L17.4347 71.7778C17.2011 71.6567 16.9502 71.5702 16.6993 71.501C16.2147 71.3799 15.7042 71.3279 15.2024 71.3539C14.7006 71.3798 14.216 71.4923 13.7488 71.7C13.3767 71.8557 13.0047 72.0807 12.8057 72.4268C12.8057 72.4354 12.797 72.4354 12.797 72.4354C12.6499 72.695 12.5893 73.0238 12.6672 73.3007C12.7191 73.5083 12.8489 73.6814 13.0047 73.8284C12.797 74.0188 12.823 74.2524 12.823 74.2524V76.3377C12.5201 76.0608 12.3038 75.7233 12.3038 75.3426V73.2575C12.3038 73.2748 12.3038 73.3007 12.3038 73.318C12.3038 73.3007 12.3038 73.2748 12.3038 73.2575C12.3038 73.2142 12.3038 73.1796 12.3125 73.1363C12.3211 73.119 12.3211 73.093 12.3211 73.067C12.3384 72.9718 12.3644 72.8681 12.3904 72.7815C12.4163 72.7123 12.4596 72.6258 12.5028 72.5566C12.5115 72.5479 12.5201 72.5307 12.5201 72.5134C12.5461 72.4874 12.5634 72.4527 12.5894 72.4268C12.6067 72.4008 12.6326 72.3749 12.6499 72.3489C12.7018 72.2883 12.7711 72.2105 12.8316 72.1586C12.8922 72.1067 12.9701 72.0375 13.0479 71.9769C13.1172 71.925 13.2037 71.8644 13.2816 71.8211C13.3594 71.7692 13.4719 71.7173 13.5584 71.674C13.6449 71.6307 13.7661 71.5875 13.8613 71.5528C13.9564 71.5182 14.0862 71.475 14.1814 71.4577C14.2852 71.4317 14.415 71.3971 14.5189 71.3798C14.6227 71.3539 14.7525 71.3366 14.8649 71.3193C15.0813 71.302 15.3582 71.276 15.5831 71.2847C15.8254 71.2933 16.0417 71.3019 16.284 71.3452C16.4051 71.3625 16.5089 71.3885 16.6214 71.4145C16.7425 71.4404 16.829 71.4664 16.9415 71.501C17.054 71.5356 17.1405 71.5702 17.2444 71.6048C17.3828 71.6481 17.4607 71.6827 17.5559 71.7346Z" fill="#485377"/>
<path d="M8.92922 84.4798C8.66965 84.2549 8.45333 84.0127 8.27163 83.7617C8.07262 83.4935 7.91688 83.2166 7.81305 82.9397C7.70057 82.6542 7.63134 82.36 7.61403 82.0658C7.60538 81.9879 7.60538 81.91 7.61403 81.8235C7.61403 81.9706 7.63135 82.1177 7.65731 82.2561C7.71788 82.6282 7.8563 82.983 8.07261 83.3291C8.28027 83.6752 8.56581 84.0126 8.92056 84.3154C8.90326 84.3067 8.86865 84.376 8.92922 84.4798Z" fill="#5B4882"/>
<path d="M19.4163 34.3472C19.2779 34.65 19.1394 34.875 19.0096 34.9961L19.4163 34.3472Z" fill="#485377"/>
<g opacity="0.35">
<path opacity="0.35" d="M15.2544 67.6421C16.111 66.7855 16.8291 65.7732 17.4521 64.7176C18.0751 63.662 18.5942 62.5458 19.0355 61.4036C19.2345 60.8239 19.4508 60.2528 19.6066 59.6558C19.6844 59.3616 19.7796 59.0675 19.8488 58.7734L20.0478 57.8735L20.1517 57.4235L20.2296 56.9649L20.3766 56.0565C20.4632 55.4508 20.5151 54.8365 20.5756 54.2222C20.5151 54.8365 20.4718 55.4508 20.3939 56.0565L20.2555 56.9649L20.1863 57.4235L20.0911 57.8735L19.9008 58.7734C19.8315 59.0762 19.745 59.3703 19.6671 59.6645C19.5201 60.2615 19.3037 60.8412 19.1134 61.421C18.6808 62.5717 18.1703 63.6965 17.5559 64.7695C16.933 65.8337 16.2408 66.8547 15.3669 67.7459L15.2544 67.6421Z" fill="white"/>
</g>
<g opacity="0.35">
<path opacity="0.35" d="M14.9428 68.4727C14.9255 68.49 14.8995 68.5159 14.8562 68.5246C14.8389 68.5246 14.8216 68.5246 14.8043 68.5246H14.787L14.7178 68.516C14.6659 68.5074 14.6226 68.5073 14.5794 68.4987C14.4842 68.4814 14.389 68.4727 14.2938 68.4554C14.1035 68.4208 13.9218 68.3688 13.7401 68.3256C13.3767 68.2217 13.0219 68.1007 12.6758 67.9449C11.9836 67.6334 11.3347 67.2441 10.7636 66.7422L10.6512 66.6557C10.6165 66.6211 10.5819 66.5865 10.5473 66.5606L10.3483 66.3615L10.1493 66.1625C10.0801 66.1019 10.0282 66.024 9.9676 65.9462L9.60421 65.5135L9.28408 65.0464L9.12831 64.8127C9.0764 64.7349 9.03313 64.6483 8.98987 64.5704L8.72165 64.0773C8.66973 63.9994 8.63514 63.9129 8.60053 63.8263L8.48804 63.5667L8.27173 63.0476L8.4967 63.5581L8.60919 63.8177C8.6438 63.9042 8.68704 63.9908 8.73031 64.0686L9.00719 64.5618C9.05045 64.6397 9.09372 64.7262 9.14563 64.8041L9.31003 65.0377L9.6388 65.4962L10.0109 65.9203C10.0714 65.9895 10.132 66.0674 10.2012 66.1279L10.4089 66.3183L10.6165 66.5086C10.6511 66.5432 10.6857 66.5691 10.7204 66.6038L10.8328 66.6903C11.4039 67.1748 12.0529 67.5469 12.7364 67.8411C13.0825 67.9882 13.4372 68.1006 13.792 68.1958C13.9737 68.239 14.1554 68.2823 14.3371 68.3083C14.4323 68.3256 14.5188 68.3343 14.614 68.3516C14.6572 68.3602 14.7091 68.3602 14.7524 68.3689L14.8216 68.3775L15.0379 68.3602C15.0379 68.3602 15.0553 68.3862 15.0639 68.4035L14.9428 68.4727Z" fill="white"/>
</g>
<g opacity="0.35">
<path opacity="0.35" d="M14.8909 63.2203C15.3668 62.8829 15.7907 62.4416 16.1628 61.9744C16.258 61.8619 16.3531 61.7408 16.4397 61.6196L16.7079 61.2563C16.8636 61.0054 17.0367 60.7545 17.1924 60.4949C17.3395 60.2353 17.4866 59.9757 17.625 59.7075L18.0144 58.8941C18.2394 58.3403 18.4816 57.7866 18.6633 57.2069C18.871 56.6445 19.0181 56.0561 19.1825 55.4764C19.269 55.1909 19.3209 54.888 19.3902 54.5939L19.5805 53.7113C19.6757 53.1143 19.7795 52.5173 19.8747 51.9203L20.0823 50.1206L19.9006 51.9203C19.8141 52.5173 19.7189 53.1143 19.6324 53.7113L19.4507 54.6025C19.3902 54.8967 19.3382 55.1995 19.2517 55.4851C19.096 56.0648 18.9489 56.6532 18.7499 57.2242C18.5768 57.8039 18.3432 58.3663 18.1182 58.9287L17.7375 59.7508C17.6077 60.019 17.452 60.2872 17.3136 60.5554C17.1665 60.8236 16.9934 61.0746 16.8377 61.3341L16.5694 61.7061C16.4829 61.8273 16.3964 61.9571 16.2926 62.0696C15.9119 62.5455 15.5052 62.9954 15.0034 63.3674L14.8909 63.2203Z" fill="white"/>
</g>
<g opacity="0.35">
<path opacity="0.35" d="M14.891 67.815C14.1295 67.5295 13.3422 67.1055 12.6759 66.6556C12.5115 66.5345 12.3471 66.4306 12.1827 66.3095L11.7069 65.9374L11.2569 65.5394C11.1012 65.4096 10.9714 65.2539 10.8243 65.1154L10.6166 64.8991L10.4177 64.6742C10.2879 64.5184 10.1494 64.38 10.0283 64.2156L9.66488 63.7311L9.57837 63.6099L9.5005 63.4801L9.3361 63.2292L9.17171 62.9783L9.09384 62.8485L9.0246 62.7187L8.74772 62.1909C8.64389 62.0179 8.57469 61.8275 8.49682 61.6458L8.26318 61.092L8.50545 61.6371C8.59198 61.8189 8.66121 62.0092 8.76504 62.1823L9.05056 62.71L9.11979 62.8399L9.2063 62.961L9.3707 63.212L9.53509 63.4628L9.62162 63.5839L9.71681 63.7051L10.0802 64.181C10.2013 64.3368 10.3398 64.4838 10.4782 64.6309L10.6772 64.8558L10.8935 65.0635C11.0406 65.2019 11.1791 65.3491 11.3262 65.4702L11.7847 65.8595L12.2606 66.223C12.4164 66.3441 12.5894 66.448 12.7538 66.5604C13.42 66.9931 14.1296 67.3738 14.8737 67.6333L14.891 67.815Z" fill="white"/>
</g>
<g opacity="0.35">
<path opacity="0.35" d="M13.9823 51.5657C13.0565 51.2023 12.174 50.761 11.3087 50.2851C10.4435 49.8093 9.61284 49.2728 8.81681 48.6845C8.4188 48.3903 8.03808 48.0788 7.66602 47.75C7.29397 47.4212 6.93923 47.0751 6.60179 46.7117C6.273 46.3483 5.95284 45.9676 5.66731 45.5609C5.38178 45.1543 5.13086 44.7303 4.91455 44.2891C5.13951 44.7303 5.3991 45.1456 5.68463 45.5436C5.97881 45.9416 6.29895 46.3136 6.62774 46.677C6.96519 47.0318 7.32858 47.3693 7.70064 47.6894C8.0727 48.0096 8.46205 48.3124 8.86006 48.598C9.65609 49.169 10.4954 49.6881 11.3606 50.1553C12.2259 50.6226 13.1171 51.0466 14.0342 51.3927L13.9823 51.5657Z" fill="white"/>
</g>
<g opacity="0.35">
<path opacity="0.35" d="M13.9651 50.6227C13.0133 49.8959 12.0962 49.1258 11.205 48.3298C10.3138 47.5338 9.43989 46.7205 8.61791 45.8552C8.41025 45.6476 8.21125 45.4226 8.00359 45.2063C7.80458 44.99 7.59692 44.7736 7.40657 44.54L6.82684 43.8566L6.2731 43.147C5.55495 42.1952 4.89735 41.1915 4.39551 40.1013C4.906 41.1829 5.58091 42.1779 6.30772 43.121L6.87012 43.8219L7.45848 44.4968C7.64884 44.7218 7.8565 44.9381 8.06416 45.1544C8.27182 45.3707 8.47083 45.587 8.68714 45.7947C9.51778 46.6513 10.4003 47.4559 11.3002 48.2346C12.2 49.0134 13.1258 49.7748 14.0776 50.4843L13.9651 50.6227Z" fill="white"/>
</g>
<g opacity="0.35">
<path opacity="0.35" d="M13.593 20.7368C13.6363 21.827 13.6623 22.9173 13.6017 24.0161C13.5844 24.5612 13.5238 25.1063 13.4805 25.6515C13.4113 26.1966 13.3594 26.7417 13.2729 27.2781C13.1171 28.3597 12.9008 29.4326 12.6499 30.4968C12.3903 31.5611 12.1048 32.6167 11.7328 33.6463L11.5857 33.5771C12.0529 32.6946 12.4596 31.7687 12.8316 30.8343C13.2037 29.8998 13.5325 28.948 13.818 27.9876C14.1122 27.0271 14.3371 26.0408 14.5188 25.0544L14.6486 24.3103C14.6832 24.0594 14.7092 23.8084 14.7438 23.5575L14.7871 23.1855C14.7957 23.0644 14.8044 22.9346 14.813 22.8048L14.8563 22.052L14.8303 22.8048C14.8217 22.9346 14.8217 23.0557 14.813 23.1855L14.7784 23.5662C14.7525 23.8171 14.7352 24.068 14.7005 24.3189L14.5881 25.0717C14.4237 26.0667 14.2074 27.0531 13.9305 28.0222C13.6536 28.9913 13.3335 29.9517 12.9614 30.8948C12.5894 31.8379 12.1827 32.7551 11.7155 33.655L11.5684 33.5857C11.9318 32.5647 12.2346 31.5091 12.4855 30.4535C12.7451 29.3979 12.9527 28.325 13.1258 27.2521C13.221 26.7157 13.2815 26.1706 13.3508 25.6341C13.4027 25.089 13.4719 24.5526 13.4979 24.0075C13.6103 22.9173 13.6103 21.827 13.593 20.7368Z" fill="white"/>
</g>
<g opacity="0.35">
<path opacity="0.35" d="M1.9817 9.29848C2.66525 9.91281 3.34012 10.5272 4.01501 11.1588C4.6899 11.7818 5.34749 12.4134 6.02238 13.045L5.90126 13.1488C5.55516 12.7249 5.21772 12.3009 4.87162 11.8769L3.85064 10.5964C3.17574 9.73976 2.50085 8.88317 1.84326 8.00928C2.56141 8.83126 3.25361 9.67056 3.95446 10.5098L4.99274 11.7731C5.33884 12.197 5.68494 12.6124 6.02238 13.045L5.90126 13.1488C5.24367 12.5086 4.57744 11.8769 3.9285 11.2366C3.27957 10.5963 2.62199 9.94742 1.9817 9.29848Z" fill="#56648F"/>
</g>
<path d="M21.0601 77.3931C20.7054 77.9641 20.1516 78.3968 19.5632 78.7083C18.9662 79.0284 18.3173 79.2274 17.6597 79.3658C16.3359 79.6081 14.9601 79.5822 13.6796 79.1842C14.9947 79.3918 16.3272 79.4005 17.6164 79.1409C18.2654 79.0197 18.8883 78.8208 19.4853 78.5526C20.0737 78.2757 20.6448 77.9122 21.0601 77.3931Z" fill="white"/>
<path d="M18.4298 73.3872C18.473 73.7593 18.2567 74.1313 17.9712 74.3736C17.6857 74.6245 17.3309 74.7803 16.9762 74.9014C16.6128 74.9966 16.2407 75.0572 15.8773 75.0485C15.5053 75.0399 15.1246 74.9966 14.7871 74.8755C15.1592 74.8582 15.5139 74.8928 15.8687 74.8755C16.2234 74.8409 16.5782 74.7889 16.9156 74.6851C17.253 74.5899 17.5818 74.4429 17.8587 74.2439C18.1442 74.0362 18.3865 73.7506 18.4298 73.3872Z" fill="white"/>
<defs>
<linearGradient id="paint0_linear_562_34063" x1="28.1847" y1="56.5044" x2="-13.4005" y2="14.9189" gradientUnits="userSpaceOnUse">
<stop stop-color="#6476EE"/>
<stop offset="0.0756" stop-color="#5B6ADC"/>
<stop offset="0.2322" stop-color="#4A54BC"/>
<stop offset="0.3949" stop-color="#3D43A3"/>
<stop offset="0.5641" stop-color="#343791"/>
<stop offset="0.7438" stop-color="#2F3086"/>
<stop offset="0.952" stop-color="#2D2E83"/>
</linearGradient>
</defs>
</svg>
