<svg width="78" height="52" viewBox="0 0 78 52" fill="none" xmlns="http://www.w3.org/2000/svg">
<g opacity="0.2">
<path opacity="0.2" d="M1.54394 34.3228L0.817139 32.8518L23.0972 23.8879L27.8993 17.4678L28.8424 17.1304V16.7151L29.7855 16.7929L50.2572 9.41235L77.4865 20.3317L76.0848 21.6469L75.3666 23.9312L56.6341 34.3833L56.487 34.4699C55.8553 34.842 55.3102 34.8593 54.9728 34.5737C54.6353 35.1708 54.1422 35.7072 53.5797 36.0446L52.4463 36.7195V36.7282L52.3078 36.8147C51.7022 37.1694 51.1657 37.1867 50.8456 36.9185C50.5168 37.4896 48.5008 39.4883 47.9557 39.8084V39.8171L47.6442 39.9987L46.8568 40.466V40.4573L27.6916 51.7228L1.30167 36.0446L1.54394 34.3228Z" fill="#000202"/>
</g>
<path d="M48.6216 32.9381C47.5401 31.8566 46.5537 30.6712 45.6279 29.4512L22.448 19.9854L2.11475 27.3659L2.13205 31.8652L27.9596 47.2492L48.2669 35.3349C48.8553 34.9888 49.3398 34.3225 49.5388 33.6996C49.2187 33.4659 48.9072 33.215 48.6216 32.9381Z" fill="white"/>
<path d="M45.2559 31.2252L50.9751 33.6565L50.7329 35.1533L54.5659 32.6441L54.3755 31.6578L51.3645 30.2993C51.3645 30.2907 49.4609 28.2661 45.2559 31.2252Z" fill="#A82A43"/>
<path d="M50.9667 33.6478L29.9845 45.9862L2.6687 29.7542L25.0526 21.6902L50.9667 33.6478Z" fill="#931936"/>
<path d="M43.9841 33.3278L49.0891 36.0707L50.3091 35.1535L50.1187 34.1584L47.1077 32.8C47.1077 32.8 48.1806 30.3687 43.9841 33.3278Z" fill="#A82A43"/>
<path d="M49.1236 36.7454L28.1415 49.0838L0.825684 32.8518V31.8049L49.1236 35.6985V36.7454Z" fill="#BA3246"/>
<path d="M28.1415 48.0369V49.0838L0.825684 32.8518V31.8049L28.1415 48.0369Z" fill="#A82A43"/>
<path d="M49.1236 35.6982L28.1415 48.0366L0.825684 31.8046L23.2096 23.7319L49.1236 35.6982Z" fill="#931936"/>
<path d="M47.8347 30.5846L22.457 19.9854L2.12378 27.3659L2.14109 31.8652L27.9686 47.2492C27.9686 47.2492 43.7853 38.1987 46.1647 36.425C48.4144 34.7464 50.5342 32.6613 51.062 33.6996L53.6145 32.2719C50.664 29.0186 47.8347 30.5846 47.8347 30.5846Z" fill="#EAEAEA"/>
<path d="M28.0033 42.3867L2.12378 27.3748L2.14109 31.8741L27.9686 47.2581L28.0033 42.3867Z" fill="#CCCCCC"/>
<path d="M47.8347 30.5847L27.8821 42.3088L2.12378 27.3747L21.9638 15.4949L47.8347 30.5847Z" fill="#E3E3E3"/>
<path d="M75.098 16.2911C74.7172 15.8325 74.3452 15.3652 73.9904 14.8894L50.8105 3.56323L30.4773 10.9438L30.5033 15.443L56.3308 30.8271L75.098 19.8126V16.2911Z" fill="white"/>
<path d="M74.5704 16.888L53.4151 5.26782L31.0312 13.3319L58.347 29.5639L74.5704 20.0288V16.888Z" fill="#931936"/>
<path d="M77.4862 20.3232L56.504 32.6616L29.1882 16.4296V15.3827L49.8157 2.55981L77.4862 19.2763V20.3232Z" fill="#BA3246"/>
<path d="M56.504 31.6143V32.6612L29.1882 16.4292V15.3823L56.504 31.6143Z" fill="#A82A43"/>
<path d="M77.4862 19.2765L55.3878 32.2725L28.2451 16.1357L52.8613 4.76636L77.4862 19.2765Z" fill="#931936"/>
<path d="M76.2145 16.0227L50.8196 3.57178L30.4863 10.9523L30.5123 15.4516C30.5123 15.4516 46.4847 31.7701 53.6143 32.272C56.1322 28.6726 58.6327 29.4858 63.3916 26.8036C67.1294 24.6924 72.5805 21.491 76.2145 19.3538V16.0227Z" fill="#EAEAEA"/>
<path d="M76.2147 16.0228C76.2147 16.0228 66.2384 21.0412 56.4784 24.7704C54.7826 25.4194 52.0051 27.4786 52.0051 30.9223C47.1251 28.0929 29.2319 18.5926 26.316 15.6421C26.0132 12.9512 28.1849 10.6237 30.2788 9.81041C39.3639 6.23695 50.3439 0.94165 50.3439 0.94165L76.2147 16.0228Z" fill="#E3E3E3"/>
<path d="M52.1088 29.7974C52.1953 29.3302 52.3338 28.8976 52.5068 28.4909L26.6273 13.3923C26.3505 14.0932 26.2293 14.846 26.3159 15.6334C29.0846 18.4368 46.1732 27.6083 52.005 30.9135C51.9963 30.9222 51.9963 30.5156 52.1088 29.7974Z" fill="#EFEFEF"/>
<path d="M56.2962 31.7269C55.5261 32.1854 55.2579 31.9605 55.2579 31.1904V31.1731L54.3667 31.6836L54.3754 31.7095C54.1937 32.3844 53.6745 33.1199 53.0429 33.492L52.1776 34.0025L51.97 34.1149C51.2172 34.5649 50.9663 34.4178 50.9663 33.6563V33.639L50.101 34.1323L50.1097 34.1581C49.9367 34.8157 49.4262 35.5166 48.8205 35.88L47.9812 36.3732V37.4201L49.1233 36.7452C49.6857 36.4164 50.1789 35.8714 50.5164 35.2743C50.8538 35.5512 51.3989 35.5426 52.0306 35.1705L52.1776 35.084L53.3544 34.3918C53.9341 34.0457 54.4446 33.4833 54.7993 32.8689C55.1454 33.1545 55.7078 33.1458 56.3568 32.7565L56.5039 32.67V31.623L56.2962 31.7269Z" fill="#BA3246"/>
<path d="M47.4796 30.7927C47.4796 30.7927 49.5735 29.4774 52.0048 30.9224C48.5006 28.8371 27.1723 16.1095 26.731 15.8586C24.0141 14.2925 21.9722 15.4951 21.9722 15.4951L30.7371 23.9139L47.4796 30.7927Z" fill="#FCFCFC"/>
<path d="M45.7406 31.8136L28.0031 42.3869L2.23608 27.4441L28.055 41.0717L45.7406 31.8136Z" fill="white"/>
<g opacity="0.2">
<path opacity="0.2" d="M15.6304 22.1752C15.6304 21.8032 15.8726 21.3619 16.1755 21.1888C16.3312 21.1023 16.4783 21.1023 16.5735 21.1802L38.8708 34.1502C38.9055 34.1761 38.9314 34.2022 38.9574 34.2368L39.8486 35.275L39.1131 35.7163L38.2133 35.5778C38.196 35.5778 38.1787 35.5778 38.1613 35.5692H38.1527C38.1527 35.5605 38.144 35.5605 38.144 35.5605L15.8121 22.5733C15.6996 22.5127 15.6304 22.3742 15.6304 22.1752Z" fill="#000202"/>
</g>
<path d="M16.1497 21.4915C16.1497 21.1195 16.3919 20.6782 16.6948 20.5051C16.8505 20.4099 16.9976 20.4099 17.0928 20.4878L39.3901 33.4578L39.3815 33.9164C39.1479 34.2365 38.9056 34.548 38.672 34.8682L16.34 21.8808C16.2275 21.8203 16.1497 21.6905 16.1497 21.4915Z" fill="#E36F00"/>
<path d="M38.6805 34.877L16.3486 21.8896C16.2361 21.8291 16.1582 21.6992 16.1582 21.5002C16.1582 21.3445 16.2101 21.1715 16.288 21.0071L39.1218 34.2886C38.9747 34.4789 38.819 34.678 38.6805 34.877Z" fill="#DD6400"/>
<path d="M38.4641 34.4703C38.4641 34.0982 38.7064 33.6569 39.0092 33.4839C39.2169 33.3627 39.3899 33.406 39.4851 33.5617L40.9301 35.223L38.7496 34.8942C38.7323 34.8942 38.715 34.8856 38.6977 34.8856H38.6891C38.5506 34.8336 38.4641 34.6866 38.4641 34.4703Z" fill="#E2D9C3"/>
<path d="M39.5806 35.0068C39.5892 34.704 39.7623 34.3406 39.9959 34.1416L40.9217 35.2145L39.5806 35.0068Z" fill="#353D47"/>
</svg>
