<svg width="97" height="72" viewBox="0 0 97 72" fill="none" xmlns="http://www.w3.org/2000/svg">
<path opacity="0.3" d="M41.1976 10.3545C41.1976 10.3545 34.4227 28.9486 38.2904 42.4291L16.6073 58.6697L11.8831 60.677L7.91164 63.2296L5.91293 62.3643L6.10329 62.2259L5.88698 62.1307L5.73987 62.2432L5.07364 61.5769C4.79676 61.3 4.08725 61.3087 3.70654 61.5942L3.49889 61.7499C3.10953 62.0441 3.28257 62.4335 3.83632 62.5027L5.15151 62.6845L5.02173 62.7796L5.23804 62.8748L5.41974 62.745L7.3752 63.5757L1.604 67.2875L10.317 71.0168L12.8176 68.819L14.574 69.6151L14.3837 69.7621L14.6086 69.8573L14.7471 69.7448L15.4133 70.411C15.6902 70.6966 16.3997 70.6792 16.789 70.3937L16.9967 70.2467C17.3861 69.9612 17.2043 69.5718 16.6506 69.4939L15.3354 69.3122L15.4652 69.217L15.2489 69.1218L15.0672 69.2516L13.2761 68.4297L17.3082 64.8821L19.0646 65.6782L18.8743 65.8253L19.0993 65.9205L19.2377 65.808L19.9039 66.4742C20.1808 66.7511 20.8903 66.7425 21.2797 66.4569L21.4873 66.3098C21.8767 66.0243 21.695 65.6262 21.1499 65.5484L19.8347 65.3667L19.9645 65.2715L19.7395 65.185L19.5578 65.3147L17.7754 64.4928L18.7618 63.6189L20.8817 60.504L42.5647 44.2634C66.5406 42.6886 96.2791 33.9324 96.2791 33.9324L41.1976 10.3545Z" fill="#121214"/>
<path d="M95.1542 24.5357L40.1073 0.975098C40.6264 5.30132 50.1355 19.8548 61.8595 28.6197L41.2321 33.2488L41.5955 36.2858C41.5955 36.2858 64.0659 44.0037 88.9417 33.2488V33.2401C93.1468 30.8434 95.4656 27.1228 95.1542 24.5357Z" fill="#603913"/>
<path d="M42.7896 30.3589L45.8699 31.674L41.4225 34.8754L41.5956 36.2858L19.9125 52.5005L15.6555 50.6835L42.7896 30.3589Z" fill="#3C2415"/>
<path d="M14.626 49.931L18.883 51.7567L19.7396 51.1164L15.4826 49.2908L14.626 49.931Z" fill="#291B17"/>
<path d="M19.0473 53.1495L18.8829 51.7565L19.7395 51.1162L19.9126 52.5006L19.0473 53.1495Z" fill="#291B17"/>
<path d="M5.06489 54.413L5.16006 54.4043L5.07355 53.6776L4.77071 53.7987L4.39 53.842L4.12178 53.5737C4.01795 53.4699 3.8449 53.418 3.6632 53.3921H3.65454C3.43823 53.3661 3.20462 53.392 2.98831 53.4699L2.27014 53.5564L2.33072 54.0929C2.33937 54.2832 2.52973 54.4562 2.87582 54.4995L4.05254 54.6639L4.06986 54.7764L4.28618 54.8716L4.45921 54.7418L7.53084 56.057L8.01538 55.6935L5.06489 54.413Z" fill="black"/>
<path d="M4.04397 53.0284L4.7102 53.6946L4.8573 53.5908L5.07361 53.686L4.88326 53.8331L7.95486 55.1482L7.47033 55.5203L4.39872 54.2051L4.217 54.3349L4.00069 54.2398L4.1305 54.1446L2.81531 53.9628C2.26155 53.8936 2.08852 53.4956 2.47788 53.2101L2.68553 53.063C3.05758 52.7515 3.76709 52.7429 4.04397 53.0284Z" fill="#242424"/>
<path d="M9.19224 61.6376L17.6197 54.2311L18.883 51.7566L14.626 49.9309L10.7583 51.298L0.479248 57.9084L9.19224 61.6376Z" fill="#FF8400"/>
<path d="M37.1657 33.0498C37.979 33.3959 40.618 34.5207 41.4227 34.8754C65.3986 33.3093 95.1457 24.5444 95.1457 24.5444L40.0729 0.975098C40.0729 0.975098 33.298 19.5606 37.1657 33.0498Z" fill="url(#paint0_linear_562_33683)"/>
<path d="M45.6969 30.281L45.7316 30.5666L42.2879 34.4602L41.2236 35.2562L41.0679 34.6592L45.6969 30.281Z" fill="#3C2415"/>
<path d="M42.6253 28.9661L45.6969 30.2811L42.1753 34.3132L19.7395 51.1163L15.4825 49.2907L42.6253 28.9661Z" fill="#754C29"/>
<path d="M36.5946 33.4826L40.8516 35.2996L41.7082 34.6593L37.4512 32.8423L36.5946 33.4826Z" fill="#A3A3A3"/>
<path d="M46.2075 23.9649C48.1802 22.494 51.6066 22.0787 53.8736 23.0477C56.1318 24.0168 56.3741 25.9982 54.4013 27.4691C52.4286 28.94 49.0022 29.3554 46.7353 28.3863C44.477 27.4173 44.2434 25.4359 46.2075 23.9649Z" fill="#754C29"/>
<path d="M53.9427 25.4356C53.8303 24.9597 53.415 24.5357 52.7401 24.2415C51.2172 23.5926 48.9243 23.8696 47.6005 24.8559C47.0122 25.3059 46.7093 25.8076 46.7093 26.3008C46.5536 25.7298 46.8391 25.0808 47.5659 24.5357C48.8811 23.5493 51.1826 23.2725 52.7055 23.9214C53.5361 24.2848 53.9514 24.8472 53.9427 25.4356Z" fill="#3C2415"/>
<path d="M53.9427 25.4357C53.9427 25.9289 53.6485 26.4394 53.0601 26.8807C51.7363 27.8758 49.4347 28.1439 47.9206 27.495C47.2457 27.2008 46.8304 26.7769 46.7092 26.301C46.7092 25.8078 47.0121 25.2974 47.6004 24.8561C48.9156 23.8697 51.2172 23.5927 52.74 24.2417C53.4149 24.5359 53.8215 24.9598 53.9427 25.4357Z" fill="#121214"/>
<path d="M52.1603 14.7935L67.7866 20.5559L67.8731 21.3087L67.0944 21.8971L52.2468 15.5462L52.1603 14.7935Z" fill="#3C2415"/>
<path d="M52.939 14.2048L67.7866 20.5557L67.0079 21.1441L52.1603 14.7932L52.939 14.2048Z" fill="#754C29"/>
<path d="M64.2218 11.1938L70.7371 13.7376L70.7804 14.1184L70.5814 14.2654L64.2737 11.5658L64.2218 11.1938Z" fill="#3C2415"/>
<path d="M64.4295 11.0378L70.7371 13.7374L70.5381 13.8932L64.2218 11.1936L64.4295 11.0378Z" fill="#754C29"/>
<path d="M32.173 36.7791L36.4386 38.6047L36.1358 38.8297L31.8788 37.0127L32.173 36.7791Z" fill="#C7C7C7"/>
<path d="M27.9595 39.9458L32.2165 41.7715L31.9136 41.9964L27.6566 40.1708L27.9595 39.9458Z" fill="#C7C7C7"/>
<path d="M23.7281 43.1128L27.9851 44.9384L27.6909 45.1634L23.4253 43.3378L23.7281 43.1128Z" fill="#C7C7C7"/>
<path d="M19.5061 46.2793L23.7631 48.1051L23.4603 48.3299L19.2032 46.5043L19.5061 46.2793Z" fill="#C7C7C7"/>
<path d="M68.7816 13.4868L69.0326 13.5906L18.5888 50.9778L14.5395 54.5253L14.2712 54.4301L18.3292 50.874L68.7816 13.4868Z" fill="white"/>
<path d="M65.8831 12.2492L15.8027 50.1037L8.50008 54.9145L8.25781 54.802L15.5605 49.9912L65.6322 12.1367L65.8831 12.2492Z" fill="white"/>
<path d="M67.2846 12.8464L67.5356 12.9503L7.82503 57.6747L7.58276 57.5709L12.4454 53.9282L67.2846 12.8464Z" fill="white"/>
<path d="M9.11423 54.7674L8.98444 53.7205L7.50488 53.8935L7.63466 54.9404C7.64332 55.0529 7.72983 55.1481 7.89423 55.2173C8.19706 55.3471 8.67297 55.2952 8.94119 55.0962C9.07963 55.001 9.13153 54.8799 9.11423 54.7674Z" fill="#3C2415"/>
<path d="M8.31833 56.4805L6.83875 56.6536L6.96855 57.7092C6.98586 57.8216 7.07236 57.9168 7.21945 57.986C7.53094 58.1244 7.99819 58.0638 8.26642 57.8648C8.40486 57.761 8.45677 57.6485 8.44811 57.536L8.31833 56.4805Z" fill="#3C2415"/>
<path d="M15.0153 53.3398L13.5358 53.5215L13.6655 54.5685C13.6742 54.6724 13.7694 54.7761 13.9165 54.8454C14.228 54.9751 14.6952 54.9146 14.9634 54.7156C15.1019 54.6117 15.1538 54.4906 15.1451 54.3868L15.0153 53.3398Z" fill="#3C2415"/>
<path d="M7.69524 53.5646C7.96346 53.3656 8.43069 53.3137 8.74218 53.4435C9.05367 53.5733 9.08826 53.8502 8.81139 54.0492C8.54316 54.2482 8.07593 54.3001 7.76445 54.1703C7.45296 54.0405 7.42701 53.7723 7.69524 53.5646Z" fill="#754C29"/>
<path d="M7.02054 56.3335C7.28877 56.1345 7.75599 56.074 8.06748 56.2125C8.37897 56.3423 8.41357 56.6191 8.13669 56.8181C7.86846 57.0171 7.40124 57.0777 7.08975 56.9393C6.78692 56.8008 6.75232 56.5325 7.02054 56.3335Z" fill="#754C29"/>
<path d="M13.7176 53.1842C13.9858 52.9852 14.4617 52.9246 14.7645 53.0544C15.076 53.1842 15.1106 53.461 14.8338 53.66C14.5655 53.8591 14.0983 53.9196 13.7868 53.7899C13.4753 53.6601 13.4494 53.3919 13.7176 53.1842Z" fill="#754C29"/>
<path d="M20.648 57.3545L19.8606 57.4497L18.9954 57.3285L18.9175 56.7143L18.3464 56.8959L18.381 57.1642L16.2439 56.3076L16.3044 56.8008L17.8705 57.5103L17.8965 57.7525L18.1215 57.8477L18.2599 57.7438L18.9261 58.4101C19.203 58.687 19.9125 58.6698 20.3019 58.3842L20.5095 58.2371C20.6739 58.116 20.7345 57.9775 20.7085 57.8477H20.7172L20.648 57.3545Z" fill="black"/>
<path d="M18.8655 57.917L18.1992 57.2507L18.0608 57.3545L17.8358 57.268L18.0262 57.1209L16.2351 56.3163L16.685 55.9182L18.5107 56.7576L18.6924 56.6278L18.9174 56.7229L18.7876 56.8181L20.1028 56.9998C20.6479 57.0776 20.8295 57.467 20.4402 57.7612L20.2325 57.9083C19.8518 58.1852 19.1423 58.1939 18.8655 57.917Z" fill="#242424"/>
<path d="M16.1574 61.2914L15.37 61.3866L14.4961 61.2741L14.4269 60.6597L13.8558 60.8415L13.8905 61.1183L11.7533 60.2617L11.8138 60.755L13.3886 61.4644L13.4146 61.7067L13.6395 61.8019L13.778 61.6981L14.4442 62.3643C14.7211 62.6412 15.4306 62.6325 15.8199 62.347L16.0276 62.1912C16.192 62.0701 16.2439 61.9317 16.2266 61.8019H16.2353L16.1574 61.2914Z" fill="black"/>
<path d="M14.375 61.8624L13.7087 61.1963L13.5703 61.3001L13.3453 61.2048L13.5357 61.0578L11.7446 60.2531L12.1945 59.8464L14.0202 60.6857L14.2019 60.5559L14.4182 60.6512L14.2885 60.7463L15.6036 60.928C16.1574 61.0059 16.3304 61.3866 15.9497 61.6808L15.7421 61.8279C15.3613 62.1307 14.6605 62.1393 14.375 61.8624Z" fill="#242424"/>
<defs>
<linearGradient id="paint0_linear_562_33683" x1="66.2338" y1="32.7349" x2="63.2772" y2="-1.0591" gradientUnits="userSpaceOnUse">
<stop stop-color="#EEDA76"/>
<stop offset="0.2835" stop-color="#F1D675"/>
<stop offset="0.5535" stop-color="#F9CB70"/>
<stop offset="0.6452" stop-color="#FDC56E"/>
</linearGradient>
</defs>
</svg>
