<svg width="59" height="71" viewBox="0 0 59 71" fill="none" xmlns="http://www.w3.org/2000/svg">
<path opacity="0.3" d="M19.0915 37.02L0.0993652 47.9827L39.3469 70.6088L58.339 59.6375L19.0915 37.02Z" fill="#121214"/>
<path d="M39.3465 69.06L2.79858 47.9827V46.3906L39.3465 67.468V69.06Z" fill="#545454"/>
<path d="M55.6392 59.6548L39.3467 69.06V67.468L55.6392 58.0627V59.6548Z" fill="#636363"/>
<path d="M55.6393 58.0627L39.3468 67.4679L2.79883 46.3906L19.0914 36.9854L55.6393 58.0627Z" fill="#7D7D7D"/>
<path d="M38.0315 65.1843L6.104 46.7719V45.4395L38.0315 63.8519V65.1843Z" fill="#545454"/>
<path d="M51.6935 57.2932L38.0312 65.1842V63.8517L51.6935 55.9607V57.2932Z" fill="#636363"/>
<path d="M51.694 55.9603L38.0318 63.8513L6.10425 45.4389L19.7665 37.5479L51.694 55.9603Z" fill="#949494"/>
<path d="M27.9601 55.4065L9.58228 44.7207V33.2476L27.9601 43.9333V55.4065Z" fill="#CCCCCC"/>
<path d="M27.9601 46.3733L9.58228 35.6875V33.2476L27.9601 43.9333V46.3733Z" fill="#B8B8B8"/>
<path d="M13.381 22.9682L13.4849 22.9077C14.428 22.3626 15.3105 22.1549 16.0546 22.2501C16.444 22.2933 16.7987 22.4318 17.1102 22.6394L27.9517 28.9125V44.7551L8.39722 33.4464V31.5947C8.40587 28.4193 10.6382 24.5603 13.381 22.9682Z" fill="#603913"/>
<path d="M21.7652 44.5735C21.7305 44.6254 21.7219 44.686 21.7219 44.7638V49.1074L22.3881 49.4881V49.713L21.5316 49.2198V44.885C21.5229 44.686 21.6181 44.5735 21.7652 44.5735Z" fill="#7A7A7A"/>
<path d="M21.9463 44.6342L21.9549 44.6428C22.1885 44.7813 22.3789 45.1101 22.3789 45.3783V49.4969L21.7126 49.1162V44.7726C21.7126 44.6948 21.73 44.6342 21.7559 44.5823C21.8165 44.5823 21.8857 44.5996 21.9463 44.6342Z" fill="#0F2034"/>
<path opacity="0.2" d="M22.3793 45.7069L21.7217 46.1654V45.8539L22.3793 45.3867V45.7069Z" fill="white"/>
<path opacity="0.2" d="M22.3793 48.4583L21.7217 48.9169V48.6054L22.3793 48.1382V48.4583Z" fill="white"/>
<path opacity="0.2" d="M22.3793 47.8875L21.7217 48.3461V47.4981L22.3793 47.0396V47.8875Z" fill="white"/>
<path opacity="0.2" d="M22.3616 45.2304L21.7126 45.6803V45.1092L22.1453 44.8064C22.3183 45.0141 22.3616 45.2304 22.3616 45.2304Z" fill="white"/>
<path d="M17.6985 42.2373C17.6725 42.2892 17.6552 42.3498 17.6552 42.4276V46.7712L18.3214 47.1519V47.3768L17.4648 46.8836V42.5315C17.4648 42.3411 17.56 42.2286 17.6985 42.2373Z" fill="#7A7A7A"/>
<path d="M17.8869 42.2892C18.1292 42.4277 18.3196 42.7564 18.3196 43.0333V47.1519L17.6533 46.7712V42.4277C17.6533 42.3498 17.6706 42.2892 17.6966 42.2373C17.7572 42.2373 17.8177 42.2546 17.8869 42.2892Z" fill="#0F2034"/>
<path opacity="0.2" d="M18.3213 43.3621L17.655 43.8207V43.5092L18.3213 43.042V43.3621Z" fill="white"/>
<path opacity="0.2" d="M18.3213 46.1137L17.655 46.5723V46.2608L18.3213 45.8022V46.1137Z" fill="white"/>
<path opacity="0.2" d="M18.3213 45.5425L17.655 46.0011V45.1532L18.3213 44.6946V45.5425Z" fill="white"/>
<path opacity="0.2" d="M18.3032 42.8854L17.6543 43.3353V42.7643L18.0869 42.4614C18.26 42.6691 18.3032 42.8854 18.3032 42.8854Z" fill="white"/>
<path d="M13.9777 40.083C13.9431 40.1349 13.9345 40.1955 13.9345 40.2734V44.6169L14.6007 44.9976V45.2226L13.7441 44.7294V40.3858C13.7441 40.1955 13.8393 40.083 13.9777 40.083Z" fill="#7A7A7A"/>
<path d="M14.166 40.1436H14.1747C14.4083 40.282 14.5986 40.6108 14.5986 40.879V44.9976L13.9324 44.6169V40.2734C13.9324 40.1955 13.9497 40.1349 13.9756 40.083C14.0362 40.083 14.0968 40.109 14.166 40.1436Z" fill="#0F2034"/>
<path opacity="0.2" d="M14.6006 41.2166L13.9343 41.6752V41.3551L14.6006 40.8965V41.2166Z" fill="white"/>
<path opacity="0.2" d="M14.6006 43.9681L13.9343 44.4267V44.1065L14.6006 43.6479V43.9681Z" fill="white"/>
<path opacity="0.2" d="M14.6006 43.3885L13.9343 43.8557V43.0078L14.6006 42.5405V43.3885Z" fill="white"/>
<path opacity="0.2" d="M14.5825 40.7396L13.9336 41.1896V40.6185L14.3662 40.3157C14.5393 40.5147 14.5825 40.7396 14.5825 40.7396Z" fill="white"/>
<path d="M20.753 31.8714L14.6357 28.3412V26.9136L20.753 30.4351V31.8714Z" fill="#525252"/>
<path d="M26.8618 28.3412L26.8445 28.3499C26.6888 28.298 26.533 28.2547 26.3686 28.2374C25.6332 28.1509 24.7679 28.3499 23.8334 28.8863L23.7383 28.9469C22.6134 29.5958 21.5752 30.6341 20.7532 31.8455V30.4438L26.8705 26.9136V28.3412H26.8618Z" fill="#787878"/>
<path d="M26.8616 26.9135L20.753 30.4351L14.6357 26.9135L20.753 23.3833L26.8616 26.9135Z" fill="#969696"/>
<path d="M18.1489 18.3306L18.1662 18.3392C18.7199 18.6594 19.1612 19.4295 19.1612 20.0697V23.2106L17.6038 22.3107V18.6421C17.6038 18.4604 17.6384 18.3046 17.7076 18.1921C17.846 18.1921 17.9931 18.2441 18.1489 18.3306Z" fill="#262626"/>
<path d="M23.4096 18.3392L23.4269 18.3306C23.5826 18.2441 23.7297 18.1921 23.8682 18.1921C23.9287 18.3046 23.972 18.4604 23.972 18.6421V22.3107L22.4146 23.2106V20.0697C22.4146 19.4295 22.8558 18.6594 23.4096 18.3392Z" fill="#404040"/>
<path d="M21.921 20.4678L24.3697 21.8781C24.3697 22.3886 24.3697 22.6741 24.3697 23.1846L21.921 24.595C21.0385 24.595 20.5453 24.595 19.6628 24.595L17.2141 23.1846C17.2141 22.6741 17.2141 22.3886 17.2141 21.8781L19.6628 20.4678C20.5367 20.4678 21.0298 20.4678 21.921 20.4678Z" fill="#3D2F27"/>
<path d="M22.051 13.3987L24.7851 14.9821C24.7851 15.5531 24.7851 15.8733 24.7851 16.4357L22.051 18.0191C21.0646 18.0191 20.5108 18.0191 19.5245 18.0191L16.7903 16.4357C16.7903 15.8646 16.7903 15.5445 16.7903 14.9821L19.5245 13.3987C20.5108 13.3987 21.0646 13.3987 22.051 13.3987Z" fill="#BDBDBD"/>
<path d="M22.0509 18.0193H19.5244V29.1463H22.0509V18.0193Z" fill="#DADADA"/>
<path d="M19.5245 18.0192L16.7903 16.4358V27.5628L19.5245 29.1376V18.0192ZM19.1697 23.202L17.6123 22.3021V18.6335C17.6123 18.4518 17.6469 18.2961 17.7161 18.1836C17.8459 18.1836 17.993 18.2355 18.1574 18.322L18.1747 18.3307C18.7284 18.6508 19.1697 19.4209 19.1697 20.0612V23.202Z" fill="#B0B0B0"/>
<path d="M24.7852 16.4358L22.051 18.0192V29.1462L24.7852 27.5715V16.4358ZM23.9719 22.3108L22.4144 23.2107V20.0698C22.4144 19.4295 22.8557 18.6595 23.4095 18.3393L23.4268 18.3307C23.5825 18.2442 23.7296 18.1922 23.868 18.1922C23.9286 18.3047 23.9719 18.4605 23.9719 18.6422V22.3108Z" fill="#F0F0F0"/>
<path d="M17.7074 18.1921C17.6469 18.3046 17.6036 18.4604 17.6036 18.6421V22.3107L19.161 23.2106V23.7384L17.145 22.5789V18.9103C17.145 18.4517 17.3786 18.1921 17.7074 18.1921Z" fill="#7A7A7A"/>
<path d="M23.972 18.6421C23.972 18.4604 23.9374 18.3046 23.8682 18.1921C24.197 18.1921 24.4306 18.4517 24.4306 18.9016V22.5703L22.4146 23.7297V23.2019L23.972 22.3021V18.6421Z" fill="#7A7A7A"/>
<path d="M17.8717 16.8943C19.4897 17.8287 22.1028 17.8287 23.7208 16.8943C24.5255 16.427 24.9321 15.8214 24.9321 15.207V15.6743C24.9321 16.2886 24.5341 16.9029 23.7208 17.3701C22.1028 18.3046 19.4897 18.3046 17.8717 17.3701C17.0671 16.9029 16.6604 16.2886 16.6604 15.6829V15.207C16.6604 15.8214 17.0584 16.427 17.8717 16.8943Z" fill="#808080"/>
<path d="M17.8717 13.5197C19.4897 12.5852 22.1028 12.5852 23.7208 13.5197C25.3388 14.4542 25.3388 15.9683 23.7208 16.8941C22.1028 17.8286 19.4897 17.8286 17.8717 16.8941C16.2537 15.9597 16.2537 14.4542 17.8717 13.5197Z" fill="#A3A3A3"/>
<path d="M19.0054 11.7791C20.6321 10.7235 20.6235 8.82861 20.6235 8.82861H20.9522C20.9522 8.82861 20.9436 10.7235 22.5703 11.7791C23.9114 12.3675 24.8285 13.5875 24.8285 14.9978H24.8199C24.8978 15.6467 24.5084 16.313 23.6431 16.8062C22.0598 17.7233 19.49 17.7233 17.9066 16.8062C17.05 16.313 16.6606 15.6467 16.7299 14.9978H16.7212C16.7385 13.5875 17.6643 12.3675 19.0054 11.7791Z" fill="url(#paint0_linear_562_37225)"/>
<path opacity="0.1" d="M19.117 11.9619C20.7437 10.915 20.6225 8.83838 20.6225 8.83838H20.7437C20.7437 8.83838 20.8648 11.0188 19.9477 11.9014C18.5633 12.9743 17.724 13.5021 17.7413 15.5786C17.7413 15.5786 17.7845 16.5131 17.3087 16.1497C16.9626 15.8988 16.9712 15.1028 16.9712 15.1028C16.9712 13.6838 17.7759 12.5416 19.117 11.9619Z" fill="black"/>
<path d="M20.9087 8.77815C20.9693 8.81276 20.9693 8.87332 20.9087 8.91658C20.8481 8.95119 20.7356 8.95119 20.6751 8.91658C20.6145 8.88197 20.6145 8.82142 20.6751 8.77815C20.7356 8.74354 20.8395 8.74354 20.9087 8.77815Z" fill="#FF9D26"/>
<path d="M23.5219 12.8709C23.7729 13.0959 23.894 13.3641 23.7902 13.4766C23.695 13.5804 23.4181 13.4852 23.1672 13.2603C22.9163 13.0353 22.7951 12.7671 22.8903 12.6546C22.9941 12.5421 23.271 12.6373 23.5219 12.8709Z" fill="#FFD970"/>
<path d="M20.9172 7.73114L20.822 7.79172V7.09952L20.9172 7.04761V7.73114Z" fill="#FF8400"/>
<path d="M20.9172 8.87319L20.822 8.9251V7.99063L20.9172 7.93872V8.87319Z" fill="#FF8400"/>
<path d="M20.7443 6.76189L20.6491 6.8138L19.9482 6.40714L20.0434 6.35522L20.7443 6.76189Z" fill="#FF8400"/>
<path d="M21.2976 7.92947L21.2028 7.9812L21.1252 7.78292L21.2201 7.7312L21.2976 7.92947Z" fill="#FF8400"/>
<path d="M21.6268 7.44486L21.532 7.50521V7.32418L21.6268 7.27246V7.44486Z" fill="#FF8400"/>
<path d="M20.9164 6.0695L20.8216 6.12122L20.6492 6.01778L20.744 5.96606L20.9164 6.0695Z" fill="#FF8400"/>
<path d="M20.9172 6.8656L20.822 6.91752V6.12149L20.9172 6.06958V6.8656Z" fill="#FF8400"/>
<path d="M21.6267 7.27239L21.5315 7.3243L20.822 6.91764L20.9172 6.86572L21.6267 7.27239Z" fill="#FF8400"/>
<path d="M20.6489 7.73975V7.79166L20.2769 7.80031L20.372 7.74839L20.6489 7.73975Z" fill="#FF8400"/>
<path d="M21.22 7.7312L21.1249 7.78311L20.822 7.79177L20.9172 7.7312H21.22Z" fill="#FF8400"/>
<path d="M36.6993 29.8384L36.6301 34.0002L26.0049 27.8743L28.6871 25.218L36.6993 29.8384Z" fill="#969696"/>
<path d="M44.7115 25.218L47.2553 27.8743L36.6301 34.0002L36.6993 29.8384L44.7115 25.218Z" fill="#C6C6C6"/>
<path d="M44.7113 25.2179L36.6992 29.8383L28.687 25.2179L36.6992 20.5889L44.7113 25.2179Z" fill="#DADADA"/>
<path d="M41.2851 24.9671C41.2851 25.6593 40.8266 26.3428 39.9181 26.8706C38.101 27.9175 35.1506 27.9175 33.3335 26.8706C32.425 26.3428 31.9751 25.6593 31.9751 24.9671V18.2268H41.2851V24.9671Z" fill="#ECECEC"/>
<path d="M33.8267 9.98757C36.3878 8.3436 36.3705 5.34985 36.3705 5.34985H36.8896C36.8896 5.34985 36.8723 8.33495 39.4334 9.98757C41.536 10.9047 42.9896 12.8256 42.9896 15.0493C42.9896 18.1641 40.143 20.6906 36.6301 20.6906C33.1172 20.6906 30.2705 18.1641 30.2705 15.0493C30.2705 12.8256 31.7241 10.9047 33.8267 9.98757Z" fill="url(#paint1_linear_562_37225)"/>
<path opacity="0.1" d="M33.9996 10.2664C36.5607 8.62244 36.3704 5.35181 36.3704 5.35181H36.5607C36.5607 5.35181 36.7424 8.78683 35.3061 10.1712C33.1257 11.8671 31.8105 12.6804 31.8365 15.9424C31.8365 19.0573 34.8995 20.3725 36.63 20.4936C33.4026 20.459 30.6252 18.0276 30.6338 15.1983C30.6338 12.9746 31.8971 11.1922 33.9996 10.2664Z" fill="url(#paint2_linear_562_37225)"/>
<path d="M36.4485 5.26515C36.5523 5.20458 36.7167 5.20458 36.8205 5.26515C36.9244 5.32572 36.9244 5.4209 36.8205 5.48146C36.7167 5.54203 36.5523 5.54203 36.4485 5.48146C36.3446 5.4209 36.3446 5.32572 36.4485 5.26515Z" fill="url(#paint3_linear_562_37225)"/>
<path d="M40.9221 11.694C41.3115 12.0488 41.5018 12.4727 41.3461 12.6371C41.199 12.8102 40.7577 12.6544 40.3597 12.2997C39.9703 11.9449 39.78 11.521 39.9357 11.3479C40.0915 11.1922 40.5327 11.3393 40.9221 11.694Z" fill="url(#paint4_linear_562_37225)"/>
<path d="M36.8467 3.63038L36.6909 3.7169V2.63534L36.8467 2.54883V3.63038Z" fill="url(#paint5_linear_562_37225)"/>
<path d="M36.8467 5.4127L36.6909 5.50788V4.03696L36.8467 3.95044V5.4127Z" fill="url(#paint6_linear_562_37225)"/>
<path d="M36.561 2.09867L36.4139 2.18518L35.3064 1.55356L35.4535 1.46704L36.561 2.09867Z" fill="url(#paint7_linear_562_37225)"/>
<path d="M37.435 3.94147L37.2792 4.028L37.1667 3.70787L37.3225 3.62134L37.435 3.94147Z" fill="url(#paint8_linear_562_37225)"/>
<path d="M37.9454 3.18861L37.7983 3.26648V2.98961L37.9454 2.90308V3.18861Z" fill="url(#paint9_linear_562_37225)"/>
<path d="M36.8469 1.01718L36.6912 1.1037L36.4143 0.939313L36.5614 0.852783L36.8469 1.01718Z" fill="url(#paint10_linear_562_37225)"/>
<path d="M36.8467 2.2628L36.6909 2.34932V1.10336L36.8467 1.01685V2.2628Z" fill="url(#paint11_linear_562_37225)"/>
<path d="M37.9455 2.90346L37.7984 2.98999L36.6909 2.3497L36.8467 2.26318L37.9455 2.90346Z" fill="url(#paint12_linear_562_37225)"/>
<path d="M36.4143 3.63892V3.72543L35.8259 3.73409L35.973 3.64756L36.4143 3.63892Z" fill="url(#paint13_linear_562_37225)"/>
<path d="M37.3226 3.62134L37.1668 3.70787L36.6909 3.71652L36.8467 3.63L37.3226 3.62134Z" fill="url(#paint14_linear_562_37225)"/>
<path d="M36.6301 61.1343L26.0049 55.0083V27.8743L36.6301 34.0002V61.1343Z" fill="#BDBDBD"/>
<path d="M47.2553 55.0083L36.6301 61.1343V34.0002L47.2553 27.8743V55.0083Z" fill="#E1E1E1"/>
<path d="M25.7971 33.7399L25.8222 33.7231C25.8139 33.7315 25.8055 33.7315 25.7971 33.7399Z" fill="#B8B8B8"/>
<path d="M28.9469 32.0447C28.5316 32.5898 28.298 33.3772 28.298 34.3549V53.6412L35.8602 58.002V59.7585L26.7751 54.5151V35.2288C26.7751 33.3512 27.6404 32.2004 28.9469 32.0447Z" fill="#DADADA"/>
<path d="M31.2743 32.6416L31.3608 32.6935C33.8441 34.1298 35.8601 37.6168 35.8601 40.4807V58.0106L28.2979 53.6498V34.3635C28.2979 33.3857 28.5315 32.5984 28.9468 32.0533C29.6217 31.9581 30.4177 32.1484 31.2743 32.6416Z" fill="#A8A8A8"/>
<path d="M31.4299 33.8188C31.3866 33.8967 31.3607 34.0005 31.3607 34.1303V36.6915L32.4509 37.3231V37.6951L31.0405 36.8818V34.312C31.0405 34.0005 31.1963 33.8188 31.4299 33.8188Z" fill="#7A7A7A"/>
<path d="M31.7331 33.914L31.7505 33.9227C32.1398 34.1476 32.4513 34.6841 32.4513 35.134V37.3317L31.3611 36.7001V34.139C31.3611 34.0092 31.387 33.9054 31.4303 33.8275C31.5255 33.8188 31.6293 33.8535 31.7331 33.914Z" fill="#0F2034"/>
<path opacity="0.2" d="M32.4513 35.6705L31.3611 36.4233V35.9041L32.4513 35.1514V35.6705Z" fill="white"/>
<path opacity="0.2" d="M32.4253 34.8917L31.3611 35.6271V34.6927L32.0706 34.1995C32.3475 34.5283 32.4253 34.8917 32.4253 34.8917Z" fill="white"/>
<path d="M28.9294 38.5589L28.9446 38.5513C28.937 38.5513 28.937 38.5589 28.9294 38.5589Z" fill="#9C9C9C"/>
<path d="M29.8376 38.0325C30.0279 37.9113 30.2529 37.8335 30.4951 37.8075C30.9883 37.7469 31.5594 37.8854 32.1737 38.2315L32.2343 38.2661C34.0253 39.2957 35.479 41.8136 35.479 43.8815V57.786L34.5791 58.3051V44.4093C34.5791 42.3414 33.1255 39.8322 31.3344 38.7939L31.2739 38.7593C30.6595 38.4045 30.0885 38.2661 29.5953 38.3266C29.379 38.3526 29.1713 38.4218 28.981 38.5256L29.8376 38.0325Z" fill="#9C9C9C"/>
<path d="M29.604 38.3265C30.0972 38.2659 30.6683 38.4044 31.2826 38.7591L31.3432 38.7937C33.1342 39.8234 34.5878 42.3412 34.5878 44.4092V58.305L28.0379 54.5239V40.6194C28.0293 39.261 28.6609 38.4303 29.604 38.3265Z" fill="#B8B8B8"/>
<path d="M29.7424 38.8025C29.5088 39.114 29.3617 39.5639 29.3617 40.1436V54.2385L34.1119 56.9813V57.8898L28.583 54.697V40.6022C28.583 39.5293 29.0416 38.8977 29.7424 38.8025Z" fill="#808080"/>
<path d="M29.9067 38.785C30.322 38.7763 30.8065 38.9407 31.3257 39.2955L31.3776 39.3301C32.8918 40.3597 34.1118 42.6094 34.1118 44.3485V56.9724L29.3616 54.2296V40.1348C29.3616 39.5551 29.5 39.1051 29.7423 38.7937C29.8028 38.7937 29.8548 38.7936 29.9067 38.785Z" fill="#9C9C9C"/>
<path d="M29.9678 41.2336C29.9332 41.2942 29.9159 41.3721 29.9159 41.4673V47.896L30.7378 48.3719V48.6488L29.6736 48.0345V41.6057C29.6736 41.3721 29.7947 41.2336 29.9678 41.2336Z" fill="#7A7A7A"/>
<path d="M30.2003 41.3113L30.209 41.32C30.5032 41.4844 30.7368 41.8911 30.7368 42.2285V48.3804L29.9148 47.9045V41.4757C29.9148 41.3806 29.9321 41.3027 29.9667 41.2421C30.0446 41.2335 30.1225 41.2594 30.2003 41.3113Z" fill="#0F2034"/>
<path opacity="0.2" d="M30.7375 42.6267L29.9155 43.1977V42.8084L30.7375 42.2373V42.6267Z" fill="white"/>
<path opacity="0.2" d="M30.7375 47.0913L29.9155 47.6623V47.273L30.7375 46.7019V47.0913Z" fill="white"/>
<path opacity="0.2" d="M30.7375 46.3819L29.9155 46.9529V45.5166L30.7375 44.9456V46.3819Z" fill="white"/>
<path opacity="0.2" d="M30.7194 42.0375L29.9233 42.5912V41.8904L30.4598 41.5183C30.6588 41.7692 30.7194 42.0375 30.7194 42.0375Z" fill="white"/>
<path d="M33.0221 43.016C32.9874 43.0766 32.9701 43.1545 32.9701 43.2496V49.6784L33.7921 50.1543V50.4312L32.7365 49.8168V43.3881C32.7279 43.1458 32.849 43.0074 33.0221 43.016Z" fill="#7A7A7A"/>
<path d="M33.2548 43.0851L33.2634 43.0937C33.5576 43.2581 33.7912 43.6648 33.7912 44.0022V50.1541L32.9692 49.6783V43.2495C32.9692 43.1543 32.9866 43.0764 33.0212 43.0159C33.099 43.0159 33.1769 43.0332 33.2548 43.0851Z" fill="#0F2034"/>
<path opacity="0.2" d="M33.792 44.4001L32.97 44.9712V44.5818L33.792 44.0107V44.4001Z" fill="white"/>
<path opacity="0.2" d="M33.792 48.8652L32.97 49.4363V49.0469L33.792 48.4758V48.8652Z" fill="white"/>
<path opacity="0.2" d="M33.792 48.1555L32.97 48.7266V47.2903L33.792 46.7192V48.1555Z" fill="white"/>
<path opacity="0.2" d="M33.7748 43.8204L32.9788 44.3742V43.6733L33.5152 43.3013C33.7142 43.5435 33.7748 43.8204 33.7748 43.8204Z" fill="white"/>
<path d="M31.5079 41.0087C31.4733 41.0693 31.456 41.1471 31.456 41.2423V47.6711L32.278 48.147V48.4238L31.2224 47.8095V41.3807C31.2137 41.1385 31.3348 41 31.5079 41.0087Z" fill="#7A7A7A"/>
<path d="M31.7407 41.078L31.7494 41.0867C32.0349 41.2511 32.2685 41.6577 32.2685 41.9952V48.1471L31.4465 47.6712V41.2424C31.4465 41.1472 31.4638 41.0694 31.4984 41.0088C31.5763 41.0088 31.6542 41.0261 31.7407 41.078Z" fill="#0F2034"/>
<path opacity="0.2" d="M32.2696 42.393L31.4563 42.9641V42.5747L32.2696 42.0037V42.393Z" fill="white"/>
<path opacity="0.2" d="M32.2696 46.8579L31.4563 47.4289V47.0396L32.2696 46.4685V46.8579Z" fill="white"/>
<path opacity="0.2" d="M32.2696 46.148L31.4563 46.719V45.2827L32.2696 44.7117V46.148Z" fill="white"/>
<path opacity="0.2" d="M32.2523 41.8131L31.4563 42.3668V41.666L31.9928 41.2939C32.2004 41.5362 32.2523 41.8131 32.2523 41.8131Z" fill="white"/>
<path d="M45.7238 34.7962C45.7238 33.5848 45.369 32.6763 44.7634 32.1399C45.8103 32.486 46.4852 33.5762 46.4852 35.2288V54.5151L37.4001 59.7585V58.8846L45.7238 54.0825V34.7962Z" fill="#A8A8A8"/>
<path d="M41.8994 32.6939L41.9859 32.6419C43.0329 32.0363 44.002 31.8892 44.7634 32.1487C45.369 32.6852 45.7238 33.5937 45.7238 34.8051V54.0914L37.4001 58.8935V40.4811C37.4001 37.6084 39.4075 34.1302 41.8994 32.6939Z" fill="#DADADA"/>
<path d="M44.547 46.5377C44.547 46.4425 44.5297 46.3733 44.4951 46.3127C44.6595 46.3127 44.772 46.4425 44.772 46.6675V53.1049L43.7683 53.6846V53.4164L44.547 52.9665V46.5377Z" fill="#7A7A7A"/>
<path d="M44.2702 46.382H44.2788C44.3567 46.3387 44.4345 46.3127 44.4951 46.3127C44.5297 46.3733 44.547 46.4425 44.547 46.5377V52.9751L43.7683 53.4251V47.2472C43.7683 46.9271 43.9933 46.5464 44.2702 46.382Z" fill="#2B5E85"/>
<path opacity="0.2" d="M44.547 48.1734L43.7683 47.6369V47.2649L44.547 47.81V48.1734Z" fill="white"/>
<path opacity="0.2" d="M44.547 52.9496L43.7683 52.4044V51.5479L44.547 52.0843V52.9496Z" fill="white"/>
<path opacity="0.2" d="M44.547 51.7729L43.7683 51.2364V49.2463L44.547 49.7914V51.7729Z" fill="white"/>
<path opacity="0.2" d="M44.5471 46.936V47.6023L43.7856 47.0745C43.7856 47.0745 43.8376 46.8149 44.0366 46.5813L44.5471 46.936Z" fill="white"/>
<path d="M39.3295 49.5038C39.3295 49.4086 39.3122 49.3394 39.2776 49.2788C39.442 49.2788 39.5545 49.4086 39.5545 49.6336V56.071L38.5508 56.6507V56.3911L39.3295 55.9412V49.5038Z" fill="#7A7A7A"/>
<path d="M39.0526 49.3496L39.0613 49.3409C39.1391 49.2977 39.217 49.2717 39.2776 49.2717C39.3122 49.3323 39.3295 49.4015 39.3295 49.4967V55.9341L38.5508 56.384V50.2062C38.5508 49.9033 38.7757 49.514 39.0526 49.3496Z" fill="#2B5E85"/>
<path opacity="0.2" d="M39.3295 51.1407L38.5508 50.6042V50.2322L39.3295 50.7773V51.1407Z" fill="white"/>
<path opacity="0.2" d="M39.3295 55.9168L38.5508 55.3717V54.5151L39.3295 55.0516V55.9168Z" fill="white"/>
<path opacity="0.2" d="M39.3295 54.7399L38.5508 54.2034V52.2134L39.3295 52.7585V54.7399Z" fill="white"/>
<path opacity="0.2" d="M39.3297 49.9026V50.5688L38.5769 50.041C38.5769 50.041 38.6288 49.7815 38.8278 49.5479L39.3297 49.9026Z" fill="white"/>
<path d="M47.436 33.7572C47.4276 33.7489 47.4193 33.7488 47.4109 33.7405L47.436 33.7572Z" fill="#B8B8B8"/>
<path d="M33.4112 21.5232C33.3939 21.5578 33.3766 21.6097 33.3766 21.6616V24.491L33.8784 24.7852V24.9582L33.2295 24.5862V21.7568C33.2295 21.6097 33.3074 21.5232 33.4112 21.5232Z" fill="#7A7A7A"/>
<path d="M33.5473 21.575C33.729 21.6788 33.8761 21.9298 33.8761 22.1288V24.7937L33.3743 24.4995V21.6702C33.3743 21.6096 33.3829 21.5664 33.4089 21.5317C33.4521 21.5231 33.4954 21.5404 33.5473 21.575Z" fill="#26354A"/>
<path d="M39.8834 21.6687C39.8834 21.6081 39.8748 21.5649 39.8488 21.5303C39.9527 21.5303 40.0305 21.6168 40.0305 21.7639V24.5932L39.3816 24.9653V24.7922L39.8834 24.4981V21.6687Z" fill="#7A7A7A"/>
<path d="M39.7088 21.5751C39.7694 21.5405 39.8126 21.5232 39.8559 21.5232C39.8732 21.5578 39.8905 21.6097 39.8905 21.6616V24.491L39.3887 24.7852V22.1202C39.3887 21.9212 39.5271 21.6789 39.7088 21.5751Z" fill="#26354A"/>
<path d="M29.9936 54.3076L33.7315 56.462V56.6697L29.8206 54.4114V49.6958L29.9936 49.7996V54.3076Z" fill="#5E5E5E"/>
<path d="M31.8609 55.3881L29.9919 54.3065V49.7986L31.8609 50.8715V55.3881Z" fill="#663F30"/>
<path d="M30.2189 54.0308L30.6861 54.2991V54.4029L30.1323 54.0741V52.8281L30.2189 52.8801V54.0308Z" fill="#472C22"/>
<path d="M30.686 54.2989L30.2188 54.0307V52.8799L30.686 53.1481V54.2989Z" fill="#543427"/>
<path d="M31.2049 54.5932L31.6722 54.8701V54.9653L31.1184 54.6451V53.3992L31.2049 53.4424V54.5932Z" fill="#472C22"/>
<path d="M31.6723 54.87L31.2051 54.5932V53.4424L31.6723 53.7193V54.87Z" fill="#543427"/>
<path d="M30.2101 52.5426L31.7329 53.4251V53.5203L30.1235 52.5945V51.8677L30.2101 51.9196V52.5426Z" fill="#472C22"/>
<path d="M31.7328 53.425L30.21 52.5424V51.9194L31.7328 52.802V53.425Z" fill="#543427"/>
<path d="M30.2189 51.5298L30.6861 51.8067V51.9019L30.1323 51.5818V50.3271L30.2189 50.3791V51.5298Z" fill="#472C22"/>
<path d="M30.686 51.807L30.2188 51.5302V50.3794L30.686 50.6476V51.807Z" fill="#543427"/>
<path d="M31.2049 52.1011L31.6722 52.378V52.4732L31.1184 52.153V50.8984L31.2049 50.9504V52.1011Z" fill="#472C22"/>
<path d="M31.6723 52.3781L31.2051 52.1012V50.9504L31.6723 51.2187V52.3781Z" fill="#543427"/>
<path d="M33.7317 56.462L31.8628 55.3891V50.8726L33.7317 51.9541V56.462Z" fill="#663F30"/>
<path d="M31.8625 55.3895L31.8105 55.3549V50.8469L31.8625 50.8729V55.3895Z" fill="#4A2E23"/>
<path d="M32.0788 55.1036L32.5547 55.3718V55.4756L32.001 55.1555V53.9009L32.0788 53.9528V55.1036Z" fill="#472C22"/>
<path d="M32.555 55.3714L32.0791 55.1032V53.9524L32.555 54.2206V55.3714Z" fill="#543427"/>
<path d="M33.0649 55.6749L33.5408 55.9431V56.0469L32.9871 55.7268V54.4722L33.0649 54.5241V55.6749Z" fill="#472C22"/>
<path d="M33.5411 55.9429L33.0652 55.6747V54.5239L33.5411 54.7921V55.9429Z" fill="#543427"/>
<path d="M32.0789 53.6157L33.6018 54.4982V54.5934L31.9924 53.6676V52.9495L32.0789 53.0014V53.6157Z" fill="#472C22"/>
<path d="M33.6019 54.4981L32.0791 53.6155V53.0012L33.6019 53.8838V54.4981Z" fill="#543427"/>
<path d="M32.0788 52.6116L32.5547 52.8799V52.9837L32.001 52.6549V51.4089L32.0788 51.4609V52.6116Z" fill="#472C22"/>
<path d="M32.555 52.8799L32.0791 52.6117V51.4609L32.555 51.7292V52.8799Z" fill="#543427"/>
<path d="M33.0649 53.174L33.5408 53.4509V53.5461L32.9871 53.2259V51.98L33.0649 52.0319V53.174Z" fill="#472C22"/>
<path d="M33.5411 53.451L33.0652 53.1741V52.032L33.5411 52.3002V53.451Z" fill="#543427"/>
<path d="M31.9312 53.6675C32.0002 53.6675 32.0519 53.7192 32.0519 53.7882C32.0519 53.8571 32.0002 53.9088 31.9312 53.9088C31.8623 53.9088 31.8105 53.8571 31.8105 53.7882C31.8105 53.7278 31.8623 53.6675 31.9312 53.6675Z" fill="#91721A"/>
<path d="M32.0064 53.752C31.9981 53.7604 31.9814 53.7521 31.973 53.7437C31.9646 53.7353 31.9563 53.7186 31.9646 53.7102C31.973 53.7019 31.9897 53.7103 31.9981 53.7186C32.0148 53.7353 32.0148 53.7437 32.0064 53.752Z" fill="#D6A826"/>
<path d="M31.6629 53.5288C31.7319 53.5288 31.7836 53.5805 31.7836 53.6495C31.7836 53.7185 31.7319 53.7702 31.6629 53.7702C31.594 53.7702 31.5422 53.7185 31.5422 53.6495C31.5422 53.5892 31.594 53.5288 31.6629 53.5288Z" fill="#91721A"/>
<path d="M31.7371 53.6131C31.7288 53.6215 31.7121 53.6131 31.7037 53.6048C31.6954 53.5964 31.687 53.5797 31.6954 53.5713C31.7037 53.563 31.7204 53.5713 31.7288 53.5797C31.7455 53.5964 31.7455 53.6048 31.7371 53.6131Z" fill="#D6A826"/>
<path d="M42.064 47.9652C42.064 47.8787 42.0467 47.8008 42.0121 47.7402C42.1765 47.7402 42.2889 47.87 42.2889 48.095V54.5324L41.2766 55.1121V54.8439L42.0553 54.394V47.9652H42.064Z" fill="#7A7A7A"/>
<path d="M41.7855 47.8165H41.7942C41.8721 47.7733 41.9499 47.7473 42.0105 47.7473C42.0451 47.8079 42.0624 47.8858 42.0624 47.9723V54.4097L41.2837 54.8596V48.6818C41.2837 48.3616 41.5087 47.9809 41.7855 47.8165Z" fill="#2B5E85"/>
<path opacity="0.2" d="M42.0641 49.6092L41.2854 49.0727V48.7007L42.0641 49.2458V49.6092Z" fill="white"/>
<path opacity="0.2" d="M42.0641 54.3854L41.2854 53.8403V52.9751L42.0641 53.5202V54.3854Z" fill="white"/>
<path opacity="0.2" d="M42.0641 53.2086L41.2854 52.6722V50.6821L42.0641 51.2272V53.2086Z" fill="white"/>
<path opacity="0.2" d="M42.0642 48.3721V49.0383L41.3027 48.5105C41.3027 48.5105 41.3547 48.251 41.5537 48.0173L42.0642 48.3721Z" fill="white"/>
<path d="M42.064 36.6481C42.064 36.5529 42.0467 36.4837 42.0121 36.4231C42.1765 36.4231 42.2889 36.5529 42.2889 36.7778V41.4675L41.2766 42.0472V41.779L42.0553 41.329V36.6481H42.064Z" fill="#7A7A7A"/>
<path d="M41.7855 36.501L41.7942 36.4923C41.8721 36.4491 41.9499 36.4231 42.0105 36.4231C42.0451 36.4837 42.0624 36.5529 42.0624 36.6481V41.329L41.2837 41.779V37.3576C41.2837 37.0461 41.5087 36.6567 41.7855 36.501Z" fill="#2B5E85"/>
<path opacity="0.2" d="M42.0641 38.2919L41.2854 37.7468V37.3748L42.0641 37.9199V38.2919Z" fill="white"/>
<path opacity="0.2" d="M42.0641 40.8875L41.2854 40.3424V39.0791L42.0641 39.6242V40.8875Z" fill="white"/>
<path opacity="0.2" d="M42.0639 37.0449V37.7112L41.3025 37.1834C41.3025 37.1834 41.3544 36.9238 41.5534 36.6902L42.0639 37.0449Z" fill="white"/>
<defs>
<linearGradient id="paint0_linear_562_37225" x1="21.4811" y1="17.5508" x2="19.2436" y2="9.20032" gradientUnits="userSpaceOnUse">
<stop stop-color="#EEDA76"/>
<stop offset="0.2243" stop-color="#F1AB29"/>
<stop offset="0.3386" stop-color="#F39200"/>
<stop offset="0.9168" stop-color="#EA5B0C"/>
</linearGradient>
<linearGradient id="paint1_linear_562_37225" x1="38.1053" y1="20.5448" x2="34.1905" y2="5.93459" gradientUnits="userSpaceOnUse">
<stop stop-color="#EEDA76"/>
<stop offset="0.2243" stop-color="#F1AB29"/>
<stop offset="0.3386" stop-color="#F39200"/>
<stop offset="0.9168" stop-color="#EA5B0C"/>
</linearGradient>
<linearGradient id="paint2_linear_562_37225" x1="36.2827" y1="20.5865" x2="32.4801" y2="6.39486" gradientUnits="userSpaceOnUse">
<stop stop-color="#EEDA76"/>
<stop offset="0.2243" stop-color="#F1AB29"/>
<stop offset="0.3386" stop-color="#F39200"/>
<stop offset="0.9168" stop-color="#EA5B0C"/>
</linearGradient>
<linearGradient id="paint3_linear_562_37225" x1="36.6737" y1="5.53121" x2="36.5907" y2="5.22146" gradientUnits="userSpaceOnUse">
<stop stop-color="#EEDA76"/>
<stop offset="0.2243" stop-color="#F1AB29"/>
<stop offset="0.3386" stop-color="#F39200"/>
<stop offset="0.9168" stop-color="#EA5B0C"/>
</linearGradient>
<linearGradient id="paint4_linear_562_37225" x1="40.8617" y1="12.8046" x2="40.4304" y2="11.1948" gradientUnits="userSpaceOnUse">
<stop stop-color="#EEDA76"/>
<stop offset="0.2243" stop-color="#F1AB29"/>
<stop offset="0.3386" stop-color="#F39200"/>
<stop offset="0.9168" stop-color="#EA5B0C"/>
</linearGradient>
<linearGradient id="paint5_linear_562_37225" x1="36.9096" y1="3.66031" x2="36.6267" y2="2.60489" gradientUnits="userSpaceOnUse">
<stop stop-color="#EEDA76"/>
<stop offset="0.2243" stop-color="#F1AB29"/>
<stop offset="0.3386" stop-color="#F39200"/>
<stop offset="0.9168" stop-color="#EA5B0C"/>
</linearGradient>
<linearGradient id="paint6_linear_562_37225" x1="36.9573" y1="5.43295" x2="36.5791" y2="4.02121" gradientUnits="userSpaceOnUse">
<stop stop-color="#EEDA76"/>
<stop offset="0.2243" stop-color="#F1AB29"/>
<stop offset="0.3386" stop-color="#F39200"/>
<stop offset="0.9168" stop-color="#EA5B0C"/>
</linearGradient>
<linearGradient id="paint7_linear_562_37225" x1="36.0578" y1="2.28157" x2="35.8135" y2="1.36987" gradientUnits="userSpaceOnUse">
<stop stop-color="#EEDA76"/>
<stop offset="0.2243" stop-color="#F1AB29"/>
<stop offset="0.3386" stop-color="#F39200"/>
<stop offset="0.9168" stop-color="#EA5B0C"/>
</linearGradient>
<linearGradient id="paint8_linear_562_37225" x1="37.3497" y1="4.00689" x2="37.2516" y2="3.64072" gradientUnits="userSpaceOnUse">
<stop stop-color="#EEDA76"/>
<stop offset="0.2243" stop-color="#F1AB29"/>
<stop offset="0.3386" stop-color="#F39200"/>
<stop offset="0.9168" stop-color="#EA5B0C"/>
</linearGradient>
<linearGradient id="paint9_linear_562_37225" x1="37.9121" y1="3.23879" x2="37.8294" y2="2.93016" gradientUnits="userSpaceOnUse">
<stop stop-color="#EEDA76"/>
<stop offset="0.2243" stop-color="#F1AB29"/>
<stop offset="0.3386" stop-color="#F39200"/>
<stop offset="0.9168" stop-color="#EA5B0C"/>
</linearGradient>
<linearGradient id="paint10_linear_562_37225" x1="36.6644" y1="1.10898" x2="36.594" y2="0.846466" gradientUnits="userSpaceOnUse">
<stop stop-color="#EEDA76"/>
<stop offset="0.2243" stop-color="#F1AB29"/>
<stop offset="0.3386" stop-color="#F39200"/>
<stop offset="0.9168" stop-color="#EA5B0C"/>
</linearGradient>
<linearGradient id="paint11_linear_562_37225" x1="36.9298" y1="2.2852" x2="36.6066" y2="1.0787" gradientUnits="userSpaceOnUse">
<stop stop-color="#EEDA76"/>
<stop offset="0.2243" stop-color="#F1AB29"/>
<stop offset="0.3386" stop-color="#F39200"/>
<stop offset="0.9168" stop-color="#EA5B0C"/>
</linearGradient>
<linearGradient id="paint12_linear_562_37225" x1="37.441" y1="3.08231" x2="37.1966" y2="2.17008" gradientUnits="userSpaceOnUse">
<stop stop-color="#EEDA76"/>
<stop offset="0.2243" stop-color="#F1AB29"/>
<stop offset="0.3386" stop-color="#F39200"/>
<stop offset="0.9168" stop-color="#EA5B0C"/>
</linearGradient>
<linearGradient id="paint13_linear_562_37225" x1="36.1488" y1="3.79302" x2="36.1006" y2="3.61313" gradientUnits="userSpaceOnUse">
<stop stop-color="#EEDA76"/>
<stop offset="0.2243" stop-color="#F1AB29"/>
<stop offset="0.3386" stop-color="#F39200"/>
<stop offset="0.9168" stop-color="#EA5B0C"/>
</linearGradient>
<linearGradient id="paint14_linear_562_37225" x1="37.0257" y1="3.74593" x2="36.9848" y2="3.59339" gradientUnits="userSpaceOnUse">
<stop stop-color="#EEDA76"/>
<stop offset="0.2243" stop-color="#F1AB29"/>
<stop offset="0.3386" stop-color="#F39200"/>
<stop offset="0.9168" stop-color="#EA5B0C"/>
</linearGradient>
</defs>
</svg>
