<svg width="24" height="45" viewBox="0 0 24 45" fill="none" xmlns="http://www.w3.org/2000/svg">
<path d="M10.2257 34.7103L10.0527 33.8538L9.94885 33.9143L10.07 34.9526L10.1738 34.892C10.2257 34.8661 10.243 34.7969 10.2257 34.7103Z" fill="#918F8B"/>
<path d="M9.94889 33.9143L9.73258 33.7932C9.57684 33.8538 9.41244 33.9143 9.24805 33.949C9.28266 34.0355 9.31728 34.122 9.36919 34.2085L9.70663 34.7363C9.75854 34.8228 9.82776 34.8921 9.89698 34.9267C10.0441 35.0132 10.1392 34.9267 10.1046 34.7709L9.94889 33.9143Z" fill="#918F8B"/>
<path d="M8.77882 33.8611L8.8221 33.8352C9.15954 33.6362 9.46238 33.8006 9.57486 33.8611C10.2411 34.2851 10.691 35.4186 9.99018 35.8512L9.94691 35.8772C9.88634 35.9118 9.71329 36.007 9.46237 35.9551C9.12493 35.8858 8.6923 35.5311 8.48464 34.8994C8.42407 34.7437 8.28563 34.164 8.77882 33.8611Z" fill="#262322"/>
<path d="M9.38626 35.195L9.2132 34.3384L9.10938 34.3989L9.23052 35.4372L9.33435 35.3766C9.38626 35.3507 9.40356 35.2815 9.38626 35.195Z" fill="#918F8B"/>
<path d="M9.28238 35.2556L9.10932 34.399L8.3479 33.9578V34.1135C8.3479 34.2952 8.41712 34.5028 8.53826 34.6845L8.87571 35.2123C8.92763 35.2989 8.99685 35.3681 9.06607 35.4027C9.22181 35.4979 9.31699 35.4114 9.28238 35.2556Z" fill="#918F8B"/>
<path d="M8.2356 33.6545V33.8363C8.2356 33.9141 8.28753 33.992 8.39136 34.0526L8.86723 34.3295C9.07489 34.4506 9.41233 34.4506 9.61999 34.3295L10.0267 34.0958C10.1305 34.0353 10.1824 33.9574 10.1824 33.8795V33.6978L8.2356 33.6545Z" fill="#918F8B"/>
<path d="M18.3328 30.0292L18.1597 29.1726L18.0559 29.2332L18.1771 30.2715L18.2809 30.2109C18.3241 30.185 18.3501 30.1244 18.3328 30.0292Z" fill="#918F8B"/>
<path d="M18.0562 29.2332L17.8399 29.1121C17.6841 29.1726 17.5197 29.2332 17.3553 29.2678C17.39 29.3543 17.4246 29.4409 17.4765 29.5274L17.8139 30.0552C17.8658 30.1417 17.9351 30.2109 18.0043 30.2455C18.1514 30.3321 18.2466 30.2455 18.212 30.0898L18.0562 29.2332Z" fill="#918F8B"/>
<path d="M16.8775 29.1891L16.9207 29.1631C17.2582 28.9641 17.561 29.1285 17.6735 29.1891C18.3397 29.613 18.7896 30.7465 18.0888 31.1791L18.0455 31.205C17.985 31.2396 17.8119 31.3348 17.561 31.2829C17.2236 31.2137 16.7909 30.859 16.5833 30.2274C16.5314 30.063 16.3843 29.4919 16.8775 29.1891Z" fill="#262322"/>
<path d="M17.4937 30.5138L17.3206 29.6572L17.2168 29.7178L17.3379 30.7561L17.4418 30.6955C17.485 30.6696 17.511 30.609 17.4937 30.5138Z" fill="#918F8B"/>
<path d="M17.3899 30.5745L17.2169 29.7179L16.4554 29.2766V29.4323C16.4554 29.6141 16.5247 29.8217 16.6458 30.0034L16.9833 30.5312C17.0352 30.6178 17.1044 30.6869 17.1736 30.7216C17.3294 30.8167 17.4159 30.7302 17.3899 30.5745Z" fill="#918F8B"/>
<path d="M16.3428 28.9822V29.1638C16.3428 29.2417 16.3947 29.3196 16.4985 29.3802L16.9744 29.657C17.182 29.7782 17.5195 29.7782 17.7271 29.657L18.1338 29.4234C18.2376 29.3628 18.2896 29.285 18.2896 29.2071V29.0254L16.3428 28.9822Z" fill="#918F8B"/>
<path d="M5.20733 11.314L13.1503 6.72826C13.9723 6.25238 14.7077 6.18318 15.2096 6.47736C15.746 6.7975 19.4925 8.88272 20.0809 9.26342C20.4702 9.50569 20.7039 9.9816 20.7039 10.6392V25.1061C20.7039 26.6116 19.4839 28.5324 17.9783 29.4063L10.0354 33.9921C9.28264 34.4248 8.59909 34.5113 8.1059 34.3036C7.61271 34.0959 3.8489 31.8896 3.21727 31.5175C2.776 31.258 2.48181 30.7994 2.48181 30.0812V15.6143C2.48181 14.1088 3.7018 12.1793 5.20733 11.314Z" fill="url(#paint0_linear_562_38586)"/>
<path d="M10.0353 33.9833L17.9783 29.3975C19.4838 28.5323 20.7038 26.6028 20.7038 25.0972V10.6304C20.7038 9.12486 19.4838 8.6057 17.9783 9.47959L10.0353 14.0654C8.5298 14.9306 7.30981 16.8601 7.30981 18.3657V32.8325C7.30981 34.3381 8.5298 34.8572 10.0353 33.9833Z" fill="#322A25"/>
<path d="M15.4516 6.59814C15.3392 6.65006 15.2267 6.71064 15.1142 6.7712L6.66938 11.6425C4.9735 12.6202 3.58911 14.8093 3.58911 16.5225V31.7508C3.83138 31.8892 3.49395 31.6903 3.73621 31.8373L3.72755 31.6383C3.72755 31.6123 3.71892 31.5864 3.71892 31.5518V16.6956C3.71892 16.1505 3.79677 15.5967 3.99578 15.0862C4.15152 14.6709 4.36784 14.2555 4.62742 13.8575C5.285 12.8538 6.21081 12.0492 7.24911 11.4522L14.8806 7.04806C15.0796 6.93558 15.2786 6.84042 15.4776 6.7712L15.6593 6.71063C15.3911 6.55489 15.7112 6.74524 15.4516 6.59814Z" fill="#322A25"/>
<path opacity="0.7" d="M14.0325 9.55739L13.1326 9.04688L8.94482 11.4609L9.84469 11.9801L14.0325 9.55739Z" fill="#322A25"/>
<path d="M13.0895 9.92926L12.5444 9.61778V8.15552L13.0895 8.47565V9.92926Z" fill="#2B2420"/>
<path d="M9.83609 11.8157L9.29098 11.4956L9.28235 9.39307L9.82746 9.7132L9.83609 11.8157Z" fill="#382F2B"/>
<path d="M9.82758 9.71311L9.28247 9.39298L13.1847 7.14331L13.7298 7.4635L9.82758 9.71311Z" fill="#473E3A"/>
<path d="M13.7297 7.46338V9.56592L13.0895 9.92931V8.4757L10.4678 9.98122L10.4764 11.4435L9.83615 11.8155L9.82751 9.71299L13.7297 7.46338Z" fill="#322A25"/>
<path d="M11.8003 12.0407L12.3281 12.3435L11.5753 12.7761L11.0475 12.4733L11.8003 12.0407ZM14.1018 10.7168L14.6296 11.0197L15.3824 10.587L14.8546 10.2842L14.1018 10.7168Z" fill="#322A25"/>
<path d="M14.3702 11.7723L14.8807 11.4781V2.14209L14.3702 2.43627V11.7723Z" fill="#DBD7D5"/>
<path d="M11.3158 4.20141L11.8263 3.90723V13.2432L11.3158 13.5374V4.20141Z" fill="#DBD7D5"/>
<path d="M14.6469 11.4695L15.1573 11.1754V1.83936L14.6469 2.13354V6.62416V11.4695Z" fill="#C1BCB9"/>
<path d="M11.5928 3.89867L12.1033 3.60449V12.9405L11.5928 13.2347V7.8788V3.89867Z" fill="#C1BCB9"/>
<path d="M11.3158 4.39163L12.1031 3.93305V4.7204L11.7225 4.93671L11.4369 5.0319L11.3158 5.00594V4.39163ZM14.3701 3.30141L14.4999 3.32737L14.7854 3.2322L15.1575 3.01589V2.22852L14.3701 2.68709V3.30141Z" fill="#C1BCB9"/>
<path d="M11.0646 4.7466L10.5109 4.42644V3.29297L11.0646 3.60447V4.7466Z" fill="#382F2B"/>
<path d="M15.7546 2.03874L11.0649 4.74696V3.60483L15.7546 0.905273V2.03874Z" fill="#322A25"/>
<path d="M11.0646 3.60444L10.5109 3.29294L15.2005 0.584717L15.7542 0.90488L11.0646 3.60444Z" fill="#473E3A"/>
<path d="M0.353163 30.4963C0.491602 30.1761 0.690603 29.8733 0.915567 29.6137C1.10592 29.3974 1.31358 29.2157 1.53854 29.0859L14.2663 21.7314C14.6643 21.4977 15.0191 21.4804 15.2873 21.6361L18.6877 23.6176L3.94392 41.9954L0.543518 40.014C0.283944 39.8669 0.128191 39.5467 0.128191 39.0882L0.110896 31.5692C0.102243 31.2317 0.197419 30.851 0.353163 30.4963Z" fill="url(#paint1_linear_562_38586)"/>
<path d="M4.94766 31.0672L17.6754 23.7213C18.4714 23.2627 19.1117 23.6348 19.1117 24.5519L19.129 32.0708C19.129 32.988 18.4974 34.0956 17.7014 34.5541L4.97362 41.9001C4.17759 42.3586 3.52867 41.9952 3.52867 41.0781L3.51135 33.5591C3.51135 32.6419 4.15164 31.5258 4.94766 31.0672Z" fill="#322A25"/>
<path d="M2.01434 40.8705L1.82399 40.758C1.74612 40.5936 1.70284 40.386 1.70284 40.161L1.68555 32.5122C1.68555 32.1748 1.77205 31.7941 1.93645 31.4134C2.08354 31.0933 2.2739 30.7817 2.50751 30.5222C2.70652 30.2972 2.92285 30.1155 3.14781 29.9857L16.0226 22.5532C16.213 22.4408 16.386 22.3802 16.5504 22.3716L16.784 22.51C16.5677 22.4494 16.3428 22.4841 16.0659 22.6398L3.19106 30.0722C2.97475 30.1934 2.7671 30.3751 2.57675 30.5914C2.35178 30.8423 2.16142 31.1452 2.02298 31.4567C1.85858 31.8201 1.78071 32.1834 1.78071 32.5122L1.79803 40.161C1.80669 40.4638 1.88456 40.7061 2.01434 40.8705Z" fill="#322A25"/>
<path d="M15.4519 23.4622V23.6698L14.2578 24.3533V24.1457L15.4519 23.4622Z" fill="#D78000"/>
<path d="M12.9772 23.6181L14.2577 24.3535V24.1458L12.9772 23.4104V23.6181Z" fill="#FCA931"/>
<path d="M14.2577 24.1454L15.4518 23.4619L14.1712 22.7178L12.9772 23.41L14.2577 24.1454Z" fill="#FFCD45"/>
<path d="M6.2541 28.7656V28.9733L5.06006 29.6655V29.4578L6.2541 28.7656Z" fill="#D78000"/>
<path d="M3.78809 28.9212L5.06 29.6653V29.4577L3.78809 28.7222V28.9212Z" fill="#FCA931"/>
<path d="M5.06 29.4579L6.25404 28.7658L4.97347 28.0303L3.78809 28.7225L5.06 29.4579Z" fill="#FFCD45"/>
<g opacity="0.8">
<path opacity="0.8" d="M7.98492 26.819L9.72404 25.8153L11.394 24.8462L12.1554 25.2961L10.4855 26.2565L8.74634 27.2602L8.12336 27.6236L7.36194 27.1737L7.98492 26.819Z" fill="#322A25"/>
</g>
<path d="M13.0292 24.4917V24.7945L12.7091 24.9849V24.682L13.0292 24.4917Z" fill="#D78000"/>
<path d="M11.9387 24.5342L12.7088 24.9841V24.6813L11.9387 24.24V24.5342Z" fill="#D78000"/>
<path d="M12.7088 24.6821L13.0289 24.4918L12.2589 24.0505L11.9387 24.2409L12.7088 24.6821Z" fill="#FFCD45"/>
<path d="M11.9477 24.2319L12.7177 24.6819L12.164 25.002L11.3939 24.5521L11.9477 24.2319Z" fill="#473E3A"/>
<path d="M11.4456 24.6041L12.0167 25.3828L11.2466 24.9329L10.6842 24.1628L11.4456 24.6041Z" fill="#251F1C"/>
<path d="M8.46063 25.1493L10.2084 24.137L10.8314 23.7822L11.5928 24.2235L10.9698 24.5869L9.23071 25.5906L8.60773 25.9453L7.84631 25.5041L8.46063 25.1493Z" fill="#473E3A"/>
<path d="M7.84634 25.5039L8.60776 25.9452L8.04535 27.3728L7.28394 26.9316L7.84634 25.5039Z" fill="#382F2B"/>
<path d="M7.28387 26.9319L8.04529 27.3731L7.49152 27.6933L6.7301 27.252L7.28387 26.9319Z" fill="#473E3A"/>
<path d="M8.04535 27.3731L8.60775 25.9455L9.23073 25.5907L10.9699 24.587L11.5928 24.2236L12.1639 25.0023L12.7177 24.6822V24.9764L12.0168 25.383L11.4458 24.6043L10.9785 24.8812L9.23073 25.8849L8.75483 26.1618L8.19242 27.5894L7.49158 27.9874V27.6932L8.04535 27.3731Z" fill="#322A25"/>
<path d="M7.49152 27.6929V27.9871L6.7301 27.5459V27.2517L7.49152 27.6929Z" fill="#322A25"/>
<path d="M7.49152 27.6931V27.9873L7.17139 28.1777V27.8748L7.49152 27.6931Z" fill="#D78000"/>
<path d="M6.40137 27.7343L7.17145 28.1755V27.8727L6.40137 27.4314V27.7343Z" fill="#FCA931"/>
<path d="M7.17145 27.8747L7.49158 27.6929L6.73016 27.2517L6.40137 27.4334L7.17145 27.8747Z" fill="#FFCD45"/>
<path d="M4.32496 32.7891C4.4634 32.469 4.6624 32.1662 4.88737 31.9066C5.07772 31.6903 5.28538 31.5085 5.51035 31.3788L18.2381 24.0328C18.6361 23.7992 18.9909 23.7819 19.2591 23.9377L22.6595 25.9191L7.91572 44.2968L4.51532 42.3155C4.25575 42.1684 4.09999 41.8482 4.09999 41.3896L4.0827 33.8707C4.07404 33.5159 4.16922 33.1439 4.32496 32.7891Z" fill="url(#paint2_linear_562_38586)"/>
<path d="M8.91031 33.36L21.638 26.0054C22.4341 25.5469 23.0744 25.9189 23.0744 26.836L23.0917 34.355C23.0917 35.2722 22.46 36.3797 21.664 36.8383L8.93626 44.1929C8.14024 44.6514 7.49129 44.2881 7.49129 43.3709L7.474 35.8519C7.474 34.9348 8.12294 33.8186 8.91031 33.36Z" fill="#6B411C"/>
<path d="M5.9859 43.1632L5.79555 43.0508C5.71767 42.8864 5.6744 42.6787 5.6744 42.4537L5.6571 34.805C5.6571 34.4676 5.74364 34.0868 5.90803 33.7061C6.05512 33.386 6.24545 33.0745 6.47907 32.8149C6.67808 32.59 6.89441 32.4083 7.11937 32.2785L19.9942 24.846C20.1846 24.7335 20.3576 24.673 20.522 24.6643L20.7556 24.8028C20.5393 24.7422 20.3143 24.7768 20.0375 24.9325L7.16262 32.365C6.94631 32.4861 6.73866 32.6678 6.54831 32.8841C6.32334 33.1351 6.13298 33.4379 5.99454 33.7494C5.83014 34.1128 5.75227 34.4762 5.75227 34.805L5.76959 42.4537C5.77824 42.7566 5.85611 42.9988 5.9859 43.1632Z" fill="#6B411C"/>
<path d="M19.4144 25.7463V25.954L18.229 26.6462V26.4386L19.4144 25.7463Z" fill="#D78000"/>
<path d="M16.9486 25.9105L18.2292 26.646V26.4384L16.9486 25.7029V25.9105Z" fill="#FCA931"/>
<path d="M18.2292 26.4382L19.4146 25.7459L18.1427 25.0105L16.9486 25.7027L18.2292 26.4382Z" fill="#FFCD45"/>
<path d="M10.2255 31.0586V31.2662L9.03149 31.9585V31.7508L10.2255 31.0586Z" fill="#D78000"/>
<path d="M7.75085 31.2142L9.03143 31.9584V31.7507L7.75085 31.0066V31.2142Z" fill="#FCA931"/>
<path d="M9.03143 31.7509L10.2255 31.0587L8.9449 30.3232L7.75085 31.0068L9.03143 31.7509Z" fill="#FFCD45"/>
<path opacity="0.8" d="M11.9474 29.1121L13.6953 28.0998L15.3652 27.1394L16.1266 27.5807L14.4567 28.5498L12.7175 29.5534L12.0945 29.9081L11.3331 29.4669L11.9474 29.1121Z" fill="#6B411C"/>
<path d="M17.0008 26.7844V27.0873L16.672 27.269V26.9748L17.0008 26.7844Z" fill="#D78000"/>
<path d="M15.9105 26.8261L16.6719 27.2674V26.9733L15.9105 26.532V26.8261Z" fill="#D78000"/>
<path d="M16.6719 26.9749L17.0007 26.7845L16.2307 26.3433L15.9105 26.5336L16.6719 26.9749Z" fill="#FFCD45"/>
<path d="M15.9191 26.5249L16.6805 26.9748L16.1268 27.2863L15.3654 26.845L15.9191 26.5249Z" fill="#8D5A2C"/>
<path d="M15.4172 26.8968L15.9882 27.6669L15.2182 27.2256L14.6471 26.4556L15.4172 26.8968Z" fill="#56351D"/>
<path d="M12.4322 27.4334L14.18 26.4297L14.7943 26.075L15.5644 26.5162L14.9414 26.871L13.1936 27.8833L12.5793 28.2381L11.8092 27.7968L12.4322 27.4334Z" fill="#8D5A2C"/>
<path d="M11.8091 27.7969L12.5792 28.2381L12.0168 29.6658L11.2467 29.2245L11.8091 27.7969Z" fill="#7A491E"/>
<path d="M11.2469 29.2246L12.0169 29.6659L11.4632 29.986L10.6931 29.5447L11.2469 29.2246Z" fill="#8D5A2C"/>
<path d="M12.0168 29.6659L12.5792 28.2382L13.1935 27.8835L14.9413 26.8711L15.5643 26.5164L16.1267 27.2864L16.6804 26.975V27.2691L15.9883 27.6671L15.4172 26.8971L14.9413 27.174L13.2022 28.1776L12.7263 28.4459L12.1639 29.8735L11.463 30.2802V29.986L12.0168 29.6659Z" fill="#6B411C"/>
<path d="M11.4632 29.986V30.2802L10.7017 29.8389L10.6931 29.5447L11.4632 29.986Z" fill="#6B411C"/>
<path d="M11.463 29.9861V30.2803L11.1342 30.4706V30.1678L11.463 29.9861Z" fill="#D78000"/>
<path d="M10.3726 30.0284L11.134 30.4697V30.1669L10.3726 29.7256V30.0284Z" fill="#FCA931"/>
<path d="M11.134 30.1678L11.4628 29.9861L10.6927 29.5361L10.3726 29.7265L11.134 30.1678Z" fill="#FFCD45"/>
<defs>
<linearGradient id="paint0_linear_562_38586" x1="14.4" y1="15.494" x2="10.4389" y2="22.3554" gradientUnits="userSpaceOnUse">
<stop stop-color="#473E3A"/>
<stop offset="1" stop-color="#382F2B"/>
</linearGradient>
<linearGradient id="paint1_linear_562_38586" x1="6.38028" y1="32.4825" x2="3.5505" y2="37.3837" gradientUnits="userSpaceOnUse">
<stop stop-color="#473E3A"/>
<stop offset="0.342" stop-color="#403733"/>
<stop offset="1" stop-color="#382F2B"/>
</linearGradient>
<linearGradient id="paint2_linear_562_38586" x1="10.3486" y1="34.7735" x2="7.51885" y2="39.6746" gradientUnits="userSpaceOnUse">
<stop stop-color="#8D5A2C"/>
<stop offset="0.1179" stop-color="#885629"/>
<stop offset="0.5345" stop-color="#7E4C21"/>
<stop offset="1" stop-color="#7A491E"/>
</linearGradient>
</defs>
</svg>
