<svg width="74" height="57" viewBox="0 0 74 57" fill="none" xmlns="http://www.w3.org/2000/svg">
<path d="M30.4217 16.0242C48.2544 18.9746 89.6909 40.6836 66.0957 52.7971C59.0094 56.4397 41.7132 59.2691 39.2991 54.2766C36.8851 49.2842 -9.71699 26.7445 3.82409 20.2033C17.3738 13.6707 24.9534 15.1157 30.4217 16.0242Z" fill="#CCAC6C" fill-opacity="0.6"/>
<path d="M16.3097 16.7942L16.2664 32.109C16.0501 31.0361 14.7436 28.4837 12.9006 27.0041L12.9093 25.81C13.4284 25.5072 13.8697 24.9361 14.1552 24.2353C14.1985 24.4083 14.259 24.5381 14.3369 24.616C14.3542 24.6333 14.3715 24.642 14.3802 24.6506C14.6138 24.7891 14.8993 24.4516 15.0464 23.8719C15.1935 23.2489 15.133 22.574 14.8907 22.3577C14.8734 22.3404 14.8561 22.3318 14.8474 22.3231C14.7609 22.2712 14.6657 22.2885 14.5792 22.3577C14.5792 22.2885 14.5792 22.2193 14.5792 22.15C14.5879 19.8658 13.0737 17.1403 11.2047 16.0587C9.32715 14.9772 7.81298 15.9549 7.80433 18.2392C7.80433 18.3084 7.80433 18.3776 7.80433 18.4468C7.70915 18.2738 7.61397 18.1526 7.52744 18.1007C7.51014 18.0921 7.49285 18.0834 7.48419 18.0834C7.25058 18.0228 7.1727 18.6198 7.31979 19.4159C7.39767 19.8398 7.51881 20.2292 7.65725 20.5147C7.67456 20.5926 7.70916 20.6532 7.76108 20.7051C7.83895 20.8262 7.90817 20.9128 7.97739 20.956C7.99469 20.9647 8.01199 20.9733 8.02064 20.9733C8.10716 20.9906 8.16771 20.9387 8.21097 20.8089C8.50515 21.8472 8.92917 22.9201 9.44831 23.82V24.9708C7.614 24.2872 6.3161 25.1871 6.06518 26.1735C6.06518 26.26 6.05652 27.9645 6.05652 28.2846L11.1615 31.2265L16.2664 34.177L6.05652 28.2846L6.10843 10.9192L16.3097 16.7942Z" fill="white"/>
<path d="M4.98331 8.95508L17.4429 16.1453L17.3909 36.1065L4.9314 28.9163L4.98331 8.95508ZM16.2661 32.109L16.3094 16.7942L6.09946 10.9019L6.04754 28.2673L16.2575 34.1597C16.2575 33.6838 16.2661 32.1869 16.2661 32.109Z" fill="url(#paint0_linear_562_34465)"/>
<path d="M11.1959 16.05C13.0735 17.1316 14.5877 19.8657 14.5791 22.1413C14.5791 22.2106 14.5791 22.2798 14.5791 22.349C14.6656 22.2798 14.7608 22.2625 14.8473 22.3144C14.8646 22.323 14.8819 22.3317 14.8906 22.349C15.1328 22.5653 15.202 23.2488 15.0463 23.8632C14.8992 24.4429 14.6137 24.7803 14.38 24.6419C14.3627 24.6332 14.3454 24.6246 14.3368 24.6073C14.2503 24.5294 14.1897 24.3996 14.1551 24.2266C13.8609 24.9274 13.4283 25.4985 12.9092 25.8013L12.9005 26.9953C14.7435 28.4663 16.0413 31.0274 16.2663 32.1003C16.2663 32.1782 16.2577 33.6751 16.2577 34.1509L11.1527 31.2004L6.04773 28.2586C6.04773 27.9471 6.05639 26.2426 6.05639 26.1474C6.30731 25.161 7.59656 24.2612 9.43953 24.9447V23.794C8.92903 22.8941 8.49642 21.8212 8.20223 20.7829C8.16762 20.9127 8.09838 20.9733 8.01185 20.9473C7.99455 20.9473 7.9859 20.9386 7.9686 20.93C7.89938 20.8954 7.83016 20.8002 7.75229 20.6791C7.70903 20.6272 7.66577 20.5579 7.64846 20.4887C7.51868 20.2032 7.38888 19.8138 7.31101 19.3898C7.16391 18.6025 7.23314 17.9968 7.4754 18.0574C7.49271 18.0574 7.50135 18.066 7.51866 18.0747C7.60518 18.1266 7.70036 18.2477 7.79554 18.4208C7.79554 18.3515 7.79554 18.2823 7.79554 18.2131C7.80419 15.9462 9.32702 14.9685 11.1959 16.05Z" fill="#696969"/>
<path d="M41.3152 47.043L41.3066 49.7167L22.0376 38.5896L22.0463 35.916L41.3152 47.043Z" fill="#696969"/>
<path d="M41.3238 43.0196V45.6932L22.0548 34.5662V31.8926L41.3238 43.0196Z" fill="#696969"/>
<path d="M41.341 38.9879L41.3324 41.6702L22.0634 30.5431L22.072 27.8608L41.341 38.9879Z" fill="#696969"/>
<path d="M38.2607 31.7283L38.2521 34.7307L35.6304 33.2165L35.639 30.2141L38.2607 31.7283Z" fill="black"/>
<path d="M40.6315 25.6455C42.1889 26.5454 43.4435 28.7171 43.4435 30.5082L43.383 51.7586C43.3743 53.5496 42.111 54.2678 40.5536 53.3679L4.64596 32.6367C3.08852 31.7368 1.83392 29.5651 1.84257 27.774L1.90315 6.52359C1.9118 4.73253 3.17507 4.01439 4.72385 4.90559L40.6315 25.6455ZM17.3824 36.0977L17.4343 16.1365L4.97476 8.94629L4.91418 28.8988L17.3824 36.0977ZM25.1782 24.1746L25.1696 27.177L27.7826 28.6825L27.7913 25.6801L30.413 27.1943L30.4043 30.1967L33.0174 31.7022L33.026 28.6998L35.639 30.2053L35.6304 33.2077L38.2521 34.7219L38.2607 31.7195L35.639 30.2053L35.6477 27.2029L33.0346 25.6974L33.026 28.6998L30.413 27.1943L30.4216 24.1919L27.7999 22.6777L27.7913 25.6801L25.1782 24.1746ZM41.3323 41.6698L41.341 38.9962L22.072 27.8692L22.0633 30.5428L41.3323 41.6698ZM41.3064 49.7166L41.315 47.043L22.0461 35.916L22.0374 38.5896L41.3064 49.7166ZM41.3237 45.6932L41.3323 43.0196L22.0633 31.8926L22.0547 34.5662L41.3237 45.6932Z" fill="url(#paint1_linear_562_34465)"/>
<path d="M42.3274 24.6854L3.04526 2.00729C1.49647 1.10743 0.224552 1.83423 0.224552 3.62529L0.155318 28.7607C0.146665 30.5431 1.40997 32.7235 2.95875 33.6147L42.2408 56.2927C43.7983 57.1926 45.0615 56.4744 45.0702 54.6834L45.1394 29.548C45.1394 27.757 43.8848 25.5852 42.3274 24.6854ZM43.383 51.7589C43.3743 53.5499 42.111 54.268 40.5536 53.3682L4.64594 32.637C3.0885 31.7371 1.8339 29.5653 1.84256 27.7743L1.90313 6.52386C1.91178 4.73281 3.17505 4.01466 4.72383 4.90586L40.6315 25.6371C42.1889 26.537 43.4435 28.7088 43.4435 30.4998L43.383 51.7589Z" fill="url(#paint2_linear_562_34465)"/>
<path d="M27.7913 25.6799L27.7827 28.6909L25.1697 27.1767L25.1783 24.1743L27.7913 25.6799Z" fill="black"/>
<path d="M33.0261 28.7001L33.0175 31.7112L30.4044 30.197L30.4131 27.1946L33.0261 28.7001Z" fill="black"/>
<path d="M30.4215 24.1919L30.4129 27.1943L27.7911 25.6801L27.7998 22.6777L30.4215 24.1919Z" fill="black"/>
<path d="M35.6478 27.2119L35.6391 30.2143L33.0261 28.7002L33.0347 25.6978L35.6478 27.2119Z" fill="black"/>
<path d="M45.1393 29.5481L45.07 54.6834C45.07 55.5659 44.7585 56.1889 44.248 56.4831L45.7882 55.5832C46.29 55.2891 46.6015 54.6661 46.6101 53.7836L46.6794 28.6482L45.1393 29.5481Z" fill="url(#paint3_radial_562_34465)"/>
<path d="M43.8675 23.7855L4.58533 1.10742C3.80661 0.657491 3.09711 0.61422 2.58662 0.908403L1.04651 1.7996C1.557 1.50542 2.2665 1.54869 3.04522 1.99862L42.3273 24.6767C43.8848 25.5765 45.1394 27.7483 45.1394 29.5393L46.6795 28.6395C46.6882 26.8657 45.4249 24.6853 43.8675 23.7855Z" fill="url(#paint4_radial_562_34465)"/>
<path d="M24.5464 7.80418C23.9754 7.47539 23.4476 7.44076 23.0669 7.65708L21.5267 8.54828C21.9074 8.33196 22.4266 8.35793 23.0063 8.69538C24.1484 9.35297 25.0743 10.9537 25.0656 12.2688L25.0569 14.6829L26.5971 13.7917L26.6057 11.3776C26.6057 10.0625 25.6886 8.46176 24.5464 7.80418Z" fill="#E88B00"/>
<path d="M23.0065 8.69534C24.1486 9.35293 25.0744 10.9536 25.0658 12.2688L25.0571 14.6828L20.9126 12.2948L20.9212 9.88072C20.9212 8.56555 21.8557 8.03776 23.0065 8.69534Z" fill="url(#paint5_linear_562_34465)"/>
<path d="M22.3749 11.4554V10.019C22.9979 10.443 23.5602 11.4207 23.6035 12.1649L22.3749 11.4554Z" fill="#BD7100"/>
<path d="M25.057 14.6914L27.7912 14.5097L26.5971 13.7915L25.057 14.6914Z" fill="black"/>
<defs>
<linearGradient id="paint0_linear_562_34465" x1="4.92248" y1="22.5262" x2="17.4353" y2="22.5262" gradientUnits="userSpaceOnUse">
<stop stop-color="#383838"/>
<stop offset="0.4159" stop-color="#3D3D3D"/>
<stop offset="0.9194" stop-color="#4C4C4C"/>
<stop offset="1" stop-color="#4F4F4F"/>
</linearGradient>
<linearGradient id="paint1_linear_562_34465" x1="1.84647" y1="29.1459" x2="43.4446" y2="29.1459" gradientUnits="userSpaceOnUse">
<stop stop-color="#FECF42"/>
<stop offset="0.1271" stop-color="#FEBA00"/>
<stop offset="0.8983" stop-color="#FEBF00"/>
<stop offset="0.9292" stop-color="#FEC518"/>
<stop offset="0.9745" stop-color="#FECC37"/>
<stop offset="1" stop-color="#FECF42"/>
</linearGradient>
<linearGradient id="paint2_linear_562_34465" x1="0.153068" y1="29.1459" x2="45.1393" y2="29.1459" gradientUnits="userSpaceOnUse">
<stop stop-color="#383838"/>
<stop offset="0.4159" stop-color="#3D3D3D"/>
<stop offset="0.9194" stop-color="#4C4C4C"/>
<stop offset="1" stop-color="#4F4F4F"/>
</linearGradient>
<radialGradient id="paint3_radial_562_34465" cx="0" cy="0" r="1" gradientUnits="userSpaceOnUse" gradientTransform="translate(45.4626 42.5687) scale(9.8778)">
<stop offset="0.2712" stop-color="#383838"/>
<stop offset="0.5562" stop-color="#343434"/>
<stop offset="0.8093" stop-color="#2A2A2A"/>
<stop offset="1" stop-color="#1C1C1C"/>
</radialGradient>
<radialGradient id="paint4_radial_562_34465" cx="0" cy="0" r="1" gradientUnits="userSpaceOnUse" gradientTransform="translate(23.8621 15.1352) scale(19.083)">
<stop offset="0.2712" stop-color="#383838"/>
<stop offset="0.5562" stop-color="#343434"/>
<stop offset="0.8093" stop-color="#2A2A2A"/>
<stop offset="1" stop-color="#1C1C1C"/>
</radialGradient>
<linearGradient id="paint5_linear_562_34465" x1="20.9149" y1="11.5517" x2="25.065" y2="11.5517" gradientUnits="userSpaceOnUse">
<stop stop-color="#FECF42"/>
<stop offset="0.1271" stop-color="#FEBA00"/>
<stop offset="0.8983" stop-color="#FEBF00"/>
<stop offset="0.9292" stop-color="#FEC518"/>
<stop offset="0.9745" stop-color="#FECC37"/>
<stop offset="1" stop-color="#FECF42"/>
</linearGradient>
</defs>
</svg>
