<svg width="74" height="65" viewBox="0 0 74 65" fill="none" xmlns="http://www.w3.org/2000/svg">
<path opacity="0.5" d="M26.7206 55L13.8025 62.5883L8.92249 59.8021L21.979 52.2053L26.7206 55Z" fill="#008484"/>
<path opacity="0.5" d="M50.0386 41.5455L37.1204 49.1337L32.2318 46.3476L45.2884 38.7507L50.0386 41.5455Z" fill="#008484"/>
<path opacity="0.5" d="M28.0701 52.6897C29.131 52.6897 29.991 52.2326 29.991 51.6687C29.991 51.1049 29.131 50.6477 28.0701 50.6477C27.0093 50.6477 26.1493 51.1049 26.1493 51.6687C26.1493 52.2326 27.0093 52.6897 28.0701 52.6897Z" fill="#008484"/>
<path opacity="0.5" d="M51.6911 39.1572C52.752 39.1572 53.612 38.7001 53.612 38.1362C53.612 37.5723 52.752 37.1152 51.6911 37.1152C50.6303 37.1152 49.7703 37.5723 49.7703 38.1362C49.7703 38.7001 50.6303 39.1572 51.6911 39.1572Z" fill="#008484"/>
<path d="M3.35869 32.097L2.51074 31.5605V64.362L3.35869 64.8119V32.097Z" fill="#824E4E"/>
<path d="M3.35889 32.097L4.21547 31.5605V64.362L3.35889 64.8119V32.097Z" fill="#663636"/>
<path d="M30.0081 16.7043L29.1515 16.1765V48.9692L30.0081 49.4279V16.7043Z" fill="#824E4E"/>
<path d="M30.0083 16.7043L30.8562 16.1765V48.9692L30.0083 49.4279V16.7043Z" fill="#663636"/>
<path d="M52.6691 5.26611V35.3766L53.517 35.8265V5.26611H52.6691Z" fill="#824E4E"/>
<path d="M53.5167 5.26611V35.8265L54.3733 35.3766V5.26611H53.5167Z" fill="#663636"/>
<path d="M20.3868 46.1486L3.67896 36.5357L3.89527 36.155L19.9456 45.3786V42.7828H20.3868V46.1486Z" fill="#663636"/>
<path d="M11.7517 45.9668L3.89527 41.4502L3.67896 41.8396L11.7517 46.4773V45.9668Z" fill="#663636"/>
<path d="M11.7517 48.9609L3.89527 44.4443L3.67896 44.825L11.7517 49.4714V48.9609Z" fill="#663636"/>
<path d="M11.3708 36.8989H10.9296V40.5848H11.3708V36.8989Z" fill="#663636"/>
<path d="M6.18796 42.8435H5.7467V45.9324H6.18796V42.8435Z" fill="#663636"/>
<path d="M72.4053 14.2644V15.6488L20.2137 45.8026L20.4387 46.1833L72.8466 15.8997V14.2644H72.4053Z" fill="#663636"/>
<path d="M55.68 4.6687V6.05307L3.4884 36.2068L3.71338 36.5875L56.1212 6.31263V4.6687H55.68Z" fill="#663636"/>
<path d="M0.165894 31.3964V32.6856C0.165894 32.6856 4.36234 33.646 8.39438 35.7572C14.2348 38.8115 20.8366 44.6952 20.8366 44.6952V43.6828C20.8366 43.6828 21.0356 37.8511 15.5846 34.2171C10.1422 30.5917 0.165894 31.3964 0.165894 31.3964Z" fill="#FF6D00"/>
<path d="M69.4981 10.0249L17.3585 40.1613L16.3202 39.547C19.3053 41.7794 20.8368 43.3368 20.8368 43.3368L73.3485 13.0186C73.3485 13.0186 71.6612 11.6775 69.4981 10.0249Z" fill="#FF8939"/>
<path d="M52.9113 0.981689L0.166016 31.3864C0.166016 31.3864 2.30317 31.9228 4.70855 32.7967L57.2808 2.46122C54.9879 1.61328 52.9113 0.981689 52.9113 0.981689Z" fill="#FF8939"/>
<path d="M57.2807 2.47998L4.70837 32.8155C6.05816 33.3086 7.48581 33.9057 8.67984 34.5806C8.83559 34.6671 8.98268 34.7536 9.13842 34.8488L61.3213 4.26238C60.1792 3.63075 58.691 3.00778 57.2807 2.47998Z" fill="#FF9E5C"/>
<path d="M65.3794 6.95312L13.1965 37.3492C14.3646 38.1279 15.4116 38.872 16.3201 39.5469L17.2199 40.2304L69.5067 10.0248C68.2088 9.03841 66.7552 7.9395 65.3794 6.95312Z" fill="#FF9E5C"/>
<path d="M61.4599 4.33156C61.4166 4.3056 61.3647 4.27962 61.3128 4.25366L9.12988 34.8401C10.6268 35.7053 11.9852 36.5446 13.1965 37.3493L65.3794 6.95322C63.8479 5.83706 62.4203 4.85936 61.4599 4.33156Z" fill="#FFB888"/>
<path d="M28.3902 38.9757C28.3469 38.9324 23.9082 34.7879 17.6871 31.076C13.4733 28.5581 7.7714 27.0526 7.71948 27.0353L8.42899 26.6287C8.48956 26.646 13.6983 28.0131 17.9899 30.5742C24.2716 34.3293 28.8747 38.6296 28.918 38.6729L28.3902 38.9757Z" fill="#FF6D00"/>
<path d="M37.2331 33.9054C37.1898 33.8621 32.7511 29.7176 26.53 26.0057C22.3162 23.4879 16.6143 21.9823 16.5624 21.965L17.2719 21.5583C17.3325 21.5757 22.5412 22.9427 26.8328 25.5039C33.1145 29.259 37.7176 33.5593 37.7609 33.6026L37.2331 33.9054Z" fill="#FF6D00"/>
<path d="M46.2661 28.6788C46.2229 28.6356 41.7842 24.4911 35.5631 20.7792C31.3493 18.2613 25.6474 16.7557 25.5955 16.7384L26.3049 16.3318C26.3655 16.3491 31.5743 17.7162 35.8659 20.2773C42.1476 24.0325 46.7507 28.3327 46.794 28.376L46.2661 28.6788Z" fill="#FF6D00"/>
<path d="M55.1953 23.5136C55.1521 23.4703 50.7134 19.3258 44.4923 15.6139C40.2786 13.096 34.5766 11.5905 34.5247 11.5732L35.2342 11.1665C35.2947 11.1838 40.5035 12.5509 44.7951 15.1121C51.0768 18.8672 55.6799 23.1675 55.7232 23.2107L55.1953 23.5136Z" fill="#FF6D00"/>
<path d="M64.0383 18.4176C63.995 18.3743 59.5563 14.2298 53.3352 10.5179C49.1214 8.00001 43.4195 6.4945 43.3676 6.4772L44.0771 6.07056C44.1376 6.08786 49.3464 7.45495 53.638 10.0161C59.9197 13.7712 64.5228 18.0715 64.566 18.1147L64.0383 18.4176Z" fill="#FF6D00"/>
<path d="M73.0369 13.2259C72.9937 13.1826 68.5549 9.03812 62.3338 5.32622C58.1201 2.80836 52.4181 1.30285 52.3662 1.28555L53.0757 0.878906C53.1363 0.896211 58.345 2.2633 62.6367 4.82442C68.9183 8.57958 73.5214 12.8625 73.5647 12.9058L73.0369 13.2259Z" fill="#FF6D00"/>
<path d="M20.8368 43.345L20.8454 44.6948L73.5648 14.2988V12.8884L20.8368 43.345Z" fill="#E25B00"/>
<path d="M29.4977 46.0012L29.541 51.634C29.541 52.0147 28.8921 52.3262 28.0788 52.3348C27.2654 52.3435 26.6078 52.0407 26.6078 51.66L26.5646 46.0272L29.4977 46.0012Z" fill="#028985"/>
<path d="M26.5646 46.2174C26.5646 46.5981 27.2308 46.901 28.0355 46.8923C28.8488 46.8836 29.4977 46.5722 29.4977 46.1915C29.4977 45.8107 28.8315 45.5079 28.0268 45.5165C27.2135 45.5252 26.5646 45.8367 26.5646 46.2174Z" fill="#663636"/>
<path d="M26.5562 46.179L29.4894 46.158L29.4886 46.0541L26.5555 46.0751L26.5562 46.179Z" fill="#663636"/>
<path d="M26.5645 46.0186C26.5645 46.01 26.5645 45.9927 26.5645 45.9841C26.5991 45.214 27.2394 44.5824 28.0181 44.5824C28.7969 44.5737 29.4458 45.1967 29.4891 45.9667C29.4891 45.9754 29.4891 45.9927 29.4891 46.0013C29.4891 46.01 29.4891 46.01 29.4891 46.01C29.4891 46.0186 29.4891 46.0273 29.4891 46.036H29.4804C29.4371 46.3994 28.8055 46.6849 28.0181 46.6936C27.2394 46.7022 26.5991 46.4166 26.5472 46.0619H26.5386C26.5386 46.0532 26.5386 46.0446 26.5386 46.036C26.5645 46.0273 26.5645 46.0273 26.5645 46.0186Z" fill="#0AA5A5"/>
<path d="M27.0403 48.078C27.2999 48.1904 27.6546 48.2683 28.0526 48.2683C28.866 48.2596 29.5149 47.9395 29.5149 47.5588C29.5149 47.5588 29.5322 50.3882 29.5322 50.3968C29.5322 50.7689 28.9179 51.0717 28.1305 51.1063C28.1132 51.1063 28.1046 51.1063 28.0872 51.1063C28.0786 51.1063 28.0699 51.1063 28.0699 51.1063C28.0613 51.1063 28.0526 51.1063 28.0526 51.1063C28.0353 51.1063 28.0267 51.1063 28.0094 51.1063C27.646 51.0977 27.3172 51.0284 27.0662 50.9246L27.0403 48.078Z" fill="white"/>
<path d="M29.5238 49.3328C29.5238 49.5318 29.5238 49.6615 29.5238 49.6702C29.5238 50.0595 28.8662 50.371 28.0356 50.3797C28.0183 50.3797 28.0096 50.3797 27.9923 50.3797V50.0423C28.0096 50.0423 28.0183 50.0423 28.0356 50.0423C28.8662 50.0336 29.5238 49.7135 29.5238 49.3328Z" fill="#663636"/>
<path d="M29.5238 48.4326C29.5238 48.6316 29.5238 48.7614 29.5238 48.7701C29.5238 49.1594 28.8662 49.4709 28.0356 49.4796C28.0183 49.4796 28.0096 49.4796 27.9923 49.4796V49.1421C28.0096 49.1421 28.0183 49.1421 28.0356 49.1421C28.8662 49.1335 29.5238 48.822 29.5238 48.4326Z" fill="#663636"/>
<path d="M28.2256 45.8366C28.2256 46.0875 28.4246 46.2866 28.6582 46.2866C28.8918 46.2866 29.0908 46.0789 29.0822 45.8366C29.0822 45.5857 28.8832 45.3867 28.6496 45.3867C28.416 45.3781 28.2256 45.5857 28.2256 45.8366Z" fill="#663636"/>
<path d="M53.1364 32.3828L53.1797 38.0156C53.1797 38.3963 52.5308 38.7078 51.7174 38.7164C50.9041 38.7251 50.2465 38.4223 50.2465 38.0415L50.2032 32.4088L53.1364 32.3828Z" fill="#028985"/>
<path d="M50.2031 32.6078C50.2031 32.9885 50.8693 33.2913 51.674 33.2827C52.4873 33.274 53.1363 32.9625 53.1363 32.5818C53.1363 32.2011 52.47 31.8983 51.6654 31.9069C50.852 31.9156 50.1944 32.2271 50.2031 32.6078Z" fill="#663636"/>
<path d="M50.1894 32.5662L53.1226 32.5452L53.1218 32.4413L50.1887 32.4623L50.1894 32.5662Z" fill="#663636"/>
<path d="M50.203 32.3998C50.203 32.3912 50.203 32.3738 50.203 32.3652C50.2376 31.5951 50.8778 30.9635 51.6566 30.9635C52.4353 30.9548 53.0842 31.5778 53.1275 32.3479C53.1275 32.3565 53.1275 32.3738 53.1275 32.3825V32.3911C53.1275 32.3998 53.1275 32.4085 53.1275 32.4171H53.1188C53.0756 32.7805 52.4439 33.066 51.6566 33.0747C50.8778 33.0833 50.2376 32.7978 50.1856 32.4431H50.177C50.177 32.4344 50.177 32.4258 50.177 32.4171C50.203 32.4085 50.203 32.4085 50.203 32.3998Z" fill="#0AA5A5"/>
<path d="M50.6703 34.4679C50.9299 34.5804 51.2846 34.6582 51.6826 34.6582C52.496 34.6496 53.1449 34.3294 53.1449 33.9487C53.1449 33.9487 53.1622 36.7781 53.1622 36.7868C53.1622 37.1588 52.5479 37.4617 51.7605 37.4963C51.7432 37.4963 51.7346 37.4963 51.7173 37.4963C51.7086 37.4963 51.6999 37.4963 51.6999 37.4963C51.6913 37.4963 51.6826 37.4963 51.6826 37.4963C51.6653 37.4963 51.6567 37.4963 51.6394 37.4963C51.276 37.4876 50.9472 37.4184 50.6962 37.3145L50.6703 34.4679Z" fill="white"/>
<path d="M53.1622 35.7576C53.1622 35.9566 53.1622 36.0864 53.1622 36.095C53.1622 36.4844 52.5046 36.7958 51.674 36.8045C51.6567 36.8045 51.648 36.8045 51.6307 36.8045V36.4671C51.648 36.4671 51.6567 36.4671 51.674 36.4671C52.496 36.4584 53.1622 36.1383 53.1622 35.7576Z" fill="#663636"/>
<path d="M53.1622 34.8574C53.1622 35.0564 53.1622 35.1862 53.1622 35.1949C53.1622 35.5842 52.5046 35.8957 51.674 35.9044C51.6567 35.9044 51.648 35.9044 51.6307 35.9044V35.5669C51.648 35.5669 51.6567 35.5669 51.674 35.5669C52.496 35.5583 53.1622 35.2468 53.1622 34.8574Z" fill="#663636"/>
<path d="M51.8643 32.218C51.8643 32.4689 52.0633 32.6679 52.2969 32.6679C52.5305 32.6679 52.7295 32.4602 52.7208 32.218C52.7208 31.967 52.5218 31.7681 52.2882 31.7681C52.0546 31.7681 51.8643 31.967 51.8643 32.218Z" fill="#663636"/>
<path d="M32.9934 42.7134V46.2176L33.3828 46.4512V42.9384L32.9934 42.7134Z" fill="white"/>
<path d="M33.7809 42.7913V46.2176L33.3829 46.4512V43.0162L33.7809 42.7913Z" fill="#BFBFBF"/>
<path d="M36.7401 44.8765V48.3807L37.1295 48.6143V45.1014L36.7401 44.8765Z" fill="white"/>
<path d="M37.5188 44.9543V48.3807L37.1294 48.6143V45.1879L37.5188 44.9543Z" fill="#BFBFBF"/>
<path d="M44.752 35.8518V39.3474L45.1413 39.5897V36.0768L44.752 35.8518Z" fill="#E0E0E0"/>
<path d="M45.5397 35.9297V39.3474L45.1417 39.5897V36.1546L45.5397 35.9297Z" fill="#824E4E"/>
<path d="M48.4987 38.0583V41.5626L48.888 41.7962V38.2833L48.4987 38.0583Z" fill="white"/>
<path d="M49.2773 38.1362V41.5626L48.8879 41.7962V38.3612L49.2773 38.1362Z" fill="#BFBFBF"/>
<path d="M37.1293 44.7121L32.9934 42.3154L45.1587 35.281L49.2773 37.669L37.1293 44.7121Z" fill="#824E4E"/>
<path d="M32.9934 42.3152V42.8863L37.1293 45.283V44.7119L32.9934 42.3152Z" fill="#663636"/>
<path d="M37.1294 44.712V45.2831L49.2774 38.24V37.6689L37.1294 44.712Z" fill="#4F2525"/>
<path d="M34.1615 42.9989L34.3259 43.1114L46.5259 36.077L46.3268 35.9558L34.1615 42.9989Z" fill="#663636"/>
<path d="M35.6842 43.8816L35.8399 43.994L48.0572 36.9597L47.8495 36.8472L35.6842 43.8816Z" fill="#663636"/>
<path d="M9.68384 56.2461V59.7503L10.0732 59.984V56.4711L9.68384 56.2461Z" fill="white"/>
<path d="M10.4622 56.324V59.7504L10.0729 59.984V56.5576L10.4622 56.324Z" fill="#BFBFBF"/>
<path d="M13.4214 58.4182V61.9138L13.8194 62.1561V58.6432L13.4214 58.4182Z" fill="white"/>
<path d="M14.2087 58.4956V61.9133L13.8193 62.1556V58.7206L14.2087 58.4956Z" fill="#BFBFBF"/>
<path d="M21.4423 49.3845V52.8888L21.8316 53.1224V49.6095L21.4423 49.3845Z" fill="#E0E0E0"/>
<path d="M22.2213 49.4624V52.8888L21.8319 53.1224V49.6874L22.2213 49.4624Z" fill="#824E4E"/>
<path d="M25.1803 51.5911V55.0953L25.5783 55.3289V51.816L25.1803 51.5911Z" fill="white"/>
<path d="M25.9679 51.6689V55.0953L25.5785 55.3289V51.9025L25.9679 51.6689Z" fill="#BFBFBF"/>
<path d="M13.8197 58.2533L9.68384 55.8566L21.8492 48.8135L25.9677 51.2016L13.8197 58.2533Z" fill="#824E4E"/>
<path d="M9.68384 55.8572V56.4283L13.8197 58.825V58.2539L9.68384 55.8572Z" fill="#663636"/>
<path d="M13.8195 58.2532V58.8242L25.9675 51.7725V51.2014L13.8195 58.2532Z" fill="#4F2525"/>
<path d="M10.843 56.5404L11.0161 56.6442L23.216 49.6184L23.0084 49.4973L10.843 56.5404Z" fill="#663636"/>
<path d="M12.3745 57.4227L12.5302 57.5352L24.7388 50.5008L24.5398 50.3796L12.3745 57.4227Z" fill="#663636"/>
<path d="M7.72815 49.6181L18.1371 55.6402V47.4637L7.72815 41.4502V49.6181Z" fill="#0AA5A5"/>
<path d="M15.2471 51.7468L8.38574 47.7754V48.4848L15.2471 52.4477V51.7468Z" fill="white"/>
<path d="M17.4277 53.0014L15.6366 51.9631V52.664L17.4277 53.7023V53.0014Z" fill="white"/>
<path d="M15.2471 50.2062L8.38574 46.2434V46.9443L15.2471 50.9157V50.2062Z" fill="white"/>
<path d="M17.4277 51.4611L15.6366 50.4229V51.1323L17.4277 52.1706V51.4611Z" fill="white"/>
<path d="M15.2471 48.6667L8.38574 44.7039V45.4134L15.2471 49.3762V48.6667Z" fill="white"/>
<path d="M17.4277 49.9299L15.6366 48.8916V49.5924L17.4277 50.6308V49.9299Z" fill="white"/>
<path d="M15.2471 47.1348L8.38574 43.1633V43.8728L15.2471 47.8443V47.1348Z" fill="white"/>
<path d="M17.4277 48.3894L15.6366 47.3511V48.0606L17.4277 49.0989V48.3894Z" fill="white"/>
<path d="M18.1371 47.4637V55.6402L18.9591 55.147V46.9878L18.1371 47.4637Z" fill="#028985"/>
<path d="M7.72815 41.45L18.1371 47.4635L18.959 46.9876L8.5588 40.9741L7.72815 41.45Z" fill="#64FFF3"/>
</svg>
