<svg width="57" height="33" viewBox="0 0 57 33" fill="none" xmlns="http://www.w3.org/2000/svg">
<path d="M13.0569 8.95728H10.2015V32.4833H13.0569V8.95728Z" fill="#E1E1E1"/>
<path opacity="0.1" d="M12.1225 8.95728H11.1361V32.4833H12.1225V8.95728Z" fill="#E1E1E1"/>
<path opacity="0.15" d="M13.0569 8.95728H10.2015V11.5184H13.0569V8.95728Z" fill="#E1E1E1"/>
<path opacity="0.15" d="M13.0569 21.5466H10.2015V24.1077H13.0569V21.5466Z" fill="#E1E1E1"/>
<path d="M45.8757 8.95728H43.0204V32.4833H45.8757V8.95728Z" fill="#E1E1E1"/>
<path opacity="0.1" d="M44.9413 8.95728H43.955V32.4833H44.9413V8.95728Z" fill="#E1E1E1"/>
<path opacity="0.15" d="M45.8757 8.95728H43.0204V11.5184H45.8757V8.95728Z" fill="#E1E1E1"/>
<path opacity="0.15" d="M45.8757 21.5466H43.0204V24.1077H45.8757V21.5466Z" fill="#E1E1E1"/>
<path d="M56.423 0.339355H0.0263672V9.97819H56.423V0.339355Z" fill="#EAE6E5"/>
<path d="M27.1865 0.3396L17.5477 9.97844H10.6171L20.2472 0.3396H27.1865Z" fill="#FC3D03"/>
<path d="M13.5675 0.339355L3.92863 9.97819H0.0263672V6.94984L6.62819 0.339355H13.5675Z" fill="#FC3D03"/>
<path d="M33.8488 0.3396L24.2186 9.97844H31.1492L40.7794 0.3396H33.8488Z" fill="#FC3D03"/>
<path d="M54.3811 0.3396L44.7509 9.97844H37.8203L47.4505 0.3396H54.3811Z" fill="#FC3D03"/>
<path d="M56.4317 4.96851V9.97831H51.4133L56.4317 4.96851Z" fill="#FC3D03"/>
<path opacity="0.1" d="M56.4232 3.59277H0.0264893V7.01045H56.4232V3.59277Z" fill="#757373"/>
<path opacity="0.1" d="M56.4232 3.59277H0.0264893V5.30594H56.4232V3.59277Z" fill="#757373"/>
<path opacity="0.1" d="M56.4232 3.59277H0.0264893V4.08597H56.4232V3.59277Z" fill="#757373"/>
<path opacity="0.1" d="M56.4232 9.46777H0.0264893V9.96097H56.4232V9.46777Z" fill="#757373"/>
<path opacity="0.15" d="M56.4232 6.60376H0.0264893V7.0104H56.4232V6.60376Z" fill="white"/>
<path opacity="0.35" d="M56.4232 7.09717H0.0264893V7.64228H56.4232V7.09717Z" fill="white"/>
<path opacity="0.45" d="M56.4232 0.502197H0.0264893V1.18572H56.4232V0.502197Z" fill="white"/>
<path opacity="0.1" d="M44.4826 6.89639C44.9843 6.89639 45.3911 6.4896 45.3911 5.98784C45.3911 5.48609 44.9843 5.07935 44.4826 5.07935C43.9808 5.07935 43.5741 5.48609 43.5741 5.98784C43.5741 6.4896 43.9808 6.89639 44.4826 6.89639Z" fill="#757373"/>
<path d="M44.481 6.725C44.9828 6.725 45.3895 6.31826 45.3895 5.81651C45.3895 5.31475 44.9828 4.90796 44.481 4.90796C43.9793 4.90796 43.5725 5.31475 43.5725 5.81651C43.5725 6.31826 43.9793 6.725 44.481 6.725Z" fill="#B2B2B2"/>
<path d="M44.5259 6.50849V5.15871C44.5259 5.11544 44.4913 5.08081 44.448 5.08081C44.4048 5.08081 44.3701 5.11544 44.3701 5.15871V6.50849C44.3701 6.55175 44.4048 6.58633 44.448 6.58633C44.4913 6.58633 44.5259 6.55175 44.5259 6.50849Z" fill="#8C8C8C"/>
<path opacity="0.07" d="M44.4047 6.50849V5.15871C44.4047 5.1241 44.4307 5.08946 44.4653 5.08081C44.4567 5.08081 44.4567 5.08081 44.448 5.08081C44.4048 5.08081 44.3701 5.11544 44.3701 5.15871V6.50849C44.3701 6.55175 44.4048 6.58633 44.448 6.58633C44.4567 6.58633 44.4567 6.58633 44.4653 6.58633C44.4307 6.57768 44.4047 6.54309 44.4047 6.50849Z" fill="#141414"/>
<path d="M45.1227 5.91184H43.773C43.7297 5.91184 43.6951 5.87721 43.6951 5.83395C43.6951 5.79068 43.7297 5.7561 43.773 5.7561H45.1227C45.166 5.7561 45.2006 5.79068 45.2006 5.83395C45.2006 5.87721 45.166 5.91184 45.1227 5.91184Z" fill="#8C8C8C"/>
<path opacity="0.07" d="M43.773 5.79777H45.1227C45.1574 5.79777 45.192 5.82374 45.2006 5.85835C45.2006 5.8497 45.2006 5.84968 45.2006 5.84103C45.2006 5.79776 45.166 5.76318 45.1227 5.76318H43.773C43.7297 5.76318 43.6951 5.79776 43.6951 5.84103C43.6951 5.84968 43.6951 5.85835 43.6951 5.85835C43.7037 5.81509 43.7384 5.79777 43.773 5.79777Z" fill="#141414"/>
<path opacity="0.05" d="M44.4826 5.07236C44.9585 5.07236 45.3392 5.43577 45.3824 5.89435C45.3824 5.86839 45.3824 5.84247 45.3824 5.81651C45.3824 5.31467 44.9758 4.90796 44.474 4.90796C43.9721 4.90796 43.5654 5.31467 43.5654 5.81651C43.5654 5.84247 43.5654 5.86839 43.5654 5.89435C43.6173 5.43577 44.0067 5.07236 44.4826 5.07236Z" fill="#141414"/>
<path opacity="0.1" d="M11.5948 6.89639C12.0966 6.89639 12.5033 6.4896 12.5033 5.98784C12.5033 5.48609 12.0966 5.07935 11.5948 5.07935C11.093 5.07935 10.6863 5.48609 10.6863 5.98784C10.6863 6.4896 11.093 6.89639 11.5948 6.89639Z" fill="#757373"/>
<path d="M11.5933 6.725C12.0951 6.725 12.5018 6.31826 12.5018 5.81651C12.5018 5.31475 12.0951 4.90796 11.5933 4.90796C11.0916 4.90796 10.6848 5.31475 10.6848 5.81651C10.6848 6.31826 11.0916 6.725 11.5933 6.725Z" fill="#B2B2B2"/>
<path d="M11.6454 6.50849V5.15871C11.6454 5.11544 11.6108 5.08081 11.5675 5.08081C11.5243 5.08081 11.4896 5.11544 11.4896 5.15871V6.50849C11.4896 6.55175 11.5243 6.58633 11.5675 6.58633C11.6021 6.58633 11.6454 6.55175 11.6454 6.50849Z" fill="#8C8C8C"/>
<path opacity="0.07" d="M11.5172 6.50849V5.15871C11.5172 5.1241 11.5431 5.08946 11.5777 5.08081C11.5691 5.08081 11.5691 5.08081 11.5604 5.08081C11.5172 5.08081 11.4825 5.11544 11.4825 5.15871V6.50849C11.4825 6.55175 11.5172 6.58633 11.5604 6.58633C11.5691 6.58633 11.5691 6.58633 11.5777 6.58633C11.5518 6.57768 11.5172 6.54309 11.5172 6.50849Z" fill="#141414"/>
<path d="M12.2424 5.91184H10.8926C10.8493 5.91184 10.8147 5.87721 10.8147 5.83395C10.8147 5.79068 10.8493 5.7561 10.8926 5.7561H12.2424C12.2856 5.7561 12.3202 5.79068 12.3202 5.83395C12.3202 5.87721 12.2856 5.91184 12.2424 5.91184Z" fill="#8C8C8C"/>
<path opacity="0.07" d="M10.8855 5.79777H12.2353C12.2699 5.79777 12.3045 5.82374 12.3131 5.85835C12.3131 5.8497 12.3131 5.84968 12.3131 5.84103C12.3131 5.79776 12.2785 5.76318 12.2353 5.76318H10.8855C10.8422 5.76318 10.8076 5.79776 10.8076 5.84103C10.8076 5.84968 10.8076 5.85835 10.8076 5.85835C10.8249 5.81509 10.8509 5.79777 10.8855 5.79777Z" fill="#141414"/>
<path opacity="0.05" d="M11.5949 5.07236C12.0708 5.07236 12.4515 5.43577 12.4947 5.89435C12.4947 5.86839 12.4947 5.84247 12.4947 5.81651C12.4947 5.31467 12.0881 4.90796 11.5862 4.90796C11.0844 4.90796 10.6777 5.31467 10.6777 5.81651C10.6777 5.84247 10.6777 5.86839 10.6777 5.89435C10.7383 5.43577 11.119 5.07236 11.5949 5.07236Z" fill="#141414"/>
<path d="M56.4232 13.396H0.0264893V23.0348H56.4232V13.396Z" fill="#EAE6E5"/>
<path d="M27.1865 13.396L17.5477 23.0348H10.6171L20.2472 13.396H27.1865Z" fill="#FC3D03"/>
<path d="M13.5676 13.396L3.92875 23.0348H0.0264893V19.9978L6.62831 13.396H13.5676Z" fill="#FC3D03"/>
<path d="M33.8489 13.396L24.2188 23.0348H31.1493L40.7795 13.396H33.8489Z" fill="#FC3D03"/>
<path d="M54.3811 13.396L44.7509 23.0348H37.8203L47.4505 13.396H54.3811Z" fill="#FC3D03"/>
<path d="M56.4317 18.0249V23.0346H51.4133L56.4317 18.0249Z" fill="#FC3D03"/>
<path opacity="0.1" d="M56.4232 16.6492H0.0264893V20.0669H56.4232V16.6492Z" fill="#757373"/>
<path opacity="0.1" d="M56.4232 16.6492H0.0264893V18.3624H56.4232V16.6492Z" fill="#757373"/>
<path opacity="0.1" d="M56.4232 16.6492H0.0264893V17.1424H56.4232V16.6492Z" fill="#757373"/>
<path opacity="0.1" d="M56.4232 22.5242H0.0264893V23.0173H56.4232V22.5242Z" fill="#757373"/>
<path opacity="0.15" d="M56.4232 19.6516H0.0264893V20.0583H56.4232V19.6516Z" fill="white"/>
<path opacity="0.35" d="M56.4232 20.1448H0.0264893V20.6899H56.4232V20.1448Z" fill="white"/>
<path opacity="0.45" d="M56.4233 13.5503H0.0266113V14.2338H56.4233V13.5503Z" fill="white"/>
<path opacity="0.1" d="M45.3594 19.1687C45.4283 18.6717 45.0813 18.213 44.5843 18.1441C44.0873 18.0752 43.6286 18.4222 43.5597 18.9192C43.4908 19.4162 43.8378 19.8749 44.3348 19.9438C44.8318 20.0127 45.2905 19.6657 45.3594 19.1687Z" fill="#757373"/>
<path d="M45.3604 18.9946C45.4293 18.4976 45.0822 18.0389 44.5853 17.97C44.0883 17.9011 43.6295 18.2482 43.5606 18.7452C43.4918 19.2421 43.8388 19.7009 44.3358 19.7698C44.8328 19.8386 45.2915 19.4916 45.3604 18.9946Z" fill="#B2B2B2"/>
<path d="M44.5261 19.5653V18.2155C44.5261 18.1723 44.4915 18.1377 44.4483 18.1377C44.405 18.1377 44.3704 18.1723 44.3704 18.2155V19.5653C44.3704 19.6086 44.405 19.6432 44.4483 19.6432C44.4915 19.6432 44.5261 19.6086 44.5261 19.5653Z" fill="#8C8C8C"/>
<path opacity="0.07" d="M44.405 19.5653V18.2155C44.405 18.1809 44.4309 18.1463 44.4656 18.1377C44.4569 18.1377 44.4569 18.1377 44.4483 18.1377C44.405 18.1377 44.3704 18.1723 44.3704 18.2155V19.5653C44.3704 19.6086 44.405 19.6432 44.4483 19.6432C44.4569 19.6432 44.4569 19.6432 44.4656 19.6432C44.4309 19.6346 44.405 19.5999 44.405 19.5653Z" fill="#141414"/>
<path d="M45.1231 18.968H43.7733C43.7301 18.968 43.6954 18.9334 43.6954 18.8902C43.6954 18.8469 43.7301 18.8123 43.7733 18.8123H45.1231C45.1664 18.8123 45.201 18.8469 45.201 18.8902C45.201 18.9334 45.1664 18.968 45.1231 18.968Z" fill="#8C8C8C"/>
<path opacity="0.07" d="M43.7733 18.8469H45.1231C45.1577 18.8469 45.1923 18.8728 45.201 18.9074C45.201 18.8988 45.201 18.8988 45.201 18.8902C45.201 18.8469 45.1664 18.8123 45.1231 18.8123H43.7733C43.7301 18.8123 43.6954 18.8469 43.6954 18.8902C43.6954 18.8988 43.6954 18.9074 43.6954 18.9074C43.7041 18.8728 43.7387 18.8469 43.7733 18.8469Z" fill="#141414"/>
<path opacity="0.05" d="M44.4808 18.1268C44.9566 18.1268 45.3374 18.4902 45.3806 18.9488C45.3806 18.9228 45.3806 18.8969 45.3806 18.8709C45.3806 18.3691 44.974 17.9624 44.4721 17.9624C43.9703 17.9624 43.5636 18.3691 43.5636 18.8709C43.5636 18.8969 43.5636 18.9228 43.5636 18.9488C43.6155 18.4902 44.0049 18.1268 44.4808 18.1268Z" fill="#141414"/>
<path opacity="0.1" d="M11.5948 19.9525C12.0966 19.9525 12.5033 19.5457 12.5033 19.044C12.5033 18.5422 12.0966 18.1355 11.5948 18.1355C11.093 18.1355 10.6863 18.5422 10.6863 19.044C10.6863 19.5457 11.093 19.9525 11.5948 19.9525Z" fill="#757373"/>
<path d="M11.5933 19.7813C12.0951 19.7813 12.5018 19.3746 12.5018 18.8729C12.5018 18.3711 12.0951 17.9644 11.5933 17.9644C11.0916 17.9644 10.6848 18.3711 10.6848 18.8729C10.6848 19.3746 11.0916 19.7813 11.5933 19.7813Z" fill="#B2B2B2"/>
<path d="M11.6454 19.5651V18.2153C11.6454 18.172 11.6108 18.1375 11.5675 18.1375C11.5243 18.1375 11.4896 18.172 11.4896 18.2153V19.5651C11.4896 19.6083 11.5243 19.643 11.5675 19.643C11.6021 19.643 11.6454 19.6083 11.6454 19.5651Z" fill="#8C8C8C"/>
<path opacity="0.07" d="M11.5172 19.5651V18.2153C11.5172 18.1807 11.5431 18.1461 11.5777 18.1375C11.5691 18.1375 11.5691 18.1375 11.5604 18.1375C11.5172 18.1375 11.4825 18.172 11.4825 18.2153V19.5651C11.4825 19.6083 11.5172 19.643 11.5604 19.643C11.5691 19.643 11.5691 19.643 11.5777 19.643C11.5518 19.6343 11.5172 19.5997 11.5172 19.5651Z" fill="#141414"/>
<path d="M12.2424 18.9677H10.8926C10.8493 18.9677 10.8147 18.9332 10.8147 18.8899C10.8147 18.8466 10.8493 18.812 10.8926 18.812H12.2424C12.2856 18.812 12.3202 18.8466 12.3202 18.8899C12.3202 18.9332 12.2856 18.9677 12.2424 18.9677Z" fill="#8C8C8C"/>
<path opacity="0.07" d="M10.8855 18.8467H12.2353C12.2699 18.8467 12.3045 18.8726 12.3131 18.9072C12.3131 18.8985 12.3131 18.8986 12.3131 18.8899C12.3131 18.8466 12.2785 18.812 12.2353 18.812H10.8855C10.8422 18.812 10.8076 18.8466 10.8076 18.8899C10.8076 18.8986 10.8076 18.9072 10.8076 18.9072C10.8249 18.8726 10.8509 18.8467 10.8855 18.8467Z" fill="#141414"/>
<path opacity="0.05" d="M11.5949 18.1288C12.0708 18.1288 12.4515 18.4922 12.4947 18.9507C12.4947 18.9248 12.4947 18.8988 12.4947 18.8729C12.4947 18.371 12.0881 17.9644 11.5862 17.9644C11.0844 17.9644 10.6777 18.371 10.6777 18.8729C10.6777 18.8988 10.6777 18.9248 10.6777 18.9507C10.7383 18.4922 11.119 18.1288 11.5949 18.1288Z" fill="#141414"/>
</svg>
