<svg width="25" height="60" viewBox="0 0 25 60" fill="none" xmlns="http://www.w3.org/2000/svg">
<path d="M4.77686 54.248L11.7421 50.2246L18.7073 54.248L11.7421 58.2714L4.77686 54.248Z" fill="#C9C9C9"/>
<path d="M4.77686 54.2478L11.7421 58.2712V59.8806L4.77686 55.8571V54.2478Z" fill="#707070"/>
<path d="M11.7419 58.2712L18.7072 54.2478V55.8571L11.7419 59.8806V58.2712Z" fill="#D9D9D9"/>
<path d="M13.0314 14.2992V54.6715C13.0314 54.8532 12.9103 55.0436 12.6507 55.182C12.1489 55.4676 11.3269 55.4676 10.825 55.182C10.5741 55.0436 10.4443 54.8532 10.4443 54.6715V14.2473C11.3096 14.2819 12.1662 14.2992 13.0314 14.2992Z" fill="url(#paint0_linear_562_34305)"/>
<path d="M2.23293 3.00752L0.000610352 1.71826L5.74582 16.5312L11.4997 31.3529L12.6159 29.7695L17.245 23.1764L22.9901 14.9911L2.23293 3.00752ZM11.5084 26.5768L7.54554 16.3755L3.59137 6.17429L5.82372 7.4635L19.4167 15.3113L15.4626 20.944L12.6245 24.9847V24.9934L11.5084 26.5768Z" fill="#ED1C24"/>
<path d="M19.4167 15.3202L15.4626 20.9443L11.4998 26.577L7.53694 16.3758L3.58276 6.17456L19.4167 15.3202Z" fill="white"/>
<path d="M24.4178 14.1782L18.6639 22.3634L12.9187 30.5399L11.5084 31.3619L12.6159 29.7699L17.245 23.1767L22.9988 14.9915L2.23293 3.00786L0.000610352 1.71861L1.4196 0.905273L24.4178 14.1782Z" fill="url(#paint1_linear_562_34305)"/>
<defs>
<linearGradient id="paint0_linear_562_34305" x1="13.0317" y1="34.8216" x2="10.452" y2="34.8216" gradientUnits="userSpaceOnUse">
<stop stop-color="#F7F7F7"/>
<stop offset="1" stop-color="#CECECE"/>
</linearGradient>
<linearGradient id="paint1_linear_562_34305" x1="0.000696876" y1="16.13" x2="24.4173" y2="16.13" gradientUnits="userSpaceOnUse">
<stop stop-color="#C4C4C4"/>
<stop offset="1" stop-color="#D9D9D9"/>
</linearGradient>
</defs>
</svg>
