<svg width="700" height="816" viewBox="0 0 700 816" fill="none" xmlns="http://www.w3.org/2000/svg">
<path d="M462.625 76.0898H455.395V815.495H462.625V76.0898Z" fill="url(#paint0_linear_226_17436)"/>
<path d="M430.458 76.0898V138.348H407.269V149.154H430.458V187.5H407.269V198.315H430.458V236.652H407.269V247.467H430.458V285.803H407.269V296.619H430.458V334.955H407.269V345.771H430.458V384.117H407.269V394.923H430.458V433.268H407.269V444.074H430.458V482.42H407.269V493.236H430.458V531.572H407.269V542.387H430.458V580.724H407.269V591.539H430.458V629.875H407.269V640.691H430.458V679.037H407.269V689.843H430.458V728.189H407.269V738.994H430.458V777.34H407.269V788.156H430.458V815.495H435.195V788.156V777.34V738.994V728.189V689.843V679.037V640.691V629.875V591.539V580.724V542.387V531.572V493.236V482.42V444.074V433.268V394.923V384.117V345.771V334.955V296.619V285.803V247.467V236.652V198.315V187.5V149.154V138.348V76.0898H430.458Z" fill="url(#paint1_linear_226_17436)"/>
<path d="M410.736 129.453L407.584 118.323C407.489 117.97 407.689 117.607 408.043 117.511L605.866 61.5726C606.219 61.4771 606.582 61.6775 606.678 62.0307L609.829 73.1612C609.925 73.5144 609.724 73.8772 609.371 73.9726L411.548 129.911C411.204 130.007 410.832 129.806 410.736 129.453Z" fill="url(#paint2_linear_226_17436)"/>
<path d="M297.723 131.074L300.875 119.944C300.97 119.591 300.77 119.228 300.416 119.133L102.593 63.1937C102.24 63.0982 101.877 63.2987 101.781 63.6519L98.6297 74.7824C98.5342 75.1356 98.7348 75.4983 99.0881 75.5938L296.911 131.533C297.255 131.628 297.618 131.418 297.723 131.074Z" fill="url(#paint3_linear_226_17436)"/>
<path d="M16.7338 60.6717L15.5782 57.722C15.4445 57.3879 15.6164 57.006 15.9507 56.8724L156.059 2.17439C156.393 2.04074 156.775 2.21256 156.909 2.54666L158.065 5.49634C158.198 5.83045 158.027 6.2123 157.692 6.34594L17.5839 61.044C17.24 61.1776 16.858 61.0153 16.7338 60.6717Z" fill="url(#paint4_linear_226_17436)"/>
<path d="M156.126 3.16748L157.062 5.56348L17.5075 60.0514L16.5715 57.6553L156.126 3.16748ZM156.298 2.12695C156.221 2.12695 156.135 2.14606 156.059 2.1747L15.9507 56.8726C15.6164 57.0062 15.4445 57.3881 15.5782 57.7222L16.7338 60.6718C16.8389 60.9296 17.0872 61.0919 17.3451 61.0919C17.4215 61.0919 17.5075 61.0728 17.5839 61.0441L157.692 6.34624C158.027 6.2126 158.198 5.83075 158.065 5.49665L156.909 2.54697C156.814 2.28924 156.565 2.12695 156.298 2.12695Z" fill="url(#paint5_linear_226_17436)"/>
<path d="M166.004 58.601L165.106 55.5655C165.001 55.2123 165.202 54.8495 165.555 54.7445L325.309 7.39704C325.662 7.29204 326.025 7.4925 326.13 7.8457L327.028 10.8813C327.133 11.2345 326.933 11.5972 326.579 11.7022L166.825 59.0497C166.472 59.1452 166.109 58.9447 166.004 58.601Z" fill="url(#paint6_linear_226_17436)"/>
<path d="M325.288 8.39053L326.023 10.8629L166.833 58.0387L166.097 55.5664L325.288 8.39053ZM325.488 7.36914C325.431 7.36914 325.364 7.37869 325.297 7.39778L165.543 54.7454C165.19 54.8504 164.999 55.2132 165.094 55.5664L165.992 58.6019C166.078 58.8883 166.336 59.0697 166.622 59.0697C166.68 59.0697 166.747 59.0602 166.813 59.0411L326.568 11.6934C326.921 11.5884 327.112 11.2257 327.016 10.8725L326.119 7.83688C326.033 7.5505 325.765 7.36914 325.488 7.36914Z" fill="url(#paint7_linear_226_17436)"/>
<path d="M352.917 59.5355L351.981 56.5095C351.876 56.1658 352.067 55.7936 352.411 55.6886L511.592 6.46044C511.936 6.35544 512.309 6.54637 512.414 6.89002L513.35 9.91604C513.455 10.2597 513.264 10.632 512.92 10.737L353.739 59.9651C353.395 60.0797 353.032 59.8887 352.917 59.5355Z" fill="url(#paint8_linear_226_17436)"/>
<path d="M511.605 7.46261L512.369 9.92543L353.752 58.9721L352.988 56.5093L511.605 7.46261ZM511.806 6.43164C511.739 6.43164 511.672 6.44119 511.615 6.46028L352.424 55.6883C352.08 55.7933 351.88 56.1656 351.994 56.5093L352.93 59.5353C353.016 59.8217 353.274 60.0031 353.561 60.0031C353.627 60.0031 353.694 59.9935 353.752 59.9744L512.933 10.7464C513.277 10.6414 513.477 10.2691 513.372 9.92543L512.436 6.89938C512.341 6.613 512.083 6.43164 511.806 6.43164Z" fill="url(#paint9_linear_226_17436)"/>
<path d="M522.885 64.6464L521.758 61.6872C521.625 61.3435 521.796 60.9712 522.14 60.8376L677.807 1.4145C678.151 1.28086 678.523 1.45271 678.657 1.79636L679.784 4.75556C679.917 5.09921 679.745 5.47151 679.402 5.60515L523.735 65.0283C523.391 65.1619 523.009 64.9901 522.885 64.6464Z" fill="url(#paint10_linear_226_17436)"/>
<path d="M677.859 2.4194L678.776 4.82495L523.664 64.0284L522.747 61.6229L677.859 2.4194ZM678.022 1.37891C677.945 1.37891 677.859 1.38844 677.783 1.42662L522.116 60.8496C521.773 60.9833 521.61 61.3556 521.734 61.6992L522.861 64.6584C522.957 64.9162 523.215 65.0785 523.473 65.0785C523.549 65.0785 523.625 65.0689 523.711 65.0307L679.378 5.60772C679.722 5.47408 679.884 5.10177 679.76 4.75812L678.633 1.79893C678.537 1.53164 678.289 1.37891 678.022 1.37891Z" fill="url(#paint11_linear_226_17436)"/>
<path d="M167.996 55.3412H156.593C156.23 55.3412 155.934 55.0453 155.934 54.6826V13.3774C155.934 13.0146 156.23 12.7188 156.593 12.7188H167.996C168.359 12.7188 168.655 13.0146 168.655 13.3774V54.6826C168.655 55.0453 168.359 55.3412 167.996 55.3412Z" fill="url(#paint12_linear_226_17436)"/>
<path d="M27.334 55.3412H15.9305C15.5676 55.3412 15.2715 55.0453 15.2715 54.6826V13.3774C15.2715 13.0146 15.5676 12.7188 15.9305 12.7188H27.334C27.6969 12.7188 27.993 13.0146 27.993 13.3774V54.6826C27.993 55.0453 27.6969 55.3412 27.334 55.3412Z" fill="url(#paint13_linear_226_17436)"/>
<path d="M353.861 55.3412H342.458C342.095 55.3412 341.799 55.0453 341.799 54.6826V13.3774C341.799 13.0146 342.095 12.7188 342.458 12.7188H353.861C354.224 12.7188 354.52 13.0146 354.52 13.3774V54.6826C354.52 55.0453 354.224 55.3412 353.861 55.3412Z" fill="url(#paint14_linear_226_17436)"/>
<path d="M539.594 55.3412H528.19C527.827 55.3412 527.531 55.0453 527.531 54.6826V13.3774C527.531 13.0146 527.827 12.7188 528.19 12.7188H539.594C539.957 12.7188 540.253 13.0146 540.253 13.3774V54.6826C540.253 55.0453 539.966 55.3412 539.594 55.3412Z" fill="url(#paint15_linear_226_17436)"/>
<path d="M684.039 12.7188H671.317V55.3412H684.039V12.7188Z" fill="url(#paint16_linear_226_17436)"/>
<path d="M699.558 68.051H0V55.9946C0 55.6319 0.296071 55.3359 0.658997 55.3359H698.899C699.262 55.3359 699.558 55.6319 699.558 55.9946V68.051Z" fill="url(#paint17_linear_226_17436)"/>
<path d="M461.975 88.8049H253.303C252.94 88.8049 252.644 88.509 252.644 88.1462V76.7485C252.644 76.3858 252.94 76.0898 253.303 76.0898H461.975C462.338 76.0898 462.634 76.3858 462.634 76.7485V88.1462C462.634 88.509 462.338 88.8049 461.975 88.8049Z" fill="url(#paint18_linear_226_17436)"/>
<path d="M411.845 88.8049H299.939C299.576 88.8049 299.28 88.509 299.28 88.1462V76.7485C299.28 76.3858 299.576 76.0898 299.939 76.0898H411.845C412.207 76.0898 412.504 76.3858 412.504 76.7485V88.1462C412.504 88.509 412.207 88.8049 411.845 88.8049Z" fill="url(#paint19_linear_226_17436)"/>
<path d="M390.308 101.512L412.503 88.8066H299.28L323.472 101.512H296.281V815.496H415.751V101.512H390.308Z" fill="url(#paint20_linear_226_17436)"/>
<path d="M687.018 76.0904H11.4322C11.2984 76.0904 11.1647 76.0427 11.0501 75.9663L0 68.0527H699.558L687.381 75.9854C687.276 76.0522 687.142 76.0904 687.018 76.0904Z" fill="url(#paint21_linear_226_17436)"/>
<path d="M330.892 126.101C332.543 126.101 333.882 124.763 333.882 123.113C333.882 121.463 332.543 120.125 330.892 120.125C329.241 120.125 327.903 121.463 327.903 123.113C327.903 124.763 329.241 126.101 330.892 126.101Z" fill="url(#paint22_linear_226_17436)"/>
<path d="M330.892 142.8C332.543 142.8 333.882 141.462 333.882 139.812C333.882 138.162 332.543 136.824 330.892 136.824C329.241 136.824 327.903 138.162 327.903 139.812C327.903 141.462 329.241 142.8 330.892 142.8Z" fill="url(#paint23_linear_226_17436)"/>
<path d="M330.892 159.505C332.543 159.505 333.882 158.167 333.882 156.517C333.882 154.867 332.543 153.529 330.892 153.529C329.241 153.529 327.903 154.867 327.903 156.517C327.903 158.167 329.241 159.505 330.892 159.505Z" fill="url(#paint24_linear_226_17436)"/>
<path d="M330.892 176.198C332.543 176.198 333.882 174.861 333.882 173.211C333.882 171.56 332.543 170.223 330.892 170.223C329.241 170.223 327.903 171.56 327.903 173.211C327.903 174.861 329.241 176.198 330.892 176.198Z" fill="url(#paint25_linear_226_17436)"/>
<path d="M330.892 192.905C332.543 192.905 333.882 191.568 333.882 189.918C333.882 188.267 332.543 186.93 330.892 186.93C329.241 186.93 327.903 188.267 327.903 189.918C327.903 191.568 329.241 192.905 330.892 192.905Z" fill="url(#paint26_linear_226_17436)"/>
<path d="M330.892 209.599C332.543 209.599 333.882 208.261 333.882 206.611C333.882 204.961 332.543 203.623 330.892 203.623C329.241 203.623 327.903 204.961 327.903 206.611C327.903 208.261 329.241 209.599 330.892 209.599Z" fill="url(#paint27_linear_226_17436)"/>
<path d="M330.892 226.306C332.543 226.306 333.882 224.968 333.882 223.318C333.882 221.668 332.543 220.33 330.892 220.33C329.241 220.33 327.903 221.668 327.903 223.318C327.903 224.968 329.241 226.306 330.892 226.306Z" fill="url(#paint28_linear_226_17436)"/>
<path d="M330.892 243.011C332.543 243.011 333.882 241.673 333.882 240.023C333.882 238.373 332.543 237.035 330.892 237.035C329.241 237.035 327.903 238.373 327.903 240.023C327.903 241.673 329.241 243.011 330.892 243.011Z" fill="url(#paint29_linear_226_17436)"/>
<path d="M330.892 259.71C332.543 259.71 333.882 258.372 333.882 256.722C333.882 255.072 332.543 253.734 330.892 253.734C329.241 253.734 327.903 255.072 327.903 256.722C327.903 258.372 329.241 259.71 330.892 259.71Z" fill="url(#paint30_linear_226_17436)"/>
<path d="M330.892 276.411C332.543 276.411 333.882 275.074 333.882 273.423C333.882 271.773 332.543 270.436 330.892 270.436C329.241 270.436 327.903 271.773 327.903 273.423C327.903 275.074 329.241 276.411 330.892 276.411Z" fill="url(#paint31_linear_226_17436)"/>
<path d="M330.892 293.111C332.543 293.111 333.882 291.773 333.882 290.123C333.882 288.472 332.543 287.135 330.892 287.135C329.241 287.135 327.903 288.472 327.903 290.123C327.903 291.773 329.241 293.111 330.892 293.111Z" fill="url(#paint32_linear_226_17436)"/>
<path d="M330.892 309.814C332.543 309.814 333.882 308.476 333.882 306.826C333.882 305.176 332.543 303.838 330.892 303.838C329.241 303.838 327.903 305.176 327.903 306.826C327.903 308.476 329.241 309.814 330.892 309.814Z" fill="url(#paint33_linear_226_17436)"/>
<path d="M330.892 326.509C332.543 326.509 333.882 325.171 333.882 323.521C333.882 321.871 332.543 320.533 330.892 320.533C329.241 320.533 327.903 321.871 327.903 323.521C327.903 325.171 329.241 326.509 330.892 326.509Z" fill="url(#paint34_linear_226_17436)"/>
<path d="M330.892 343.216C332.543 343.216 333.882 341.878 333.882 340.228C333.882 338.578 332.543 337.24 330.892 337.24C329.241 337.24 327.903 338.578 327.903 340.228C327.903 341.878 329.241 343.216 330.892 343.216Z" fill="url(#paint35_linear_226_17436)"/>
<path d="M330.892 359.923C332.543 359.923 333.882 358.585 333.882 356.935C333.882 355.285 332.543 353.947 330.892 353.947C329.241 353.947 327.903 355.285 327.903 356.935C327.903 358.585 329.241 359.923 330.892 359.923Z" fill="url(#paint36_linear_226_17436)"/>
<path d="M330.892 376.616C332.543 376.616 333.882 375.279 333.882 373.628C333.882 371.978 332.543 370.641 330.892 370.641C329.241 370.641 327.903 371.978 327.903 373.628C327.903 375.279 329.241 376.616 330.892 376.616Z" fill="url(#paint37_linear_226_17436)"/>
<path d="M330.892 393.32C332.543 393.32 333.882 391.982 333.882 390.332C333.882 388.681 332.543 387.344 330.892 387.344C329.241 387.344 327.903 388.681 327.903 390.332C327.903 391.982 329.241 393.32 330.892 393.32Z" fill="url(#paint38_linear_226_17436)"/>
<path d="M330.892 410.017C332.543 410.017 333.882 408.679 333.882 407.029C333.882 405.379 332.543 404.041 330.892 404.041C329.241 404.041 327.903 405.379 327.903 407.029C327.903 408.679 329.241 410.017 330.892 410.017Z" fill="url(#paint39_linear_226_17436)"/>
<path d="M330.892 426.722C332.543 426.722 333.882 425.384 333.882 423.734C333.882 422.084 332.543 420.746 330.892 420.746C329.241 420.746 327.903 422.084 327.903 423.734C327.903 425.384 329.241 426.722 330.892 426.722Z" fill="url(#paint40_linear_226_17436)"/>
<path d="M330.892 443.415C332.543 443.415 333.882 442.077 333.882 440.427C333.882 438.777 332.543 437.439 330.892 437.439C329.241 437.439 327.903 438.777 327.903 440.427C327.903 442.077 329.241 443.415 330.892 443.415Z" fill="url(#paint41_linear_226_17436)"/>
<path d="M330.892 460.122C332.543 460.122 333.882 458.785 333.882 457.134C333.882 455.484 332.543 454.146 330.892 454.146C329.241 454.146 327.903 455.484 327.903 457.134C327.903 458.785 329.241 460.122 330.892 460.122Z" fill="url(#paint42_linear_226_17436)"/>
<path d="M330.892 476.829C332.543 476.829 333.882 475.492 333.882 473.841C333.882 472.191 332.543 470.854 330.892 470.854C329.241 470.854 327.903 472.191 327.903 473.841C327.903 475.492 329.241 476.829 330.892 476.829Z" fill="url(#paint43_linear_226_17436)"/>
<path d="M330.892 493.525C332.543 493.525 333.882 492.187 333.882 490.537C333.882 488.887 332.543 487.549 330.892 487.549C329.241 487.549 327.903 488.887 327.903 490.537C327.903 492.187 329.241 493.525 330.892 493.525Z" fill="url(#paint44_linear_226_17436)"/>
<path d="M330.892 510.228C332.543 510.228 333.882 508.89 333.882 507.24C333.882 505.59 332.543 504.252 330.892 504.252C329.241 504.252 327.903 505.59 327.903 507.24C327.903 508.89 329.241 510.228 330.892 510.228Z" fill="url(#paint45_linear_226_17436)"/>
<path d="M330.892 526.927C332.543 526.927 333.882 525.589 333.882 523.939C333.882 522.289 332.543 520.951 330.892 520.951C329.241 520.951 327.903 522.289 327.903 523.939C327.903 525.589 329.241 526.927 330.892 526.927Z" fill="url(#paint46_linear_226_17436)"/>
<path d="M330.892 543.628C332.543 543.628 333.882 542.29 333.882 540.64C333.882 538.99 332.543 537.652 330.892 537.652C329.241 537.652 327.903 538.99 327.903 540.64C327.903 542.29 329.241 543.628 330.892 543.628Z" fill="url(#paint47_linear_226_17436)"/>
<path d="M330.892 560.335C332.543 560.335 333.882 558.997 333.882 557.347C333.882 555.697 332.543 554.359 330.892 554.359C329.241 554.359 327.903 555.697 327.903 557.347C327.903 558.997 329.241 560.335 330.892 560.335Z" fill="url(#paint48_linear_226_17436)"/>
<path d="M330.892 577.033C332.543 577.033 333.882 575.695 333.882 574.045C333.882 572.394 332.543 571.057 330.892 571.057C329.241 571.057 327.903 572.394 327.903 574.045C327.903 575.695 329.241 577.033 330.892 577.033Z" fill="url(#paint49_linear_226_17436)"/>
<path d="M330.892 593.735C332.543 593.735 333.882 592.398 333.882 590.748C333.882 589.097 332.543 587.76 330.892 587.76C329.241 587.76 327.903 589.097 327.903 590.748C327.903 592.398 329.241 593.735 330.892 593.735Z" fill="url(#paint50_linear_226_17436)"/>
<path d="M330.892 610.433C332.543 610.433 333.882 609.095 333.882 607.445C333.882 605.795 332.543 604.457 330.892 604.457C329.241 604.457 327.903 605.795 327.903 607.445C327.903 609.095 329.241 610.433 330.892 610.433Z" fill="url(#paint51_linear_226_17436)"/>
<path d="M330.892 627.134C332.543 627.134 333.882 625.796 333.882 624.146C333.882 622.496 332.543 621.158 330.892 621.158C329.241 621.158 327.903 622.496 327.903 624.146C327.903 625.796 329.241 627.134 330.892 627.134Z" fill="url(#paint52_linear_226_17436)"/>
<path d="M330.892 643.835C332.543 643.835 333.882 642.497 333.882 640.847C333.882 639.197 332.543 637.859 330.892 637.859C329.241 637.859 327.903 639.197 327.903 640.847C327.903 642.497 329.241 643.835 330.892 643.835Z" fill="url(#paint53_linear_226_17436)"/>
<path d="M330.892 660.538C332.543 660.538 333.882 659.2 333.882 657.55C333.882 655.9 332.543 654.562 330.892 654.562C329.241 654.562 327.903 655.9 327.903 657.55C327.903 659.2 329.241 660.538 330.892 660.538Z" fill="url(#paint54_linear_226_17436)"/>
<path d="M330.892 677.245C332.543 677.245 333.882 675.907 333.882 674.257C333.882 672.607 332.543 671.27 330.892 671.27C329.241 671.27 327.903 672.607 327.903 674.257C327.903 675.907 329.241 677.245 330.892 677.245Z" fill="url(#paint55_linear_226_17436)"/>
<path d="M330.892 693.939C332.543 693.939 333.882 692.601 333.882 690.951C333.882 689.301 332.543 687.963 330.892 687.963C329.241 687.963 327.903 689.301 327.903 690.951C327.903 692.601 329.241 693.939 330.892 693.939Z" fill="url(#paint56_linear_226_17436)"/>
<path d="M330.892 710.646C332.543 710.646 333.882 709.308 333.882 707.658C333.882 706.008 332.543 704.67 330.892 704.67C329.241 704.67 327.903 706.008 327.903 707.658C327.903 709.308 329.241 710.646 330.892 710.646Z" fill="url(#paint57_linear_226_17436)"/>
<path d="M330.892 727.339C332.543 727.339 333.882 726.001 333.882 724.351C333.882 722.701 332.543 721.363 330.892 721.363C329.241 721.363 327.903 722.701 327.903 724.351C327.903 726.001 329.241 727.339 330.892 727.339Z" fill="url(#paint58_linear_226_17436)"/>
<path d="M330.892 744.046C332.543 744.046 333.882 742.708 333.882 741.058C333.882 739.408 332.543 738.07 330.892 738.07C329.241 738.07 327.903 739.408 327.903 741.058C327.903 742.708 329.241 744.046 330.892 744.046Z" fill="url(#paint59_linear_226_17436)"/>
<path d="M330.892 760.743C332.543 760.743 333.882 759.406 333.882 757.756C333.882 756.105 332.543 754.768 330.892 754.768C329.241 754.768 327.903 756.105 327.903 757.756C327.903 759.406 329.241 760.743 330.892 760.743Z" fill="url(#paint60_linear_226_17436)"/>
<path d="M330.892 777.447C332.543 777.447 333.882 776.109 333.882 774.459C333.882 772.808 332.543 771.471 330.892 771.471C329.241 771.471 327.903 772.808 327.903 774.459C327.903 776.109 329.241 777.447 330.892 777.447Z" fill="url(#paint61_linear_226_17436)"/>
<path d="M330.892 794.151C332.543 794.151 333.882 792.814 333.882 791.164C333.882 789.513 332.543 788.176 330.892 788.176C329.241 788.176 327.903 789.513 327.903 791.164C327.903 792.814 329.241 794.151 330.892 794.151Z" fill="url(#paint62_linear_226_17436)"/>
<path d="M330.892 810.847C332.543 810.847 333.882 809.509 333.882 807.859C333.882 806.209 332.543 804.871 330.892 804.871C329.241 804.871 327.903 806.209 327.903 807.859C327.903 809.509 329.241 810.847 330.892 810.847Z" fill="url(#paint63_linear_226_17436)"/>
<path d="M382.266 126.101C383.917 126.101 385.255 124.763 385.255 123.113C385.255 121.463 383.917 120.125 382.266 120.125C380.615 120.125 379.276 121.463 379.276 123.113C379.276 124.763 380.615 126.101 382.266 126.101Z" fill="url(#paint64_linear_226_17436)"/>
<path d="M382.265 142.8C383.916 142.8 385.255 141.462 385.255 139.812C385.255 138.162 383.916 136.824 382.265 136.824C380.614 136.824 379.276 138.162 379.276 139.812C379.276 141.462 380.614 142.8 382.265 142.8Z" fill="url(#paint65_linear_226_17436)"/>
<path d="M382.265 159.501C383.916 159.501 385.255 158.163 385.255 156.513C385.255 154.863 383.916 153.525 382.265 153.525C380.614 153.525 379.276 154.863 379.276 156.513C379.276 158.163 380.614 159.501 382.265 159.501Z" fill="url(#paint66_linear_226_17436)"/>
<path d="M382.265 176.198C383.916 176.198 385.255 174.861 385.255 173.21C385.255 171.56 383.916 170.223 382.265 170.223C380.614 170.223 379.276 171.56 379.276 173.21C379.276 174.861 380.614 176.198 382.265 176.198Z" fill="url(#paint67_linear_226_17436)"/>
<path d="M382.265 192.902C383.916 192.902 385.255 191.564 385.255 189.914C385.255 188.264 383.916 186.926 382.265 186.926C380.614 186.926 379.276 188.264 379.276 189.914C379.276 191.564 380.614 192.902 382.265 192.902Z" fill="url(#paint68_linear_226_17436)"/>
<path d="M382.265 209.599C383.916 209.599 385.255 208.261 385.255 206.611C385.255 204.961 383.916 203.623 382.265 203.623C380.614 203.623 379.276 204.961 379.276 206.611C379.276 208.261 380.614 209.599 382.265 209.599Z" fill="url(#paint69_linear_226_17436)"/>
<path d="M382.265 226.306C383.916 226.306 385.255 224.968 385.255 223.318C385.255 221.668 383.916 220.33 382.265 220.33C380.614 220.33 379.276 221.668 379.276 223.318C379.276 224.968 380.614 226.306 382.265 226.306Z" fill="url(#paint70_linear_226_17436)"/>
<path d="M382.265 243.007C383.916 243.007 385.255 241.669 385.255 240.019C385.255 238.369 383.916 237.031 382.265 237.031C380.614 237.031 379.276 238.369 379.276 240.019C379.276 241.669 380.614 243.007 382.265 243.007Z" fill="url(#paint71_linear_226_17436)"/>
<path d="M382.265 259.706C383.916 259.706 385.255 258.368 385.255 256.718C385.255 255.068 383.916 253.73 382.265 253.73C380.614 253.73 379.276 255.068 379.276 256.718C379.276 258.368 380.614 259.706 382.265 259.706Z" fill="url(#paint72_linear_226_17436)"/>
<path d="M382.265 276.411C383.916 276.411 385.255 275.074 385.255 273.423C385.255 271.773 383.916 270.436 382.265 270.436C380.614 270.436 379.276 271.773 379.276 273.423C379.276 275.074 380.614 276.411 382.265 276.411Z" fill="url(#paint73_linear_226_17436)"/>
<path d="M382.265 293.105C383.916 293.105 385.255 291.767 385.255 290.117C385.255 288.467 383.916 287.129 382.265 287.129C380.614 287.129 379.276 288.467 379.276 290.117C379.276 291.767 380.614 293.105 382.265 293.105Z" fill="url(#paint74_linear_226_17436)"/>
<path d="M382.265 309.812C383.916 309.812 385.255 308.474 385.255 306.824C385.255 305.174 383.916 303.836 382.265 303.836C380.614 303.836 379.276 305.174 379.276 306.824C379.276 308.474 380.614 309.812 382.265 309.812Z" fill="url(#paint75_linear_226_17436)"/>
<path d="M382.265 326.509C383.916 326.509 385.255 325.171 385.255 323.521C385.255 321.871 383.916 320.533 382.265 320.533C380.614 320.533 379.276 321.871 379.276 323.521C379.276 325.171 380.614 326.509 382.265 326.509Z" fill="url(#paint76_linear_226_17436)"/>
<path d="M382.265 343.212C383.916 343.212 385.255 341.874 385.255 340.224C385.255 338.574 383.916 337.236 382.265 337.236C380.614 337.236 379.276 338.574 379.276 340.224C379.276 341.874 380.614 343.212 382.265 343.212Z" fill="url(#paint77_linear_226_17436)"/>
<path d="M382.265 359.917C383.916 359.917 385.255 358.58 385.255 356.929C385.255 355.279 383.916 353.941 382.265 353.941C380.614 353.941 379.276 355.279 379.276 356.929C379.276 358.58 380.614 359.917 382.265 359.917Z" fill="url(#paint78_linear_226_17436)"/>
<path d="M382.265 376.616C383.916 376.616 385.255 375.279 385.255 373.628C385.255 371.978 383.916 370.641 382.265 370.641C380.614 370.641 379.276 371.978 379.276 373.628C379.276 375.279 380.614 376.616 382.265 376.616Z" fill="url(#paint79_linear_226_17436)"/>
<path d="M382.265 393.318C383.916 393.318 385.255 391.98 385.255 390.33C385.255 388.679 383.916 387.342 382.265 387.342C380.614 387.342 379.276 388.679 379.276 390.33C379.276 391.98 380.614 393.318 382.265 393.318Z" fill="url(#paint80_linear_226_17436)"/>
<path d="M382.265 410.017C383.916 410.017 385.255 408.679 385.255 407.029C385.255 405.379 383.916 404.041 382.265 404.041C380.614 404.041 379.276 405.379 379.276 407.029C379.276 408.679 380.614 410.017 382.265 410.017Z" fill="url(#paint81_linear_226_17436)"/>
<path d="M382.265 426.722C383.916 426.722 385.255 425.384 385.255 423.734C385.255 422.084 383.916 420.746 382.265 420.746C380.614 420.746 379.276 422.084 379.276 423.734C379.276 425.384 380.614 426.722 382.265 426.722Z" fill="url(#paint82_linear_226_17436)"/>
<path d="M382.265 443.415C383.916 443.415 385.255 442.077 385.255 440.427C385.255 438.777 383.916 437.439 382.265 437.439C380.614 437.439 379.276 438.777 379.276 440.427C379.276 442.077 380.614 443.415 382.265 443.415Z" fill="url(#paint83_linear_226_17436)"/>
<path d="M382.265 460.122C383.916 460.122 385.255 458.784 385.255 457.134C385.255 455.484 383.916 454.146 382.265 454.146C380.614 454.146 379.276 455.484 379.276 457.134C379.276 458.784 380.614 460.122 382.265 460.122Z" fill="url(#paint84_linear_226_17436)"/>
<path d="M382.265 476.829C383.916 476.829 385.255 475.492 385.255 473.841C385.255 472.191 383.916 470.854 382.265 470.854C380.614 470.854 379.276 472.191 379.276 473.841C379.276 475.492 380.614 476.829 382.265 476.829Z" fill="url(#paint85_linear_226_17436)"/>
<path d="M382.265 493.523C383.916 493.523 385.255 492.185 385.255 490.535C385.255 488.885 383.916 487.547 382.265 487.547C380.614 487.547 379.276 488.885 379.276 490.535C379.276 492.185 380.614 493.523 382.265 493.523Z" fill="url(#paint86_linear_226_17436)"/>
<path d="M382.265 510.228C383.916 510.228 385.255 508.89 385.255 507.24C385.255 505.59 383.916 504.252 382.265 504.252C380.614 504.252 379.276 505.59 379.276 507.24C379.276 508.89 380.614 510.228 382.265 510.228Z" fill="url(#paint87_linear_226_17436)"/>
<path d="M382.265 526.927C383.916 526.927 385.255 525.589 385.255 523.939C385.255 522.289 383.916 520.951 382.265 520.951C380.614 520.951 379.276 522.289 379.276 523.939C379.276 525.589 380.614 526.927 382.265 526.927Z" fill="url(#paint88_linear_226_17436)"/>
<path d="M382.265 543.628C383.916 543.628 385.255 542.29 385.255 540.64C385.255 538.99 383.916 537.652 382.265 537.652C380.614 537.652 379.276 538.99 379.276 540.64C379.276 542.29 380.614 543.628 382.265 543.628Z" fill="url(#paint89_linear_226_17436)"/>
<path d="M382.265 560.335C383.916 560.335 385.255 558.997 385.255 557.347C385.255 555.697 383.916 554.359 382.265 554.359C380.614 554.359 379.276 555.697 379.276 557.347C379.276 558.997 380.614 560.335 382.265 560.335Z" fill="url(#paint90_linear_226_17436)"/>
<path d="M382.265 577.029C383.916 577.029 385.255 575.691 385.255 574.041C385.255 572.391 383.916 571.053 382.265 571.053C380.614 571.053 379.276 572.391 379.276 574.041C379.276 575.691 380.614 577.029 382.265 577.029Z" fill="url(#paint91_linear_226_17436)"/>
<path d="M382.265 593.735C383.916 593.735 385.255 592.398 385.255 590.748C385.255 589.097 383.916 587.76 382.265 587.76C380.614 587.76 379.276 589.097 379.276 590.748C379.276 592.398 380.614 593.735 382.265 593.735Z" fill="url(#paint92_linear_226_17436)"/>
<path d="M382.265 610.433C383.916 610.433 385.255 609.095 385.255 607.445C385.255 605.795 383.916 604.457 382.265 604.457C380.614 604.457 379.276 605.795 379.276 607.445C379.276 609.095 380.614 610.433 382.265 610.433Z" fill="url(#paint93_linear_226_17436)"/>
<path d="M382.265 627.134C383.916 627.134 385.255 625.796 385.255 624.146C385.255 622.496 383.916 621.158 382.265 621.158C380.614 621.158 379.276 622.496 379.276 624.146C379.276 625.796 380.614 627.134 382.265 627.134Z" fill="url(#paint94_linear_226_17436)"/>
<path d="M382.265 643.833C383.916 643.833 385.255 642.495 385.255 640.845C385.255 639.195 383.916 637.857 382.265 637.857C380.614 637.857 379.276 639.195 379.276 640.845C379.276 642.495 380.614 643.833 382.265 643.833Z" fill="url(#paint95_linear_226_17436)"/>
<path d="M382.265 660.534C383.916 660.534 385.255 659.197 385.255 657.546C385.255 655.896 383.916 654.559 382.265 654.559C380.614 654.559 379.276 655.896 379.276 657.546C379.276 659.197 380.614 660.534 382.265 660.534Z" fill="url(#paint96_linear_226_17436)"/>
<path d="M382.265 677.242C383.916 677.242 385.255 675.904 385.255 674.254C385.255 672.603 383.916 671.266 382.265 671.266C380.614 671.266 379.276 672.603 379.276 674.254C379.276 675.904 380.614 677.242 382.265 677.242Z" fill="url(#paint97_linear_226_17436)"/>
<path d="M382.265 693.938C383.916 693.938 385.255 692.601 385.255 690.951C385.255 689.301 383.916 687.963 382.265 687.963C380.614 687.963 379.276 689.301 379.276 690.951C379.276 692.601 380.614 693.938 382.265 693.938Z" fill="url(#paint98_linear_226_17436)"/>
<path d="M382.265 710.642C383.916 710.642 385.255 709.304 385.255 707.654C385.255 706.004 383.916 704.666 382.265 704.666C380.614 704.666 379.276 706.004 379.276 707.654C379.276 709.304 380.614 710.642 382.265 710.642Z" fill="url(#paint99_linear_226_17436)"/>
<path d="M382.265 727.339C383.916 727.339 385.255 726.001 385.255 724.351C385.255 722.701 383.916 721.363 382.265 721.363C380.614 721.363 379.276 722.701 379.276 724.351C379.276 726.001 380.614 727.339 382.265 727.339Z" fill="url(#paint100_linear_226_17436)"/>
<path d="M382.265 744.046C383.916 744.046 385.255 742.708 385.255 741.058C385.255 739.408 383.916 738.07 382.265 738.07C380.614 738.07 379.276 739.408 379.276 741.058C379.276 742.708 380.614 744.046 382.265 744.046Z" fill="url(#paint101_linear_226_17436)"/>
<path d="M382.265 760.74C383.916 760.74 385.255 759.402 385.255 757.752C385.255 756.101 383.916 754.764 382.265 754.764C380.614 754.764 379.276 756.101 379.276 757.752C379.276 759.402 380.614 760.74 382.265 760.74Z" fill="url(#paint102_linear_226_17436)"/>
<path d="M382.265 777.445C383.916 777.445 385.255 776.107 385.255 774.457C385.255 772.806 383.916 771.469 382.265 771.469C380.614 771.469 379.276 772.806 379.276 774.457C379.276 776.107 380.614 777.445 382.265 777.445Z" fill="url(#paint103_linear_226_17436)"/>
<path d="M382.265 794.152C383.916 794.152 385.255 792.814 385.255 791.164C385.255 789.514 383.916 788.176 382.265 788.176C380.614 788.176 379.276 789.514 379.276 791.164C379.276 792.814 380.614 794.152 382.265 794.152Z" fill="url(#paint104_linear_226_17436)"/>
<path d="M382.265 810.845C383.916 810.845 385.255 809.507 385.255 807.857C385.255 806.207 383.916 804.869 382.265 804.869C380.614 804.869 379.276 806.207 379.276 807.857C379.276 809.507 380.614 810.845 382.265 810.845Z" fill="url(#paint105_linear_226_17436)"/>
<path d="M323.471 101.512L299.279 88.8066H252.644L296.281 101.512V815.496H323.72V101.512H323.471Z" fill="url(#paint106_linear_226_17436)"/>
<path d="M412.503 88.8066L390.308 101.512V815.496H415.751V101.512L462.635 88.8066H412.503Z" fill="url(#paint107_linear_226_17436)"/>
<path d="M698.899 12.7151H0.658997C0.296071 12.7151 0 12.4191 0 12.0564V0.658665C0 0.295923 0.296071 0 0.658997 0H698.899C699.262 0 699.558 0.295923 699.558 0.658665V12.0564C699.558 12.4191 699.262 12.7151 698.899 12.7151Z" fill="url(#paint108_linear_226_17436)"/>
<defs>
<linearGradient id="paint0_linear_226_17436" x1="459.016" y1="815.493" x2="459.016" y2="-158.939" gradientUnits="userSpaceOnUse">
<stop stop-color="#192B3F"/>
<stop offset="0.1236" stop-color="#1D3044"/>
<stop offset="0.2694" stop-color="#293E52"/>
<stop offset="0.4265" stop-color="#3E556A"/>
<stop offset="0.5914" stop-color="#5A768B"/>
<stop offset="0.7626" stop-color="#7EA0B6"/>
<stop offset="0.9365" stop-color="#AAD3E9"/>
<stop offset="1" stop-color="#BCE7FE"/>
</linearGradient>
<linearGradient id="paint1_linear_226_17436" x1="421.232" y1="815.494" x2="421.232" y2="-80.2081" gradientUnits="userSpaceOnUse">
<stop stop-color="#192B3F"/>
<stop offset="0.1841" stop-color="#1C2E42"/>
<stop offset="0.3312" stop-color="#24384C"/>
<stop offset="0.4655" stop-color="#33495D"/>
<stop offset="0.5923" stop-color="#476075"/>
<stop offset="0.7137" stop-color="#617E93"/>
<stop offset="0.831" stop-color="#81A3B9"/>
<stop offset="0.9431" stop-color="#A6CEE5"/>
<stop offset="1" stop-color="#BCE7FE"/>
</linearGradient>
<linearGradient id="paint2_linear_226_17436" x1="477.436" y1="127.128" x2="459.27" y2="36.4413" gradientUnits="userSpaceOnUse">
<stop stop-color="#192B3F"/>
<stop offset="0.1202" stop-color="#263A4E"/>
<stop offset="0.3515" stop-color="#486176"/>
<stop offset="0.6707" stop-color="#7E9FB5"/>
<stop offset="1" stop-color="#BCE7FE"/>
</linearGradient>
<linearGradient id="paint3_linear_226_17436" x1="265.755" y1="143.735" x2="282.688" y2="32.4455" gradientUnits="userSpaceOnUse">
<stop stop-color="#192B3F"/>
<stop offset="0.1202" stop-color="#263A4E"/>
<stop offset="0.3515" stop-color="#486176"/>
<stop offset="0.6707" stop-color="#7E9FB5"/>
<stop offset="1" stop-color="#BCE7FE"/>
</linearGradient>
<linearGradient id="paint4_linear_226_17436" x1="124.745" y1="349.451" x2="692.857" y2="-462.302" gradientUnits="userSpaceOnUse">
<stop offset="0.3094" stop-color="#192B3F"/>
<stop offset="0.3864" stop-color="#1E3145"/>
<stop offset="0.4903" stop-color="#2D4256"/>
<stop offset="0.6095" stop-color="#455E73"/>
<stop offset="0.7401" stop-color="#67859A"/>
<stop offset="0.8783" stop-color="#91B6CC"/>
<stop offset="1" stop-color="#BCE7FE"/>
</linearGradient>
<linearGradient id="paint5_linear_226_17436" x1="124.745" y1="349.451" x2="692.855" y2="-462.302" gradientUnits="userSpaceOnUse">
<stop offset="0.3094" stop-color="#192B3F"/>
<stop offset="0.3864" stop-color="#1E3145"/>
<stop offset="0.4903" stop-color="#2D4256"/>
<stop offset="0.6095" stop-color="#455E73"/>
<stop offset="0.7401" stop-color="#67859A"/>
<stop offset="0.8783" stop-color="#91B6CC"/>
<stop offset="1" stop-color="#BCE7FE"/>
</linearGradient>
<linearGradient id="paint6_linear_226_17436" x1="124.747" y1="349.451" x2="692.856" y2="-462.302" gradientUnits="userSpaceOnUse">
<stop offset="0.3094" stop-color="#192B3F"/>
<stop offset="0.3864" stop-color="#1E3145"/>
<stop offset="0.4903" stop-color="#2D4256"/>
<stop offset="0.6095" stop-color="#455E73"/>
<stop offset="0.7401" stop-color="#67859A"/>
<stop offset="0.8783" stop-color="#91B6CC"/>
<stop offset="1" stop-color="#BCE7FE"/>
</linearGradient>
<linearGradient id="paint7_linear_226_17436" x1="124.745" y1="349.453" x2="692.856" y2="-462.3" gradientUnits="userSpaceOnUse">
<stop offset="0.3094" stop-color="#192B3F"/>
<stop offset="0.3864" stop-color="#1E3145"/>
<stop offset="0.4903" stop-color="#2D4256"/>
<stop offset="0.6095" stop-color="#455E73"/>
<stop offset="0.7401" stop-color="#67859A"/>
<stop offset="0.8783" stop-color="#91B6CC"/>
<stop offset="1" stop-color="#BCE7FE"/>
</linearGradient>
<linearGradient id="paint8_linear_226_17436" x1="124.745" y1="349.45" x2="692.855" y2="-462.302" gradientUnits="userSpaceOnUse">
<stop offset="0.3094" stop-color="#192B3F"/>
<stop offset="0.3864" stop-color="#1E3145"/>
<stop offset="0.4903" stop-color="#2D4256"/>
<stop offset="0.6095" stop-color="#455E73"/>
<stop offset="0.7401" stop-color="#67859A"/>
<stop offset="0.8783" stop-color="#91B6CC"/>
<stop offset="1" stop-color="#BCE7FE"/>
</linearGradient>
<linearGradient id="paint9_linear_226_17436" x1="124.748" y1="349.45" x2="692.857" y2="-462.303" gradientUnits="userSpaceOnUse">
<stop offset="0.3094" stop-color="#192B3F"/>
<stop offset="0.3864" stop-color="#1E3145"/>
<stop offset="0.4903" stop-color="#2D4256"/>
<stop offset="0.6095" stop-color="#455E73"/>
<stop offset="0.7401" stop-color="#67859A"/>
<stop offset="0.8783" stop-color="#91B6CC"/>
<stop offset="1" stop-color="#BCE7FE"/>
</linearGradient>
<linearGradient id="paint10_linear_226_17436" x1="124.749" y1="349.454" x2="692.859" y2="-462.298" gradientUnits="userSpaceOnUse">
<stop offset="0.3094" stop-color="#192B3F"/>
<stop offset="0.3864" stop-color="#1E3145"/>
<stop offset="0.4903" stop-color="#2D4256"/>
<stop offset="0.6095" stop-color="#455E73"/>
<stop offset="0.7401" stop-color="#67859A"/>
<stop offset="0.8783" stop-color="#91B6CC"/>
<stop offset="1" stop-color="#BCE7FE"/>
</linearGradient>
<linearGradient id="paint11_linear_226_17436" x1="124.744" y1="349.456" x2="692.852" y2="-462.297" gradientUnits="userSpaceOnUse">
<stop offset="0.3094" stop-color="#192B3F"/>
<stop offset="0.3864" stop-color="#1E3145"/>
<stop offset="0.4903" stop-color="#2D4256"/>
<stop offset="0.6095" stop-color="#455E73"/>
<stop offset="0.7401" stop-color="#67859A"/>
<stop offset="0.8783" stop-color="#91B6CC"/>
<stop offset="1" stop-color="#BCE7FE"/>
</linearGradient>
<linearGradient id="paint12_linear_226_17436" x1="140.575" y1="65.0326" x2="195.925" y2="-14.0546" gradientUnits="userSpaceOnUse">
<stop offset="0.3094" stop-color="#192B3F"/>
<stop offset="0.3864" stop-color="#1E3145"/>
<stop offset="0.4903" stop-color="#2D4256"/>
<stop offset="0.6095" stop-color="#455E73"/>
<stop offset="0.7401" stop-color="#67859A"/>
<stop offset="0.8783" stop-color="#91B6CC"/>
<stop offset="1" stop-color="#BCE7FE"/>
</linearGradient>
<linearGradient id="paint13_linear_226_17436" x1="-0.0848477" y1="65.0326" x2="55.2651" y2="-14.0547" gradientUnits="userSpaceOnUse">
<stop offset="0.3094" stop-color="#192B3F"/>
<stop offset="0.3864" stop-color="#1E3145"/>
<stop offset="0.4903" stop-color="#2D4256"/>
<stop offset="0.6095" stop-color="#455E73"/>
<stop offset="0.7401" stop-color="#67859A"/>
<stop offset="0.8783" stop-color="#91B6CC"/>
<stop offset="1" stop-color="#BCE7FE"/>
</linearGradient>
<linearGradient id="paint14_linear_226_17436" x1="326.438" y1="65.0326" x2="381.788" y2="-14.0547" gradientUnits="userSpaceOnUse">
<stop offset="0.3094" stop-color="#192B3F"/>
<stop offset="0.3864" stop-color="#1E3145"/>
<stop offset="0.4903" stop-color="#2D4256"/>
<stop offset="0.6095" stop-color="#455E73"/>
<stop offset="0.7401" stop-color="#67859A"/>
<stop offset="0.8783" stop-color="#91B6CC"/>
<stop offset="1" stop-color="#BCE7FE"/>
</linearGradient>
<linearGradient id="paint15_linear_226_17436" x1="512.177" y1="65.0326" x2="567.527" y2="-14.055" gradientUnits="userSpaceOnUse">
<stop offset="0.3094" stop-color="#192B3F"/>
<stop offset="0.3864" stop-color="#1E3145"/>
<stop offset="0.4903" stop-color="#2D4256"/>
<stop offset="0.6095" stop-color="#455E73"/>
<stop offset="0.7401" stop-color="#67859A"/>
<stop offset="0.8783" stop-color="#91B6CC"/>
<stop offset="1" stop-color="#BCE7FE"/>
</linearGradient>
<linearGradient id="paint16_linear_226_17436" x1="655.687" y1="65.4171" x2="711.723" y2="-14.6509" gradientUnits="userSpaceOnUse">
<stop offset="0.3094" stop-color="#192B3F"/>
<stop offset="0.3864" stop-color="#1E3145"/>
<stop offset="0.4903" stop-color="#2D4256"/>
<stop offset="0.6095" stop-color="#455E73"/>
<stop offset="0.7401" stop-color="#67859A"/>
<stop offset="0.8783" stop-color="#91B6CC"/>
<stop offset="1" stop-color="#BCE7FE"/>
</linearGradient>
<linearGradient id="paint17_linear_226_17436" x1="344.693" y1="120.122" x2="355.819" y2="-7.11077" gradientUnits="userSpaceOnUse">
<stop stop-color="#2F5075"/>
<stop offset="0.1735" stop-color="#325478"/>
<stop offset="0.3359" stop-color="#3D5F83"/>
<stop offset="0.4941" stop-color="#4F7294"/>
<stop offset="0.6495" stop-color="#688DAC"/>
<stop offset="0.803" stop-color="#88AFCB"/>
<stop offset="0.9531" stop-color="#AED8F1"/>
<stop offset="1" stop-color="#BCE7FE"/>
</linearGradient>
<linearGradient id="paint18_linear_226_17436" x1="252.639" y1="82.4458" x2="462.632" y2="82.4458" gradientUnits="userSpaceOnUse">
<stop stop-color="#192B3F"/>
<stop offset="0.1202" stop-color="#263A4E"/>
<stop offset="0.3515" stop-color="#486176"/>
<stop offset="0.6707" stop-color="#7E9FB5"/>
<stop offset="1" stop-color="#BCE7FE"/>
</linearGradient>
<linearGradient id="paint19_linear_226_17436" x1="264.438" y1="188.725" x2="373.178" y2="62.2282" gradientUnits="userSpaceOnUse">
<stop stop-color="#2F5075"/>
<stop offset="0.1735" stop-color="#325478"/>
<stop offset="0.3359" stop-color="#3D5F83"/>
<stop offset="0.4941" stop-color="#4F7294"/>
<stop offset="0.6495" stop-color="#688DAC"/>
<stop offset="0.803" stop-color="#88AFCB"/>
<stop offset="0.9531" stop-color="#AED8F1"/>
<stop offset="1" stop-color="#BCE7FE"/>
</linearGradient>
<linearGradient id="paint20_linear_226_17436" x1="145.134" y1="664.42" x2="566.56" y2="242.783" gradientUnits="userSpaceOnUse">
<stop stop-color="#2F5075"/>
<stop offset="0.1735" stop-color="#325478"/>
<stop offset="0.3359" stop-color="#3D5F83"/>
<stop offset="0.4941" stop-color="#4F7294"/>
<stop offset="0.6495" stop-color="#688DAC"/>
<stop offset="0.803" stop-color="#88AFCB"/>
<stop offset="0.9531" stop-color="#AED8F1"/>
<stop offset="1" stop-color="#BCE7FE"/>
</linearGradient>
<linearGradient id="paint21_linear_226_17436" x1="349.78" y1="84.3159" x2="349.78" y2="2.26054" gradientUnits="userSpaceOnUse">
<stop stop-color="#192B3F"/>
<stop offset="0.1202" stop-color="#263A4E"/>
<stop offset="0.3515" stop-color="#486176"/>
<stop offset="0.6707" stop-color="#7E9FB5"/>
<stop offset="1" stop-color="#BCE7FE"/>
</linearGradient>
<linearGradient id="paint22_linear_226_17436" x1="356.576" y1="810.853" x2="356.576" y2="120.117" gradientUnits="userSpaceOnUse">
<stop stop-color="#B4C9E4"/>
<stop offset="0.3498" stop-color="#C3D4E9"/>
<stop offset="0.9944" stop-color="#E8F1F5"/>
</linearGradient>
<linearGradient id="paint23_linear_226_17436" x1="356.576" y1="810.852" x2="356.576" y2="120.121" gradientUnits="userSpaceOnUse">
<stop stop-color="#B4C9E4"/>
<stop offset="0.3498" stop-color="#C3D4E9"/>
<stop offset="0.9944" stop-color="#E8F1F5"/>
</linearGradient>
<linearGradient id="paint24_linear_226_17436" x1="356.576" y1="810.847" x2="356.576" y2="120.121" gradientUnits="userSpaceOnUse">
<stop stop-color="#B4C9E4"/>
<stop offset="0.3498" stop-color="#C3D4E9"/>
<stop offset="0.9944" stop-color="#E8F1F5"/>
</linearGradient>
<linearGradient id="paint25_linear_226_17436" x1="356.576" y1="810.849" x2="356.576" y2="120.118" gradientUnits="userSpaceOnUse">
<stop stop-color="#B4C9E4"/>
<stop offset="0.3498" stop-color="#C3D4E9"/>
<stop offset="0.9944" stop-color="#E8F1F5"/>
</linearGradient>
<linearGradient id="paint26_linear_226_17436" x1="356.576" y1="810.86" x2="356.576" y2="120.119" gradientUnits="userSpaceOnUse">
<stop stop-color="#B4C9E4"/>
<stop offset="0.3498" stop-color="#C3D4E9"/>
<stop offset="0.9944" stop-color="#E8F1F5"/>
</linearGradient>
<linearGradient id="paint27_linear_226_17436" x1="356.576" y1="810.849" x2="356.576" y2="120.118" gradientUnits="userSpaceOnUse">
<stop stop-color="#B4C9E4"/>
<stop offset="0.3498" stop-color="#C3D4E9"/>
<stop offset="0.9944" stop-color="#E8F1F5"/>
</linearGradient>
<linearGradient id="paint28_linear_226_17436" x1="356.576" y1="810.85" x2="356.576" y2="120.119" gradientUnits="userSpaceOnUse">
<stop stop-color="#B4C9E4"/>
<stop offset="0.3498" stop-color="#C3D4E9"/>
<stop offset="0.9944" stop-color="#E8F1F5"/>
</linearGradient>
<linearGradient id="paint29_linear_226_17436" x1="356.576" y1="810.859" x2="356.576" y2="120.118" gradientUnits="userSpaceOnUse">
<stop stop-color="#B4C9E4"/>
<stop offset="0.3498" stop-color="#C3D4E9"/>
<stop offset="0.9944" stop-color="#E8F1F5"/>
</linearGradient>
<linearGradient id="paint30_linear_226_17436" x1="356.576" y1="810.845" x2="356.576" y2="120.125" gradientUnits="userSpaceOnUse">
<stop stop-color="#B4C9E4"/>
<stop offset="0.3498" stop-color="#C3D4E9"/>
<stop offset="0.9944" stop-color="#E8F1F5"/>
</linearGradient>
<linearGradient id="paint31_linear_226_17436" x1="356.576" y1="810.854" x2="356.576" y2="120.118" gradientUnits="userSpaceOnUse">
<stop stop-color="#B4C9E4"/>
<stop offset="0.3498" stop-color="#C3D4E9"/>
<stop offset="0.9944" stop-color="#E8F1F5"/>
</linearGradient>
<linearGradient id="paint32_linear_226_17436" x1="356.576" y1="810.861" x2="356.576" y2="120.12" gradientUnits="userSpaceOnUse">
<stop stop-color="#B4C9E4"/>
<stop offset="0.3498" stop-color="#C3D4E9"/>
<stop offset="0.9944" stop-color="#E8F1F5"/>
</linearGradient>
<linearGradient id="paint33_linear_226_17436" x1="356.576" y1="810.847" x2="356.576" y2="120.122" gradientUnits="userSpaceOnUse">
<stop stop-color="#B4C9E4"/>
<stop offset="0.3498" stop-color="#C3D4E9"/>
<stop offset="0.9944" stop-color="#E8F1F5"/>
</linearGradient>
<linearGradient id="paint34_linear_226_17436" x1="356.576" y1="810.854" x2="356.576" y2="120.118" gradientUnits="userSpaceOnUse">
<stop stop-color="#B4C9E4"/>
<stop offset="0.3498" stop-color="#C3D4E9"/>
<stop offset="0.9944" stop-color="#E8F1F5"/>
</linearGradient>
<linearGradient id="paint35_linear_226_17436" x1="356.576" y1="810.86" x2="356.576" y2="120.118" gradientUnits="userSpaceOnUse">
<stop stop-color="#B4C9E4"/>
<stop offset="0.3498" stop-color="#C3D4E9"/>
<stop offset="0.9944" stop-color="#E8F1F5"/>
</linearGradient>
<linearGradient id="paint36_linear_226_17436" x1="356.576" y1="810.872" x2="356.576" y2="120.115" gradientUnits="userSpaceOnUse">
<stop stop-color="#B4C9E4"/>
<stop offset="0.3498" stop-color="#C3D4E9"/>
<stop offset="0.9944" stop-color="#E8F1F5"/>
</linearGradient>
<linearGradient id="paint37_linear_226_17436" x1="356.576" y1="810.846" x2="356.576" y2="120.125" gradientUnits="userSpaceOnUse">
<stop stop-color="#B4C9E4"/>
<stop offset="0.3498" stop-color="#C3D4E9"/>
<stop offset="0.9944" stop-color="#E8F1F5"/>
</linearGradient>
<linearGradient id="paint38_linear_226_17436" x1="356.576" y1="810.863" x2="356.576" y2="120.111" gradientUnits="userSpaceOnUse">
<stop stop-color="#B4C9E4"/>
<stop offset="0.3498" stop-color="#C3D4E9"/>
<stop offset="0.9944" stop-color="#E8F1F5"/>
</linearGradient>
<linearGradient id="paint39_linear_226_17436" x1="356.576" y1="810.845" x2="356.576" y2="120.125" gradientUnits="userSpaceOnUse">
<stop stop-color="#B4C9E4"/>
<stop offset="0.3498" stop-color="#C3D4E9"/>
<stop offset="0.9944" stop-color="#E8F1F5"/>
</linearGradient>
<linearGradient id="paint40_linear_226_17436" x1="356.576" y1="810.851" x2="356.576" y2="120.12" gradientUnits="userSpaceOnUse">
<stop stop-color="#B4C9E4"/>
<stop offset="0.3498" stop-color="#C3D4E9"/>
<stop offset="0.9944" stop-color="#E8F1F5"/>
</linearGradient>
<linearGradient id="paint41_linear_226_17436" x1="356.576" y1="810.849" x2="356.576" y2="120.118" gradientUnits="userSpaceOnUse">
<stop stop-color="#B4C9E4"/>
<stop offset="0.3498" stop-color="#C3D4E9"/>
<stop offset="0.9944" stop-color="#E8F1F5"/>
</linearGradient>
<linearGradient id="paint42_linear_226_17436" x1="356.576" y1="810.856" x2="356.576" y2="120.115" gradientUnits="userSpaceOnUse">
<stop stop-color="#B4C9E4"/>
<stop offset="0.3498" stop-color="#C3D4E9"/>
<stop offset="0.9944" stop-color="#E8F1F5"/>
</linearGradient>
<linearGradient id="paint43_linear_226_17436" x1="356.576" y1="810.853" x2="356.576" y2="120.122" gradientUnits="userSpaceOnUse">
<stop stop-color="#B4C9E4"/>
<stop offset="0.3498" stop-color="#C3D4E9"/>
<stop offset="0.9944" stop-color="#E8F1F5"/>
</linearGradient>
<linearGradient id="paint44_linear_226_17436" x1="356.576" y1="810.852" x2="356.576" y2="120.121" gradientUnits="userSpaceOnUse">
<stop stop-color="#B4C9E4"/>
<stop offset="0.3498" stop-color="#C3D4E9"/>
<stop offset="0.9944" stop-color="#E8F1F5"/>
</linearGradient>
<linearGradient id="paint45_linear_226_17436" x1="356.576" y1="810.85" x2="356.576" y2="120.119" gradientUnits="userSpaceOnUse">
<stop stop-color="#B4C9E4"/>
<stop offset="0.3498" stop-color="#C3D4E9"/>
<stop offset="0.9944" stop-color="#E8F1F5"/>
</linearGradient>
<linearGradient id="paint46_linear_226_17436" x1="356.576" y1="810.849" x2="356.576" y2="120.129" gradientUnits="userSpaceOnUse">
<stop stop-color="#B4C9E4"/>
<stop offset="0.3498" stop-color="#C3D4E9"/>
<stop offset="0.9944" stop-color="#E8F1F5"/>
</linearGradient>
<linearGradient id="paint47_linear_226_17436" x1="356.576" y1="810.858" x2="356.576" y2="120.106" gradientUnits="userSpaceOnUse">
<stop stop-color="#B4C9E4"/>
<stop offset="0.3498" stop-color="#C3D4E9"/>
<stop offset="0.9944" stop-color="#E8F1F5"/>
</linearGradient>
<linearGradient id="paint48_linear_226_17436" x1="356.576" y1="810.852" x2="356.576" y2="120.121" gradientUnits="userSpaceOnUse">
<stop stop-color="#B4C9E4"/>
<stop offset="0.3498" stop-color="#C3D4E9"/>
<stop offset="0.9944" stop-color="#E8F1F5"/>
</linearGradient>
<linearGradient id="paint49_linear_226_17436" x1="356.576" y1="810.864" x2="356.576" y2="120.102" gradientUnits="userSpaceOnUse">
<stop stop-color="#B4C9E4"/>
<stop offset="0.3498" stop-color="#C3D4E9"/>
<stop offset="0.9944" stop-color="#E8F1F5"/>
</linearGradient>
<linearGradient id="paint50_linear_226_17436" x1="356.576" y1="810.851" x2="356.576" y2="120.12" gradientUnits="userSpaceOnUse">
<stop stop-color="#B4C9E4"/>
<stop offset="0.3498" stop-color="#C3D4E9"/>
<stop offset="0.9944" stop-color="#E8F1F5"/>
</linearGradient>
<linearGradient id="paint51_linear_226_17436" x1="356.576" y1="810.853" x2="356.576" y2="120.122" gradientUnits="userSpaceOnUse">
<stop stop-color="#B4C9E4"/>
<stop offset="0.3498" stop-color="#C3D4E9"/>
<stop offset="0.9944" stop-color="#E8F1F5"/>
</linearGradient>
<linearGradient id="paint52_linear_226_17436" x1="356.576" y1="810.846" x2="356.576" y2="120.125" gradientUnits="userSpaceOnUse">
<stop stop-color="#B4C9E4"/>
<stop offset="0.3498" stop-color="#C3D4E9"/>
<stop offset="0.9944" stop-color="#E8F1F5"/>
</linearGradient>
<linearGradient id="paint53_linear_226_17436" x1="356.576" y1="810.857" x2="356.576" y2="120.115" gradientUnits="userSpaceOnUse">
<stop stop-color="#B4C9E4"/>
<stop offset="0.3498" stop-color="#C3D4E9"/>
<stop offset="0.9944" stop-color="#E8F1F5"/>
</linearGradient>
<linearGradient id="paint54_linear_226_17436" x1="356.576" y1="810.852" x2="356.576" y2="120.121" gradientUnits="userSpaceOnUse">
<stop stop-color="#B4C9E4"/>
<stop offset="0.3498" stop-color="#C3D4E9"/>
<stop offset="0.9944" stop-color="#E8F1F5"/>
</linearGradient>
<linearGradient id="paint55_linear_226_17436" x1="356.576" y1="810.852" x2="356.576" y2="120.131" gradientUnits="userSpaceOnUse">
<stop stop-color="#B4C9E4"/>
<stop offset="0.3498" stop-color="#C3D4E9"/>
<stop offset="0.9944" stop-color="#E8F1F5"/>
</linearGradient>
<linearGradient id="paint56_linear_226_17436" x1="356.576" y1="810.851" x2="356.576" y2="120.121" gradientUnits="userSpaceOnUse">
<stop stop-color="#B4C9E4"/>
<stop offset="0.3498" stop-color="#C3D4E9"/>
<stop offset="0.9944" stop-color="#E8F1F5"/>
</linearGradient>
<linearGradient id="paint57_linear_226_17436" x1="356.576" y1="810.856" x2="356.576" y2="120.105" gradientUnits="userSpaceOnUse">
<stop stop-color="#B4C9E4"/>
<stop offset="0.3498" stop-color="#C3D4E9"/>
<stop offset="0.9944" stop-color="#E8F1F5"/>
</linearGradient>
<linearGradient id="paint58_linear_226_17436" x1="356.576" y1="810.851" x2="356.576" y2="120.12" gradientUnits="userSpaceOnUse">
<stop stop-color="#B4C9E4"/>
<stop offset="0.3498" stop-color="#C3D4E9"/>
<stop offset="0.9944" stop-color="#E8F1F5"/>
</linearGradient>
<linearGradient id="paint59_linear_226_17436" x1="356.576" y1="810.851" x2="356.576" y2="120.14" gradientUnits="userSpaceOnUse">
<stop stop-color="#B4C9E4"/>
<stop offset="0.3498" stop-color="#C3D4E9"/>
<stop offset="0.9944" stop-color="#E8F1F5"/>
</linearGradient>
<linearGradient id="paint60_linear_226_17436" x1="356.576" y1="810.856" x2="356.576" y2="120.104" gradientUnits="userSpaceOnUse">
<stop stop-color="#B4C9E4"/>
<stop offset="0.3498" stop-color="#C3D4E9"/>
<stop offset="0.9944" stop-color="#E8F1F5"/>
</linearGradient>
<linearGradient id="paint61_linear_226_17436" x1="356.576" y1="810.853" x2="356.576" y2="120.102" gradientUnits="userSpaceOnUse">
<stop stop-color="#B4C9E4"/>
<stop offset="0.3498" stop-color="#C3D4E9"/>
<stop offset="0.9944" stop-color="#E8F1F5"/>
</linearGradient>
<linearGradient id="paint62_linear_226_17436" x1="356.576" y1="810.852" x2="356.576" y2="120.131" gradientUnits="userSpaceOnUse">
<stop stop-color="#B4C9E4"/>
<stop offset="0.3498" stop-color="#C3D4E9"/>
<stop offset="0.9944" stop-color="#E8F1F5"/>
</linearGradient>
<linearGradient id="paint63_linear_226_17436" x1="356.576" y1="810.852" x2="356.576" y2="120.121" gradientUnits="userSpaceOnUse">
<stop stop-color="#B4C9E4"/>
<stop offset="0.3498" stop-color="#C3D4E9"/>
<stop offset="0.9944" stop-color="#E8F1F5"/>
</linearGradient>
<linearGradient id="paint64_linear_226_17436" x1="356.576" y1="810.853" x2="356.576" y2="120.117" gradientUnits="userSpaceOnUse">
<stop stop-color="#B4C9E4"/>
<stop offset="0.3498" stop-color="#C3D4E9"/>
<stop offset="0.9944" stop-color="#E8F1F5"/>
</linearGradient>
<linearGradient id="paint65_linear_226_17436" x1="356.576" y1="810.847" x2="356.576" y2="120.121" gradientUnits="userSpaceOnUse">
<stop stop-color="#B4C9E4"/>
<stop offset="0.3498" stop-color="#C3D4E9"/>
<stop offset="0.9944" stop-color="#E8F1F5"/>
</linearGradient>
<linearGradient id="paint66_linear_226_17436" x1="356.576" y1="810.848" x2="356.576" y2="120.117" gradientUnits="userSpaceOnUse">
<stop stop-color="#B4C9E4"/>
<stop offset="0.3498" stop-color="#C3D4E9"/>
<stop offset="0.9944" stop-color="#E8F1F5"/>
</linearGradient>
<linearGradient id="paint67_linear_226_17436" x1="356.576" y1="810.839" x2="356.576" y2="120.119" gradientUnits="userSpaceOnUse">
<stop stop-color="#B4C9E4"/>
<stop offset="0.3498" stop-color="#C3D4E9"/>
<stop offset="0.9944" stop-color="#E8F1F5"/>
</linearGradient>
<linearGradient id="paint68_linear_226_17436" x1="356.576" y1="810.856" x2="356.576" y2="120.115" gradientUnits="userSpaceOnUse">
<stop stop-color="#B4C9E4"/>
<stop offset="0.3498" stop-color="#C3D4E9"/>
<stop offset="0.9944" stop-color="#E8F1F5"/>
</linearGradient>
<linearGradient id="paint69_linear_226_17436" x1="356.576" y1="810.853" x2="356.576" y2="120.117" gradientUnits="userSpaceOnUse">
<stop stop-color="#B4C9E4"/>
<stop offset="0.3498" stop-color="#C3D4E9"/>
<stop offset="0.9944" stop-color="#E8F1F5"/>
</linearGradient>
<linearGradient id="paint70_linear_226_17436" x1="356.576" y1="810.864" x2="356.576" y2="120.117" gradientUnits="userSpaceOnUse">
<stop stop-color="#B4C9E4"/>
<stop offset="0.3498" stop-color="#C3D4E9"/>
<stop offset="0.9944" stop-color="#E8F1F5"/>
</linearGradient>
<linearGradient id="paint71_linear_226_17436" x1="356.576" y1="810.859" x2="356.576" y2="120.113" gradientUnits="userSpaceOnUse">
<stop stop-color="#B4C9E4"/>
<stop offset="0.3498" stop-color="#C3D4E9"/>
<stop offset="0.9944" stop-color="#E8F1F5"/>
</linearGradient>
<linearGradient id="paint72_linear_226_17436" x1="356.576" y1="810.846" x2="356.576" y2="120.12" gradientUnits="userSpaceOnUse">
<stop stop-color="#B4C9E4"/>
<stop offset="0.3498" stop-color="#C3D4E9"/>
<stop offset="0.9944" stop-color="#E8F1F5"/>
</linearGradient>
<linearGradient id="paint73_linear_226_17436" x1="356.576" y1="810.854" x2="356.576" y2="120.118" gradientUnits="userSpaceOnUse">
<stop stop-color="#B4C9E4"/>
<stop offset="0.3498" stop-color="#C3D4E9"/>
<stop offset="0.9944" stop-color="#E8F1F5"/>
</linearGradient>
<linearGradient id="paint74_linear_226_17436" x1="356.576" y1="810.855" x2="356.576" y2="120.114" gradientUnits="userSpaceOnUse">
<stop stop-color="#B4C9E4"/>
<stop offset="0.3498" stop-color="#C3D4E9"/>
<stop offset="0.9944" stop-color="#E8F1F5"/>
</linearGradient>
<linearGradient id="paint75_linear_226_17436" x1="356.576" y1="810.845" x2="356.576" y2="120.12" gradientUnits="userSpaceOnUse">
<stop stop-color="#B4C9E4"/>
<stop offset="0.3498" stop-color="#C3D4E9"/>
<stop offset="0.9944" stop-color="#E8F1F5"/>
</linearGradient>
<linearGradient id="paint76_linear_226_17436" x1="356.576" y1="810.858" x2="356.576" y2="120.117" gradientUnits="userSpaceOnUse">
<stop stop-color="#B4C9E4"/>
<stop offset="0.3498" stop-color="#C3D4E9"/>
<stop offset="0.9944" stop-color="#E8F1F5"/>
</linearGradient>
<linearGradient id="paint77_linear_226_17436" x1="356.576" y1="810.856" x2="356.576" y2="120.114" gradientUnits="userSpaceOnUse">
<stop stop-color="#B4C9E4"/>
<stop offset="0.3498" stop-color="#C3D4E9"/>
<stop offset="0.9944" stop-color="#E8F1F5"/>
</linearGradient>
<linearGradient id="paint78_linear_226_17436" x1="356.576" y1="810.859" x2="356.576" y2="120.112" gradientUnits="userSpaceOnUse">
<stop stop-color="#B4C9E4"/>
<stop offset="0.3498" stop-color="#C3D4E9"/>
<stop offset="0.9944" stop-color="#E8F1F5"/>
</linearGradient>
<linearGradient id="paint79_linear_226_17436" x1="356.576" y1="810.846" x2="356.576" y2="120.125" gradientUnits="userSpaceOnUse">
<stop stop-color="#B4C9E4"/>
<stop offset="0.3498" stop-color="#C3D4E9"/>
<stop offset="0.9944" stop-color="#E8F1F5"/>
</linearGradient>
<linearGradient id="paint80_linear_226_17436" x1="356.576" y1="810.861" x2="356.576" y2="120.109" gradientUnits="userSpaceOnUse">
<stop stop-color="#B4C9E4"/>
<stop offset="0.3498" stop-color="#C3D4E9"/>
<stop offset="0.9944" stop-color="#E8F1F5"/>
</linearGradient>
<linearGradient id="paint81_linear_226_17436" x1="356.576" y1="810.845" x2="356.576" y2="120.125" gradientUnits="userSpaceOnUse">
<stop stop-color="#B4C9E4"/>
<stop offset="0.3498" stop-color="#C3D4E9"/>
<stop offset="0.9944" stop-color="#E8F1F5"/>
</linearGradient>
<linearGradient id="paint82_linear_226_17436" x1="356.576" y1="810.851" x2="356.576" y2="120.12" gradientUnits="userSpaceOnUse">
<stop stop-color="#B4C9E4"/>
<stop offset="0.3498" stop-color="#C3D4E9"/>
<stop offset="0.9944" stop-color="#E8F1F5"/>
</linearGradient>
<linearGradient id="paint83_linear_226_17436" x1="356.576" y1="810.838" x2="356.576" y2="120.128" gradientUnits="userSpaceOnUse">
<stop stop-color="#B4C9E4"/>
<stop offset="0.3498" stop-color="#C3D4E9"/>
<stop offset="0.9944" stop-color="#E8F1F5"/>
</linearGradient>
<linearGradient id="paint84_linear_226_17436" x1="356.576" y1="810.851" x2="356.576" y2="120.12" gradientUnits="userSpaceOnUse">
<stop stop-color="#B4C9E4"/>
<stop offset="0.3498" stop-color="#C3D4E9"/>
<stop offset="0.9944" stop-color="#E8F1F5"/>
</linearGradient>
<linearGradient id="paint85_linear_226_17436" x1="356.576" y1="810.858" x2="356.576" y2="120.117" gradientUnits="userSpaceOnUse">
<stop stop-color="#B4C9E4"/>
<stop offset="0.3498" stop-color="#C3D4E9"/>
<stop offset="0.9944" stop-color="#E8F1F5"/>
</linearGradient>
<linearGradient id="paint86_linear_226_17436" x1="356.576" y1="810.855" x2="356.576" y2="120.114" gradientUnits="userSpaceOnUse">
<stop stop-color="#B4C9E4"/>
<stop offset="0.3498" stop-color="#C3D4E9"/>
<stop offset="0.9944" stop-color="#E8F1F5"/>
</linearGradient>
<linearGradient id="paint87_linear_226_17436" x1="356.576" y1="810.85" x2="356.576" y2="120.119" gradientUnits="userSpaceOnUse">
<stop stop-color="#B4C9E4"/>
<stop offset="0.3498" stop-color="#C3D4E9"/>
<stop offset="0.9944" stop-color="#E8F1F5"/>
</linearGradient>
<linearGradient id="paint88_linear_226_17436" x1="356.576" y1="810.854" x2="356.576" y2="120.123" gradientUnits="userSpaceOnUse">
<stop stop-color="#B4C9E4"/>
<stop offset="0.3498" stop-color="#C3D4E9"/>
<stop offset="0.9944" stop-color="#E8F1F5"/>
</linearGradient>
<linearGradient id="paint89_linear_226_17436" x1="356.576" y1="810.85" x2="356.576" y2="120.119" gradientUnits="userSpaceOnUse">
<stop stop-color="#B4C9E4"/>
<stop offset="0.3498" stop-color="#C3D4E9"/>
<stop offset="0.9944" stop-color="#E8F1F5"/>
</linearGradient>
<linearGradient id="paint90_linear_226_17436" x1="356.576" y1="810.852" x2="356.576" y2="120.121" gradientUnits="userSpaceOnUse">
<stop stop-color="#B4C9E4"/>
<stop offset="0.3498" stop-color="#C3D4E9"/>
<stop offset="0.9944" stop-color="#E8F1F5"/>
</linearGradient>
<linearGradient id="paint91_linear_226_17436" x1="356.576" y1="810.86" x2="356.576" y2="120.098" gradientUnits="userSpaceOnUse">
<stop stop-color="#B4C9E4"/>
<stop offset="0.3498" stop-color="#C3D4E9"/>
<stop offset="0.9944" stop-color="#E8F1F5"/>
</linearGradient>
<linearGradient id="paint92_linear_226_17436" x1="356.576" y1="810.848" x2="356.576" y2="120.127" gradientUnits="userSpaceOnUse">
<stop stop-color="#B4C9E4"/>
<stop offset="0.3498" stop-color="#C3D4E9"/>
<stop offset="0.9944" stop-color="#E8F1F5"/>
</linearGradient>
<linearGradient id="paint93_linear_226_17436" x1="356.576" y1="810.859" x2="356.576" y2="120.107" gradientUnits="userSpaceOnUse">
<stop stop-color="#B4C9E4"/>
<stop offset="0.3498" stop-color="#C3D4E9"/>
<stop offset="0.9944" stop-color="#E8F1F5"/>
</linearGradient>
<linearGradient id="paint94_linear_226_17436" x1="356.576" y1="810.854" x2="356.576" y2="120.103" gradientUnits="userSpaceOnUse">
<stop stop-color="#B4C9E4"/>
<stop offset="0.3498" stop-color="#C3D4E9"/>
<stop offset="0.9944" stop-color="#E8F1F5"/>
</linearGradient>
<linearGradient id="paint95_linear_226_17436" x1="356.576" y1="810.855" x2="356.576" y2="120.113" gradientUnits="userSpaceOnUse">
<stop stop-color="#B4C9E4"/>
<stop offset="0.3498" stop-color="#C3D4E9"/>
<stop offset="0.9944" stop-color="#E8F1F5"/>
</linearGradient>
<linearGradient id="paint96_linear_226_17436" x1="356.576" y1="810.85" x2="356.576" y2="120.109" gradientUnits="userSpaceOnUse">
<stop stop-color="#B4C9E4"/>
<stop offset="0.3498" stop-color="#C3D4E9"/>
<stop offset="0.9944" stop-color="#E8F1F5"/>
</linearGradient>
<linearGradient id="paint97_linear_226_17436" x1="356.576" y1="810.854" x2="356.576" y2="120.102" gradientUnits="userSpaceOnUse">
<stop stop-color="#B4C9E4"/>
<stop offset="0.3498" stop-color="#C3D4E9"/>
<stop offset="0.9944" stop-color="#E8F1F5"/>
</linearGradient>
<linearGradient id="paint98_linear_226_17436" x1="356.576" y1="810.85" x2="356.576" y2="120.129" gradientUnits="userSpaceOnUse">
<stop stop-color="#B4C9E4"/>
<stop offset="0.3498" stop-color="#C3D4E9"/>
<stop offset="0.9944" stop-color="#E8F1F5"/>
</linearGradient>
<linearGradient id="paint99_linear_226_17436" x1="356.576" y1="810.849" x2="356.576" y2="120.118" gradientUnits="userSpaceOnUse">
<stop stop-color="#B4C9E4"/>
<stop offset="0.3498" stop-color="#C3D4E9"/>
<stop offset="0.9944" stop-color="#E8F1F5"/>
</linearGradient>
<linearGradient id="paint100_linear_226_17436" x1="356.576" y1="810.851" x2="356.576" y2="120.12" gradientUnits="userSpaceOnUse">
<stop stop-color="#B4C9E4"/>
<stop offset="0.3498" stop-color="#C3D4E9"/>
<stop offset="0.9944" stop-color="#E8F1F5"/>
</linearGradient>
<linearGradient id="paint101_linear_226_17436" x1="356.576" y1="810.852" x2="356.576" y2="120.131" gradientUnits="userSpaceOnUse">
<stop stop-color="#B4C9E4"/>
<stop offset="0.3498" stop-color="#C3D4E9"/>
<stop offset="0.9944" stop-color="#E8F1F5"/>
</linearGradient>
<linearGradient id="paint102_linear_226_17436" x1="356.576" y1="810.852" x2="356.576" y2="120.1" gradientUnits="userSpaceOnUse">
<stop stop-color="#B4C9E4"/>
<stop offset="0.3498" stop-color="#C3D4E9"/>
<stop offset="0.9944" stop-color="#E8F1F5"/>
</linearGradient>
<linearGradient id="paint103_linear_226_17436" x1="356.576" y1="810.851" x2="356.576" y2="120.1" gradientUnits="userSpaceOnUse">
<stop stop-color="#B4C9E4"/>
<stop offset="0.3498" stop-color="#C3D4E9"/>
<stop offset="0.9944" stop-color="#E8F1F5"/>
</linearGradient>
<linearGradient id="paint104_linear_226_17436" x1="356.576" y1="810.852" x2="356.576" y2="120.111" gradientUnits="userSpaceOnUse">
<stop stop-color="#B4C9E4"/>
<stop offset="0.3498" stop-color="#C3D4E9"/>
<stop offset="0.9944" stop-color="#E8F1F5"/>
</linearGradient>
<linearGradient id="paint105_linear_226_17436" x1="356.576" y1="810.85" x2="356.576" y2="120.088" gradientUnits="userSpaceOnUse">
<stop stop-color="#B4C9E4"/>
<stop offset="0.3498" stop-color="#C3D4E9"/>
<stop offset="0.9944" stop-color="#E8F1F5"/>
</linearGradient>
<linearGradient id="paint106_linear_226_17436" x1="288.178" y1="1077.94" x2="288.178" y2="-1482.66" gradientUnits="userSpaceOnUse">
<stop offset="0.0448" stop-color="#192B3F"/>
<stop offset="0.1891" stop-color="#263A4E"/>
<stop offset="0.467" stop-color="#496175"/>
<stop offset="0.8469" stop-color="#80A1B4"/>
<stop offset="1" stop-color="#98BCCF"/>
</linearGradient>
<linearGradient id="paint107_linear_226_17436" x1="426.47" y1="1941.07" x2="426.47" y2="-619.539" gradientUnits="userSpaceOnUse">
<stop offset="0.3736" stop-color="#192B3F"/>
<stop offset="0.4488" stop-color="#263A4E"/>
<stop offset="0.5938" stop-color="#486176"/>
<stop offset="0.7937" stop-color="#7E9FB5"/>
<stop offset="1" stop-color="#BCE7FE"/>
</linearGradient>
<linearGradient id="paint108_linear_226_17436" x1="344.751" y1="63.804" x2="354.397" y2="-46.5073" gradientUnits="userSpaceOnUse">
<stop stop-color="#2F5075"/>
<stop offset="0.1735" stop-color="#325478"/>
<stop offset="0.3359" stop-color="#3D5F83"/>
<stop offset="0.4941" stop-color="#4F7294"/>
<stop offset="0.6495" stop-color="#688DAC"/>
<stop offset="0.803" stop-color="#88AFCB"/>
<stop offset="0.9531" stop-color="#AED8F1"/>
<stop offset="1" stop-color="#BCE7FE"/>
</linearGradient>
</defs>
</svg>
