<svg width="56" height="45" viewBox="0 0 56 45" fill="none" xmlns="http://www.w3.org/2000/svg">
<path d="M16.0176 42V38.1035H16.3223L20.084 42H21.4785L17.2363 37.6055L21.1387 33.5449H19.8145L16.3223 37.2598H16.0176V33.5449H14.9629V42H16.0176ZM22.8145 44.2148C23.9336 44.2148 24.4551 43.8047 24.9766 42.3867L27.4434 35.6836H26.3711L24.6426 40.8809H24.5488L22.8145 35.6836H21.7246L24.0625 42.0059L23.9453 42.3809C23.7168 43.1074 23.3652 43.3711 22.7852 43.3711C22.6445 43.3711 22.4863 43.3652 22.3633 43.3418V44.1797C22.5039 44.2031 22.6797 44.2148 22.8145 44.2148ZM28.9082 44.1094H29.9277V41.0039H30.0215C30.3672 41.6777 31.123 42.1113 31.9902 42.1113C33.5957 42.1113 34.6387 40.8281 34.6387 38.8477V38.8359C34.6387 36.8672 33.5898 35.5723 31.9902 35.5723C31.1113 35.5723 30.4082 35.9883 30.0215 36.6914H29.9277V35.6836H28.9082V44.1094ZM31.7559 41.209C30.6074 41.209 29.9043 40.3066 29.9043 38.8477V38.8359C29.9043 37.377 30.6074 36.4746 31.7559 36.4746C32.9102 36.4746 33.5957 37.3652 33.5957 38.8359V38.8477C33.5957 40.3184 32.9102 41.209 31.7559 41.209ZM38.9336 42.1113C40.4512 42.1113 41.3008 41.2969 41.5586 40.1543L41.5703 40.0898L40.5625 40.0957L40.5508 40.1309C40.3164 40.834 39.7773 41.209 38.9277 41.209C37.8027 41.209 37.0762 40.2773 37.0762 38.8242V38.8125C37.0762 37.3887 37.791 36.4746 38.9277 36.4746C39.8359 36.4746 40.3984 36.9785 40.5566 37.5996L40.5625 37.6172H41.5762L41.5703 37.582C41.3828 36.457 40.4629 35.5723 38.9277 35.5723C37.1582 35.5723 36.0332 36.8496 36.0332 38.8125V38.8242C36.0332 40.8281 37.1641 42.1113 38.9336 42.1113Z" fill="#3118CD"/>
<path d="M18 16.22C18 15.6337 18.0008 15.2552 18.0247 14.9672C18.0476 14.6912 18.0865 14.5892 18.1126 14.539C18.2075 14.3564 18.3564 14.2075 18.539 14.1126C18.5892 14.0865 18.6912 14.0476 18.9672 14.0247C19.2552 14.0008 19.6337 14 20.22 14H34.78C35.3663 14 35.7448 14.0008 36.0328 14.0247C36.3088 14.0476 36.4108 14.0865 36.461 14.1126C36.6436 14.2075 36.7925 14.3564 36.8874 14.539C36.9135 14.5892 36.9524 14.6912 36.9753 14.9672C36.9992 15.2552 37 15.6337 37 16.22V19.3431C37 20.0472 36.9894 20.186 36.955 20.2968C36.9167 20.4198 36.8551 20.5343 36.7734 20.6339C36.6999 20.7236 36.5899 20.8089 36.002 21.1965L28.722 25.9965C28.0083 26.467 27.8584 26.5479 27.7254 26.5787C27.5771 26.613 27.4229 26.613 27.2746 26.5787C27.1416 26.5479 26.9917 26.467 26.278 25.9965L18.998 21.1965C18.4101 20.8089 18.3001 20.7236 18.2266 20.6339L17.4532 21.2678L18.2266 20.6339C18.1449 20.5343 18.0833 20.4198 18.045 20.2968C18.0106 20.186 18 20.0472 18 19.3431V16.22Z" fill="white" stroke="#3118CD" stroke-width="2"/>
<path d="M26.966 1.67424C27.5756 1.35344 27.7004 1.29926 27.8122 1.27789C27.9363 1.25416 28.0637 1.25416 28.1878 1.27789C28.2995 1.29926 28.4244 1.35344 29.034 1.67424L29.4997 0.789318L29.034 1.67424L41.1203 8.03548C42.0249 8.51158 42.6404 8.83667 43.0708 9.11697C43.5107 9.40346 43.5983 9.54643 43.6174 9.5889L44.529 9.17779L43.6174 9.5889C43.7353 9.85029 43.7353 10.1497 43.6174 10.4111L44.529 10.8222L43.6174 10.4111C43.5983 10.4536 43.5107 10.5965 43.0708 10.883C42.6404 11.1633 42.0249 11.4884 41.1203 11.9645L29.034 18.3258C28.4244 18.6466 28.2995 18.7007 28.1878 18.7221C28.0637 18.7458 27.9363 18.7458 27.8122 18.7221C27.7004 18.7007 27.5756 18.6466 26.966 18.3258L14.8797 11.9645C13.9751 11.4884 13.3596 11.1633 12.9292 10.883C12.4893 10.5965 12.4017 10.4536 12.3826 10.4111C12.2647 10.1497 12.2647 9.85029 12.3826 9.5889C12.4017 9.54643 12.4893 9.40346 12.9292 9.11697C13.3596 8.83667 13.9751 8.51159 14.8797 8.03548L26.966 1.67424Z" fill="white" stroke="#3118CD" stroke-width="2"/>
<path d="M28 10H41.78C42.919 10 43.4885 10 43.9219 10.2252C44.2872 10.4149 44.5851 10.7128 44.7748 11.0781C45 11.5115 45 12.081 45 13.22V17" stroke="#3118CD" stroke-width="2" stroke-linecap="round"/>
</svg>
