<svg width="56" height="45" viewBox="0 0 56 45" fill="none" xmlns="http://www.w3.org/2000/svg">
<circle cx="28" cy="10.7647" r="4.76471" stroke="#3118CD" stroke-width="2"/>
<path d="M37.8635 23.5636C36.8485 21.8493 35.4208 20.4162 33.7103 19.3948C31.9999 18.3735 30.0611 17.7963 28.0705 17.7158C26.0799 17.6353 24.1009 18.0542 22.3136 18.9342C20.5263 19.8142 18.9875 21.1273 17.8375 22.7541L19.3143 23.7981C20.2901 22.4177 21.5958 21.3034 23.1124 20.5567C24.629 19.81 26.3084 19.4545 27.9975 19.5228C29.6866 19.5911 31.3317 20.0809 32.7831 20.9476C34.2345 21.8143 35.446 23.0303 36.3073 24.485L37.8635 23.5636Z" fill="#1856CD"/>
<circle cx="28" cy="14.4121" r="13" stroke="#3118CD" stroke-width="2"/>
<path d="M4.65625 42H5.76367L6.61328 39.5801H9.97656L10.8262 42H11.9336L8.81641 33.5449H7.77344L4.65625 42ZM8.24805 34.9102H8.3418L9.66602 38.6836H6.92383L8.24805 34.9102ZM14.7402 39.123L17.2129 42H18.5195L15.5664 38.6602L18.4082 35.6836H17.1836L14.7402 38.3262H14.418V35.6836H13.3984V42H14.418V39.123H14.7402ZM21.2676 39.123L23.7402 42H25.0469L22.0938 38.6602L24.9355 35.6836H23.7109L21.2676 38.3262H20.9453V35.6836H19.9258V42H20.9453V39.123H21.2676ZM28.0176 42.1113C28.8672 42.1113 29.5293 41.7422 29.9277 41.0684H30.0215V42H31.041V37.6758C31.041 36.3633 30.1797 35.5723 28.6387 35.5723C27.291 35.5723 26.3301 36.2402 26.166 37.2305L26.1602 37.2656H27.1797L27.1855 37.248C27.3496 36.7559 27.8477 36.4746 28.6035 36.4746C29.5469 36.4746 30.0215 36.8965 30.0215 37.6758V38.25L28.2109 38.3613C26.7402 38.4492 25.9082 39.0996 25.9082 40.2246V40.2363C25.9082 41.3848 26.8164 42.1113 28.0176 42.1113ZM26.9512 40.2129V40.2012C26.9512 39.5742 27.373 39.2344 28.334 39.1758L30.0215 39.0703V39.6445C30.0215 40.5469 29.2656 41.2266 28.2285 41.2266C27.4961 41.2266 26.9512 40.8516 26.9512 40.2129ZM33.502 44.2148C34.6211 44.2148 35.1426 43.8047 35.6641 42.3867L38.1309 35.6836H37.0586L35.3301 40.8809H35.2363L33.502 35.6836H32.4121L34.75 42.0059L34.6328 42.3809C34.4043 43.1074 34.0527 43.3711 33.4727 43.3711C33.332 43.3711 33.1738 43.3652 33.0508 43.3418V44.1797C33.1914 44.2031 33.3672 44.2148 33.502 44.2148ZM43.7383 42H44.7578V35.6836H43.7383V38.2969H40.6094V35.6836H39.5898V42H40.6094V39.1406H43.7383V42ZM51.3379 35.6836H46.2285V36.5273H48.2734V42H49.293V36.5273H51.3379V35.6836Z" fill="#3118CD"/>
</svg>
