<svg width="84" height="44" viewBox="0 0 84 44" fill="none" xmlns="http://www.w3.org/2000/svg">
<rect x="32" y="1" width="20" height="25" rx="2" stroke="#3118CD" stroke-width="2"/>
<path d="M36 6H48" stroke="#3118CD" stroke-width="2" stroke-linecap="round"/>
<path d="M36 15H48" stroke="#3118CD" stroke-width="2" stroke-linecap="round"/>
<path d="M36 9H48" stroke="#3118CD" stroke-width="2" stroke-linecap="round"/>
<path d="M36 18H48" stroke="#3118CD" stroke-width="2" stroke-linecap="round"/>
<path d="M36 12H48" stroke="#3118CD" stroke-width="2" stroke-linecap="round"/>
<path d="M36 21H48" stroke="#3118CD" stroke-width="2" stroke-linecap="round"/>
<path d="M10.8809 38.293C10.7754 39.1953 10.4414 39.8926 9.87891 40.3848C9.32031 40.873 8.57617 41.1172 7.64648 41.1172C6.63867 41.1172 5.83008 40.7559 5.2207 40.0332C4.61523 39.3105 4.3125 38.3438 4.3125 37.1328V36.3125C4.3125 35.5195 4.45312 34.8223 4.73438 34.2207C5.01953 33.6191 5.42188 33.1582 5.94141 32.8379C6.46094 32.5137 7.0625 32.3516 7.74609 32.3516C8.65234 32.3516 9.37891 32.6055 9.92578 33.1133C10.4727 33.6172 10.791 34.3164 10.8809 35.2109H9.75C9.65234 34.5312 9.43945 34.0391 9.11133 33.7344C8.78711 33.4297 8.33203 33.2773 7.74609 33.2773C7.02734 33.2773 6.46289 33.543 6.05273 34.0742C5.64648 34.6055 5.44336 35.3613 5.44336 36.3418V37.168C5.44336 38.0938 5.63672 38.8301 6.02344 39.377C6.41016 39.9238 6.95117 40.1973 7.64648 40.1973C8.27148 40.1973 8.75 40.0566 9.08203 39.7754C9.41797 39.4902 9.64062 38.9961 9.75 38.293H10.8809ZM14.8828 41.1172C14.0234 41.1172 13.3242 40.8359 12.7852 40.2734C12.2461 39.707 11.9766 38.9512 11.9766 38.0059V37.8066C11.9766 37.1777 12.0957 36.6172 12.334 36.125C12.5762 35.6289 12.9121 35.2422 13.3418 34.9648C13.7754 34.6836 14.2441 34.543 14.748 34.543C15.5723 34.543 16.2129 34.8145 16.6699 35.3574C17.127 35.9004 17.3555 36.6777 17.3555 37.6895V38.1406H13.0605C13.0762 38.7656 13.2578 39.2715 13.6055 39.6582C13.957 40.041 14.4023 40.2324 14.9414 40.2324C15.3242 40.2324 15.6484 40.1543 15.9141 39.998C16.1797 39.8418 16.4121 39.6348 16.6113 39.377L17.2734 39.8926C16.7422 40.709 15.9453 41.1172 14.8828 41.1172ZM14.748 35.4336C14.3105 35.4336 13.9434 35.5938 13.6465 35.9141C13.3496 36.2305 13.166 36.6758 13.0957 37.25H16.2715V37.168C16.2402 36.6172 16.0918 36.1914 15.8262 35.8906C15.5605 35.5859 15.2012 35.4336 14.748 35.4336ZM23.9707 37.9004C23.9707 38.8652 23.75 39.6426 23.3086 40.2324C22.8672 40.8223 22.2695 41.1172 21.5156 41.1172C20.7461 41.1172 20.1406 40.873 19.6992 40.3848V43.4375H18.6152V34.6602H19.6055L19.6582 35.3633C20.0996 34.8164 20.7129 34.543 21.498 34.543C22.2598 34.543 22.8613 34.8301 23.3027 35.4043C23.748 35.9785 23.9707 36.7773 23.9707 37.8008V37.9004ZM22.8867 37.7773C22.8867 37.0625 22.7344 36.498 22.4297 36.084C22.125 35.6699 21.707 35.4629 21.1758 35.4629C20.5195 35.4629 20.0273 35.7539 19.6992 36.3359V39.3652C20.0234 39.9434 20.5195 40.2324 21.1875 40.2324C21.707 40.2324 22.1191 40.0273 22.4238 39.6172C22.7324 39.2031 22.8867 38.5898 22.8867 37.7773ZM29.5957 35.5391H27.4688V41H26.3848V35.5391H24.2988V34.6602H29.5957V35.5391ZM34.752 34.6602H35.8359V41H34.752V36.377L31.8281 41H30.7441V34.6602H31.8281V39.2891L34.752 34.6602ZM37.3418 37.9473C37.3418 36.8887 37.5469 36.0566 37.957 35.4512C38.3672 34.8457 38.9297 34.543 39.6445 34.543C39.9766 34.543 40.2676 34.5996 40.5176 34.7129V32H41.6016V34.748C41.875 34.6113 42.1953 34.543 42.5625 34.543C43.2812 34.543 43.8457 34.8457 44.2559 35.4512C44.666 36.0566 44.8711 36.9297 44.8711 38.0703C44.8711 39.0039 44.666 39.7461 44.2559 40.2969C43.8496 40.8477 43.2891 41.123 42.5742 41.123C42.1953 41.123 41.8711 41.0605 41.6016 40.9355V43.4375H40.5176V40.9531C40.2598 41.0664 39.9648 41.123 39.6328 41.123C38.9219 41.123 38.3613 40.8477 37.9512 40.2969C37.5449 39.7461 37.3418 38.9922 37.3418 38.0352V37.9473ZM43.7871 37.9473C43.7871 37.1504 43.6504 36.5332 43.377 36.0957C43.1035 35.6543 42.7266 35.4336 42.2461 35.4336C42 35.4336 41.7852 35.4727 41.6016 35.5508V40.1387C41.7773 40.2051 41.9961 40.2383 42.2578 40.2383C42.7422 40.2383 43.1172 40.0508 43.3828 39.6758C43.6523 39.3008 43.7871 38.7246 43.7871 37.9473ZM38.4258 38.0703C38.4258 38.7812 38.5527 39.3203 38.8066 39.6875C39.0605 40.0547 39.4258 40.2383 39.9023 40.2383C40.1289 40.2383 40.334 40.2031 40.5176 40.1328V35.5332C40.3535 35.4668 40.1523 35.4336 39.9141 35.4336C39.4375 35.4336 39.0703 35.6465 38.8125 36.0723C38.5547 36.498 38.4258 37.1641 38.4258 38.0703ZM50.3848 34.6602H51.4688V41H50.3848V36.377L47.4609 41H46.377V34.6602H47.4609V39.2891L50.3848 34.6602ZM55.1836 38.2988H54.3926V41H53.3027V34.6602H54.3926V37.3438H55.1016L57.2344 34.6602H58.5469L56.0391 37.707L58.7578 41H57.3809L55.1836 38.2988ZM63.6035 41C63.541 40.875 63.4902 40.6523 63.4512 40.332C62.9473 40.8555 62.3457 41.1172 61.6465 41.1172C61.0215 41.1172 60.5078 40.9414 60.1055 40.5898C59.707 40.2344 59.5078 39.7852 59.5078 39.2422C59.5078 38.582 59.7578 38.0703 60.2578 37.707C60.7617 37.3398 61.4688 37.1562 62.3789 37.1562H63.4336V36.6582C63.4336 36.2793 63.3203 35.9785 63.0938 35.7559C62.8672 35.5293 62.5332 35.416 62.0918 35.416C61.7051 35.416 61.3809 35.5137 61.1191 35.709C60.8574 35.9043 60.7266 36.1406 60.7266 36.418H59.6367C59.6367 36.1016 59.748 35.7969 59.9707 35.5039C60.1973 35.207 60.502 34.9727 60.8848 34.8008C61.2715 34.6289 61.6953 34.543 62.1562 34.543C62.8867 34.543 63.459 34.7266 63.873 35.0938C64.2871 35.457 64.502 35.959 64.5176 36.5996V39.5176C64.5176 40.0996 64.5918 40.5625 64.7402 40.9062V41H63.6035ZM61.8047 40.1738C62.1445 40.1738 62.4668 40.0859 62.7715 39.9102C63.0762 39.7344 63.2969 39.5059 63.4336 39.2246V37.9238H62.584C61.2559 37.9238 60.5918 38.3125 60.5918 39.0898C60.5918 39.4297 60.7051 39.6953 60.9316 39.8867C61.1582 40.0781 61.4492 40.1738 61.8047 40.1738ZM70.834 35.5391H68.707V41H67.623V35.5391H65.5371V34.6602H70.834V35.5391ZM73.0723 36.8457H74.7188C75.4375 36.8535 76.0059 37.041 76.4238 37.4082C76.8418 37.7754 77.0508 38.2734 77.0508 38.9023C77.0508 39.5352 76.8359 40.043 76.4062 40.4258C75.9766 40.8086 75.3984 41 74.6719 41H71.9883V34.6602H73.0723V36.8457ZM79.3125 41H78.2227V34.6602H79.3125V41ZM73.0723 37.7305V40.1152H74.6836C75.0898 40.1152 75.4043 40.0117 75.627 39.8047C75.8496 39.5938 75.9609 39.3066 75.9609 38.9434C75.9609 38.5918 75.8516 38.3047 75.6328 38.082C75.418 37.8555 75.1152 37.7383 74.7246 37.7305H73.0723Z" fill="#3118CD"/>
</svg>
