<svg width="335" height="28" viewBox="0 0 335 28" fill="none" xmlns="http://www.w3.org/2000/svg">
<path d="M29.4303 10.3902H3.4619H0.486462C0.283834 10.3902 0.11853 10.5555 0.11853 10.7582V12.9337V22.3133C0.11853 22.5159 0.283834 22.6812 0.486462 22.6812H3.09397C3.29659 22.6812 3.4619 22.5159 3.4619 22.3133V13.3017C3.4619 13.099 3.6272 12.9337 3.82983 12.9337H29.0624C29.265 12.9337 29.4303 13.099 29.4303 13.3017V22.3133C29.4303 22.5159 29.5956 22.6812 29.7982 22.6812H32.4057C32.6084 22.6812 32.7737 22.5159 32.7737 22.3133V12.9284V10.7528C32.7737 10.5502 32.6084 10.3849 32.4057 10.3849H29.4303V10.3902Z" fill="url(#paint0_linear_541_20066)"/>
<path d="M18.1152 0.904063V15.7279C18.1152 15.9305 17.9499 16.0959 17.7473 16.0959H15.1398C14.9372 16.0959 14.7719 15.9305 14.7719 15.7279V0.904063C14.7719 0.701435 14.9372 0.536133 15.1398 0.536133H17.7473C17.9499 0.536133 18.1152 0.701435 18.1152 0.904063Z" fill="url(#paint1_linear_541_20066)"/>
<path d="M28.1401 14.9334V26.6965C28.1401 26.8991 27.9748 27.0644 27.7722 27.0644H5.11512C4.91249 27.0644 4.74719 26.8991 4.74719 26.6965V14.9334C4.74719 14.7307 4.91249 14.5654 5.11512 14.5654H27.7722C27.9748 14.5654 28.1401 14.7307 28.1401 14.9334Z" fill="url(#paint2_linear_541_20066)"/>
<path d="M22.0825 3.41029V13.2218C22.0825 13.4244 21.9172 13.5897 21.7146 13.5897H11.1726C10.9699 13.5897 10.8046 13.4244 10.8046 13.2218V3.41029C10.8046 3.20766 10.9699 3.04236 11.1726 3.04236H21.7146C21.9172 3.04236 22.0825 3.20766 22.0825 3.41029Z" fill="url(#paint3_linear_541_20066)"/>
<path d="M230.358 10.3901H204.39H201.414C201.211 10.3901 201.046 10.5554 201.046 10.758V12.9336V22.3132C201.046 22.5158 201.211 22.6811 201.414 22.6811H204.022C204.224 22.6811 204.39 22.5158 204.39 22.3132V13.3015C204.39 13.0989 204.555 12.9336 204.757 12.9336H229.99C230.193 12.9336 230.358 13.0989 230.358 13.3015V22.3132C230.358 22.5158 230.523 22.6811 230.726 22.6811H233.333C233.536 22.6811 233.701 22.5158 233.701 22.3132V12.9283V10.7527C233.701 10.5501 233.536 10.3848 233.333 10.3848H230.358V10.3901Z" fill="url(#paint4_linear_541_20066)"/>
<path d="M219.043 0.903941V15.7278C219.043 15.9304 218.877 16.0957 218.675 16.0957H216.067C215.865 16.0957 215.699 15.9304 215.699 15.7278V0.903941C215.699 0.701313 215.865 0.536011 216.067 0.536011H218.675C218.877 0.536011 219.043 0.701313 219.043 0.903941Z" fill="url(#paint5_linear_541_20066)"/>
<path d="M229.067 14.9332V26.6963C229.067 26.899 228.902 27.0643 228.699 27.0643H206.042C205.84 27.0643 205.674 26.899 205.674 26.6963V14.9332C205.674 14.7306 205.84 14.5653 206.042 14.5653H228.699C228.907 14.5653 229.067 14.7306 229.067 14.9332Z" fill="url(#paint6_linear_541_20066)"/>
<path d="M223.015 3.41017V13.2216C223.015 13.4243 222.85 13.5896 222.647 13.5896H212.105C211.903 13.5896 211.738 13.4243 211.738 13.2216V3.41017C211.738 3.20754 211.903 3.04224 212.105 3.04224H222.647C222.85 3.04224 223.015 3.20754 223.015 3.41017Z" fill="url(#paint7_linear_541_20066)"/>
<path d="M129.891 10.3901H103.923H100.948C100.745 10.3901 100.58 10.5554 100.58 10.758V12.9336V22.3132C100.58 22.5158 100.745 22.6811 100.948 22.6811H103.555C103.758 22.6811 103.923 22.5158 103.923 22.3132V13.3015C103.923 13.0989 104.088 12.9336 104.291 12.9336H129.523C129.726 12.9336 129.891 13.0989 129.891 13.3015V22.3132C129.891 22.5158 130.057 22.6811 130.259 22.6811H132.867C133.069 22.6811 133.235 22.5158 133.235 22.3132V12.9283V10.7527C133.235 10.5501 133.069 10.3848 132.867 10.3848H129.891V10.3901Z" fill="url(#paint8_linear_541_20066)"/>
<path d="M118.582 0.903941V15.7278C118.582 15.9304 118.416 16.0957 118.214 16.0957H115.606C115.403 16.0957 115.238 15.9304 115.238 15.7278V0.903941C115.238 0.701313 115.403 0.536011 115.606 0.536011H118.214C118.416 0.536011 118.582 0.701313 118.582 0.903941Z" fill="url(#paint9_linear_541_20066)"/>
<path d="M128.606 14.9332V26.6963C128.606 26.899 128.441 27.0643 128.238 27.0643H105.581C105.379 27.0643 105.213 26.899 105.213 26.6963V14.9332C105.213 14.7306 105.379 14.5653 105.581 14.5653H128.238C128.441 14.5653 128.606 14.7306 128.606 14.9332Z" fill="url(#paint10_linear_541_20066)"/>
<path d="M122.549 3.41017V13.2216C122.549 13.4243 122.383 13.5896 122.181 13.5896H111.639C111.436 13.5896 111.271 13.4243 111.271 13.2216V3.41017C111.271 3.20754 111.436 3.04224 111.639 3.04224H122.181C122.383 3.04224 122.549 3.20754 122.549 3.41017Z" fill="url(#paint11_linear_541_20066)"/>
<path d="M330.925 10.3901H304.957H301.982C301.779 10.3901 301.614 10.5554 301.614 10.758V12.9336V22.3132C301.614 22.5158 301.779 22.6811 301.982 22.6811H304.589C304.792 22.6811 304.957 22.5158 304.957 22.3132V13.3015C304.957 13.0989 305.122 12.9336 305.325 12.9336H330.558C330.76 12.9336 330.925 13.0989 330.925 13.3015V22.3132C330.925 22.5158 331.091 22.6811 331.293 22.6811H333.901C334.104 22.6811 334.269 22.5158 334.269 22.3132V12.9283V10.7527C334.269 10.5501 334.104 10.3848 333.901 10.3848H330.925V10.3901Z" fill="url(#paint12_linear_541_20066)"/>
<path d="M319.61 0.903941V15.7278C319.61 15.9304 319.445 16.0957 319.242 16.0957H316.635C316.432 16.0957 316.267 15.9304 316.267 15.7278V0.903941C316.267 0.701313 316.432 0.536011 316.635 0.536011H319.242C319.45 0.536011 319.61 0.701313 319.61 0.903941Z" fill="url(#paint13_linear_541_20066)"/>
<path d="M329.64 14.9332V26.6963C329.64 26.899 329.475 27.0643 329.272 27.0643H306.615C306.413 27.0643 306.247 26.899 306.247 26.6963V14.9332C306.247 14.7306 306.413 14.5653 306.615 14.5653H329.272C329.475 14.5653 329.64 14.7306 329.64 14.9332Z" fill="url(#paint14_linear_541_20066)"/>
<path d="M323.583 3.41017V13.2216C323.583 13.4243 323.417 13.5896 323.215 13.5896H312.673C312.47 13.5896 312.305 13.4243 312.305 13.2216V3.41017C312.305 3.20754 312.47 3.04224 312.673 3.04224H323.215C323.417 3.04224 323.583 3.20754 323.583 3.41017Z" fill="url(#paint15_linear_541_20066)"/>
<defs>
<linearGradient id="paint0_linear_541_20066" x1="16.4448" y1="5.94967" x2="16.4448" y2="49.249" gradientUnits="userSpaceOnUse">
<stop stop-color="#2F5075"/>
<stop offset="0.146" stop-color="#3D5F83"/>
<stop offset="0.4272" stop-color="#6286A6"/>
<stop offset="0.8117" stop-color="#9DC6E0"/>
<stop offset="1" stop-color="#BCE7FE"/>
</linearGradient>
<linearGradient id="paint1_linear_541_20066" x1="16.4449" y1="16.0966" x2="16.4449" y2="0.536133" gradientUnits="userSpaceOnUse">
<stop stop-color="#FE8965"/>
<stop offset="0.2326" stop-color="#FE9872"/>
<stop offset="0.6768" stop-color="#FDBF94"/>
<stop offset="0.9944" stop-color="#FDDEAF"/>
</linearGradient>
<linearGradient id="paint2_linear_541_20066" x1="16.445" y1="27.0619" x2="16.445" y2="14.5648" gradientUnits="userSpaceOnUse">
<stop stop-color="#FE8965"/>
<stop offset="0.2326" stop-color="#FE9872"/>
<stop offset="0.6768" stop-color="#FDBF94"/>
<stop offset="0.9944" stop-color="#FDDEAF"/>
</linearGradient>
<linearGradient id="paint3_linear_541_20066" x1="16.4449" y1="13.5903" x2="16.4449" y2="3.04257" gradientUnits="userSpaceOnUse">
<stop stop-color="#FE8965"/>
<stop offset="0.2326" stop-color="#FE9872"/>
<stop offset="0.6768" stop-color="#FDBF94"/>
<stop offset="0.9944" stop-color="#FDDEAF"/>
</linearGradient>
<linearGradient id="paint4_linear_541_20066" x1="217.373" y1="5.94955" x2="217.373" y2="49.2489" gradientUnits="userSpaceOnUse">
<stop stop-color="#2F5075"/>
<stop offset="0.146" stop-color="#3D5F83"/>
<stop offset="0.4272" stop-color="#6286A6"/>
<stop offset="0.8117" stop-color="#9DC6E0"/>
<stop offset="1" stop-color="#BCE7FE"/>
</linearGradient>
<linearGradient id="paint5_linear_541_20066" x1="217.373" y1="16.0965" x2="217.373" y2="0.536011" gradientUnits="userSpaceOnUse">
<stop stop-color="#FE8965"/>
<stop offset="0.2326" stop-color="#FE9872"/>
<stop offset="0.6768" stop-color="#FDBF94"/>
<stop offset="0.9944" stop-color="#FDDEAF"/>
</linearGradient>
<linearGradient id="paint6_linear_541_20066" x1="217.373" y1="27.0618" x2="217.373" y2="14.5647" gradientUnits="userSpaceOnUse">
<stop stop-color="#FE8965"/>
<stop offset="0.2326" stop-color="#FE9872"/>
<stop offset="0.6768" stop-color="#FDBF94"/>
<stop offset="0.9944" stop-color="#FDDEAF"/>
</linearGradient>
<linearGradient id="paint7_linear_541_20066" x1="217.373" y1="13.5902" x2="217.373" y2="3.04245" gradientUnits="userSpaceOnUse">
<stop stop-color="#FE8965"/>
<stop offset="0.2326" stop-color="#FE9872"/>
<stop offset="0.6768" stop-color="#FDBF94"/>
<stop offset="0.9944" stop-color="#FDDEAF"/>
</linearGradient>
<linearGradient id="paint8_linear_541_20066" x1="116.909" y1="5.94955" x2="116.909" y2="49.2489" gradientUnits="userSpaceOnUse">
<stop stop-color="#2F5075"/>
<stop offset="0.146" stop-color="#3D5F83"/>
<stop offset="0.4272" stop-color="#6286A6"/>
<stop offset="0.8117" stop-color="#9DC6E0"/>
<stop offset="1" stop-color="#BCE7FE"/>
</linearGradient>
<linearGradient id="paint9_linear_541_20066" x1="116.909" y1="16.0965" x2="116.909" y2="0.536011" gradientUnits="userSpaceOnUse">
<stop stop-color="#FE8965"/>
<stop offset="0.2326" stop-color="#FE9872"/>
<stop offset="0.6768" stop-color="#FDBF94"/>
<stop offset="0.9944" stop-color="#FDDEAF"/>
</linearGradient>
<linearGradient id="paint10_linear_541_20066" x1="116.909" y1="27.0618" x2="116.909" y2="14.5647" gradientUnits="userSpaceOnUse">
<stop stop-color="#FE8965"/>
<stop offset="0.2326" stop-color="#FE9872"/>
<stop offset="0.6768" stop-color="#FDBF94"/>
<stop offset="0.9944" stop-color="#FDDEAF"/>
</linearGradient>
<linearGradient id="paint11_linear_541_20066" x1="116.909" y1="13.5902" x2="116.909" y2="3.04245" gradientUnits="userSpaceOnUse">
<stop stop-color="#FE8965"/>
<stop offset="0.2326" stop-color="#FE9872"/>
<stop offset="0.6768" stop-color="#FDBF94"/>
<stop offset="0.9944" stop-color="#FDDEAF"/>
</linearGradient>
<linearGradient id="paint12_linear_541_20066" x1="317.942" y1="5.94955" x2="317.942" y2="49.2489" gradientUnits="userSpaceOnUse">
<stop stop-color="#2F5075"/>
<stop offset="0.146" stop-color="#3D5F83"/>
<stop offset="0.4272" stop-color="#6286A6"/>
<stop offset="0.8117" stop-color="#9DC6E0"/>
<stop offset="1" stop-color="#BCE7FE"/>
</linearGradient>
<linearGradient id="paint13_linear_541_20066" x1="317.942" y1="16.0965" x2="317.942" y2="0.536011" gradientUnits="userSpaceOnUse">
<stop stop-color="#FE8965"/>
<stop offset="0.2326" stop-color="#FE9872"/>
<stop offset="0.6768" stop-color="#FDBF94"/>
<stop offset="0.9944" stop-color="#FDDEAF"/>
</linearGradient>
<linearGradient id="paint14_linear_541_20066" x1="317.942" y1="27.0618" x2="317.942" y2="14.5647" gradientUnits="userSpaceOnUse">
<stop stop-color="#FE8965"/>
<stop offset="0.2326" stop-color="#FE9872"/>
<stop offset="0.6768" stop-color="#FDBF94"/>
<stop offset="0.9944" stop-color="#FDDEAF"/>
</linearGradient>
<linearGradient id="paint15_linear_541_20066" x1="317.942" y1="13.5902" x2="317.942" y2="3.04245" gradientUnits="userSpaceOnUse">
<stop stop-color="#FE8965"/>
<stop offset="0.2326" stop-color="#FE9872"/>
<stop offset="0.6768" stop-color="#FDBF94"/>
<stop offset="0.9944" stop-color="#FDDEAF"/>
</linearGradient>
</defs>
</svg>
