<svg width="390" height="289" viewBox="0 0 390 289" fill="none" xmlns="http://www.w3.org/2000/svg">
<path d="M257.716 42.969H253.679V456H257.716V42.969Z" fill="url(#paint0_linear_746_6247)"/>
<path d="M239.756 42.969V77.7464H226.81V83.7826H239.756V105.203H226.81V111.244H239.756V132.659H226.81V138.7H239.756V160.115H226.81V166.156H239.756V187.571H226.81V193.612H239.756V215.032H226.81V221.069H239.756V242.489H226.81V248.525H239.756V269.945H226.81V275.986H239.756V297.401H226.81V303.442H239.756V324.857H226.81V330.898H239.756V352.313H226.81V358.355H239.756V379.775H226.81V385.811H239.756V407.231H226.81V413.267H239.756V434.687H226.81V440.728H239.756V456H242.401V440.728V434.687V413.267V407.231V385.811V379.775V358.355V352.313V330.898V324.857V303.442V297.401V275.986V269.945V248.525V242.489V221.069V215.032V193.612V187.571V166.156V160.115V138.7V132.659V111.244V105.203V83.7826V77.7464V42.969H239.756Z" fill="url(#paint1_linear_746_6247)"/>
<path d="M228.745 72.7765L226.986 66.559C226.932 66.3617 227.044 66.1591 227.242 66.1058L337.69 34.8584C337.887 34.805 338.09 34.917 338.143 35.1143L339.903 41.3318C339.956 41.5291 339.844 41.7317 339.647 41.785L229.199 73.0324C229.007 73.0858 228.799 72.9738 228.745 72.7765Z" fill="url(#paint2_linear_746_6247)"/>
<path d="M165.648 73.683L167.407 67.4655C167.461 67.2682 167.349 67.0656 167.151 67.0123L56.703 35.7648C56.5057 35.7115 56.3031 35.8235 56.2498 36.0208L54.4901 42.2383C54.4368 42.4356 54.5488 42.6382 54.7461 42.6915L165.195 73.939C165.386 73.9923 165.589 73.875 165.648 73.683Z" fill="url(#paint3_linear_746_6247)"/>
<path d="M8.76559 34.3574L8.12038 32.7097C8.04572 32.5231 8.14171 32.3098 8.32834 32.2351L86.5535 1.68092C86.7401 1.60627 86.9534 1.70224 87.0281 1.88888L87.6733 3.53656C87.748 3.72319 87.652 3.93649 87.4653 4.01115L9.24016 34.5654C9.0482 34.64 8.83491 34.5494 8.76559 34.3574Z" fill="url(#paint4_linear_746_6247)"/>
<path d="M86.5908 2.23541L87.1134 3.57381L9.1975 34.0107L8.67494 32.6723L86.5908 2.23541ZM86.6868 1.65417C86.6442 1.65417 86.5962 1.66485 86.5535 1.68085L8.32834 32.2351C8.14171 32.3097 8.04572 32.523 8.12038 32.7096L8.76559 34.3573C8.82424 34.5013 8.96288 34.5919 9.10686 34.5919C9.14951 34.5919 9.1975 34.5813 9.24016 34.5653L87.4653 4.01107C87.652 3.93642 87.748 3.72312 87.6733 3.53648L87.0281 1.8888C86.9748 1.74483 86.8361 1.65417 86.6868 1.65417Z" fill="url(#paint5_linear_746_6247)"/>
<path d="M92.1052 33.2003L91.604 31.5046C91.5453 31.3073 91.6573 31.1047 91.8546 31.0461L181.048 4.59774C181.246 4.53908 181.448 4.65106 181.507 4.84836L182.008 6.54403C182.067 6.74133 181.955 6.94395 181.758 7.00261L92.5638 33.4509C92.3665 33.5043 92.1639 33.3923 92.1052 33.2003Z" fill="url(#paint6_linear_746_6247)"/>
<path d="M181.037 5.15221L181.447 6.5333L92.5683 32.8856L92.1577 31.5046L181.037 5.15221ZM181.149 4.58167C181.117 4.58167 181.08 4.587 181.042 4.59766L91.8485 31.046C91.6512 31.1046 91.5445 31.3073 91.5978 31.5046L92.0991 33.2002C92.1471 33.3602 92.291 33.4615 92.451 33.4615C92.483 33.4615 92.5203 33.4562 92.5577 33.4455L181.751 6.99721C181.949 6.93855 182.055 6.73591 182.002 6.53862L181.501 4.84294C181.453 4.68297 181.304 4.58167 181.149 4.58167Z" fill="url(#paint7_linear_746_6247)"/>
<path d="M196.463 33.7225L195.941 32.0322C195.882 31.8402 195.989 31.6323 196.181 31.5736L285.055 4.0748C285.247 4.01615 285.455 4.1228 285.513 4.31476L286.036 6.0051C286.094 6.19707 285.988 6.40503 285.796 6.46369L196.922 33.9625C196.73 34.0265 196.527 33.9198 196.463 33.7225Z" fill="url(#paint8_linear_746_6247)"/>
<path d="M285.061 4.63474L285.487 6.01047L196.928 33.408L196.501 32.0322L285.061 4.63474ZM285.173 4.05884C285.135 4.05884 285.098 4.06417 285.066 4.07483L196.187 31.5736C195.995 31.6323 195.883 31.8402 195.947 32.0322L196.469 33.7226C196.517 33.8825 196.661 33.9838 196.821 33.9838C196.859 33.9838 196.896 33.9785 196.928 33.9678L285.802 6.46904C285.994 6.41039 286.106 6.20243 286.047 6.01047L285.525 4.32012C285.471 4.16015 285.327 4.05884 285.173 4.05884Z" fill="url(#paint9_linear_746_6247)"/>
<path d="M291.358 36.5755L290.729 34.9225C290.655 34.7306 290.751 34.5226 290.943 34.4479L377.854 1.25422C378.046 1.17957 378.254 1.27556 378.329 1.46752L378.958 3.12053C379.032 3.3125 378.936 3.52046 378.745 3.59512L291.833 36.7888C291.641 36.8635 291.428 36.7675 291.358 36.5755Z" fill="url(#paint10_linear_746_6247)"/>
<path d="M377.885 1.81511L378.397 3.15885L291.794 36.2299L291.283 34.8862L377.885 1.81511ZM377.975 1.23389C377.933 1.23389 377.885 1.23921 377.842 1.26054L290.931 34.4543C290.739 34.5289 290.648 34.7369 290.717 34.9288L291.347 36.5818C291.4 36.7258 291.544 36.8165 291.688 36.8165C291.73 36.8165 291.773 36.8111 291.821 36.7898L378.733 3.5961C378.925 3.52145 379.015 3.31348 378.946 3.12152L378.317 1.46851C378.263 1.31921 378.125 1.23389 377.975 1.23389Z" fill="url(#paint11_linear_746_6247)"/>
<path d="M93.2188 31.3764H86.8521C86.6494 31.3764 86.4841 31.2111 86.4841 31.0085V7.93554C86.4841 7.73291 86.6494 7.56763 86.8521 7.56763H93.2188C93.4215 7.56763 93.5868 7.73291 93.5868 7.93554V31.0085C93.5868 31.2111 93.4215 31.3764 93.2188 31.3764Z" fill="url(#paint12_linear_746_6247)"/>
<path d="M14.6844 31.3764H8.31758C8.11495 31.3764 7.94965 31.2111 7.94965 31.0085V7.93554C7.94965 7.73291 8.11495 7.56763 8.31758 7.56763H14.6844C14.887 7.56763 15.0523 7.73291 15.0523 7.93554V31.0085C15.0523 31.2111 14.887 31.3764 14.6844 31.3764Z" fill="url(#paint13_linear_746_6247)"/>
<path d="M196.991 31.3764H190.624C190.422 31.3764 190.256 31.2111 190.256 31.0085V7.93554C190.256 7.73291 190.422 7.56763 190.624 7.56763H196.991C197.194 7.56763 197.359 7.73291 197.359 7.93554V31.0085C197.359 31.2111 197.194 31.3764 196.991 31.3764Z" fill="url(#paint14_linear_746_6247)"/>
<path d="M300.689 31.3764H294.322C294.119 31.3764 293.954 31.2111 293.954 31.0085V7.93554C293.954 7.73291 294.119 7.56763 294.322 7.56763H300.689C300.891 7.56763 301.057 7.73291 301.057 7.93554V31.0085C301.057 31.2111 300.897 31.3764 300.689 31.3764Z" fill="url(#paint15_linear_746_6247)"/>
<path d="M381.335 7.56763H374.232V31.3764H381.335V7.56763Z" fill="url(#paint16_linear_746_6247)"/>
<path d="M390 38.479H-0.57666V31.7443C-0.57666 31.5416 -0.411358 31.3763 -0.20873 31.3763H389.632C389.835 31.3763 390 31.5416 390 31.7443V38.479Z" fill="url(#paint17_linear_746_6247)"/>
<path d="M257.353 50.0717H140.847C140.644 50.0717 140.479 49.9063 140.479 49.7037V43.3369C140.479 43.1343 140.644 42.969 140.847 42.969H257.353C257.556 42.969 257.721 43.1343 257.721 43.3369V49.7037C257.721 49.9063 257.556 50.0717 257.353 50.0717Z" fill="url(#paint18_linear_746_6247)"/>
<path d="M229.364 50.0717H166.885C166.682 50.0717 166.517 49.9063 166.517 49.7037V43.3369C166.517 43.1343 166.682 42.969 166.885 42.969H229.364C229.566 42.969 229.732 43.1343 229.732 43.3369V49.7037C229.732 49.9063 229.566 50.0717 229.364 50.0717Z" fill="url(#paint19_linear_746_6247)"/>
<path d="M217.339 57.1688L229.732 50.0715H166.517L180.024 57.1688H164.843V456H231.545V57.1688H217.339Z" fill="url(#paint20_linear_746_6247)"/>
<path d="M382.999 42.9689H5.80613C5.73148 42.9689 5.65683 42.9423 5.59284 42.8996L-0.57666 38.4791H390L383.201 42.9103C383.143 42.9476 383.068 42.9689 382.999 42.9689Z" fill="url(#paint21_linear_746_6247)"/>
<path d="M184.167 70.9048C185.089 70.9048 185.836 70.1576 185.836 69.2358C185.836 68.314 185.089 67.5668 184.167 67.5668C183.245 67.5668 182.498 68.314 182.498 69.2358C182.498 70.1576 183.245 70.9048 184.167 70.9048Z" fill="url(#paint22_linear_746_6247)"/>
<path d="M184.167 80.2313C185.089 80.2313 185.836 79.4841 185.836 78.5623C185.836 77.6406 185.089 76.8933 184.167 76.8933C183.245 76.8933 182.498 77.6406 182.498 78.5623C182.498 79.4841 183.245 80.2313 184.167 80.2313Z" fill="url(#paint23_linear_746_6247)"/>
<path d="M184.167 89.5629C185.089 89.5629 185.836 88.8156 185.836 87.8939C185.836 86.9721 185.089 86.2249 184.167 86.2249C183.245 86.2249 182.498 86.9721 182.498 87.8939C182.498 88.8156 183.245 89.5629 184.167 89.5629Z" fill="url(#paint24_linear_746_6247)"/>
<path d="M184.167 98.8889C185.089 98.8889 185.836 98.1417 185.836 97.2199C185.836 96.2982 185.089 95.5509 184.167 95.5509C183.245 95.5509 182.498 96.2982 182.498 97.2199C182.498 98.1417 183.245 98.8889 184.167 98.8889Z" fill="url(#paint25_linear_746_6247)"/>
<path d="M184.167 108.221C185.089 108.221 185.836 107.473 185.836 106.552C185.836 105.63 185.089 104.883 184.167 104.883C183.245 104.883 182.498 105.63 182.498 106.552C182.498 107.473 183.245 108.221 184.167 108.221Z" fill="url(#paint26_linear_746_6247)"/>
<path d="M184.167 117.547C185.089 117.547 185.836 116.8 185.836 115.878C185.836 114.956 185.089 114.209 184.167 114.209C183.245 114.209 182.498 114.956 182.498 115.878C182.498 116.8 183.245 117.547 184.167 117.547Z" fill="url(#paint27_linear_746_6247)"/>
<path d="M184.167 126.878C185.089 126.878 185.836 126.131 185.836 125.209C185.836 124.288 185.089 123.54 184.167 123.54C183.245 123.54 182.498 124.288 182.498 125.209C182.498 126.131 183.245 126.878 184.167 126.878Z" fill="url(#paint28_linear_746_6247)"/>
<path d="M184.167 136.21C185.089 136.21 185.836 135.463 185.836 134.541C185.836 133.619 185.089 132.872 184.167 132.872C183.245 132.872 182.498 133.619 182.498 134.541C182.498 135.463 183.245 136.21 184.167 136.21Z" fill="url(#paint29_linear_746_6247)"/>
<path d="M184.167 145.536C185.089 145.536 185.836 144.789 185.836 143.867C185.836 142.945 185.089 142.198 184.167 142.198C183.245 142.198 182.498 142.945 182.498 143.867C182.498 144.789 183.245 145.536 184.167 145.536Z" fill="url(#paint30_linear_746_6247)"/>
<path d="M184.167 154.868C185.089 154.868 185.836 154.12 185.836 153.199C185.836 152.277 185.089 151.53 184.167 151.53C183.245 151.53 182.498 152.277 182.498 153.199C182.498 154.12 183.245 154.868 184.167 154.868Z" fill="url(#paint31_linear_746_6247)"/>
<path d="M184.167 164.194C185.089 164.194 185.836 163.447 185.836 162.525C185.836 161.603 185.089 160.856 184.167 160.856C183.245 160.856 182.498 161.603 182.498 162.525C182.498 163.447 183.245 164.194 184.167 164.194Z" fill="url(#paint32_linear_746_6247)"/>
<path d="M184.167 173.526C185.089 173.526 185.836 172.778 185.836 171.857C185.836 170.935 185.089 170.188 184.167 170.188C183.245 170.188 182.498 170.935 182.498 171.857C182.498 172.778 183.245 173.526 184.167 173.526Z" fill="url(#paint33_linear_746_6247)"/>
<path d="M184.167 182.852C185.089 182.852 185.836 182.104 185.836 181.183C185.836 180.261 185.089 179.514 184.167 179.514C183.245 179.514 182.498 180.261 182.498 181.183C182.498 182.104 183.245 182.852 184.167 182.852Z" fill="url(#paint34_linear_746_6247)"/>
<path d="M184.167 192.183C185.089 192.183 185.836 191.436 185.836 190.514C185.836 189.592 185.089 188.845 184.167 188.845C183.245 188.845 182.498 189.592 182.498 190.514C182.498 191.436 183.245 192.183 184.167 192.183Z" fill="url(#paint35_linear_746_6247)"/>
<path d="M184.167 201.515C185.089 201.515 185.836 200.768 185.836 199.846C185.836 198.924 185.089 198.177 184.167 198.177C183.245 198.177 182.498 198.924 182.498 199.846C182.498 200.768 183.245 201.515 184.167 201.515Z" fill="url(#paint36_linear_746_6247)"/>
<path d="M184.167 210.841C185.089 210.841 185.836 210.094 185.836 209.172C185.836 208.25 185.089 207.503 184.167 207.503C183.245 207.503 182.498 208.25 182.498 209.172C182.498 210.094 183.245 210.841 184.167 210.841Z" fill="url(#paint37_linear_746_6247)"/>
<path d="M184.167 220.172C185.089 220.172 185.836 219.425 185.836 218.503C185.836 217.582 185.089 216.834 184.167 216.834C183.245 216.834 182.498 217.582 182.498 218.503C182.498 219.425 183.245 220.172 184.167 220.172Z" fill="url(#paint38_linear_746_6247)"/>
<path d="M184.167 229.499C185.089 229.499 185.836 228.752 185.836 227.83C185.836 226.908 185.089 226.161 184.167 226.161C183.245 226.161 182.498 226.908 182.498 227.83C182.498 228.752 183.245 229.499 184.167 229.499Z" fill="url(#paint39_linear_746_6247)"/>
<path d="M184.167 238.831C185.089 238.831 185.836 238.083 185.836 237.162C185.836 236.24 185.089 235.493 184.167 235.493C183.245 235.493 182.498 236.24 182.498 237.162C182.498 238.083 183.245 238.831 184.167 238.831Z" fill="url(#paint40_linear_746_6247)"/>
<path d="M184.167 248.157C185.089 248.157 185.836 247.409 185.836 246.488C185.836 245.566 185.089 244.818 184.167 244.818C183.245 244.818 182.498 245.566 182.498 246.488C182.498 247.409 183.245 248.157 184.167 248.157Z" fill="url(#paint41_linear_746_6247)"/>
<path d="M184.167 257.488C185.089 257.488 185.836 256.741 185.836 255.819C185.836 254.898 185.089 254.15 184.167 254.15C183.245 254.15 182.498 254.898 182.498 255.819C182.498 256.741 183.245 257.488 184.167 257.488Z" fill="url(#paint42_linear_746_6247)"/>
<path d="M184.167 266.82C185.089 266.82 185.836 266.073 185.836 265.151C185.836 264.229 185.089 263.482 184.167 263.482C183.245 263.482 182.498 264.229 182.498 265.151C182.498 266.073 183.245 266.82 184.167 266.82Z" fill="url(#paint43_linear_746_6247)"/>
<path d="M184.167 276.146C185.089 276.146 185.836 275.399 185.836 274.477C185.836 273.555 185.089 272.808 184.167 272.808C183.245 272.808 182.498 273.555 182.498 274.477C182.498 275.399 183.245 276.146 184.167 276.146Z" fill="url(#paint44_linear_746_6247)"/>
<path d="M184.167 285.478C185.089 285.478 185.836 284.73 185.836 283.809C185.836 282.887 185.089 282.14 184.167 282.14C183.245 282.14 182.498 282.887 182.498 283.809C182.498 284.73 183.245 285.478 184.167 285.478Z" fill="url(#paint45_linear_746_6247)"/>
<path d="M212.85 70.9048C213.771 70.9048 214.519 70.1576 214.519 69.2358C214.519 68.314 213.771 67.5668 212.85 67.5668C211.928 67.5668 211.181 68.314 211.181 69.2358C211.181 70.1576 211.928 70.9048 212.85 70.9048Z" fill="url(#paint46_linear_746_6247)"/>
<path d="M212.85 80.2313C213.771 80.2313 214.519 79.4841 214.519 78.5623C214.519 77.6406 213.771 76.8933 212.85 76.8933C211.928 76.8933 211.181 77.6406 211.181 78.5623C211.181 79.4841 211.928 80.2313 212.85 80.2313Z" fill="url(#paint47_linear_746_6247)"/>
<path d="M212.85 89.5629C213.771 89.5629 214.519 88.8156 214.519 87.8939C214.519 86.9721 213.771 86.2249 212.85 86.2249C211.928 86.2249 211.181 86.9721 211.181 87.8939C211.181 88.8156 211.928 89.5629 212.85 89.5629Z" fill="url(#paint48_linear_746_6247)"/>
<path d="M212.85 98.8889C213.771 98.8889 214.519 98.1417 214.519 97.2199C214.519 96.2982 213.771 95.5509 212.85 95.5509C211.928 95.5509 211.181 96.2982 211.181 97.2199C211.181 98.1417 211.928 98.8889 212.85 98.8889Z" fill="url(#paint49_linear_746_6247)"/>
<path d="M212.85 108.221C213.771 108.221 214.519 107.473 214.519 106.552C214.519 105.63 213.771 104.883 212.85 104.883C211.928 104.883 211.181 105.63 211.181 106.552C211.181 107.473 211.928 108.221 212.85 108.221Z" fill="url(#paint50_linear_746_6247)"/>
<path d="M212.85 117.547C213.771 117.547 214.519 116.8 214.519 115.878C214.519 114.956 213.771 114.209 212.85 114.209C211.928 114.209 211.181 114.956 211.181 115.878C211.181 116.8 211.928 117.547 212.85 117.547Z" fill="url(#paint51_linear_746_6247)"/>
<path d="M212.85 126.878C213.771 126.878 214.519 126.131 214.519 125.209C214.519 124.288 213.771 123.54 212.85 123.54C211.928 123.54 211.181 124.288 211.181 125.209C211.181 126.131 211.928 126.878 212.85 126.878Z" fill="url(#paint52_linear_746_6247)"/>
<path d="M212.85 136.21C213.771 136.21 214.519 135.463 214.519 134.541C214.519 133.619 213.771 132.872 212.85 132.872C211.928 132.872 211.181 133.619 211.181 134.541C211.181 135.463 211.928 136.21 212.85 136.21Z" fill="url(#paint53_linear_746_6247)"/>
<path d="M212.85 145.536C213.771 145.536 214.519 144.789 214.519 143.867C214.519 142.945 213.771 142.198 212.85 142.198C211.928 142.198 211.181 142.945 211.181 143.867C211.181 144.789 211.928 145.536 212.85 145.536Z" fill="url(#paint54_linear_746_6247)"/>
<path d="M212.85 154.868C213.771 154.868 214.519 154.12 214.519 153.199C214.519 152.277 213.771 151.53 212.85 151.53C211.928 151.53 211.181 152.277 211.181 153.199C211.181 154.12 211.928 154.868 212.85 154.868Z" fill="url(#paint55_linear_746_6247)"/>
<path d="M212.85 164.194C213.771 164.194 214.519 163.447 214.519 162.525C214.519 161.603 213.771 160.856 212.85 160.856C211.928 160.856 211.181 161.603 211.181 162.525C211.181 163.447 211.928 164.194 212.85 164.194Z" fill="url(#paint56_linear_746_6247)"/>
<path d="M212.85 173.526C213.771 173.526 214.519 172.778 214.519 171.857C214.519 170.935 213.771 170.188 212.85 170.188C211.928 170.188 211.181 170.935 211.181 171.857C211.181 172.778 211.928 173.526 212.85 173.526Z" fill="url(#paint57_linear_746_6247)"/>
<path d="M212.85 182.852C213.771 182.852 214.519 182.104 214.519 181.183C214.519 180.261 213.771 179.514 212.85 179.514C211.928 179.514 211.181 180.261 211.181 181.183C211.181 182.104 211.928 182.852 212.85 182.852Z" fill="url(#paint58_linear_746_6247)"/>
<path d="M212.85 192.183C213.771 192.183 214.519 191.436 214.519 190.514C214.519 189.592 213.771 188.845 212.85 188.845C211.928 188.845 211.181 189.592 211.181 190.514C211.181 191.436 211.928 192.183 212.85 192.183Z" fill="url(#paint59_linear_746_6247)"/>
<path d="M212.85 201.515C213.771 201.515 214.519 200.768 214.519 199.846C214.519 198.924 213.771 198.177 212.85 198.177C211.928 198.177 211.181 198.924 211.181 199.846C211.181 200.768 211.928 201.515 212.85 201.515Z" fill="url(#paint60_linear_746_6247)"/>
<path d="M212.85 210.841C213.771 210.841 214.519 210.094 214.519 209.172C214.519 208.25 213.771 207.503 212.85 207.503C211.928 207.503 211.181 208.25 211.181 209.172C211.181 210.094 211.928 210.841 212.85 210.841Z" fill="url(#paint61_linear_746_6247)"/>
<path d="M212.85 220.172C213.771 220.172 214.519 219.425 214.519 218.503C214.519 217.582 213.771 216.834 212.85 216.834C211.928 216.834 211.181 217.582 211.181 218.503C211.181 219.425 211.928 220.172 212.85 220.172Z" fill="url(#paint62_linear_746_6247)"/>
<path d="M212.85 229.499C213.771 229.499 214.519 228.752 214.519 227.83C214.519 226.908 213.771 226.161 212.85 226.161C211.928 226.161 211.181 226.908 211.181 227.83C211.181 228.752 211.928 229.499 212.85 229.499Z" fill="url(#paint63_linear_746_6247)"/>
<path d="M212.85 238.831C213.771 238.831 214.519 238.083 214.519 237.162C214.519 236.24 213.771 235.493 212.85 235.493C211.928 235.493 211.181 236.24 211.181 237.162C211.181 238.083 211.928 238.831 212.85 238.831Z" fill="url(#paint64_linear_746_6247)"/>
<path d="M212.85 248.157C213.771 248.157 214.519 247.409 214.519 246.488C214.519 245.566 213.771 244.818 212.85 244.818C211.928 244.818 211.181 245.566 211.181 246.488C211.181 247.409 211.928 248.157 212.85 248.157Z" fill="url(#paint65_linear_746_6247)"/>
<path d="M212.85 257.488C213.771 257.488 214.519 256.741 214.519 255.819C214.519 254.898 213.771 254.15 212.85 254.15C211.928 254.15 211.181 254.898 211.181 255.819C211.181 256.741 211.928 257.488 212.85 257.488Z" fill="url(#paint66_linear_746_6247)"/>
<path d="M212.85 266.82C213.771 266.82 214.519 266.073 214.519 265.151C214.519 264.229 213.771 263.482 212.85 263.482C211.928 263.482 211.181 264.229 211.181 265.151C211.181 266.073 211.928 266.82 212.85 266.82Z" fill="url(#paint67_linear_746_6247)"/>
<path d="M212.85 276.146C213.771 276.146 214.519 275.399 214.519 274.477C214.519 273.555 213.771 272.808 212.85 272.808C211.928 272.808 211.181 273.555 211.181 274.477C211.181 275.399 211.928 276.146 212.85 276.146Z" fill="url(#paint68_linear_746_6247)"/>
<path d="M212.85 285.478C213.771 285.478 214.519 284.73 214.519 283.809C214.519 282.887 213.771 282.14 212.85 282.14C211.928 282.14 211.181 282.887 211.181 283.809C211.181 284.73 211.928 285.478 212.85 285.478Z" fill="url(#paint69_linear_746_6247)"/>
<path d="M180.024 57.1688L166.517 50.0715H140.479L164.843 57.1688V456H180.162V57.1688H180.024Z" fill="url(#paint70_linear_746_6247)"/>
<path d="M229.731 50.0715L217.339 57.1688V456H231.544V57.1688L257.721 50.0715H229.731Z" fill="url(#paint71_linear_746_6247)"/>
<path d="M389.632 7.56762H-0.20873C-0.411358 7.56762 -0.57666 7.40232 -0.57666 7.19969V0.832897C-0.57666 0.630269 -0.411358 0.464966 -0.20873 0.464966H389.632C389.835 0.464966 390 0.630269 390 0.832897V7.19969C390 7.40232 389.835 7.56762 389.632 7.56762Z" fill="url(#paint72_linear_746_6247)"/>
<defs>
<linearGradient id="paint0_linear_746_6247" x1="255.701" y1="455.999" x2="255.701" y2="-88.3182" gradientUnits="userSpaceOnUse">
<stop stop-color="#192B3F"/>
<stop offset="0.1236" stop-color="#1D3044"/>
<stop offset="0.2694" stop-color="#293E52"/>
<stop offset="0.4265" stop-color="#3E556A"/>
<stop offset="0.5914" stop-color="#5A768B"/>
<stop offset="0.7626" stop-color="#7EA0B6"/>
<stop offset="0.9365" stop-color="#AAD3E9"/>
<stop offset="1" stop-color="#BCE7FE"/>
</linearGradient>
<linearGradient id="paint1_linear_746_6247" x1="234.605" y1="455.999" x2="234.605" y2="-44.3389" gradientUnits="userSpaceOnUse">
<stop stop-color="#192B3F"/>
<stop offset="0.1841" stop-color="#1C2E42"/>
<stop offset="0.3312" stop-color="#24384C"/>
<stop offset="0.4655" stop-color="#33495D"/>
<stop offset="0.5923" stop-color="#476075"/>
<stop offset="0.7137" stop-color="#617E93"/>
<stop offset="0.831" stop-color="#81A3B9"/>
<stop offset="0.9431" stop-color="#A6CEE5"/>
<stop offset="1" stop-color="#BCE7FE"/>
</linearGradient>
<linearGradient id="paint2_linear_746_6247" x1="265.985" y1="71.4775" x2="255.833" y2="20.822" gradientUnits="userSpaceOnUse">
<stop stop-color="#192B3F"/>
<stop offset="0.1202" stop-color="#263A4E"/>
<stop offset="0.3515" stop-color="#486176"/>
<stop offset="0.6707" stop-color="#7E9FB5"/>
<stop offset="1" stop-color="#BCE7FE"/>
</linearGradient>
<linearGradient id="paint3_linear_746_6247" x1="147.8" y1="80.7551" x2="157.263" y2="18.5904" gradientUnits="userSpaceOnUse">
<stop stop-color="#192B3F"/>
<stop offset="0.1202" stop-color="#263A4E"/>
<stop offset="0.3515" stop-color="#486176"/>
<stop offset="0.6707" stop-color="#7E9FB5"/>
<stop offset="1" stop-color="#BCE7FE"/>
</linearGradient>
<linearGradient id="paint4_linear_746_6247" x1="69.0702" y1="195.669" x2="386.471" y2="-257.626" gradientUnits="userSpaceOnUse">
<stop offset="0.3094" stop-color="#192B3F"/>
<stop offset="0.3864" stop-color="#1E3145"/>
<stop offset="0.4903" stop-color="#2D4256"/>
<stop offset="0.6095" stop-color="#455E73"/>
<stop offset="0.7401" stop-color="#67859A"/>
<stop offset="0.8783" stop-color="#91B6CC"/>
<stop offset="1" stop-color="#BCE7FE"/>
</linearGradient>
<linearGradient id="paint5_linear_746_6247" x1="69.0702" y1="195.669" x2="386.471" y2="-257.626" gradientUnits="userSpaceOnUse">
<stop offset="0.3094" stop-color="#192B3F"/>
<stop offset="0.3864" stop-color="#1E3145"/>
<stop offset="0.4903" stop-color="#2D4256"/>
<stop offset="0.6095" stop-color="#455E73"/>
<stop offset="0.7401" stop-color="#67859A"/>
<stop offset="0.8783" stop-color="#91B6CC"/>
<stop offset="1" stop-color="#BCE7FE"/>
</linearGradient>
<linearGradient id="paint6_linear_746_6247" x1="69.071" y1="195.669" x2="386.471" y2="-257.626" gradientUnits="userSpaceOnUse">
<stop offset="0.3094" stop-color="#192B3F"/>
<stop offset="0.3864" stop-color="#1E3145"/>
<stop offset="0.4903" stop-color="#2D4256"/>
<stop offset="0.6095" stop-color="#455E73"/>
<stop offset="0.7401" stop-color="#67859A"/>
<stop offset="0.8783" stop-color="#91B6CC"/>
<stop offset="1" stop-color="#BCE7FE"/>
</linearGradient>
<linearGradient id="paint7_linear_746_6247" x1="69.0702" y1="195.669" x2="386.471" y2="-257.626" gradientUnits="userSpaceOnUse">
<stop offset="0.3094" stop-color="#192B3F"/>
<stop offset="0.3864" stop-color="#1E3145"/>
<stop offset="0.4903" stop-color="#2D4256"/>
<stop offset="0.6095" stop-color="#455E73"/>
<stop offset="0.7401" stop-color="#67859A"/>
<stop offset="0.8783" stop-color="#91B6CC"/>
<stop offset="1" stop-color="#BCE7FE"/>
</linearGradient>
<linearGradient id="paint8_linear_746_6247" x1="69.0703" y1="195.669" x2="386.471" y2="-257.626" gradientUnits="userSpaceOnUse">
<stop offset="0.3094" stop-color="#192B3F"/>
<stop offset="0.3864" stop-color="#1E3145"/>
<stop offset="0.4903" stop-color="#2D4256"/>
<stop offset="0.6095" stop-color="#455E73"/>
<stop offset="0.7401" stop-color="#67859A"/>
<stop offset="0.8783" stop-color="#91B6CC"/>
<stop offset="1" stop-color="#BCE7FE"/>
</linearGradient>
<linearGradient id="paint9_linear_746_6247" x1="69.071" y1="195.669" x2="386.471" y2="-257.626" gradientUnits="userSpaceOnUse">
<stop offset="0.3094" stop-color="#192B3F"/>
<stop offset="0.3864" stop-color="#1E3145"/>
<stop offset="0.4903" stop-color="#2D4256"/>
<stop offset="0.6095" stop-color="#455E73"/>
<stop offset="0.7401" stop-color="#67859A"/>
<stop offset="0.8783" stop-color="#91B6CC"/>
<stop offset="1" stop-color="#BCE7FE"/>
</linearGradient>
<linearGradient id="paint10_linear_746_6247" x1="69.0712" y1="195.669" x2="386.472" y2="-257.626" gradientUnits="userSpaceOnUse">
<stop offset="0.3094" stop-color="#192B3F"/>
<stop offset="0.3864" stop-color="#1E3145"/>
<stop offset="0.4903" stop-color="#2D4256"/>
<stop offset="0.6095" stop-color="#455E73"/>
<stop offset="0.7401" stop-color="#67859A"/>
<stop offset="0.8783" stop-color="#91B6CC"/>
<stop offset="1" stop-color="#BCE7FE"/>
</linearGradient>
<linearGradient id="paint11_linear_746_6247" x1="69.0701" y1="195.67" x2="386.47" y2="-257.625" gradientUnits="userSpaceOnUse">
<stop offset="0.3094" stop-color="#192B3F"/>
<stop offset="0.3864" stop-color="#1E3145"/>
<stop offset="0.4903" stop-color="#2D4256"/>
<stop offset="0.6095" stop-color="#455E73"/>
<stop offset="0.7401" stop-color="#67859A"/>
<stop offset="0.8783" stop-color="#91B6CC"/>
<stop offset="1" stop-color="#BCE7FE"/>
</linearGradient>
<linearGradient id="paint12_linear_746_6247" x1="77.9092" y1="36.79" x2="108.833" y2="-7.37347" gradientUnits="userSpaceOnUse">
<stop offset="0.3094" stop-color="#192B3F"/>
<stop offset="0.3864" stop-color="#1E3145"/>
<stop offset="0.4903" stop-color="#2D4256"/>
<stop offset="0.6095" stop-color="#455E73"/>
<stop offset="0.7401" stop-color="#67859A"/>
<stop offset="0.8783" stop-color="#91B6CC"/>
<stop offset="1" stop-color="#BCE7FE"/>
</linearGradient>
<linearGradient id="paint13_linear_746_6247" x1="-0.624089" y1="36.79" x2="30.2995" y2="-7.37349" gradientUnits="userSpaceOnUse">
<stop offset="0.3094" stop-color="#192B3F"/>
<stop offset="0.3864" stop-color="#1E3145"/>
<stop offset="0.4903" stop-color="#2D4256"/>
<stop offset="0.6095" stop-color="#455E73"/>
<stop offset="0.7401" stop-color="#67859A"/>
<stop offset="0.8783" stop-color="#91B6CC"/>
<stop offset="1" stop-color="#BCE7FE"/>
</linearGradient>
<linearGradient id="paint14_linear_746_6247" x1="181.68" y1="36.79" x2="212.604" y2="-7.37351" gradientUnits="userSpaceOnUse">
<stop offset="0.3094" stop-color="#192B3F"/>
<stop offset="0.3864" stop-color="#1E3145"/>
<stop offset="0.4903" stop-color="#2D4256"/>
<stop offset="0.6095" stop-color="#455E73"/>
<stop offset="0.7401" stop-color="#67859A"/>
<stop offset="0.8783" stop-color="#91B6CC"/>
<stop offset="1" stop-color="#BCE7FE"/>
</linearGradient>
<linearGradient id="paint15_linear_746_6247" x1="285.382" y1="36.79" x2="316.305" y2="-7.37351" gradientUnits="userSpaceOnUse">
<stop offset="0.3094" stop-color="#192B3F"/>
<stop offset="0.3864" stop-color="#1E3145"/>
<stop offset="0.4903" stop-color="#2D4256"/>
<stop offset="0.6095" stop-color="#455E73"/>
<stop offset="0.7401" stop-color="#67859A"/>
<stop offset="0.8783" stop-color="#91B6CC"/>
<stop offset="1" stop-color="#BCE7FE"/>
</linearGradient>
<linearGradient id="paint16_linear_746_6247" x1="365.505" y1="37.0048" x2="396.812" y2="-7.70627" gradientUnits="userSpaceOnUse">
<stop offset="0.3094" stop-color="#192B3F"/>
<stop offset="0.3864" stop-color="#1E3145"/>
<stop offset="0.4903" stop-color="#2D4256"/>
<stop offset="0.6095" stop-color="#455E73"/>
<stop offset="0.7401" stop-color="#67859A"/>
<stop offset="0.8783" stop-color="#91B6CC"/>
<stop offset="1" stop-color="#BCE7FE"/>
</linearGradient>
<linearGradient id="paint17_linear_746_6247" x1="191.872" y1="67.5662" x2="198.09" y2="-3.50601" gradientUnits="userSpaceOnUse">
<stop stop-color="#2F5075"/>
<stop offset="0.1735" stop-color="#325478"/>
<stop offset="0.3359" stop-color="#3D5F83"/>
<stop offset="0.4941" stop-color="#4F7294"/>
<stop offset="0.6495" stop-color="#688DAC"/>
<stop offset="0.803" stop-color="#88AFCB"/>
<stop offset="0.9531" stop-color="#AED8F1"/>
<stop offset="1" stop-color="#BCE7FE"/>
</linearGradient>
<linearGradient id="paint18_linear_746_6247" x1="140.477" y1="46.5194" x2="257.72" y2="46.5194" gradientUnits="userSpaceOnUse">
<stop stop-color="#192B3F"/>
<stop offset="0.1202" stop-color="#263A4E"/>
<stop offset="0.3515" stop-color="#486176"/>
<stop offset="0.6707" stop-color="#7E9FB5"/>
<stop offset="1" stop-color="#BCE7FE"/>
</linearGradient>
<linearGradient id="paint19_linear_746_6247" x1="147.064" y1="105.887" x2="207.811" y2="35.2562" gradientUnits="userSpaceOnUse">
<stop stop-color="#2F5075"/>
<stop offset="0.1735" stop-color="#325478"/>
<stop offset="0.3359" stop-color="#3D5F83"/>
<stop offset="0.4941" stop-color="#4F7294"/>
<stop offset="0.6495" stop-color="#688DAC"/>
<stop offset="0.803" stop-color="#88AFCB"/>
<stop offset="0.9531" stop-color="#AED8F1"/>
<stop offset="1" stop-color="#BCE7FE"/>
</linearGradient>
<linearGradient id="paint20_linear_746_6247" x1="80.4543" y1="371.609" x2="315.863" y2="136.201" gradientUnits="userSpaceOnUse">
<stop stop-color="#2F5075"/>
<stop offset="0.1735" stop-color="#325478"/>
<stop offset="0.3359" stop-color="#3D5F83"/>
<stop offset="0.4941" stop-color="#4F7294"/>
<stop offset="0.6495" stop-color="#688DAC"/>
<stop offset="0.803" stop-color="#88AFCB"/>
<stop offset="0.9531" stop-color="#AED8F1"/>
<stop offset="1" stop-color="#BCE7FE"/>
</linearGradient>
<linearGradient id="paint21_linear_746_6247" x1="194.712" y1="47.5637" x2="194.712" y2="1.72768" gradientUnits="userSpaceOnUse">
<stop stop-color="#192B3F"/>
<stop offset="0.1202" stop-color="#263A4E"/>
<stop offset="0.3515" stop-color="#486176"/>
<stop offset="0.6707" stop-color="#7E9FB5"/>
<stop offset="1" stop-color="#BCE7FE"/>
</linearGradient>
<linearGradient id="paint22_linear_746_6247" x1="198.507" y1="453.406" x2="198.507" y2="67.5624" gradientUnits="userSpaceOnUse">
<stop stop-color="#B4C9E4"/>
<stop offset="0.3498" stop-color="#C3D4E9"/>
<stop offset="0.9944" stop-color="#E8F1F5"/>
</linearGradient>
<linearGradient id="paint23_linear_746_6247" x1="198.507" y1="453.403" x2="198.507" y2="67.5627" gradientUnits="userSpaceOnUse">
<stop stop-color="#B4C9E4"/>
<stop offset="0.3498" stop-color="#C3D4E9"/>
<stop offset="0.9944" stop-color="#E8F1F5"/>
</linearGradient>
<linearGradient id="paint24_linear_746_6247" x1="198.507" y1="453.403" x2="198.507" y2="67.5628" gradientUnits="userSpaceOnUse">
<stop stop-color="#B4C9E4"/>
<stop offset="0.3498" stop-color="#C3D4E9"/>
<stop offset="0.9944" stop-color="#E8F1F5"/>
</linearGradient>
<linearGradient id="paint25_linear_746_6247" x1="198.507" y1="453.406" x2="198.507" y2="67.5624" gradientUnits="userSpaceOnUse">
<stop stop-color="#B4C9E4"/>
<stop offset="0.3498" stop-color="#C3D4E9"/>
<stop offset="0.9944" stop-color="#E8F1F5"/>
</linearGradient>
<linearGradient id="paint26_linear_746_6247" x1="198.507" y1="453.407" x2="198.507" y2="67.5625" gradientUnits="userSpaceOnUse">
<stop stop-color="#B4C9E4"/>
<stop offset="0.3498" stop-color="#C3D4E9"/>
<stop offset="0.9944" stop-color="#E8F1F5"/>
</linearGradient>
<linearGradient id="paint27_linear_746_6247" x1="198.507" y1="453.407" x2="198.507" y2="67.5625" gradientUnits="userSpaceOnUse">
<stop stop-color="#B4C9E4"/>
<stop offset="0.3498" stop-color="#C3D4E9"/>
<stop offset="0.9944" stop-color="#E8F1F5"/>
</linearGradient>
<linearGradient id="paint28_linear_746_6247" x1="198.507" y1="453.406" x2="198.507" y2="67.5624" gradientUnits="userSpaceOnUse">
<stop stop-color="#B4C9E4"/>
<stop offset="0.3498" stop-color="#C3D4E9"/>
<stop offset="0.9944" stop-color="#E8F1F5"/>
</linearGradient>
<linearGradient id="paint29_linear_746_6247" x1="198.507" y1="453.406" x2="198.507" y2="67.5623" gradientUnits="userSpaceOnUse">
<stop stop-color="#B4C9E4"/>
<stop offset="0.3498" stop-color="#C3D4E9"/>
<stop offset="0.9944" stop-color="#E8F1F5"/>
</linearGradient>
<linearGradient id="paint30_linear_746_6247" x1="198.507" y1="453.407" x2="198.507" y2="67.5625" gradientUnits="userSpaceOnUse">
<stop stop-color="#B4C9E4"/>
<stop offset="0.3498" stop-color="#C3D4E9"/>
<stop offset="0.9944" stop-color="#E8F1F5"/>
</linearGradient>
<linearGradient id="paint31_linear_746_6247" x1="198.507" y1="453.406" x2="198.507" y2="67.5622" gradientUnits="userSpaceOnUse">
<stop stop-color="#B4C9E4"/>
<stop offset="0.3498" stop-color="#C3D4E9"/>
<stop offset="0.9944" stop-color="#E8F1F5"/>
</linearGradient>
<linearGradient id="paint32_linear_746_6247" x1="198.507" y1="453.406" x2="198.507" y2="67.5624" gradientUnits="userSpaceOnUse">
<stop stop-color="#B4C9E4"/>
<stop offset="0.3498" stop-color="#C3D4E9"/>
<stop offset="0.9944" stop-color="#E8F1F5"/>
</linearGradient>
<linearGradient id="paint33_linear_746_6247" x1="198.507" y1="453.406" x2="198.507" y2="67.5624" gradientUnits="userSpaceOnUse">
<stop stop-color="#B4C9E4"/>
<stop offset="0.3498" stop-color="#C3D4E9"/>
<stop offset="0.9944" stop-color="#E8F1F5"/>
</linearGradient>
<linearGradient id="paint34_linear_746_6247" x1="198.507" y1="453.406" x2="198.507" y2="67.5623" gradientUnits="userSpaceOnUse">
<stop stop-color="#B4C9E4"/>
<stop offset="0.3498" stop-color="#C3D4E9"/>
<stop offset="0.9944" stop-color="#E8F1F5"/>
</linearGradient>
<linearGradient id="paint35_linear_746_6247" x1="198.507" y1="453.406" x2="198.507" y2="67.5622" gradientUnits="userSpaceOnUse">
<stop stop-color="#B4C9E4"/>
<stop offset="0.3498" stop-color="#C3D4E9"/>
<stop offset="0.9944" stop-color="#E8F1F5"/>
</linearGradient>
<linearGradient id="paint36_linear_746_6247" x1="198.507" y1="453.406" x2="198.507" y2="67.5624" gradientUnits="userSpaceOnUse">
<stop stop-color="#B4C9E4"/>
<stop offset="0.3498" stop-color="#C3D4E9"/>
<stop offset="0.9944" stop-color="#E8F1F5"/>
</linearGradient>
<linearGradient id="paint37_linear_746_6247" x1="198.507" y1="453.404" x2="198.507" y2="67.5636" gradientUnits="userSpaceOnUse">
<stop stop-color="#B4C9E4"/>
<stop offset="0.3498" stop-color="#C3D4E9"/>
<stop offset="0.9944" stop-color="#E8F1F5"/>
</linearGradient>
<linearGradient id="paint38_linear_746_6247" x1="198.507" y1="453.404" x2="198.507" y2="67.5634" gradientUnits="userSpaceOnUse">
<stop stop-color="#B4C9E4"/>
<stop offset="0.3498" stop-color="#C3D4E9"/>
<stop offset="0.9944" stop-color="#E8F1F5"/>
</linearGradient>
<linearGradient id="paint39_linear_746_6247" x1="198.507" y1="453.406" x2="198.507" y2="67.5623" gradientUnits="userSpaceOnUse">
<stop stop-color="#B4C9E4"/>
<stop offset="0.3498" stop-color="#C3D4E9"/>
<stop offset="0.9944" stop-color="#E8F1F5"/>
</linearGradient>
<linearGradient id="paint40_linear_746_6247" x1="198.507" y1="453.406" x2="198.507" y2="67.5623" gradientUnits="userSpaceOnUse">
<stop stop-color="#B4C9E4"/>
<stop offset="0.3498" stop-color="#C3D4E9"/>
<stop offset="0.9944" stop-color="#E8F1F5"/>
</linearGradient>
<linearGradient id="paint41_linear_746_6247" x1="198.507" y1="453.406" x2="198.507" y2="67.562" gradientUnits="userSpaceOnUse">
<stop stop-color="#B4C9E4"/>
<stop offset="0.3498" stop-color="#C3D4E9"/>
<stop offset="0.9944" stop-color="#E8F1F5"/>
</linearGradient>
<linearGradient id="paint42_linear_746_6247" x1="198.507" y1="453.406" x2="198.507" y2="67.5622" gradientUnits="userSpaceOnUse">
<stop stop-color="#B4C9E4"/>
<stop offset="0.3498" stop-color="#C3D4E9"/>
<stop offset="0.9944" stop-color="#E8F1F5"/>
</linearGradient>
<linearGradient id="paint43_linear_746_6247" x1="198.507" y1="453.406" x2="198.507" y2="67.5623" gradientUnits="userSpaceOnUse">
<stop stop-color="#B4C9E4"/>
<stop offset="0.3498" stop-color="#C3D4E9"/>
<stop offset="0.9944" stop-color="#E8F1F5"/>
</linearGradient>
<linearGradient id="paint44_linear_746_6247" x1="198.507" y1="453.406" x2="198.507" y2="67.5621" gradientUnits="userSpaceOnUse">
<stop stop-color="#B4C9E4"/>
<stop offset="0.3498" stop-color="#C3D4E9"/>
<stop offset="0.9944" stop-color="#E8F1F5"/>
</linearGradient>
<linearGradient id="paint45_linear_746_6247" x1="198.507" y1="453.406" x2="198.507" y2="67.5621" gradientUnits="userSpaceOnUse">
<stop stop-color="#B4C9E4"/>
<stop offset="0.3498" stop-color="#C3D4E9"/>
<stop offset="0.9944" stop-color="#E8F1F5"/>
</linearGradient>
<linearGradient id="paint46_linear_746_6247" x1="198.507" y1="453.406" x2="198.507" y2="67.5624" gradientUnits="userSpaceOnUse">
<stop stop-color="#B4C9E4"/>
<stop offset="0.3498" stop-color="#C3D4E9"/>
<stop offset="0.9944" stop-color="#E8F1F5"/>
</linearGradient>
<linearGradient id="paint47_linear_746_6247" x1="198.507" y1="453.403" x2="198.507" y2="67.5627" gradientUnits="userSpaceOnUse">
<stop stop-color="#B4C9E4"/>
<stop offset="0.3498" stop-color="#C3D4E9"/>
<stop offset="0.9944" stop-color="#E8F1F5"/>
</linearGradient>
<linearGradient id="paint48_linear_746_6247" x1="198.507" y1="453.403" x2="198.507" y2="67.5628" gradientUnits="userSpaceOnUse">
<stop stop-color="#B4C9E4"/>
<stop offset="0.3498" stop-color="#C3D4E9"/>
<stop offset="0.9944" stop-color="#E8F1F5"/>
</linearGradient>
<linearGradient id="paint49_linear_746_6247" x1="198.507" y1="453.406" x2="198.507" y2="67.5624" gradientUnits="userSpaceOnUse">
<stop stop-color="#B4C9E4"/>
<stop offset="0.3498" stop-color="#C3D4E9"/>
<stop offset="0.9944" stop-color="#E8F1F5"/>
</linearGradient>
<linearGradient id="paint50_linear_746_6247" x1="198.507" y1="453.407" x2="198.507" y2="67.5625" gradientUnits="userSpaceOnUse">
<stop stop-color="#B4C9E4"/>
<stop offset="0.3498" stop-color="#C3D4E9"/>
<stop offset="0.9944" stop-color="#E8F1F5"/>
</linearGradient>
<linearGradient id="paint51_linear_746_6247" x1="198.507" y1="453.407" x2="198.507" y2="67.5625" gradientUnits="userSpaceOnUse">
<stop stop-color="#B4C9E4"/>
<stop offset="0.3498" stop-color="#C3D4E9"/>
<stop offset="0.9944" stop-color="#E8F1F5"/>
</linearGradient>
<linearGradient id="paint52_linear_746_6247" x1="198.507" y1="453.406" x2="198.507" y2="67.5624" gradientUnits="userSpaceOnUse">
<stop stop-color="#B4C9E4"/>
<stop offset="0.3498" stop-color="#C3D4E9"/>
<stop offset="0.9944" stop-color="#E8F1F5"/>
</linearGradient>
<linearGradient id="paint53_linear_746_6247" x1="198.507" y1="453.406" x2="198.507" y2="67.5623" gradientUnits="userSpaceOnUse">
<stop stop-color="#B4C9E4"/>
<stop offset="0.3498" stop-color="#C3D4E9"/>
<stop offset="0.9944" stop-color="#E8F1F5"/>
</linearGradient>
<linearGradient id="paint54_linear_746_6247" x1="198.507" y1="453.407" x2="198.507" y2="67.5625" gradientUnits="userSpaceOnUse">
<stop stop-color="#B4C9E4"/>
<stop offset="0.3498" stop-color="#C3D4E9"/>
<stop offset="0.9944" stop-color="#E8F1F5"/>
</linearGradient>
<linearGradient id="paint55_linear_746_6247" x1="198.507" y1="453.406" x2="198.507" y2="67.5622" gradientUnits="userSpaceOnUse">
<stop stop-color="#B4C9E4"/>
<stop offset="0.3498" stop-color="#C3D4E9"/>
<stop offset="0.9944" stop-color="#E8F1F5"/>
</linearGradient>
<linearGradient id="paint56_linear_746_6247" x1="198.507" y1="453.406" x2="198.507" y2="67.5624" gradientUnits="userSpaceOnUse">
<stop stop-color="#B4C9E4"/>
<stop offset="0.3498" stop-color="#C3D4E9"/>
<stop offset="0.9944" stop-color="#E8F1F5"/>
</linearGradient>
<linearGradient id="paint57_linear_746_6247" x1="198.507" y1="453.406" x2="198.507" y2="67.5624" gradientUnits="userSpaceOnUse">
<stop stop-color="#B4C9E4"/>
<stop offset="0.3498" stop-color="#C3D4E9"/>
<stop offset="0.9944" stop-color="#E8F1F5"/>
</linearGradient>
<linearGradient id="paint58_linear_746_6247" x1="198.507" y1="453.406" x2="198.507" y2="67.5623" gradientUnits="userSpaceOnUse">
<stop stop-color="#B4C9E4"/>
<stop offset="0.3498" stop-color="#C3D4E9"/>
<stop offset="0.9944" stop-color="#E8F1F5"/>
</linearGradient>
<linearGradient id="paint59_linear_746_6247" x1="198.507" y1="453.406" x2="198.507" y2="67.5622" gradientUnits="userSpaceOnUse">
<stop stop-color="#B4C9E4"/>
<stop offset="0.3498" stop-color="#C3D4E9"/>
<stop offset="0.9944" stop-color="#E8F1F5"/>
</linearGradient>
<linearGradient id="paint60_linear_746_6247" x1="198.507" y1="453.406" x2="198.507" y2="67.5624" gradientUnits="userSpaceOnUse">
<stop stop-color="#B4C9E4"/>
<stop offset="0.3498" stop-color="#C3D4E9"/>
<stop offset="0.9944" stop-color="#E8F1F5"/>
</linearGradient>
<linearGradient id="paint61_linear_746_6247" x1="198.507" y1="453.404" x2="198.507" y2="67.5636" gradientUnits="userSpaceOnUse">
<stop stop-color="#B4C9E4"/>
<stop offset="0.3498" stop-color="#C3D4E9"/>
<stop offset="0.9944" stop-color="#E8F1F5"/>
</linearGradient>
<linearGradient id="paint62_linear_746_6247" x1="198.507" y1="453.404" x2="198.507" y2="67.5634" gradientUnits="userSpaceOnUse">
<stop stop-color="#B4C9E4"/>
<stop offset="0.3498" stop-color="#C3D4E9"/>
<stop offset="0.9944" stop-color="#E8F1F5"/>
</linearGradient>
<linearGradient id="paint63_linear_746_6247" x1="198.507" y1="453.406" x2="198.507" y2="67.5623" gradientUnits="userSpaceOnUse">
<stop stop-color="#B4C9E4"/>
<stop offset="0.3498" stop-color="#C3D4E9"/>
<stop offset="0.9944" stop-color="#E8F1F5"/>
</linearGradient>
<linearGradient id="paint64_linear_746_6247" x1="198.507" y1="453.406" x2="198.507" y2="67.5623" gradientUnits="userSpaceOnUse">
<stop stop-color="#B4C9E4"/>
<stop offset="0.3498" stop-color="#C3D4E9"/>
<stop offset="0.9944" stop-color="#E8F1F5"/>
</linearGradient>
<linearGradient id="paint65_linear_746_6247" x1="198.507" y1="453.406" x2="198.507" y2="67.562" gradientUnits="userSpaceOnUse">
<stop stop-color="#B4C9E4"/>
<stop offset="0.3498" stop-color="#C3D4E9"/>
<stop offset="0.9944" stop-color="#E8F1F5"/>
</linearGradient>
<linearGradient id="paint66_linear_746_6247" x1="198.507" y1="453.406" x2="198.507" y2="67.5622" gradientUnits="userSpaceOnUse">
<stop stop-color="#B4C9E4"/>
<stop offset="0.3498" stop-color="#C3D4E9"/>
<stop offset="0.9944" stop-color="#E8F1F5"/>
</linearGradient>
<linearGradient id="paint67_linear_746_6247" x1="198.507" y1="453.406" x2="198.507" y2="67.5623" gradientUnits="userSpaceOnUse">
<stop stop-color="#B4C9E4"/>
<stop offset="0.3498" stop-color="#C3D4E9"/>
<stop offset="0.9944" stop-color="#E8F1F5"/>
</linearGradient>
<linearGradient id="paint68_linear_746_6247" x1="198.507" y1="453.406" x2="198.507" y2="67.5621" gradientUnits="userSpaceOnUse">
<stop stop-color="#B4C9E4"/>
<stop offset="0.3498" stop-color="#C3D4E9"/>
<stop offset="0.9944" stop-color="#E8F1F5"/>
</linearGradient>
<linearGradient id="paint69_linear_746_6247" x1="198.507" y1="453.406" x2="198.507" y2="67.5621" gradientUnits="userSpaceOnUse">
<stop stop-color="#B4C9E4"/>
<stop offset="0.3498" stop-color="#C3D4E9"/>
<stop offset="0.9944" stop-color="#E8F1F5"/>
</linearGradient>
<linearGradient id="paint70_linear_746_6247" x1="160.319" y1="602.603" x2="160.319" y2="-827.751" gradientUnits="userSpaceOnUse">
<stop offset="0.0448" stop-color="#192B3F"/>
<stop offset="0.1891" stop-color="#263A4E"/>
<stop offset="0.467" stop-color="#496175"/>
<stop offset="0.8469" stop-color="#80A1B4"/>
<stop offset="1" stop-color="#98BCCF"/>
</linearGradient>
<linearGradient id="paint71_linear_746_6247" x1="237.529" y1="1084.74" x2="237.529" y2="-345.61" gradientUnits="userSpaceOnUse">
<stop offset="0.3736" stop-color="#192B3F"/>
<stop offset="0.4488" stop-color="#263A4E"/>
<stop offset="0.5938" stop-color="#486176"/>
<stop offset="0.7937" stop-color="#7E9FB5"/>
<stop offset="1" stop-color="#BCE7FE"/>
</linearGradient>
<linearGradient id="paint72_linear_746_6247" x1="191.905" y1="36.106" x2="197.296" y2="-25.5136" gradientUnits="userSpaceOnUse">
<stop stop-color="#2F5075"/>
<stop offset="0.1735" stop-color="#325478"/>
<stop offset="0.3359" stop-color="#3D5F83"/>
<stop offset="0.4941" stop-color="#4F7294"/>
<stop offset="0.6495" stop-color="#688DAC"/>
<stop offset="0.803" stop-color="#88AFCB"/>
<stop offset="0.9531" stop-color="#AED8F1"/>
<stop offset="1" stop-color="#BCE7FE"/>
</linearGradient>
</defs>
</svg>
