<svg width="54" height="85" viewBox="0 0 54 85" fill="none" xmlns="http://www.w3.org/2000/svg">
<path d="M8.33158 75.2292H4.6655V72.9639H15.1622L14.3552 75.2292H10.9543V84.7979H8.33158V75.2292Z" fill="#FDB913"/>
<path d="M19.3225 81.5355V81.2473C18.9824 81.1781 18.5789 81.1263 18.2388 81.1263C17.1091 81.1263 16.6306 81.5355 16.6133 82.1062C16.596 82.6826 17.0341 83.0861 17.795 83.0688C18.5098 83.0573 19.3225 82.6192 19.3225 81.5355ZM14.1174 82.1293C14.1174 80.7746 15.253 79.3393 17.8872 79.3393C18.2619 79.3393 18.8672 79.3566 19.3225 79.42V79.3048C19.3225 78.5093 18.6827 78.2211 17.9506 78.2211C17.3108 78.2211 16.6018 78.4228 15.9562 78.8436L14.5036 77.3737C15.4835 76.463 16.9073 76.0537 18.0544 76.0537C20.2852 76.0537 21.7896 77.3218 21.7896 79.3682V84.7981H19.3571V83.9335H19.3225C18.8844 84.6771 18.089 84.9998 17.0226 84.9998C15.351 84.9998 14.1174 83.7663 14.1174 82.1293Z" fill="#FDB913"/>
<path d="M32.598 80.5038C32.598 77.9041 34.2697 76.0596 36.8232 76.0596C37.8896 76.0596 39.0886 76.2786 40.0685 77.2412L38.4949 78.7976C38.1086 78.3941 37.5668 78.2385 36.9731 78.2385C35.8548 78.2385 35.1804 79.1838 35.1804 80.5038C35.1804 81.8238 35.8606 82.8038 36.9731 82.8038C37.5611 82.8038 38.1029 82.6539 38.4949 82.2619L40.0685 83.8183C39.0886 84.7809 37.8896 84.9999 36.8232 84.9999C34.2754 84.9999 32.598 83.1611 32.598 80.5038Z" fill="#FDB913"/>
<path d="M24.0098 76.2612H26.4769V79.4892H26.8516L28.8633 76.2612H31.6878L28.944 80.4864L32.0221 84.7981H29.0132L26.7478 81.5528H26.4769V84.7981H24.0098V76.2612Z" fill="#FDB913"/>
<path d="M25.2333 40.7192H28.7552V37.1973H32.2772V40.7192H35.7991V37.1973H32.2772V33.6753H28.7552V37.1973H25.2333V33.6753H21.7113V37.1973H18.1893V40.7192H21.7113V37.1973H25.2333V40.7192Z" fill="#FDB913"/>
<path d="M41.5283 76.2612H43.9954V81.0801H44.03L47.2925 76.2612H49.4253V84.7981H46.9525V79.9792H46.9236L43.6784 84.7981H41.5283V76.2612Z" fill="#FDB913"/>
<path d="M53.3211 26.2793C53.3211 11.7649 41.5562 0 27.0418 0C12.5274 0 0.762512 11.7649 0.762512 26.2793C0.762512 33.525 3.70804 40.1078 8.4405 44.8345C8.844 45.238 9.37431 45.4743 9.9738 45.4743C11.1555 45.4743 12.1066 44.5174 12.1066 43.3415C12.1066 42.742 11.853 42.1944 11.4552 41.7967C7.5067 37.8482 5.03959 32.3375 5.03959 26.2793C5.03959 14.1455 14.908 4.27132 27.0475 4.27132C39.1871 4.27132 49.0555 14.1455 49.0555 26.2793C49.0555 32.3491 46.5827 37.8482 42.5996 41.837L24.0155 60.421L27.0418 63.4473L45.6373 44.8517C50.3813 40.0905 53.3211 33.5307 53.3211 26.2793Z" fill="#FDB913"/>
<path d="M30.2237 14.1513C31.0826 14.1513 34.2125 15.5347 34.2125 19.3968L35.3712 19.3852L34.9446 12.814H27.0015H19.0525L18.626 19.3852L19.7788 19.3968C19.7788 15.5347 22.9088 14.1513 23.7677 14.1513C24.6208 14.1513 24.7188 14.8199 24.7188 14.8199V28.1123C24.7188 29.2479 24.0617 29.1845 24.0617 29.1845H22.1364V30.6889H26.9957H31.8492V29.1845H29.9239C29.9239 29.1845 29.2668 29.2421 29.2668 28.1123V14.8199C29.2726 14.8199 29.3648 14.1513 30.2237 14.1513Z" fill="#FDB913"/>
</svg>
