<svg width="50" height="59" viewBox="0 0 50 59" fill="none" xmlns="http://www.w3.org/2000/svg">
<g clip-path="url(#clip0_541_7408)">
<path d="M19.0314 26.3342C18.8272 26.3342 18.6588 26.1686 18.6588 25.9616C18.6588 25.8898 18.6836 25.8236 18.7223 25.7656H18.7195L20.2735 23.2732C20.6792 23.0469 22.683 22.7957 25.0098 22.7957H25.0954C27.4221 22.7957 29.4232 23.0469 29.8289 23.2732L31.3525 25.7159C31.4132 25.7822 31.4491 25.8677 31.4491 25.9616C31.4491 26.1686 31.2835 26.3342 31.0765 26.3342H19.0314ZM18.6119 30.8193C17.955 30.8193 17.4278 30.2894 17.4278 29.6353C17.4278 28.9811 17.9577 28.4512 18.6119 28.4512C19.2633 28.4512 19.7932 28.9811 19.7932 29.6353C19.796 30.2894 19.266 30.8193 18.6119 30.8193ZM32.6774 29.6353C32.6774 30.2894 32.1447 30.8193 31.4933 30.8193C30.8391 30.8193 30.3092 30.2894 30.3092 29.6353C30.3092 28.9811 30.8391 28.4512 31.4933 28.4512C32.1447 28.4512 32.6774 28.9811 32.6774 29.6353ZM30.0553 33.4801C30.0553 34.4654 30.8529 35.2631 31.841 35.2631C32.8264 35.2631 33.6213 34.4654 33.6213 33.4801V32.4119C34.775 30.4164 34.3279 28.5064 33.3977 26.4004C33.3895 26.3783 33.3784 26.359 33.3674 26.3369H34.4659V24.7609H32.5338L30.8999 22.4479C30.5852 22.2879 29.4784 22.0836 27.9824 21.9539H28.0128V20.4524H22.0868V21.9539H22.12C20.624 22.0836 19.5172 22.2851 19.2025 22.4479L17.5685 24.7609H15.6365V26.3369H16.735C16.7267 26.359 16.7184 26.3783 16.7074 26.4004C15.7772 28.5064 15.3273 30.4164 16.4811 32.4119V33.4801C16.4811 34.4654 17.2815 35.2631 18.2669 35.2631C19.2522 35.2631 20.0526 34.4654 20.0526 33.4801V32.4119H30.0553V33.4801Z" fill="#FABA2D"/>
<path d="M22.2303 56.1819L25.0457 58.9972L42.3405 41.7024C46.7539 37.2807 49.4864 31.1754 49.4864 24.4352C49.4864 10.9411 38.5481 0 25.0512 0C11.557 0 0.615967 10.9411 0.615967 24.4352C0.615967 31.1726 3.35399 37.2918 7.75084 41.6914C8.12345 42.064 8.62027 42.2848 9.17781 42.2848C10.2736 42.2848 11.1623 41.3961 11.1623 40.3003C11.1623 39.7428 10.925 39.2349 10.5551 38.8623C6.8814 35.1913 4.58776 30.0686 4.58776 24.4352C4.58776 13.1519 13.7679 3.97179 25.0512 3.97179C36.3345 3.97179 45.5174 13.1519 45.5174 24.4352C45.5174 30.0769 43.2209 35.1941 39.5141 38.9009L22.2303 56.1819Z" fill="#FABA2D"/>
</g>
<defs>
<clipPath id="clip0_541_7408">
<rect width="48.8704" height="59" fill="white" transform="translate(0.615967)"/>
</clipPath>
</defs>
</svg>
