<svg width="29" height="29" viewBox="0 0 29 29" fill="none" xmlns="http://www.w3.org/2000/svg">
<path d="M13.2715 16.4473C13.2715 15.7113 13.3628 15.1247 13.5454 14.6875C13.728 14.2503 14.0877 13.7716 14.6245 13.2515C15.1668 12.7257 15.5099 12.3522 15.6538 12.1309C15.8752 11.7933 15.9858 11.4281 15.9858 11.0352C15.9858 10.515 15.8558 10.1193 15.5957 9.84814C15.3411 9.57145 14.9648 9.43311 14.4668 9.43311C13.9909 9.43311 13.6063 9.56868 13.313 9.83984C13.0252 10.1055 12.8813 10.4679 12.8813 10.9272H10.8643C10.8753 9.94775 11.2074 9.17301 11.8604 8.60303C12.5189 8.03304 13.3877 7.74805 14.4668 7.74805C15.5791 7.74805 16.4451 8.03027 17.0649 8.59473C17.6903 9.15918 18.0029 9.94775 18.0029 10.9604C18.0029 11.8625 17.5824 12.7507 16.7412 13.625L15.7202 14.6294C15.355 15.0444 15.1668 15.6504 15.1558 16.4473H13.2715ZM13.1304 19.0288C13.1304 18.7023 13.2327 18.4395 13.4375 18.2402C13.6423 18.0355 13.9189 17.9331 14.2676 17.9331C14.6217 17.9331 14.9012 18.0382 15.106 18.2485C15.3107 18.4533 15.4131 18.7134 15.4131 19.0288C15.4131 19.3332 15.3135 19.5877 15.1143 19.7925C14.915 19.9972 14.6328 20.0996 14.2676 20.0996C13.9023 20.0996 13.6201 19.9972 13.4209 19.7925C13.2272 19.5877 13.1304 19.3332 13.1304 19.0288Z" fill="#FABA2D"/>
<circle cx="14.5" cy="14.5" r="13.5" stroke="#FABA2D" stroke-width="2"/>
</svg>
