<svg width="70" height="70" viewBox="0 0 70 70" fill="none" xmlns="http://www.w3.org/2000/svg">
<mask id="mask0_210_10147" style="mask-type:alpha" maskUnits="userSpaceOnUse" x="0" y="0" width="70" height="70">
<circle cx="35.0008" cy="35.0001" r="34.7794" fill="white"/>
</mask>
<g mask="url(#mask0_210_10147)">
<path d="M35.2479 0.220703C26.2666 0.220703 18.9597 7.52758 18.9597 16.5089C18.9597 25.4902 26.2666 32.7971 35.2479 32.7971C44.2292 32.7971 51.5361 25.4902 51.5361 16.5089C51.5361 7.52758 44.2292 0.220703 35.2479 0.220703Z" fill="#272B2F"/>
<path d="M55.5139 43.4379C51.0545 38.91 45.1429 36.4165 38.8678 36.4165H31.6286C25.3537 36.4165 19.4419 38.91 14.9826 43.4379C10.5451 47.9436 8.10124 53.8911 8.10124 60.1852C8.10124 61.1847 13.9831 75.0766 14.9826 75.0766L55.5139 76.1668C50.4423 93.609 62.3952 61.1847 62.3952 60.1852C62.3952 53.8911 59.9514 47.9436 55.5139 43.4379Z" fill="#272B2F"/>
</g>
</svg>
