<svg width="56" height="45" viewBox="0 0 56 45" fill="none" xmlns="http://www.w3.org/2000/svg">
<path d="M18.1149 38.168H17.0778V42H15.9528V33.4688H17.0778V37.2305H17.9567L20.9392 33.4688H22.3396L19.0817 37.6055L22.5798 42H21.2028L18.1149 38.168ZM25.281 40.4121L26.7575 35.6602H27.9177L25.3689 42.9785C24.9743 44.0332 24.3474 44.5605 23.488 44.5605L23.2829 44.543L22.8786 44.4668V43.5879L23.1716 43.6113C23.5388 43.6113 23.8239 43.5371 24.0271 43.3887C24.2341 43.2402 24.404 42.9688 24.5368 42.5742L24.7771 41.9297L22.5153 35.6602H23.6989L25.281 40.4121ZM34.2458 38.9004C34.2458 39.8652 34.0251 40.6426 33.5837 41.2324C33.1423 41.8223 32.5446 42.1172 31.7907 42.1172C31.0212 42.1172 30.4157 41.873 29.9743 41.3848V44.4375H28.8903V35.6602H29.8806L29.9333 36.3633C30.3747 35.8164 30.988 35.543 31.7731 35.543C32.5349 35.543 33.1364 35.8301 33.5778 36.4043C34.0231 36.9785 34.2458 37.7773 34.2458 38.8008V38.9004ZM33.1618 38.7773C33.1618 38.0625 33.0095 37.498 32.7048 37.084C32.4001 36.6699 31.9821 36.4629 31.4509 36.4629C30.7946 36.4629 30.3024 36.7539 29.9743 37.3359V40.3652C30.2985 40.9434 30.7946 41.2324 31.4626 41.2324C31.9821 41.2324 32.3942 41.0273 32.6989 40.6172C33.0075 40.2031 33.1618 39.5898 33.1618 38.7773ZM38.1716 41.2324C38.5583 41.2324 38.8962 41.1152 39.1853 40.8809C39.4743 40.6465 39.6345 40.3535 39.6657 40.002H40.6911C40.6716 40.3652 40.5466 40.7109 40.3161 41.0391C40.0856 41.3672 39.7771 41.6289 39.3903 41.8242C39.0075 42.0195 38.6013 42.1172 38.1716 42.1172C37.3083 42.1172 36.6208 41.8301 36.1091 41.2559C35.6013 40.6777 35.3474 39.8887 35.3474 38.8887V38.707C35.3474 38.0898 35.4606 37.541 35.6872 37.0605C35.9138 36.5801 36.238 36.207 36.6599 35.9414C37.0856 35.6758 37.5876 35.543 38.1657 35.543C38.8767 35.543 39.4665 35.7559 39.9353 36.1816C40.4079 36.6074 40.6599 37.1602 40.6911 37.8398H39.6657C39.6345 37.4297 39.4782 37.0938 39.197 36.832C38.9196 36.5664 38.5759 36.4336 38.1657 36.4336C37.6149 36.4336 37.1872 36.6328 36.8825 37.0312C36.5817 37.4258 36.4314 37.998 36.4314 38.748V38.9531C36.4314 39.6836 36.5817 40.2461 36.8825 40.6406C37.1833 41.0352 37.613 41.2324 38.1716 41.2324Z" fill="#232323"/>
<path d="M17.9997 16.22C17.9997 15.6337 18.0005 15.2552 18.0244 14.9672C18.0473 14.6912 18.0862 14.5892 18.1123 14.539C18.2072 14.3564 18.3561 14.2075 18.5387 14.1126C18.5889 14.0865 18.691 14.0476 18.9669 14.0247C19.2549 14.0008 19.6334 14 20.2197 14H34.7797C35.366 14 35.7445 14.0008 36.0325 14.0247C36.3085 14.0476 36.4105 14.0865 36.4607 14.1126C36.6433 14.2075 36.7922 14.3564 36.8871 14.539C36.9132 14.5892 36.9521 14.6912 36.975 14.9672C36.9989 15.2552 36.9997 15.6337 36.9997 16.22V19.3431C36.9997 20.0472 36.9891 20.186 36.9547 20.2968C36.9164 20.4198 36.8548 20.5343 36.7731 20.6339C36.6996 20.7236 36.5896 20.8089 36.0017 21.1965L28.7217 25.9965C28.008 26.467 27.8581 26.5479 27.7251 26.5787C27.5768 26.613 27.4226 26.613 27.2743 26.5787C27.1413 26.5479 26.9914 26.467 26.2777 25.9965L18.9977 21.1965C18.4099 20.8089 18.2998 20.7236 18.2263 20.6339L17.4529 21.2678L18.2263 20.6339C18.1446 20.5343 18.083 20.4198 18.0448 20.2968C18.0103 20.186 17.9997 20.0472 17.9997 19.3431V16.22Z" fill="white" stroke="#232323" stroke-width="2"/>
<path d="M26.9658 1.67424C27.5753 1.35344 27.7002 1.29926 27.8119 1.27789C27.936 1.25416 28.0634 1.25416 28.1875 1.27789C28.2993 1.29926 28.4241 1.35344 29.0337 1.67424L29.4994 0.789318L29.0337 1.67424L41.12 8.03548C42.0246 8.51158 42.6401 8.83667 43.0705 9.11697C43.5104 9.40346 43.598 9.54643 43.6171 9.5889L44.5287 9.17779L43.6171 9.5889C43.735 9.85029 43.735 10.1497 43.6171 10.4111L44.5287 10.8222L43.6171 10.4111C43.598 10.4536 43.5104 10.5965 43.0705 10.883C42.6401 11.1633 42.0246 11.4884 41.12 11.9645L29.0337 18.3258C28.4241 18.6466 28.2993 18.7007 28.1875 18.7221C28.0634 18.7458 27.936 18.7458 27.8119 18.7221C27.7002 18.7007 27.5753 18.6466 26.9658 18.3258L14.8794 11.9645C13.9748 11.4884 13.3594 11.1633 12.9289 10.883C12.489 10.5965 12.4015 10.4536 12.3823 10.4111C12.2644 10.1497 12.2644 9.85029 12.3823 9.5889C12.4015 9.54643 12.489 9.40346 12.9289 9.11697C13.3594 8.83667 13.9748 8.51159 14.8794 8.03548L26.9658 1.67424Z" fill="white" stroke="#232323" stroke-width="2"/>
<path d="M27.9997 10H41.7797C42.9187 10 43.4882 10 43.9217 10.2252C44.2869 10.4149 44.5848 10.7128 44.7745 11.0781C44.9997 11.5115 44.9997 12.081 44.9997 13.22V17" stroke="#232323" stroke-width="2" stroke-linecap="round"/>
</svg>
