<svg width="56" height="45" viewBox="0 0 56 45" fill="none" xmlns="http://www.w3.org/2000/svg">
<circle cx="27.9997" cy="10.7652" r="4.76471" stroke="#232323" stroke-width="2"/>
<path d="M37.8632 23.5636C36.8482 21.8493 35.4205 20.4162 33.7101 19.3948C31.9996 18.3735 30.0608 17.7963 28.0702 17.7158C26.0797 17.6353 24.1006 18.0542 22.3133 18.9342C20.526 19.8142 18.9873 21.1273 17.8373 22.7541L19.314 23.7981C20.2898 22.4177 21.5955 21.3034 23.1122 20.5567C24.6288 19.81 26.3081 19.4545 27.9972 19.5228C29.6863 19.5911 31.3315 20.0809 32.7829 20.9476C34.2343 21.8143 35.4458 23.0303 36.307 24.485L37.8632 23.5636Z" fill="#232323"/>
<circle cx="27.9997" cy="14.4121" r="13" stroke="#232323" stroke-width="2"/>
<path d="M10.9021 39.7739H7.32784L6.5251 42.0005H5.36494L8.62276 33.4692H9.60713L12.8708 42.0005H11.7165L10.9021 39.7739ZM7.66768 38.8481H10.5681L9.11494 34.8579L7.66768 38.8481ZM15.8239 39.2993H15.0329V42.0005H13.9431V35.6606H15.0329V38.3442H15.7419L17.8747 35.6606H19.1872L16.6794 38.7075L19.3981 42.0005H18.0212L15.8239 39.2993ZM22.3044 39.2993H21.5134V42.0005H20.4235V35.6606H21.5134V38.3442H22.2224L24.3552 35.6606H25.6677L23.1599 38.7075L25.8786 42.0005H24.5017L22.3044 39.2993ZM30.7243 42.0005C30.6618 41.8755 30.611 41.6528 30.572 41.3325C30.0681 41.856 29.4665 42.1177 28.7673 42.1177C28.1423 42.1177 27.6286 41.9419 27.2263 41.5903C26.8278 41.2349 26.6286 40.7856 26.6286 40.2427C26.6286 39.5825 26.8786 39.0708 27.3786 38.7075C27.8825 38.3403 28.5896 38.1567 29.4997 38.1567H30.5544V37.6587C30.5544 37.2798 30.4411 36.979 30.2146 36.7563C29.988 36.5298 29.654 36.4165 29.2126 36.4165C28.8259 36.4165 28.5017 36.5142 28.2399 36.7095C27.9782 36.9048 27.8474 37.1411 27.8474 37.4185H26.7575C26.7575 37.1021 26.8689 36.7974 27.0915 36.5044C27.3181 36.2075 27.6228 35.9731 28.0056 35.8013C28.3923 35.6294 28.8161 35.5435 29.2771 35.5435C30.0075 35.5435 30.5798 35.7271 30.9939 36.0942C31.4079 36.4575 31.6228 36.9595 31.6384 37.6001V40.5181C31.6384 41.1001 31.7126 41.563 31.861 41.9067V42.0005H30.7243ZM28.9255 41.1743C29.2653 41.1743 29.5876 41.0864 29.8923 40.9106C30.197 40.7349 30.4177 40.5063 30.5544 40.2251V38.9243H29.7048C28.3767 38.9243 27.7126 39.313 27.7126 40.0903C27.7126 40.4302 27.8259 40.6958 28.0524 40.8872C28.279 41.0786 28.57 41.1743 28.9255 41.1743ZM35.3181 40.4126L36.7946 35.6606H37.9548L35.406 42.979C35.0114 44.0337 34.3845 44.561 33.5251 44.561L33.32 44.5435L32.9157 44.4673V43.5884L33.2087 43.6118C33.5759 43.6118 33.861 43.5376 34.0642 43.3892C34.2712 43.2407 34.4411 42.9692 34.5739 42.5747L34.8142 41.9302L32.5524 35.6606H33.736L35.3181 40.4126ZM44.1071 42.0005H43.0231V39.2935H40.111V42.0005H39.0212V35.6606H40.111V38.4087H43.0231V35.6606H44.1071V42.0005ZM50.5642 36.5396H48.4372V42.0005H47.3532V36.5396H45.2673V35.6606H50.5642V36.5396Z" fill="#232323"/>
</svg>
